<svg viewBox="0 0 61 38" xmlns="http://www.w3.org/2000/svg"><path d="m0 0h61v38h-61z" fill="none"/><path d="m48.12 13.05a11.94 11.94 0 0 0 -1.51.1 16.66 16.66 0 0 0 -32.18 0 12 12 0 0 0 -1.51-.1 12.14 12.14 0 1 0 0 24.27h35.2a12.14 12.14 0 1 0 0-24.27zm0 18.27h-35.2a6.32 6.32 0 0 1 -6.47-6.27 6.39 6.39 0 0 1 6.47-6.36 6.54 6.54 0 0 1 5.59 3.31l5-2.86a12.15 12.15 0 0 0 -3.64-3.91 10.91 10.91 0 0 1 10.65-8.71 10.63 10.63 0 0 1 8.92 16.81h6.51a12.26 12.26 0 0 0 1.15-4.61 6.3 6.3 0 0 1 1 0 6.31 6.31 0 1 1 0 12.62z" fill="#ddd"/></svg>