<svg viewBox="0 0 61 57" xmlns="http://www.w3.org/2000/svg"><path d="m0 0h61v57h-61z" fill="none"/><g fill="#69a2d5"><circle cx="17.62" cy="41.7" r="1.45"/><circle cx="24.05" cy="41.7" r="1.45"/><circle cx="30.49" cy="41.7" r="1.45"/><circle cx="36.92" cy="41.7" r="1.45"/><circle cx="43.35" cy="41.7" r="1.45"/><circle cx="17.62" cy="48.14" r="1.45"/><circle cx="24.05" cy="48.14" r="1.45"/><circle cx="30.49" cy="48.14" r="1.45"/><circle cx="36.92" cy="48.14" r="1.45"/><circle cx="43.35" cy="48.14" r="1.45"/><circle cx="24.05" cy="54.58" r="1.45"/><circle cx="30.49" cy="54.58" r="1.45"/><circle cx="36.92" cy="54.58" r="1.45"/></g><path d="m48.09 12.38a12.32 12.32 0 0 0 -1.51.1 16.65 16.65 0 0 0 -32.18 0 11.68 11.68 0 0 0 -1.51-.1 12.19 12.19 0 1 0 0 24.38h35.2a12.19 12.19 0 1 0 0-24.38zm0 18.38h-35.21a6.35 6.35 0 1 1 0-12.7 6.53 6.53 0 0 1 5.6 3.26l5-2.87a12.19 12.19 0 0 0 -3.64-3.92 10.9 10.9 0 0 1 21.57 2.08 10.84 10.84 0 0 1 -2 6.14h6.51a12.51 12.51 0 0 0 1.15-4.66 6.38 6.38 0 1 1 1 12.66z" fill="#636363"/></svg>