<svg viewBox="0 0 61 23" xmlns="http://www.w3.org/2000/svg"><path d="m0 0h61v23h-61z" fill="none"/><g fill="#fff"><path d="m1.07 1h14.8v3.89h-10.17v4.86h8.82v3.6h-8.82v8.65h-4.63z"/><path d="m27.83.49c6.51 0 10.35 4.86 10.35 11.11 0 6.07-3.83 10.94-10.35 10.94s-10.34-4.86-10.34-10.93c0-6.25 3.83-11.12 10.34-11.12zm0 18.16c4.16 0 5.72-3.54 5.72-7 0-3.69-1.56-7.22-5.72-7.22s-5.72 3.54-5.72 7.22c.01 3.46 1.57 7 5.72 7z"/><path d="m56.4 19.65a7.13 7.13 0 0 1 -5.78 2.89c-6.51 0-10.35-4.86-10.35-10.94.01-6.24 3.84-11.11 10.35-11.11 4.3 0 8.37 2.65 8.87 7.43h-4.41a4.31 4.31 0 0 0 -4.45-3.54c-4.16 0-5.72 3.54-5.72 7.22 0 3.51 1.56 7 5.72 7 3 0 4.75-1.62 5-4.54h-4.63v-3.4h8.84v11.34h-2.97z"/></g></svg>