<svg viewBox="0 0 80.58 65.74" xmlns="http://www.w3.org/2000/svg"><path d="m0 0h80.58v65.74h-80.58z" fill="none"/><path d="m50.08 12.5h-5v-12h5z" fill="#f7d34c"/><path d="m50.08 65.5h-5v-12h5z" fill="#f7d34c"/><path d="m68.08 35.5v-5h12v5z" fill="#f7d34c"/><path d="m61.5 62.63-5.99-10.36 4.98-2.88 5.99 10.37z" fill="#f7d34c"/><path d="m66.98 25.19-2.88-4.98 10.37-5.98 2.88 4.97z" fill="#f7d34c"/><path d="m74.47 51.77-10.37-5.99 2.87-4.98 10.38 5.99z" fill="#f7d34c"/><path d="m60.49 16.6-4.98-2.87 5.99-10.37 4.98 2.87z" fill="#f7d34c"/><path d="m47.7 20.78a12.21 12.21 0 0 0 -1.51.1 16.65 16.65 0 0 0 -32.18 0 12 12 0 0 0 -1.51-.1 12.36 12.36 0 0 0 0 24.72h7.59v-6h-7.6a6.48 6.48 0 1 1 5.6-9.74l5-2.89a12.25 12.25 0 0 0 -3.67-3.87 10.9 10.9 0 0 1 21.58 2.19 11.36 11.36 0 0 1 -2 6.31h6.51a21.72 21.72 0 0 0 1.15-4.83 6.46 6.46 0 1 1 1 12.83h-7.58v6h7.62a12.36 12.36 0 0 0 0-24.72z" fill="#636363"/><g fill="#c9c9c9"><path d="m26.19 40.9 7.78 7.77"/><path d="m28.66 50.1 2.85-10.63"/><path d="m35.4 43.36-10.63 2.85"/><circle cx="30.08" cy="44.78" r="5.5"/><path d="m13.34 51.45 7.78 7.78"/><path d="m15.81 60.65 2.84-10.62"/><path d="m22.54 53.91-10.63 2.85"/><circle cx="17.23" cy="55.34" r="5.5"/></g></svg>