<svg viewBox="0 0 80.25 61.74" xmlns="http://www.w3.org/2000/svg"><path d="m0 0h80.07v61.74h-80.07z" fill="none"/><path d="m78 28.81a17.67 17.67 0 0 1 -14.11-28.4 17.69 17.69 0 0 0 -15.45 17.46 15 15 0 0 1 14.14 17.38 17.77 17.77 0 0 0 17.67-6.59 17.61 17.61 0 0 1 -2.25.15z" fill="#b3b3b3"/><path d="m47.67 20.71a11.91 11.91 0 0 0 -1.51.1 16.66 16.66 0 0 0 -32.18 0 12.09 12.09 0 0 0 -1.51-.1 12.39 12.39 0 0 0 0 24.79h8v-6h-8a6.51 6.51 0 1 1 5.6-9.81l5-2.89a12.23 12.23 0 0 0 -3.64-3.92 10.9 10.9 0 0 1 21.57 2.28 11.48 11.48 0 0 1 -2 6.34h6.5a21.93 21.93 0 0 0 1.15-4.86 6.27 6.27 0 0 1 1-.14 6.5 6.5 0 0 1 0 13h-7.15v6h7.17a12.39 12.39 0 0 0 0-24.79z" fill="#636363"/><g fill="#c9c9c9"><path d="m26.12 40.71 7.78 7.77"/><path d="m28.59 49.91 2.84-10.63"/><path d="m35.32 43.17-10.62 2.85"/><circle cx="30.01" cy="44.59" r="5.5"/><path d="m13.26 51.26 7.78 7.78"/><path d="m15.73 60.46 2.85-10.62"/><path d="m22.47 53.73-10.63 2.85"/><circle cx="17.15" cy="55.15" r="5.5"/></g></svg>