<svg viewBox="0 0 61 54" xmlns="http://www.w3.org/2000/svg"><path d="m0 0h61v54h-61z" fill="none"/><path d="m48.17 12.85a12.31 12.31 0 0 0 -1.51.1 16.65 16.65 0 0 0 -32.18 0 11.9 11.9 0 0 0 -1.51-.1 12.45 12.45 0 0 0 0 24.9h7.46v-6h-7.43a6.55 6.55 0 0 1 0-13.1 6.47 6.47 0 0 1 5.6 3.2l5-2.9a12.26 12.26 0 0 0 -3.71-3.95 10.92 10.92 0 0 1 10.68-8.68 11 11 0 0 1 10.9 11 11.65 11.65 0 0 1 -2 6.4h6.53a22.35 22.35 0 0 0 1.15-4.92 6.45 6.45 0 0 1 1-.16 6.54 6.54 0 0 1 0 13.08h-7.72v6h7.75a12.45 12.45 0 0 0 0-24.9z" fill="#636363"/><g fill="#c9c9c9"><path d="m26.67 32.96 7.78 7.78"/><path d="m29.14 42.17 2.84-10.63"/><path d="m35.87 35.43-10.62 2.84"/><circle cx="30.56" cy="36.85" r="5.5"/><path d="m13.81 43.52 7.78 7.78"/><path d="m16.28 52.72 2.85-10.62"/><path d="m23.02 45.98-10.63 2.85"/><circle cx="17.7" cy="47.41" r="5.5"/></g></svg>