<svg viewBox="0 0 80.04 62.12" xmlns="http://www.w3.org/2000/svg"><path d="m0 0h80v62h-80z" fill="none"/><path d="m77.77 29a17.66 17.66 0 0 1 -14.08-28.36 17.69 17.69 0 0 0 -15.46 17.46 15 15 0 0 1 14.14 17.38 17.77 17.77 0 0 0 17.63-6.59 17.67 17.67 0 0 1 -2.23.11z" fill="#b3b3b3"/><path d="m47.47 20.95a12.12 12.12 0 0 0 -1.47.05 16.66 16.66 0 0 0 -32.18 0 12.17 12.17 0 1 0 -1.51 24.24h7.19v-6h-7.24a6.34 6.34 0 1 1 0-12.67 6.53 6.53 0 0 1 5.6 3.26l5-2.86a12.16 12.16 0 0 0 -3.64-3.91 10.91 10.91 0 0 1 10.68-8.68 10.68 10.68 0 0 1 8.92 16.86h6.51a12.42 12.42 0 0 0 1.15-4.64 6.29 6.29 0 0 1 1 0 6.33 6.33 0 1 1 0 12.66h-8v6h8a12.17 12.17 0 1 0 0-24.33z" fill="#636363"/><g fill="#c9c9c9"><path d="m33.56 50.93-9.04-9.03 1.81-1.8 9.03 9.03z"/><path d="m29.52 52.02-2.46-.67 3.3-12.33 2.47.65z"/><path d="m24.11 48.4-.67-2.47 12.34-3.3.66 2.47z"/><path d="m20.46 61.04-9.03-9.03 1.81-1.8 9.03 9.03z"/><path d="m16.43 62.12-2.47-.66 3.31-12.34 2.47.66z"/><path d="m11.01 58.51-.66-2.47 12.34-3.3.66 2.47z"/></g></svg>