<svg viewBox="0 0 81.11 65.6" xmlns="http://www.w3.org/2000/svg"><path d="m0 .05h81.11v65.55h-81.11z" fill="none"/><path d="m19.62 59.69c0-.07 0-.14 0-.21l1-11.5-9.92 5.57a6.18 6.18 0 0 0 -3 5.33 6 6 0 0 0 6 6c3.08 0 5.94-2.24 5.94-5.21z" fill="#7ab4df"/><path d="m35.82 45.56c0-.07.12-.14.13-.21l1.05-11.35-9.9 5.72a6 6 0 0 0 -3 5.18 5.8 5.8 0 0 0 5.78 6 5.55 5.55 0 0 0 5.74-5.29z" fill="#7ab4df"/><path d="m78.48 28.4a17.66 17.66 0 0 1 -14.09-28.4 17.69 17.69 0 0 0 -15.45 17.46 15.09 15.09 0 0 1 14.33 15 14.84 14.84 0 0 1 -.19 2.35 17.76 17.76 0 0 0 17.67-6.59 17.45 17.45 0 0 1 -2.27.18z" fill="#b3b3b3"/><path d="m48.17 20.31a11.83 11.83 0 0 0 -1.51.1 16.66 16.66 0 0 0 -32.18 0 12.13 12.13 0 1 0 -1.48 24.14h7.64v-6h-7.64a6.3 6.3 0 0 1 -6.5-6.25 6.38 6.38 0 0 1 6.5-6.36 6.54 6.54 0 0 1 5.6 3.27l5-2.85a12.14 12.14 0 0 0 -3.64-3.91 10.91 10.91 0 0 1 10.68-8.68 10.75 10.75 0 0 1 10.9 10.7c0 2.25-.68 5.07-2 6.07h6.46a12.19 12.19 0 0 0 1.15-4.54 6.41 6.41 0 0 1 1 0 6.3 6.3 0 1 1 0 12.59h-7.54v6h7.57a12.12 12.12 0 1 0 0-24.24z" fill="#636363"/></svg>