<svg viewBox="0 0 61 57.09" xmlns="http://www.w3.org/2000/svg"><path d="m0 .01h61v57h-61z" fill="none"/><path d="m48.17 12.28a12.21 12.21 0 0 0 -1.51.1 16.65 16.65 0 0 0 -32.18 0 11.88 11.88 0 0 0 -1.51-.1 12 12 0 1 0 0 24.06h8v-5h-7.97a6.64 6.64 0 0 1 -6.5-6.65 6.55 6.55 0 0 1 6.5-6.56 6.45 6.45 0 0 1 5.6 3.18l5-2.91a12.26 12.26 0 0 0 -3.64-3.94 10.92 10.92 0 0 1 10.61-8.71 11.1 11.1 0 0 1 10.9 11.12 11.9 11.9 0 0 1 -2 6.47h6.53a22.94 22.94 0 0 0 1.15-5 6.72 6.72 0 0 1 1-.2 6.6 6.6 0 0 1 0 13.2h-7.22v5h7.25a12 12 0 1 0 0-24.06z" fill="#636363"/><g fill="#7ab4df"><path d="m19.78 51.76c0-.07-.06-.14-.06-.21l1.06-11.37-9.85 5.72a5.7 5.7 0 0 0 -3.13 5.2 6.07 6.07 0 0 0 6.08 6c3.07 0 5-2.32 6-5.3z"/><path d="m36 37.6c0-.07 0-.14 0-.21l1-11.58-9.92 5.52a6.28 6.28 0 0 0 -3 5.4 6 6 0 0 0 5.92 6.1c3.07 0 5.89-2.27 5.89-5.25z"/></g></svg>