<svg viewBox="0 0 80.82 67" xmlns="http://www.w3.org/2000/svg"><path d="m0 0h80.82v67h-80.82z" fill="none"/><path d="m50.5 12.64h-5v-12h5z" fill="#f7d34c"/><path d="m50.5 65.64h-5v-12h5z" fill="#f7d34c"/><path d="m68.5 36.64v-6h12v6z" fill="#f7d34c"/><path d="m61.72 63.1-5.99-10.37 4.98-2.87 5.99 10.36z" fill="#f7d34c"/><path d="m67.2 25.65-2.87-4.97 10.37-5.99 2.87 4.98z" fill="#f7d34c"/><path d="m74.7 52.23-10.37-5.99 2.87-4.97 10.37 5.99z" fill="#f7d34c"/><path d="m60.71 17.07-4.98-2.88 5.99-10.37 4.98 2.88z" fill="#f7d34c"/><path d="m47.92 21.25a12.3 12.3 0 0 0 -1.51.1 16.65 16.65 0 0 0 -32.18 0 11.88 11.88 0 0 0 -1.51-.1 12.2 12.2 0 1 0 0 24.39h7.78v-6h-7.79a6.36 6.36 0 1 1 0-12.72 6.53 6.53 0 0 1 5.6 3.26l5-2.87a12.2 12.2 0 0 0 -3.64-3.92 10.88 10.88 0 1 1 19.6 8.23h6.51a12.53 12.53 0 0 0 1.12-4.62 6.46 6.46 0 0 1 1 0 6.35 6.35 0 1 1 0 12.7h-7.4v6h7.42a12.2 12.2 0 1 0 0-24.39z" fill="#636363"/><g fill="#c9c9c9"><path d="m33.99 51.34-9.03-9.03 1.81-1.81 9.03 9.03z"/><path d="m29.96 52.42-2.47-.66 3.31-12.34 2.47.66z"/><path d="m24.54 48.81-.66-2.47 12.34-3.31.66 2.47z"/><path d="m20.9 61.45-9.03-9.03 1.8-1.81 9.03 9.03z"/><path d="m16.87 62.53-2.47-.66 3.3-12.34 2.47.66z"/><path d="m11.45 58.92-.66-2.47 12.33-3.31.67 2.47z"/><path d="m33.99 51.34-9.03-9.03 1.81-1.81 9.03 9.03z"/><path d="m29.96 52.42-2.47-.66 3.31-12.34 2.47.66z"/><path d="m24.54 48.81-.66-2.47 12.34-3.31.66 2.47z"/></g></svg>