<svg viewBox="0 0 81.15 67.17" xmlns="http://www.w3.org/2000/svg"><path d="m0 0h81.15v67.17h-81.15z" fill="none"/><g fill="#f7d34c"><path d="m50.65 11.5h-5v-11h5z"/><path d="m50.65 65.5h-5v-12h5z"/><path d="m68.65 35.5v-6h12v6z"/><path d="m61.92 62.22-5.98-10.36 4.97-2.88 5.99 10.37z"/><path d="m67.4 24.78-2.87-4.98 10.37-5.98 2.87 4.97z"/><path d="m74.9 51.35-10.37-5.98 2.87-4.97 10.37 5.98z"/><path d="m60.91 16.19-4.97-2.87 5.98-10.37 4.98 2.87z"/></g><path d="m48.13 20.38a12.39 12.39 0 0 0 -1.51.1 16.65 16.65 0 0 0 -32.19 0 11.78 11.78 0 0 0 -1.51-.1 12.06 12.06 0 1 0 0 24.12h7.74v-5h-7.74a6.67 6.67 0 0 1 -6.47-6.69 6.57 6.57 0 0 1 6.47-6.58 6.45 6.45 0 0 1 5.6 3.17l5-2.91a12.27 12.27 0 0 0 -3.64-3.94 10.92 10.92 0 0 1 10.68-8.71 10.7 10.7 0 0 1 10.9 10.65c0 2.25-.68 5-2 6h6.51a11.83 11.83 0 0 0 1.13-4.49 6.58 6.58 0 0 1 1 0 6.76 6.76 0 0 1 0 13.5h-7.45v5h7.47a12.06 12.06 0 1 0 0-24.12z" fill="#636363"/><path d="m19.58 59.85c0-.07 0-.14 0-.21l1-11.37-9.93 5.73a6 6 0 1 0 8.92 5.88z" fill="#7ab4df"/><path d="m36 45.69v-.21l1-11.54-9.94 5.56a6.23 6.23 0 0 0 -3 5.37 6.06 6.06 0 0 0 6 6.07 6 6 0 0 0 5.94-5.26z" fill="#7ab4df"/></svg>