<svg viewBox="0 0 62 55.02" xmlns="http://www.w3.org/2000/svg"><path d="m0 0h62v55h-62z" fill="none"/><path d="m49.08 13.74a12.41 12.41 0 0 0 -1.51.1 16.65 16.65 0 0 0 -32.18 0 11.79 11.79 0 0 0 -1.51-.1 12.2 12.2 0 1 0 0 24.4h7.56v-6h-7.57a6.36 6.36 0 1 1 0-12.72 6.53 6.53 0 0 1 5.6 3.26l5-2.87a12.18 12.18 0 0 0 -3.67-3.91 10.9 10.9 0 0 1 21.57 2.1 10.87 10.87 0 0 1 -2 6.15h6.53a12.59 12.59 0 0 0 1.15-4.67 6.5 6.5 0 0 1 1 0 6.35 6.35 0 1 1 0 12.7h-7.62v6h7.65a12.2 12.2 0 1 0 0-24.4z" fill="#636363"/><g fill="#c9c9c9"><path d="m35.15 43.83-9.04-9.03 1.81-1.8 9.03 9.03z"/><path d="m31.11 44.92-2.47-.67 3.31-12.33 2.47.66z"/><path d="m25.69 41.3-.66-2.47 12.34-3.3.66 2.47z"/><path d="m22.05 53.94-9.03-9.03 1.81-1.8 9.03 9.03z"/><path d="m18.02 55.02-2.47-.66 3.31-12.34 2.47.67z"/><path d="m12.6 51.41-.66-2.47 12.34-3.3.66 2.47z"/></g></svg>