<svg viewBox="0 0 80.56 66" xmlns="http://www.w3.org/2000/svg"><path d="m0 0h80.56v66h-80.56z" fill="none"/><g fill="#f7d34c"><path d="m51.06 12.64h-6v-12h6z"/><path d="m51.06 65.64h-6v-12h6z"/><path d="m68.06 36.64v-6h12v6z"/><path d="m61.52 63.09-5.98-10.37 4.98-2.87 5.98 10.37z"/><path d="m67 25.65-2.87-4.98 10.37-5.99 2.87 4.98z"/><path d="m74.5 52.22-10.37-5.98 2.87-4.98 10.37 5.99z"/><path d="m60.52 17.06-4.98-2.87 5.98-10.37 4.98 2.87z"/></g><path d="m47.73 21.24a12.14 12.14 0 0 0 -1.51.1 16.65 16.65 0 0 0 -32.18 0 11.72 11.72 0 0 0 -1.51-.1 12.2 12.2 0 1 0 0 24.4h7.54v-6h-7.56a6.36 6.36 0 1 1 0-12.72 6.53 6.53 0 0 1 5.6 3.26l5-2.87a12.17 12.17 0 0 0 -3.64-3.92 10.88 10.88 0 1 1 19.53 8.25h6.51a12.6 12.6 0 0 0 1.19-4.64 6.28 6.28 0 0 1 1 0 6.35 6.35 0 1 1 0 12.7h-7.64v6h7.67a12.2 12.2 0 1 0 0-24.4z" fill="#636363"/><path d="m33.79 51.33-9.03-9.03 1.81-1.81 9.03 9.04z" fill="#c9c9c9"/><path d="m29.76 52.41-2.47-.66 3.31-12.34 2.47.66z" fill="#c9c9c9"/><path d="m24.34 48.8-.66-2.47 12.34-3.31.66 2.47z" fill="#c9c9c9"/></svg>