<svg viewBox="0 0 81.08 52" xmlns="http://www.w3.org/2000/svg"><path d="m0 0h81.08v52h-81.08z" fill="none"/><path d="m36.06 46.2c0-.07 0-.14 0-.21l1-11.35-9.93 5.72a6 6 0 1 0 8.92 5.87z" fill="#7ab4df"/><path d="m78.5 29a17.66 17.66 0 0 1 -14.08-28.36 17.69 17.69 0 0 0 -15.42 17.46 15.09 15.09 0 0 1 14.33 15 14.86 14.86 0 0 1 -.19 2.35 17.77 17.77 0 0 0 17.67-6.59 17.53 17.53 0 0 1 -2.31.14z" fill="#b3b3b3"/><path d="m48.2 20.95a12 12 0 0 0 -1.51.1 16.66 16.66 0 0 0 -32.19-.05 12.22 12.22 0 1 0 -1.5 24.39h7.59v-6h-7.59a6.38 6.38 0 1 1 0-12.76 6.52 6.52 0 0 1 5.6 3.24l5-2.86a12.19 12.19 0 0 0 -3.64-3.91 10.88 10.88 0 1 1 19.6 8.29h6.44a12.74 12.74 0 0 0 1.15-4.69 6.25 6.25 0 0 1 1 0 6.37 6.37 0 1 1 0 12.74h-7.57v6h7.62a12.22 12.22 0 0 0 0-24.44z" fill="#636363"/></svg>