<svg viewBox="0 0 81 51.75" xmlns="http://www.w3.org/2000/svg"><path d="m0 0h81v51.74h-81z" fill="none"/><path d="m78.41 28.66a17.66 17.66 0 0 1 -14.09-28.4 17.69 17.69 0 0 0 -15.45 17.46 15 15 0 0 1 14.13 17.38 17.77 17.77 0 0 0 17.67-6.59 17.5 17.5 0 0 1 -2.26.15z" fill="#b3b3b3"/><path d="m48.1 20.62a12.3 12.3 0 0 0 -1.51.1 16.65 16.65 0 0 0 -32.18 0 11.86 11.86 0 0 0 -1.51-.1 12.44 12.44 0 0 0 0 24.88h7.46v-6h-7.47a6.54 6.54 0 0 1 0-13.08 6.47 6.47 0 0 1 5.6 3.2l5-2.9a12.25 12.25 0 0 0 -3.64-3.93 10.9 10.9 0 0 1 21.57 2.32 11.62 11.62 0 0 1 -2 6.39h6.51a22.23 22.23 0 0 0 1.15-4.91 6.41 6.41 0 0 1 1-.15 6.53 6.53 0 0 1 0 13.07h-7.73v6h7.75a12.44 12.44 0 0 0 0-24.88z" fill="#636363"/><g fill="#c9c9c9"><path d="m34.04 50.67-9.03-9.04 1.8-1.8 9.04 9.03z"/><path d="m30.01 51.75-2.47-.66 3.31-12.34 2.46.66z"/><path d="m24.59 48.13-.66-2.46 12.34-3.31.66 2.47z"/></g></svg>