<svg viewBox="0 0 80.57 66.36" xmlns="http://www.w3.org/2000/svg"><path d="m0 0h80.57v66.36h-80.57z" fill="none"/><g fill="#f7d34c"><path d="m50.5 12.5h-5v-12h5z"/><path d="m50.5 65.5h-5v-12h5z"/><path d="m68.5 35.5v-6h12v6z"/><path d="m61.69 62.38-5.99-10.37 4.98-2.87 5.99 10.36z"/><path d="m67.17 24.93-2.88-4.97 10.37-5.99 2.88 4.98z"/><path d="m74.66 51.51-10.37-5.99 2.88-4.97 10.37 5.98z"/><path d="m60.68 16.34-4.98-2.87 5.99-10.37 4.98 2.88z"/></g><path d="m47.89 20.53a12.12 12.12 0 0 0 -1.51.1 16.65 16.65 0 0 0 -32.18 0 11.68 11.68 0 0 0 -1.51-.1 12 12 0 1 0 0 24h7.81v-5h-7.82a6.6 6.6 0 0 1 -6.47-6.61 6.54 6.54 0 0 1 6.47-6.54 6.46 6.46 0 0 1 5.6 3.19l5-2.9a12.27 12.27 0 0 0 -3.64-3.93 10.92 10.92 0 0 1 10.64-8.74 11.06 11.06 0 0 1 10.9 11.07 11.76 11.76 0 0 1 -2 6.43h6.51a22.51 22.51 0 0 0 1.15-5 6.6 6.6 0 0 1 1-.17 6.57 6.57 0 0 1 0 13.13h-7.34v5h7.39a12 12 0 1 0 0-24z" fill="#636363"/><path d="m35.5 45.85c0-.07.14-.14.15-.21l1-11.37-9.85 5.73a6 6 0 0 0 -3 5.2 5.83 5.83 0 0 0 6 5.8 6.14 6.14 0 0 0 6-5.49h-.3z" fill="#7ab4df"/></svg>