<svg viewBox="0 0 61 45" xmlns="http://www.w3.org/2000/svg"><path d="m0 0h61v45h-61z" fill="none"/><path d="m48.41 12.83a12.24 12.24 0 0 0 -1.51.1 16.65 16.65 0 0 0 -32.18 0 11.81 11.81 0 0 0 -1.51-.1 12 12 0 1 0 0 23.93h7.73v-5h-7.74a6.56 6.56 0 0 1 0-13.12 6.47 6.47 0 0 1 5.6 3.2l5-2.9a12.23 12.23 0 0 0 -3.68-3.94 10.92 10.92 0 0 1 10.68-8.71 11 11 0 0 1 10.9 11.06 11.7 11.7 0 0 1 -2 6.41h6.51a22.46 22.46 0 0 0 1.15-4.94 6.63 6.63 0 0 1 1-.16 6.55 6.55 0 0 1 0 13.1h-7.43v5h7.48a12 12 0 1 0 0-23.93z" fill="#636363"/><g fill="#c9c9c9"><path d="m34.47 42.92-9.03-9.03 1.81-1.81 9.03 9.03z"/><path d="m30.44 44-2.47-.66 3.31-12.34 2.47.66z"/><path d="m25.02 40.39-.66-2.47 12.34-3.31.66 2.47z"/></g></svg>