<svg viewBox="0 0 70 22.32" xmlns="http://www.w3.org/2000/svg"><path d="m0 0h70v22h-70z" fill="none"/><g fill="#fff"><path d="m.22.76h6.52l4.92 14.48h.06l4.66-14.48h6.52v21.06h-4.33v-14.92h-.06l-5.16 14.92h-3.57l-5.16-14.82h-.06v14.82h-4.34z"/><path d="m26.23.76h4.63v21.06h-4.63z"/><path d="m37.94 14.83c0 2.8 2.18 3.89 4.66 3.89 1.62 0 4.1-.47 4.1-2.62s-3.16-2.65-6.25-3.48-6.28-2-6.28-6c0-4.29 4.07-6.36 7.83-6.36 4.39 0 8.43 1.92 8.43 6.78h-4.43c-.15-2.53-2-3.18-4.16-3.18-1.47 0-3.19.62-3.19 2.39s1 1.83 6.28 3.18c1.54.39 6.25 1.36 6.25 6.13 0 3.86-3 6.75-8.76 6.75-4.66 0-9-2.3-9-7.49z"/><path d="m58.44 4.65h-6.31v-3.89h17.25v3.89h-6.31v17.17h-4.63z"/></g></svg>