<svg viewBox="0 0 80.26 47" xmlns="http://www.w3.org/2000/svg"><path d="m0 0h80v47h-80z" fill="none"/><path d="m78 29.8a17.66 17.66 0 0 1 -14.1-28.4 17.69 17.69 0 0 0 -15.45 17.46 15 15 0 0 1 14.14 17.39 17.76 17.76 0 0 0 17.67-6.59 17.31 17.31 0 0 1 -2.26.14z" fill="#b3b3b3"/><path d="m47.68 21.71a12 12 0 0 0 -1.51.1 16.66 16.66 0 0 0 -32.17-.01 12.18 12.18 0 1 0 -1.51 24.27h35.19a12.18 12.18 0 1 0 0-24.37zm0 18.37h-35.2a6.35 6.35 0 1 1 0-12.7 6.53 6.53 0 0 1 5.6 3.25l5-2.86a12.15 12.15 0 0 0 -3.64-3.91 10.88 10.88 0 1 1 19.56 8.21h6.51a12.49 12.49 0 0 0 1.15-4.66 6.3 6.3 0 0 1 1 0 6.34 6.34 0 1 1 0 12.69z" fill="#ddd"/></svg>