<svg viewBox="0 0 81.07 67.1" xmlns="http://www.w3.org/2000/svg"><path d="m81.07 67.1h-81.07l.07-67 81-.1z" fill="none"/><g fill="#f7d34c"><path d="m50.5 12.5h-6v-12h6z"/><path d="m50.5 65.5h-6v-12h6z"/><path d="m68.5 36.5v-6h12v6z"/><path d="m61.41 63.02-5.99-10.36 4.98-2.88 5.99 10.37z"/><path d="m66.89 25.58-2.87-4.97 10.37-5.99 2.87 4.98z"/><path d="m74.39 52.16-10.37-5.99 2.87-4.97 10.37 5.98z"/><path d="m60.4 16.99-4.98-2.87 5.99-10.37 4.98 2.88z"/></g><path d="m47.61 21.18a12.21 12.21 0 0 0 -1.51.1 16.65 16.65 0 0 0 -32.18 0 11.7 11.7 0 0 0 -1.51-.1 12.16 12.16 0 1 0 0 24.32h35.2a12.16 12.16 0 1 0 0-24.32zm0 18.32h-35.21a6.32 6.32 0 0 1 -6.47-6.29 6.4 6.4 0 0 1 6.47-6.38 6.54 6.54 0 0 1 5.6 3.28l5-2.86a12.17 12.17 0 0 0 -3.64-3.91 10.91 10.91 0 0 1 10.64-8.71 10.68 10.68 0 0 1 8.93 16.87h6.51a12.42 12.42 0 0 0 1.15-4.63 6.42 6.42 0 0 1 1 0 6.33 6.33 0 1 1 0 12.65z" fill="#ddd"/></svg>