<svg viewBox="0 0 61 58" xmlns="http://www.w3.org/2000/svg"><path d="m0 0h61v58h-61z" fill="none"/><path d="m48 12.8a12.2 12.2 0 0 0 -1.51.1 16.65 16.65 0 0 0 -32.18 0 11.81 11.81 0 0 0 -1.51-.1 12.27 12.27 0 0 0 0 24.53h7.68v-6h-7.73a6.41 6.41 0 1 1 0-12.82 6.51 6.51 0 0 1 5.6 3.25l5-2.88a12.23 12.23 0 0 0 -3.67-3.88 10.9 10.9 0 0 1 21.57 2.15 11.07 11.07 0 0 1 -2 6.22h6.51a12.93 12.93 0 0 0 1.15-4.74 6.42 6.42 0 1 1 1 12.74h-7.48v6h7.57a12.27 12.27 0 0 0 0-24.57z" fill="#636363"/><path d="m19.41 52.27c0-.07 0-.14 0-.21l1-11.42-9.93 5.69a6 6 0 1 0 8.92 6z" fill="#7ab4df"/><g fill="#c9c9c9"><path d="m34.03 42.88-9.03-9.03 1.8-1.8 9.04 9.03z"/><path d="m30 43.97-2.47-.67 3.3-12.33 2.47.66z"/><path d="m24.58 40.35-.67-2.47 12.34-3.3.66 2.47z"/></g></svg>