<svg viewBox="0 0 82.06 65.6" xmlns="http://www.w3.org/2000/svg"><path d="m0 0h82.06v65.6h-82.06z" fill="none"/><path d="m79.41 28.51a17.67 17.67 0 0 1 -14.09-28.4 17.69 17.69 0 0 0 -15.45 17.46 15.09 15.09 0 0 1 14.33 15 14.85 14.85 0 0 1 -.2 2.43 17.77 17.77 0 0 0 17.67-6.59 17.62 17.62 0 0 1 -2.26.1z" fill="#b3b3b3"/><path d="m49.1 20.46a12.14 12.14 0 0 0 -1.51.1 16.65 16.65 0 0 0 -32.18 0 11.8 11.8 0 0 0 -1.51-.1 12 12 0 1 0 0 24h7.67v-5h-7.68a6.63 6.63 0 0 1 -6.47-6.65 6.55 6.55 0 0 1 6.47-6.55 6.45 6.45 0 0 1 5.6 3.18l5-2.91a12.25 12.25 0 0 0 -3.64-3.94 10.92 10.92 0 0 1 10.68-8.71 11.09 11.09 0 0 1 10.86 11.12 11.87 11.87 0 0 1 -2 6.46h6.51a22.92 22.92 0 0 0 1.15-5 6.53 6.53 0 0 1 1-.19 6.59 6.59 0 0 1 0 13.18h-7.49v5h7.54a12 12 0 1 0 0-24z" fill="#636363"/><path d="m20.55 59.93c0-.07 0-.14 0-.21l1-11.37-9.93 5.73a6 6 0 1 0 8.93 5.92z" fill="#7ab4df"/><g fill="#c9c9c9"><path d="m35.04 50.51-9.03-9.03 1.8-1.81 9.04 9.04z"/><path d="m31.01 51.59-2.47-.66 3.31-12.34 2.46.67z"/><path d="m25.59 47.98-.66-2.47 12.34-3.3.66 2.46z"/></g></svg>