<svg viewBox="0 0 82 66.6" xmlns="http://www.w3.org/2000/svg"><path d="m0 0h82v66.6h-82z" fill="none"/><g fill="#f7d34c"><path d="m50.93 11.5h-6v-11h6z"/><path d="m50.93 65.5h-6v-12h6z"/><path d="m68.93 35.5v-6h12v6z"/><path d="m61.69 62.22-5.98-10.36 4.97-2.88 5.99 10.37z"/><path d="m67.17 24.78-2.87-4.98 10.37-5.98 2.87 4.97z"/><path d="m74.67 51.35-10.37-5.98 2.87-4.97 10.37 5.98z"/><path d="m60.68 16.19-4.97-2.87 5.98-10.37 4.98 2.87z"/></g><path d="m47.9 20.38a12.43 12.43 0 0 0 -1.51.1 16.65 16.65 0 0 0 -32.18 0 11.82 11.82 0 0 0 -1.51-.1 12.06 12.06 0 1 0 0 24.12h7.24v-5h-7.26a6.67 6.67 0 0 1 -6.47-6.69 6.57 6.57 0 0 1 6.47-6.58 6.45 6.45 0 0 1 5.6 3.17l5-2.91a12.26 12.26 0 0 0 -3.64-3.94 10.92 10.92 0 0 1 10.68-8.71 10.7 10.7 0 0 1 10.9 10.65c0 2.25-.68 5-2 6h6.51a11.86 11.86 0 0 0 1.14-4.49 6.58 6.58 0 0 1 1 0 6.76 6.76 0 0 1 0 13.5h-8v5h8a12.06 12.06 0 1 0 0-24.12z" fill="#636363"/><path d="m19.35 59.66c0-.07 0 0 0-.11l1-11.57-9.93 5.52c-1.8 2-3 3.22-3 5.45a5.93 5.93 0 0 0 6 5.92 6 6 0 0 0 5.95-5.36z" fill="#7ab4df"/><path d="m33.96 50.47-9.03-9.04 1.8-1.8 9.04 9.03z" fill="#c9c9c9"/><path d="m29.93 51.55-2.47-.67 3.31-12.33 2.46.66z" fill="#c9c9c9"/><path d="m24.51 47.93-.66-2.46 12.34-3.31.66 2.47z" fill="#c9c9c9"/></svg>