<svg viewBox="0 0 67 66.17" xmlns="http://www.w3.org/2000/svg"><path d="m0 0h67v66.17h-67z" fill="none"/><g fill="#f7d34c"><circle cx="33.17" cy="32.68" r="17.77"/><path d="m35.93 12.5h-6v-12h6z"/><path d="m20.35 16.23-6-10.39 4.99-2.88 6 10.39z"/><path d="m47 62.39-6-10.39 4.99-2.88 6 10.39z"/><path d="m60.01 51.5-10.4-6 2.88-4.99 10.4 6z"/><path d="m12.93 35.5h-12v-6h12z"/><path d="m65.93 35.5h-12v-6h12z"/><path d="m6.33 51.5-2.88-4.99 10.4-6 2.88 4.99z"/><path d="m52.49 24.85-2.88-4.99 10.4-6 2.88 4.99z"/><path d="m45.99 16.23-4.99-2.88 6-10.39 4.99 2.88z"/><path d="m19.34 62.39-4.99-2.88 6-10.39 4.99 2.88z"/><path d="m35.93 65.5h-6v-12h6z"/><path d="m13.85 24.85-10.4-6 2.88-4.99 10.4 6z"/></g></svg>