<svg viewBox="0 0 80.18 73" xmlns="http://www.w3.org/2000/svg"><path d="m0 0h80v73h-80z" fill="none"/><path d="m28.39 37.39-8.33 17h9.55l-6.94 17.76.63.5 15.63-23.26h-9.32l7.33-12z" fill="#f9ea3a"/><path d="m47.5 20.93a12.05 12.05 0 0 0 -1.5.07 16.6 16.6 0 0 0 -32.11 0 11.64 11.64 0 0 0 -1.51-.1 12.23 12.23 0 0 0 0 24.46h8.12v-6h-8.13a6.38 6.38 0 1 1 0-12.77 6.5 6.5 0 0 1 5.63 3.29l5-2.87a12.18 12.18 0 0 0 -3.63-3.92 10.86 10.86 0 1 1 19.56 8.3h6.49a12.82 12.82 0 0 0 1.15-4.7 6.32 6.32 0 0 1 1 0 6.37 6.37 0 1 1 0 12.75h-8v6h8a12.23 12.23 0 0 0 0-24.46z" fill="#636363"/><path d="m77.92 29a17.67 17.67 0 0 1 -14.06-28.36 17.68 17.68 0 0 0 -15.41 17.46 15 15 0 0 1 14.1 17.38 17.71 17.71 0 0 0 17.63-6.59 17.44 17.44 0 0 1 -2.26.11z" fill="#b3b3b3"/></svg>