<svg viewBox="0 0 81.07 72.6" xmlns="http://www.w3.org/2000/svg"><path d="m0 0h81.07v72.6h-81.07z" fill="none"/><path d="m28.68 37.5-8.39 16h9.62l-6.99 18.01.64.38 15.73-23.39h-9.38l7.37-11z" fill="#f9ea3a"/><g fill="#f7d34c"><path d="m50.5 12.5h-6v-12h6z"/><path d="m50.5 65.5h-6v-12h6z"/><path d="m68.5 35.5v-6h12v6z"/><path d="m61.64 62.4-5.99-10.37 4.98-2.87 5.99 10.37z"/><path d="m67.12 24.96-2.88-4.98 10.37-5.99 2.88 4.98z"/><path d="m74.61 51.53-10.37-5.98 2.87-4.98 10.38 5.99z"/><path d="m60.63 16.37-4.98-2.87 5.99-10.37 4.98 2.87z"/></g><path d="m47.84 20.55a12.21 12.21 0 0 0 -1.51.1 16.65 16.65 0 0 0 -32.18 0 11.72 11.72 0 0 0 -1.51-.1 12 12 0 1 0 0 23.95h7.86v-5h-7.87a6.57 6.57 0 0 1 0-13.13 6.46 6.46 0 0 1 5.6 3.19l5-2.9a12.23 12.23 0 0 0 -3.64-3.93 10.92 10.92 0 0 1 10.64-8.73 11.05 11.05 0 0 1 10.9 11.06 11.73 11.73 0 0 1 -2 6.42h6.51a22.64 22.64 0 0 0 1.15-4.95 6.48 6.48 0 0 1 1-.17 6.56 6.56 0 0 1 0 13.11h-7.29v5h7.34a12 12 0 1 0 0-23.95z" fill="#636363"/></svg>