<svg viewBox="0 0 60 65" xmlns="http://www.w3.org/2000/svg"><path d="m0 0h60v65h-60z" fill="none"/><path d="m28.59 29.76-8.35 16h9.58l-6.95 18.12.63.33 15.66-23.45h-9.34l7.34-11z" fill="#f9ea3a"/><path d="m47.75 13a12.21 12.21 0 0 0 -1.51.1 16.65 16.65 0 0 0 -32.18 0 11.81 11.81 0 0 0 -1.51-.1 12.36 12.36 0 0 0 0 24.72h7.88v-6h-7.89a6.48 6.48 0 1 1 5.6-9.72l5-2.89a12.22 12.22 0 0 0 -3.64-3.93 10.9 10.9 0 0 1 21.5 2.27 11.37 11.37 0 0 1 -2 6.31h6.51a21.78 21.78 0 0 0 1.15-4.83 6.37 6.37 0 0 1 1-.11 6.47 6.47 0 0 1 0 12.94h-7.23v6h7.33a12.36 12.36 0 0 0 0-24.72z" fill="#636363"/></svg>