<svg xmlns="http://www.w3.org/2000/svg" viewBox="0 0 72.21 57.54"><defs><style>.cls-1{fill:#b6883f;}</style></defs><g id="Layer_2" data-name="Layer 2"><g id="standard"><path class="cls-1" d="M41.76,27.83a16.75,16.75,0,0,1-3.84-10.78,16.53,16.53,0,0,1,5-12A16.31,16.31,0,0,1,55,0,16.11,16.11,0,0,1,67.25,5.34a18.42,18.42,0,0,1,5,13q0,8.23-6.18,18.83A85.53,85.53,0,0,1,49,57.54l-9.55-6.75a137.36,137.36,0,0,0,11.8-17.06A15.85,15.85,0,0,1,41.76,27.83Zm-37.92,0A16.75,16.75,0,0,1,0,17.05a16.54,16.54,0,0,1,5-12A16.3,16.3,0,0,1,17.05,0,16.09,16.09,0,0,1,29.33,5.34a18.43,18.43,0,0,1,5,13q0,8.23-6.19,18.83a85.47,85.47,0,0,1-17,20.34L1.5,50.79A138.68,138.68,0,0,0,13.31,33.73,15.87,15.87,0,0,1,3.84,27.83Z"/></g></g></svg>