<svg xmlns="http://www.w3.org/2000/svg" viewBox="0 0 72.21 57.54"><defs><style>.cls-1{fill:#b6883f;}</style></defs><g id="Layer_2" data-name="Layer 2"><g id="standard"><path class="cls-1" d="M30.46,29.71A16.78,16.78,0,0,1,34.3,40.48a16.56,16.56,0,0,1-5,12,16.31,16.31,0,0,1-12.09,5.06A16.06,16.06,0,0,1,5,52.19a18.38,18.38,0,0,1-5-13q0-8.25,6.18-18.84A85.92,85.92,0,0,1,23.24,0L32.8,6.75A137.56,137.56,0,0,0,21,23.8,15.91,15.91,0,0,1,30.46,29.71Zm37.91,0a16.72,16.72,0,0,1,3.84,10.77,16.55,16.55,0,0,1-5,12,16.31,16.31,0,0,1-12.09,5.06,16.08,16.08,0,0,1-12.28-5.35,18.42,18.42,0,0,1-5-13q0-8.25,6.18-18.84A85.68,85.68,0,0,1,61.16,0l9.55,6.75A137.34,137.34,0,0,0,58.91,23.8,15.86,15.86,0,0,1,68.37,29.71Z"/></g></g></svg>