<svg xmlns="http://www.w3.org/2000/svg" viewBox="0 0 576 340"><defs><style>.cls-1{fill:#fafafa;}.cls-2{fill:#f5f5f5;}.cls-3{fill:#bbb;}.cls-4{fill:#e1e1e1;}.cls-5{fill:#c58836;}.cls-6{fill:#fff;}.cls-7{fill:#455a64;}.cls-8{fill:#ffbf9d;}.cls-9{fill:#263238;}.cls-10{fill:#ff9a6c;}.cls-11{fill:none;}</style></defs><g id="Layer_2" data-name="Layer 2"><g id="standard"><rect class="cls-1" x="83.19" y="52.79" width="80.85" height="141.46"/><path class="cls-2" d="M108.38,195.6S99.52,132,94.88,125c0,0,26.49-19.89,27.3-73.79H82V195.6Z"/><path class="cls-2" d="M138.85,195.32s8.85-63.64,13.49-70.63c0,0-26.48-19.89-27.3-73.79h40.2V195.32Z"/><path class="cls-3" d="M166.17,47.4H75.7V198.92h94.22V47.4ZM99.44,126.12v36H83.19v-36Zm-16.25-2.6V86.23H99.44v37.29Zm41,0V86.23h20.33v37.29Zm20.33,2.6v36H124.18v-36Zm-44.34-2.6V86.23h21.4v37.29Zm21.4,2.6v36h-21.4v-36Zm-21.4-40.54V52.79h21.4V85.58Zm21.4,77.22v31.46h-21.4V162.8Zm2.61,0h20.33v31.46H124.18Zm0-77.22V52.79h20.33V85.58Zm21,40.54h17.19v36H145.23Zm0-2.6V86.23h17.19v37.29Zm17.19-37.94H145.23V52.79h17.19Zm-63-32.79V85.58H83.19V52.79Zm-16.25,110H99.44v31.46H83.19Zm62,31.46V162.8h17.19v31.46Z"/><rect class="cls-2" x="193.34" y="80.81" width="246" height="164.76"/><rect class="cls-3" x="193.34" y="80.81" width="246" height="16.46"/><path class="cls-1" d="M204,89a2,2,0,1,1-2-1.85A1.92,1.92,0,0,1,204,89Z"/><path class="cls-1" d="M210.41,89a2,2,0,1,1-2-1.85A1.92,1.92,0,0,1,210.41,89Z"/><path class="cls-1" d="M216.82,89a2,2,0,1,1-2-1.85A1.92,1.92,0,0,1,216.82,89Z"/><polygon class="cls-3" points="514.65 113.37 465.23 113.37 465.23 177.82 514.65 179.06 514.65 113.37"/><polygon class="cls-1" points="511.4 115.67 468.15 115.67 468.15 174.12 511.4 175.58 511.4 115.67"/><polygon class="cls-3" points="503.83 126.29 475.13 125.19 475.13 166.05 503.83 166.05 503.83 126.29"/><polygon class="cls-2" points="475.13 166.05 503.83 145.06 475.13 125.19 475.13 166.05"/><polygon class="cls-3" points="509.2 68.02 481.69 67.16 481.69 103.03 509.2 103.72 509.2 68.02"/><polygon class="cls-1" points="507.39 69.58 483.32 68.44 483.32 100.97 507.39 101.78 507.39 69.58"/><polygon class="cls-3" points="503.18 74.35 487.2 73.74 487.2 96.48 503.18 96.48 503.18 74.35"/><polygon class="cls-2" points="487.2 96.48 503.18 84.8 487.2 73.74 487.2 96.48"/><polygon class="cls-3" points="319.95 37.64 317.31 62.09 351.07 62.09 353.87 37.64 319.95 37.64"/><polygon class="cls-1" points="321.33 39.25 318.77 60.65 349.24 60.65 351.71 39.25 321.33 39.25"/><polygon class="cls-3" points="326.46 42.99 324.88 57.2 344.11 57.2 345.1 42.99 326.46 42.99"/><polygon class="cls-3" points="364 29.34 360.46 62.09 405.69 62.09 409.44 29.34 364 29.34"/><polygon class="cls-1" points="365.85 31.49 362.42 60.16 403.24 60.16 406.54 31.49 365.85 31.49"/><polygon class="cls-3" points="372.72 36.51 370.61 55.53 396.37 55.53 397.69 36.51 372.72 36.51"/><rect class="cls-3" x="294.61" y="62.09" width="131.71" height="3.77"/><polygon class="cls-3" points="317.15 75.03 311.38 65.86 319.95 65.86 319.95 75.03 317.15 75.03"/><polygon class="cls-4" points="314.17 65.86 319.26 75.03 319.95 75.03 319.95 65.86 314.17 65.86"/><polygon class="cls-3" points="393.14 75.03 387.38 65.86 395.94 65.86 395.94 75.03 393.14 75.03"/><polygon class="cls-4" points="390.16 65.86 395.26 75.03 395.94 75.03 395.94 65.86 390.16 65.86"/><path class="cls-5" d="M137.06,286.09c12.12-7.94,15.2-23.13,15.06-36.85,0-2.29.3-4.7-.76-6.73s-3.59-3.47-5.69-2.55c-1.74.76-2.54,2.71-3.55,4.33a13.47,13.47,0,0,1-5.56,5c-1.5.72-3.33,1.14-4.77.32-2-1.14-2.15-3.87-2.07-6.15l.39-12.73a21,21,0,0,0-.53-6.77,7.08,7.08,0,0,0-4.38-4.88c-2.18-.66-4.93.52-5.44,2.74a20.48,20.48,0,0,0-.14,2.83,2.41,2.41,0,0,1-1.47,2.22,2.8,2.8,0,0,1-2.51-1.11,30,30,0,0,1-5.3-8.33,42,42,0,0,0-4.93-8.59c-2.1-2.56-5-4.62-8.34-4.88s-6.87,1.67-7.78,4.85.9,6.49,2.9,9.13a51,51,0,0,0,10.47,10.34,4.22,4.22,0,0,1,1.75,1.95c.47,1.53-1,3-2.56,3.46-1.73.53-3.59.31-5.4.47s-3.77.9-4.49,2.57c-1,2.3.91,4.79,2.81,6.43a44.45,44.45,0,0,0,12.87,7.75,14.92,14.92,0,0,1,4.8,2.44c1.33,1.21,2.11,3.28,1.24,4.86s-3,2.05-4.77,1.68a31.67,31.67,0,0,1-5-2c-3.14-1.26-7.24-1.14-9.34,1.52a7.15,7.15,0,0,0-.93,6.35A16.63,16.63,0,0,0,97,271.43,44.35,44.35,0,0,0,115.6,285c7.29,2.69,14.09,3.54,21.46,1.08"/><path class="cls-6" d="M92.7,205.75s.07.08.22.22.39.36.67.62c.59.55,1.46,1.34,2.55,2.4a84.13,84.13,0,0,1,8.58,9.6c1.67,2.15,3.39,4.58,5.2,7.22s3.7,5.49,5.59,8.55a101.93,101.93,0,0,1,5.45,9.87c.85,1.76,1.6,3.6,2.36,5.47l2.31,5.71a207.07,207.07,0,0,1,7.68,22.1,101,101,0,0,1,3.39,18.77,73.35,73.35,0,0,1-.1,12.86c-.16,1.51-.31,2.68-.43,3.47-.06.38-.1.68-.13.91a1.2,1.2,0,0,0,0,.31s0-.1.07-.3.1-.52.17-.9c.16-.79.33-2,.51-3.47a70.47,70.47,0,0,0,.24-12.91,98.82,98.82,0,0,0-3.31-18.85A202.48,202.48,0,0,0,126,255.25l-2.31-5.71c-.76-1.87-1.52-3.72-2.37-5.49a99.21,99.21,0,0,0-5.5-9.89c-1.9-3.07-3.82-5.91-5.63-8.55s-3.56-5.06-5.25-7.21a82.31,82.31,0,0,0-8.7-9.53c-1.11-1-2-1.82-2.61-2.34l-.7-.59Z"/><path class="cls-6" d="M121.22,244a6.29,6.29,0,0,0,.25-1c.13-.62.3-1.54.49-2.67.38-2.26.8-5.39,1.25-8.85s.91-6.59,1.33-8.83c.2-1.13.38-2,.51-2.66a4.73,4.73,0,0,0,.15-1,4.13,4.13,0,0,0-.32.94c-.17.62-.39,1.52-.64,2.64-.49,2.24-1,5.37-1.45,8.83s-.83,6.51-1.13,8.87c-.14,1.07-.26,2-.36,2.68A4.38,4.38,0,0,0,121.22,244Z"/><path class="cls-6" d="M91.7,237.85a6.23,6.23,0,0,0,1.18.17c.76.08,1.86.2,3.21.39,2.71.35,6.43,1,10.51,1.83s7.74,1.81,10.36,2.56c1.32.37,2.37.7,3.11.92a6.77,6.77,0,0,0,1.15.31,6.44,6.44,0,0,0-1.1-.47c-.72-.27-1.76-.64-3.07-1-2.61-.83-6.27-1.82-10.36-2.69a104.05,104.05,0,0,0-10.57-1.72c-1.36-.15-2.47-.22-3.23-.26A6,6,0,0,0,91.7,237.85Z"/><path class="cls-6" d="M133.34,276.86a2.79,2.79,0,0,0,.21-.35c.14-.29.32-.63.53-1.05.46-.91,1.09-2.25,1.84-3.91,1.52-3.32,3.46-8,5.54-13.12s4-9.82,5.41-13.17l1.72-4c.18-.43.33-.78.46-1.07s.15-.39.13-.39a1.61,1.61,0,0,0-.21.35l-.53,1c-.46.92-1.09,2.25-1.85,3.91-1.51,3.32-3.45,8-5.53,13.13s-4,9.82-5.41,13.16l-1.72,4c-.18.43-.33.79-.46,1.08S133.32,276.85,133.34,276.86Z"/><path class="cls-6" d="M94.24,263.38s.13.07.39.17l1.13.41,4.19,1.45c3.53,1.22,8.39,3,13.76,4.91s10.26,3.64,13.82,4.8c1.78.57,3.23,1,4.23,1.32l1.16.33a2,2,0,0,0,.42.09,1.54,1.54,0,0,0-.39-.17l-1.14-.41-4.18-1.45c-3.54-1.22-8.4-3-13.77-4.91s-10.25-3.64-13.82-4.8c-1.78-.57-3.22-1-4.23-1.32l-1.16-.33A2,2,0,0,0,94.24,263.38Z"/><path class="cls-7" d="M400.07,94.83H152.46a7.73,7.73,0,0,0-7.73,7.72v174.9a7.73,7.73,0,0,0,7.73,7.73h95s6,18.69-12.69,28.37h88.86s-21.16-7.26-15.72-28.37h92.13a7.73,7.73,0,0,0,7.73-7.73V102.55A7.73,7.73,0,0,0,400.07,94.83Z"/><path class="cls-7" d="M279.83,266.72c3.37,4.82-1.9,10.09-6.72,6.72a1.64,1.64,0,0,1-.41-.42c-3.36-4.81,1.91-10.07,6.72-6.71A1.6,1.6,0,0,1,279.83,266.72Z"/><rect class="cls-4" x="150.58" y="103.66" width="251.38" height="149.11" rx="3.27"/><rect class="cls-1" x="150.58" y="114.58" width="251.38" height="138.19"/><path class="cls-5" d="M171.19,109.42a2,2,0,1,1-2-2A2,2,0,0,1,171.19,109.42Z"/><path class="cls-5" d="M159,109.42a2,2,0,1,1-2-2A2,2,0,0,1,159,109.42Z"/><path class="cls-5" d="M164.87,109.42a2,2,0,1,1-2-2A2,2,0,0,1,164.87,109.42Z"/><path class="cls-7" d="M274.44,178.93c0,.11-9.21.2-20.57.2s-20.57-.09-20.57-.2,9.21-.21,20.57-.21S274.44,178.81,274.44,178.93Z"/><path class="cls-7" d="M274.44,184.43c0,.12-9.21.21-20.57.21s-20.57-.09-20.57-.21,9.21-.2,20.57-.2S274.44,184.32,274.44,184.43Z"/><path class="cls-7" d="M258,189.94c0,.11-5.52.2-12.33.2s-12.33-.09-12.33-.2,5.52-.21,12.33-.21S258,189.82,258,189.94Z"/><rect class="cls-7" x="233.3" y="122.68" width="19.56" height="2.48"/><rect class="cls-4" x="233.3" y="130.66" width="42.98" height="41.58"/><polygon class="cls-5" points="236.64 168.69 248.53 147.29 258.25 160.97 264.16 153.7 272.95 168.69 236.64 168.69"/><circle class="cls-5" cx="259.3" cy="143.13" r="3.09"/><path class="cls-7" d="M273,168.8s0-.06,0-.17,0-.28,0-.48c0-.44,0-1.07,0-1.87,0-1.65,0-4,0-7.06,0-6.08-.06-14.73-.09-25.11l.17.17-36.31,0,.2-.2h0v9.33c0,3.05,0,6.05,0,9,0,5.82,0,11.33,0,16.39l-.18-.18,26.25.1,7.41,0,2,0H273s-.05,0-.16,0h-.49l-1.93,0-7.36,0-26.37.09h-.18v-.18c0-5.06,0-10.57,0-16.39,0-2.91,0-5.91,0-9v-9.33h0l.21-.21,36.31,0h.18v.18c0,10.43-.07,19.12-.09,25.22,0,3,0,5.38-.05,7,0,.79,0,1.4,0,1.84,0,.19,0,.34,0,.46S273,168.81,273,168.8Z"/><path class="cls-7" d="M326.84,178.93c0,.11-9.21.2-20.57.2s-20.57-.09-20.57-.2,9.21-.21,20.57-.21S326.84,178.81,326.84,178.93Z"/><path class="cls-7" d="M326.84,184.43c0,.12-9.21.21-20.57.21s-20.57-.09-20.57-.21,9.21-.2,20.57-.2S326.84,184.32,326.84,184.43Z"/><path class="cls-7" d="M310.35,189.94c0,.11-5.52.2-12.32.2s-12.33-.09-12.33-.2,5.52-.21,12.33-.21S310.35,189.82,310.35,189.94Z"/><rect class="cls-7" x="285.7" y="122.68" width="19.56" height="2.48"/><rect class="cls-4" x="285.7" y="130.66" width="42.98" height="41.58"/><polygon class="cls-5" points="289.03 168.69 300.92 147.29 310.65 160.97 316.56 153.7 325.35 168.69 289.03 168.69"/><path class="cls-5" d="M314.79,143.13A3.1,3.1,0,1,1,311.7,140,3.09,3.09,0,0,1,314.79,143.13Z"/><path class="cls-7" d="M325.35,168.8s0-.06,0-.17,0-.28,0-.48c0-.44,0-1.07,0-1.87,0-1.65,0-4-.05-7.06,0-6.08-.05-14.73-.09-25.11l.18.17-36.31,0,.2-.2h0v9.33c0,3.05,0,6.05,0,9,0,5.82,0,11.33,0,16.39l-.18-.18,26.26.1,7.41,0,2,0h0l-1.93,0-7.37,0L289,169h-.18v-.18c0-5.06,0-10.57,0-16.39V134.12h0l.21-.21,36.31,0h.17v.18c0,10.43-.06,19.12-.09,25.22,0,3,0,5.38,0,7,0,.79,0,1.4,0,1.84,0,.19,0,.34,0,.46S325.35,168.81,325.35,168.8Z"/><rect class="cls-7" x="234.68" y="197.61" width="19.56" height="2.48"/><rect class="cls-4" x="234.68" y="205.59" width="42.98" height="41.58"/><polygon class="cls-5" points="238.01 243.62 249.9 222.22 259.63 235.9 265.54 228.63 274.33 243.62 238.01 243.62"/><path class="cls-5" d="M263.77,218.06a3.1,3.1,0,1,1-3.09-3.09A3.09,3.09,0,0,1,263.77,218.06Z"/><path class="cls-7" d="M274.33,243.73a1.15,1.15,0,0,1,0-.17c0-.12,0-.28,0-.48,0-.44,0-1.07,0-1.87,0-1.65,0-4-.05-7.06,0-6.08-.05-14.73-.09-25.11l.18.17-36.31,0,.2-.2h0v9.33c0,3.05,0,6.05,0,9,0,5.82,0,11.33,0,16.39l-.18-.18,26.26.1,7.41,0,2,0h.69s-.05,0-.16,0h-.49l-1.93,0-7.37,0-26.37.09h-.17v-.18c0-5.06,0-10.57,0-16.39,0-2.91,0-5.91,0-9v-9.33h0l.21-.21,36.31,0h.18V209c0,10.43-.06,19.12-.09,25.22,0,3,0,5.38,0,7,0,.79,0,1.4,0,1.84,0,.19,0,.34,0,.46A.61.61,0,0,1,274.33,243.73Z"/><rect class="cls-7" x="287.11" y="197.61" width="19.56" height="2.48"/><rect class="cls-4" x="287.11" y="205.59" width="42.98" height="41.58"/><polygon class="cls-5" points="290.45 243.62 302.34 222.22 312.06 235.9 317.97 228.63 326.76 243.62 290.45 243.62"/><path class="cls-5" d="M316.2,218.06a3.09,3.09,0,1,1-3.09-3.09A3.09,3.09,0,0,1,316.2,218.06Z"/><path class="cls-7" d="M326.76,243.73a1.15,1.15,0,0,1,0-.17c0-.12,0-.28,0-.48,0-.44,0-1.07,0-1.87,0-1.65,0-4,0-7.06,0-6.08-.06-14.73-.09-25.11l.17.17-36.31,0,.2-.2h0v9.33c0,3.05,0,6.05,0,9,0,5.82,0,11.33,0,16.39l-.17-.18,26.25.1,7.41,0,2,0h.69s-.05,0-.16,0h-.49l-1.93,0-7.36,0-26.37.09h-.18v-.18c0-5.06,0-10.57,0-16.39,0-2.91,0-5.91,0-9v-9.33h0l.21-.21,36.31,0h.18V209c0,10.43-.07,19.12-.09,25.22,0,3,0,5.38-.05,7,0,.79,0,1.4,0,1.84,0,.19,0,.34,0,.46A.61.61,0,0,1,326.76,243.73Z"/><rect class="cls-7" x="341.22" y="197.61" width="19.56" height="2.48"/><rect class="cls-4" x="341.22" y="205.59" width="42.98" height="41.58"/><polygon class="cls-5" points="344.55 243.62 356.44 222.22 366.17 235.9 372.07 228.63 380.87 243.62 344.55 243.62"/><path class="cls-5" d="M370.31,218.06a3.1,3.1,0,1,1-3.1-3.09A3.09,3.09,0,0,1,370.31,218.06Z"/><path class="cls-7" d="M380.87,243.73s0-.06,0-.17,0-.28,0-.48c0-.44,0-1.07,0-1.87,0-1.65,0-4-.05-7.06,0-6.08,0-14.73-.09-25.11l.18.17-36.32,0,.21-.2h0v18.29c0,5.82,0,11.33,0,16.39l-.18-.18,26.26.1,7.4,0,2,0h.69s-.06,0-.16,0h-.49l-1.93,0-7.37,0-26.37.09h-.18v-.18c0-5.06,0-10.57,0-16.39V209.05h0c-.19.18.24-.25.2-.21l36.32,0H381V209c0,10.43-.07,19.12-.09,25.22,0,3,0,5.38,0,7,0,.79,0,1.4,0,1.84,0,.19,0,.34,0,.46S380.87,243.74,380.87,243.73Z"/><path class="cls-7" d="M380.17,172.25a26.31,26.31,0,0,1,4.72-.21c-.41.41-.11.11-.2.21h0v-.92c0-.31,0-.6,0-.89,0-.52,0-1,.05-1.5a4.43,4.43,0,0,1,.14-1.38,4.59,4.59,0,0,1,.15,1.38c0,.49,0,1,0,1.5,0,.29,0,.58,0,.89v.92h0c-.1.09.2-.21-.21.2A28.15,28.15,0,0,1,380.17,172.25Z"/><path class="cls-7" d="M358.74,172.25a68.51,68.51,0,0,1,10.72,0,71.92,71.92,0,0,1-10.72,0Z"/><path class="cls-7" d="M343.31,167.53a28,28,0,0,1,.2,4.72c-.41-.41-.11-.12-.2-.21h1.83l1.5,0a4.59,4.59,0,0,1,1.38.15,5.33,5.33,0,0,1-1.38.14l-1.5.05h-1.83c-.09-.09.2.21-.21-.2A26.22,26.22,0,0,1,343.31,167.53Z"/><path class="cls-7" d="M343.31,146.1a36.08,36.08,0,0,1,.2,5.35,36.16,36.16,0,0,1-.2,5.36,33.81,33.81,0,0,1-.21-5.36A33.73,33.73,0,0,1,343.31,146.1Z"/><path class="cls-7" d="M348,130.66a27.3,27.3,0,0,1-4.71.21c.4-.41.11-.12.2-.21h0v.92c0,.3,0,.6,0,.89,0,.51,0,1,0,1.5a5.33,5.33,0,0,1-.14,1.38,4.59,4.59,0,0,1-.15-1.38c0-.49,0-1,0-1.5,0-.29,0-.59,0-.89v-.92h0c.09-.09-.2.21.21-.2A28,28,0,0,1,348,130.66Z"/><path class="cls-7" d="M369.46,130.66a68.51,68.51,0,0,1-10.72,0,71.92,71.92,0,0,1,10.72,0Z"/><path class="cls-7" d="M384.89,135.38a28,28,0,0,1-.2-4.72c.4.41.11.12.2.21h-1.84l-1.5,0a4.59,4.59,0,0,1-1.38-.15,4.84,4.84,0,0,1,1.38-.14l1.5-.05h1.84c.09.09-.2-.21.21.2A27.38,27.38,0,0,1,384.89,135.38Z"/><path class="cls-7" d="M384.89,156.81a36.16,36.16,0,0,1-.2-5.36,36,36,0,0,1,.2-5.35,35.1,35.1,0,0,1,.21,5.35A35.29,35.29,0,0,1,384.89,156.81Z"/><path class="cls-7" d="M384.29,178.87c0,.11-9.21.2-20.57.2s-20.57-.09-20.57-.2,9.21-.21,20.57-.21S384.29,178.76,384.29,178.87Z"/><path class="cls-7" d="M384.29,184.37c0,.12-9.21.21-20.57.21s-20.57-.09-20.57-.21,9.21-.2,20.57-.2S384.29,184.26,384.29,184.37Z"/><rect class="cls-7" x="343.15" y="122.62" width="19.56" height="2.48"/><path class="cls-4" d="M213.31,155a21.08,21.08,0,1,1-21.08-21.07A21.08,21.08,0,0,1,213.31,155Z"/><path class="cls-7" d="M217.48,200.91c0,.12-10.82.21-24.17.21s-24.18-.09-24.18-.21,10.82-.2,24.18-.2S217.48,200.8,217.48,200.91Z"/><path class="cls-7" d="M217.48,206.26c0,.12-10.82.21-24.17.21s-24.18-.09-24.18-.21,10.82-.2,24.18-.2S217.48,206.15,217.48,206.26Z"/><path class="cls-7" d="M217.48,211.61c0,.11-10.82.21-24.17.21s-24.18-.1-24.18-.21,10.82-.2,24.18-.2S217.48,211.5,217.48,211.61Z"/><path class="cls-7" d="M196.91,217.07c0,.12-6.28.21-14,.21s-14-.09-14-.21,6.28-.2,14-.2S196.91,217,196.91,217.07Z"/><rect class="cls-7" x="169.13" y="190" width="33.31" height="2.43" transform="translate(371.57 382.44) rotate(180)"/><path class="cls-5" d="M179,171.08a20.44,20.44,0,0,0,26.74,0c-1.12-3.81-3.84-8.34-10.45-9.34a8.27,8.27,0,0,0,4.93-7.66,7.78,7.78,0,1,0-15.53-.07,8.25,8.25,0,0,0,4.95,7.73A12.53,12.53,0,0,0,179,171.08Z"/><rect class="cls-5" x="169.13" y="225.42" width="18.68" height="2.27"/><path class="cls-5" d="M448.75,146.41q1.59,5.34,3.19,10.68a5.16,5.16,0,0,1,.28,1.5,3.41,3.41,0,0,1-2.93,3,9.94,9.94,0,0,1-4.44-.52c-.4,1.53-2.19,2.18-3.75,2.47a34.34,34.34,0,0,1-20.6-2.56,56.5,56.5,0,0,0,6.64-12.7l16.25.71a7.37,7.37,0,0,0,2.85-.24,2.56,2.56,0,0,0,1.78-2.05"/><path class="cls-8" d="M430.13,167.27a49.85,49.85,0,0,0-.28-6.21s-4.58-.48-4.86-5,0-15,0-15l8.34-4.08,9.18,7-1.39,22.7-9.91,8.86Z"/><path class="cls-9" d="M425.9,148.66a.58.58,0,1,0,.58-.58A.58.58,0,0,0,425.9,148.66Z"/><path class="cls-9" d="M425.34,148c.07.07.5-.29,1.13-.33s1.09.27,1.16.19-.05-.18-.25-.32a1.59,1.59,0,0,0-.94-.25,1.56,1.56,0,0,0-.89.36C425.36,147.85,425.3,148,425.34,148Z"/><path class="cls-9" d="M432.64,148.66a.58.58,0,1,0,.58-.58A.58.58,0,0,0,432.64,148.66Z"/><path class="cls-9" d="M432.27,148c.08.07.51-.29,1.13-.33s1.1.27,1.16.19,0-.18-.25-.32a1.54,1.54,0,0,0-.93-.25,1.63,1.63,0,0,0-.9.36C432.3,147.85,432.24,148,432.27,148Z"/><path class="cls-1" d="M432.08,153.9a11.26,11.26,0,0,1-3,1,1.75,1.75,0,0,0,2.07.59A1.29,1.29,0,0,0,432.08,153.9Z"/><path class="cls-10" d="M429.85,161.06a11.27,11.27,0,0,0,6-2s-1.36,3.34-5.91,3.15Z"/><path class="cls-5" d="M455.72,157a3.17,3.17,0,0,1-1.65-.37,4.55,4.55,0,0,1-1.79-1.74,18,18,0,0,1-1.35-2.88c-.84-2.11-1.48-4.07-1.92-5.49-.06-.23-.13-.44-.19-.63a5.12,5.12,0,0,0-.11-.62A14.54,14.54,0,0,0,436.26,134c-1.77,0-4.86-1-9.36,3.71a10.53,10.53,0,0,0-1.71,2.36,10.09,10.09,0,0,0-2,4.28,5.14,5.14,0,0,0-.11,2.25c.09,0,.1-.86.45-2.17a11.74,11.74,0,0,1,.87-2.24,8.66,8.66,0,0,0,.47,5.23l1.61-.44,5.78-2c-.52-1.79.25-4,.69-5.05l0,0c1.33,6.8,8.82,7.5,8.82,7.5l-.38,12.9c7.69-1.64,7.79-10,7.74-12.13.35,1.18.8,2.53,1.37,4a17,17,0,0,0,1.41,2.93,4.61,4.61,0,0,0,2,1.8,3.22,3.22,0,0,0,1.8.27c.42-.09.62-.22.61-.24A6.33,6.33,0,0,0,455.72,157Z"/><path class="cls-9" d="M430,153.31a4.71,4.71,0,0,0-1-.13c-.16,0-.31,0-.35-.15a.91.91,0,0,1,.09-.5c.14-.41.28-.84.43-1.3.3-.92.55-1.76.73-2.37a4.6,4.6,0,0,0,.23-1,3.73,3.73,0,0,0-.4,1c-.22.6-.5,1.43-.8,2.35-.14.46-.28.89-.41,1.31a1,1,0,0,0-.06.65.42.42,0,0,0,.26.23,1.47,1.47,0,0,0,.28,0A4,4,0,0,0,430,153.31Z"/><path class="cls-9" d="M440.58,149.62c-1.42-.28-2.61-.48-3-.51a3.57,3.57,0,0,0,.09-.74,3.74,3.74,0,0,0-.72-2.17,3.62,3.62,0,0,0-3.64-1.42,3.44,3.44,0,0,0-1.53.7,3.5,3.5,0,0,0-1.29,2,3.28,3.28,0,0,0-.08.66c0,.15,0,.22,0,.22a8.37,8.37,0,0,1,.15-.85,3.54,3.54,0,0,1,2.77-2.54,3.56,3.56,0,0,1,1.81.16,3.43,3.43,0,0,1,1.59,1.2,3.52,3.52,0,0,1,.67,2,3.48,3.48,0,0,1-.67,2,3.39,3.39,0,0,1-1.59,1.21,3.46,3.46,0,0,1-3.28-.48,3.61,3.61,0,0,1-1.3-1.9,6,6,0,0,1-.12-.66c.11,0,.18,0,.18-.08s-.08-.07-.21-.1v0a2.54,2.54,0,0,0-.43,0,1.84,1.84,0,0,0-.53.06v0a3.65,3.65,0,0,0-4.36-3.59,3.54,3.54,0,0,0-1.53.7,3.47,3.47,0,0,0-1.28,2,2.27,2.27,0,0,0-.08.66.72.72,0,0,0,0,.22s0-.31.16-.85a3.49,3.49,0,0,1,1.3-1.9,3.44,3.44,0,0,1,3.27-.48,3.41,3.41,0,0,1,1.6,1.2,3.44,3.44,0,0,1,.66,2,3.4,3.4,0,0,1-.66,2,3.36,3.36,0,0,1-1.6,1.21,3.44,3.44,0,0,1-3.27-.48,3.49,3.49,0,0,1-1.3-1.9c-.14-.54-.13-.86-.16-.86a.82.82,0,0,0,0,.23,2.27,2.27,0,0,0,.08.66,3.47,3.47,0,0,0,1.28,2,3.54,3.54,0,0,0,1.53.7,3.64,3.64,0,0,0,4.35-3.42,1.87,1.87,0,0,0,.54.06,2.5,2.5,0,0,0,.42,0v0a3.28,3.28,0,0,0,.08.66,3.5,3.5,0,0,0,1.29,2,3.44,3.44,0,0,0,1.53.7,3.62,3.62,0,0,0,3.64-1.42,3.41,3.41,0,0,0,.61-1.37c.39.13,1.57.4,3,.68a19.6,19.6,0,0,0,3.17.5A19.81,19.81,0,0,0,440.58,149.62Z"/><path class="cls-8" d="M443,153.12a5.63,5.63,0,0,1,.24-2.24,2.11,2.11,0,0,1,1.64-1.41,1.79,1.79,0,0,1,1.84,1.49,2.19,2.19,0,0,1-1.12,2.18,2.88,2.88,0,0,1-2.53.07"/><path class="cls-10" d="M444.31,152.46c0-.05.25.06.57,0a1,1,0,0,0,.68-1,.8.8,0,0,0-.16-.61.7.7,0,0,0-.5-.14c-.34,0-.58.12-.6.06s.16-.21.56-.33a.89.89,0,0,1,.76.15,1,1,0,0,1,.32.89,1.44,1.44,0,0,1-.34.85,1.07,1.07,0,0,1-.67.36C444.48,152.73,444.28,152.49,444.31,152.46Z"/><path class="cls-5" d="M461.9,325.32l-5.47-3.72,6.89-10.3,8.07,5.35-.39.67c-1.74,2.95-9.08,14.87-10.93,16.38C458,335.39,461.9,325.32,461.9,325.32Z"/><path class="cls-9" d="M459.41,333.6c-.1-.06,2.43-4,5.64-8.68s5.89-8.52,6-8.45-2.43,3.95-5.64,8.68S459.51,333.67,459.41,333.6Z"/><path class="cls-9" d="M462.9,326.26c0,.12-.35.18-.75.21s-.74,0-.76-.12.3-.28.74-.31S462.91,326.14,462.9,326.26Z"/><path class="cls-9" d="M462.81,327.16c0,.11-.4.13-.84.1s-.81-.09-.82-.21.37-.24.85-.21S462.84,327,462.81,327.16Z"/><path class="cls-9" d="M468.91,319.53c-.06,0-.2-.19-.36-.57a4.49,4.49,0,0,1-.39-1.57,2.53,2.53,0,0,1,.47-1.59c.27-.35.53-.44.56-.4s-.14.23-.31.56a3,3,0,0,0-.29,1.42,8.6,8.6,0,0,0,.24,1.49C468.92,319.26,469,319.51,468.91,319.53Z"/><path class="cls-9" d="M461.85,325.59c-.06-.11.15-.31.41-.51s.52-.32.6-.24-.05.36-.35.59S461.9,325.69,461.85,325.59Z"/><path class="cls-9" d="M461.43,325.07c-.09-.08,0-.4.25-.73s.49-.54.59-.49,0,.39-.25.73S461.52,325.14,461.43,325.07Z"/><path class="cls-5" d="M397.35,333.79v-6.62l12.39-.08.11,9.68-.77.05c-3.42.22-17.4.84-19.69.16C386.83,336.23,397.35,333.79,397.35,333.79Z"/><path class="cls-9" d="M389.09,336.38c0-.12,4.64-.22,10.36-.22s10.35.1,10.35.22-4.63.21-10.35.21S389.09,336.49,389.09,336.38Z"/><path class="cls-9" d="M397.13,335.14c-.1.05-.35-.19-.59-.5s-.41-.62-.33-.7.4.09.66.44S397.23,335.08,397.13,335.14Z"/><path class="cls-9" d="M396.34,335.57c-.11.05-.33-.25-.56-.64s-.38-.72-.29-.79.41.16.66.58S396.45,335.53,396.34,335.57Z"/><path class="cls-9" d="M406.07,336.33c-.05,0,.05-.27.27-.61a4.43,4.43,0,0,1,1.08-1.21A2.55,2.55,0,0,1,409,334c.44,0,.67.2.65.25s-.27,0-.64.05a3.08,3.08,0,0,0-1.34.56,7.92,7.92,0,0,0-1.09,1C406.31,336.19,406.12,336.37,406.07,336.33Z"/><path class="cls-9" d="M397.09,333.89c.06-.1.34-.05.65.06s.56.24.55.36-.34.17-.69,0S397,334,397.09,333.89Z"/><path class="cls-9" d="M397.29,333.25c0-.11.34-.21.74-.2s.73.11.74.22-.33.21-.75.2S397.28,333.37,397.29,333.25Z"/><path class="cls-8" d="M428.62,181l-13.41-4.48s-5.93,17.08-7.75,17.25c-10.07.91-20.84-2.42-24.62-3.74-.38-.43-.82-.95-1.31-1.58a6,6,0,0,1-.95-1.81,9.83,9.83,0,0,1-.54-2.49c0-.78-.92-1.19-1.35-.62s-.55,2.72.44,5-2.52.47-3.82-.18-5.39-2.47-5.9-2.23c-.76.35-.52,1.23.79,1.84s5.09,2.76,4.72,3.42-6.91-2.74-6.91-2.74-1.29-.95-1.75-.2c-.83,1.37,6.4,4.47,7.09,4.75.48.19.1.93-.41.69s-6.44-3.54-7.3-2.16c-.66,1.06,5.91,2.61,6.76,4S367.53,194,367,195c-.22.39-.33.71,3.2,2a75,75,0,0,0,7.88,2v0s35.31,15.79,42.93.57C429,183.49,428.62,181,428.62,181Z"/><path class="cls-9" d="M420.4,218.48s-8.56,56.89-7.33,59.62,45.26,49.47,45.26,49.47l10.3-17.65s-34.73-38.77-34.47-39.81,12.3-56.35,12.3-56.35Z"/><polygon class="cls-9" points="422.28 288.75 429.51 272.86 436.75 256.96 424.56 278.1 422.28 288.75"/><path class="cls-6" d="M426.58,274.58a3,3,0,0,1,.05.62c0,.46,0,1.05,0,1.8l0-.05c2.76,3.11,8.87,10.19,15.92,18.44l12.26,14.45,3.68,4.41,1,1.21a2,2,0,0,1,.32.45,3.19,3.19,0,0,1-.38-.39l-1.05-1.16L454.6,310l-12.35-14.37c-7.05-8.26-13.09-15.4-15.73-18.61l0,0v0c0-.75,0-1.34,0-1.8A3.69,3.69,0,0,1,426.58,274.58Z"/><path class="cls-9" d="M465.33,306.29c.09.06-2.31,3.88-5.37,8.52s-5.62,8.36-5.72,8.3,2.3-3.89,5.37-8.53S465.23,306.22,465.33,306.29Z"/><path class="cls-9" d="M417.3,239.85c.09-.6,6.93-16,6.93-16l-3.32-4.69-.59-.12Z"/><path class="cls-7" d="M427.11,217.93l-6.79,1.14,3.91,4.81c-6.31,14.26-19.34,44.48-20.91,54.22-2.07,12.9-9.91,53.2-9.12,53.82s18.85,0,18.85,0l11.51-53.82L450,234a24.59,24.59,0,0,0,2.59-18.15l-.51-2.09"/><path class="cls-9" d="M406.76,326a1.14,1.14,0,0,1,0-.3c0-.22.08-.51.14-.88l.56-3.37c.51-2.94,1.24-7.16,2.15-12.37s2-11.44,3.28-18.34q.94-5.18,2-10.82c.18-.93.36-1.88.55-2.83.1-.48.18-1,.29-1.44.06-.24.1-.48.17-.72l.27-.71c.75-1.84,1.56-3.65,2.38-5.51,6.58-14.79,12.7-28.1,17.13-37.73l5.29-11.4,1.45-3.09c.17-.33.29-.6.39-.79a1.41,1.41,0,0,1,.15-.27,2.65,2.65,0,0,1-.11.28c-.09.21-.2.48-.35.82l-1.38,3.12L436,231.05c-4.36,9.67-10.45,23-17,37.78-.81,1.85-1.63,3.68-2.36,5.49l-.26.67c-.07.23-.11.47-.17.71-.11.46-.19.95-.29,1.42-.19.95-.37,1.9-.55,2.83-.7,3.75-1.38,7.37-2,10.81-1.27,6.89-2.41,13.1-3.37,18.32s-1.74,9.41-2.28,12.35c-.27,1.44-.49,2.57-.64,3.36q-.11.54-.18.87A1.48,1.48,0,0,1,406.76,326Z"/><path class="cls-9" d="M414.12,326.75c0,.12-4.34.13-9.68,0s-9.68-.27-9.68-.39,4.34-.13,9.69,0S414.12,326.63,414.12,326.75Z"/><polygon class="cls-9" points="420.32 219.06 420.58 219.68 453.21 217.04 452.07 213.76 420.32 219.06"/><path class="cls-9" d="M433.8,165.9l-2.2,8.81-.07-6.34.16-1.41.2-1.06-2.9-1-1.49,2.32-.44,0s-11.75-1.17-15.86,14.36l-3.75,9.2,11.37,5.67,0,.74.69,21.95,32.88-5.32c.13-4.93-4.9-13.86-3.79-18.33l3.79-15.28-5-14.24-3.44.1h0l-1.94-2.28-8.26,2.06"/><path class="cls-7" d="M419,196.34a2.05,2.05,0,0,1-.71-.37,5.85,5.85,0,0,1-1.52-1.57,5.05,5.05,0,0,1-.77-3.14,7,7,0,0,1,1.28-3.75,6.85,6.85,0,0,1,2.33-2.08l-.1.13c.27-2,.52-3.74.71-5a11.4,11.4,0,0,1,.36-1.94,14,14,0,0,1-.14,2c-.13,1.24-.33,3-.58,5v.09l-.09.05a6.88,6.88,0,0,0-2.18,2,6.73,6.73,0,0,0-1.23,3.55,4.83,4.83,0,0,0,.65,3,6,6,0,0,0,1.38,1.59C418.79,196.17,419,196.32,419,196.34Z"/><path class="cls-7" d="M420.26,181.53c-.09.05-.42-.42-.72-1.05s-.48-1.16-.39-1.21.42.42.73,1S420.35,181.48,420.26,181.53Z"/><path class="cls-5" d="M386.65,175.33l103.42,19.86c7.37,1.42,12,8.16,11.17,15.83a3.06,3.06,0,0,1-.05.32,13.93,13.93,0,0,1-16.49,11L383.35,202,361,184.07Z"/><path class="cls-4" d="M386.65,175.33s5.64,2.11,4.48,7.53S384.5,188,384.5,188s5.31,1.18,3.84,8.77c-.95,4.89-5,5.14-5,5.14L361,184.07Z"/><path class="cls-7" d="M365.86,188c2.18-1.09,2.95-4,2.16-6.28l-7,2.39Z"/><path class="cls-7" d="M488.68,209.15l-.28,0-.79-.14-3.05-.54c-2.65-.48-6.47-1.2-11.19-2.11-9.45-1.82-22.48-4.43-36.85-7.4l-36.79-7.65-11.15-2.34-3-.64-.79-.18a.91.91,0,0,1-.27-.08l.28,0,.79.14,3,.58L399.78,191l36.82,7.54c14.37,3,27.39,5.62,36.82,7.5l11.17,2.23,3,.62.79.17A1.23,1.23,0,0,1,488.68,209.15Z"/><path class="cls-7" d="M484.7,222.39a13.93,13.93,0,0,0,16.49-11,3.06,3.06,0,0,0,.05-.32c.84-7.67-3.8-14.41-11.17-15.83Z"/><path class="cls-8" d="M443.6,179.47s-6.29,19.85-8.06,20.3c-9.8,2.5-21,.91-24.91.2-.44-.36-1-.81-1.54-1.35a6.37,6.37,0,0,1-1.22-1.64,9,9,0,0,1-.92-2.37.79.79,0,0,0-1.44-.4c-.34.62-.11,2.77,1.24,4.91,0,0-7.89,5-9.62,5s-6.65-.17-6.14.52,6.14,1.62,6.14,1.62l10.19,3.46s37.36,10,42.47-6.19c3.14-10,5.3-15.81,5.79-18.18Z"/><path class="cls-9" d="M447.51,166s8.21,1.48,8.54,14.91a52.5,52.5,0,0,1-5.15,23.68L436.44,197a90,90,0,0,0,7.29-20.46L447.48,166Z"/><path class="cls-7" d="M443.28,177.3a2.79,2.79,0,0,1-.09.82c-.07.53-.22,1.29-.42,2.22a63.44,63.44,0,0,1-2,7.15,62.54,62.54,0,0,1-2.84,6.87c-.41.85-.77,1.53-1,2a3.77,3.77,0,0,1-.44.7,3.79,3.79,0,0,1,.31-.77l.92-2c.77-1.73,1.78-4.14,2.73-6.87s1.65-5.26,2.11-7.1l.54-2.18A4.74,4.74,0,0,1,443.28,177.3Z"/><rect class="cls-11" width="576" height="340"/></g></g></svg>