<svg xmlns="http://www.w3.org/2000/svg" xmlns:xlink="http://www.w3.org/1999/xlink" viewBox="0 0 576 340"><defs><style>.cls-1{fill:none;}.cls-2{fill:#bbb;}.cls-3{fill:#fff;}.cls-4{opacity:0.5;}.cls-5{fill:#ebebeb;}.cls-6{fill:#263238;}.cls-7{fill:#455a64;}.cls-8{fill:#fafafa;}.cls-9{clip-path:url(#clip-path);}.cls-10{fill:#b6883f;}.cls-11{opacity:0.2;}.cls-12{opacity:0.4;}.cls-13{fill:#c78976;}.cls-14{opacity:0.3;}.cls-15{fill:#995037;}.cls-16{clip-path:url(#clip-path-2);}.cls-17{clip-path:url(#clip-path-3);}.cls-18{opacity:0.8;}.cls-19{opacity:0.7;}</style><clipPath id="clip-path"><path class="cls-1" d="M285.28,114.45s-9.48-.13-11.56,3S263,139.79,263,139.79l13.44,7,2.89-8.26,4.72,17.27c-5.4,4.29-13.05,43.19-11.53,59.57l50.49.17s.34-45.47-13.31-60.42l3.2-18.06,3.08,8.81L330.25,140l-10.73-19.28a10.35,10.35,0,0,0-9-5.33l-3.5,0s-1.47,12.91-10.86,12.65S285.28,114.45,285.28,114.45Z"/></clipPath><clipPath id="clip-path-2"><path class="cls-1" d="M183.51,148.22l12-8.72L211.1,158a7.89,7.89,0,0,1,1.61,7.11L207.45,185a6.67,6.67,0,0,1-6.93,5h0a6.68,6.68,0,0,1-6.16-7.52l2.32-18Z"/></clipPath><clipPath id="clip-path-3"><path class="cls-1" d="M189.7,141.83l12-8.72,15.6,18.47a7.93,7.93,0,0,1,1.61,7.11l-5.26,19.95a6.69,6.69,0,0,1-6.93,5h0a6.69,6.69,0,0,1-6.16-7.52l2.32-18Z"/></clipPath></defs><g id="Layer_2" data-name="Layer 2"><g id="standard"><rect class="cls-2" x="354.12" y="60.52" width="82.08" height="126.23" rx="5.37" transform="translate(204.1 490.96) rotate(-79.89)"/><path class="cls-3" d="M442.84,109.84a8.71,8.71,0,1,1-7-10.11A8.71,8.71,0,0,1,442.84,109.84Z"/><path class="cls-3" d="M444.62,119.22a9.63,9.63,0,0,1-1.61-.14,9.08,9.08,0,1,1,1.61.14Zm0-17.43A8.36,8.36,0,1,0,449.38,117a8.27,8.27,0,0,0,3.44-5.39h0a8.36,8.36,0,0,0-6.76-9.69A8.11,8.11,0,0,0,444.59,101.79Z"/><path class="cls-3" d="M342,125.81l-1.23,6.9-.71-.13,1.12-6.26-1.63-.29.12-.63Z"/><path class="cls-3" d="M348,133.34l-.11.63-4.84-.86.09-.5,3.37-2.3c.91-.63,1.14-1.06,1.23-1.54.14-.8-.34-1.39-1.39-1.58a2.4,2.4,0,0,0-2,.44l-.42-.53a3.19,3.19,0,0,1,2.62-.55c1.39.25,2.16,1.12,2,2.27a2.89,2.89,0,0,1-1.52,2l-2.76,1.89Z"/><path class="cls-3" d="M355.47,133.46l-1.38-.25-.32,1.81-.71-.12.32-1.82-3.89-.69.09-.51,4.47-3.92.79.14-4.32,3.82,3,.54.28-1.6.69.12-.29,1.6,1.38.25Z"/><path class="cls-3" d="M366,135.34l-1.38-.25-.32,1.82-.71-.13L364,135l-3.9-.7.09-.51,4.47-3.92.79.14-4.32,3.83,3,.53.28-1.6.69.13-.28,1.59,1.38.25Z"/><path class="cls-3" d="M372.11,136.2c-.21,1.17-1.19,1.94-2.87,1.64a3.63,3.63,0,0,1-2.32-1.33l.45-.5a3,3,0,0,0,2,1.18c1.17.21,1.9-.25,2.05-1.09s-.3-1.54-2.05-1.85l-1.47-.26,1-3.4,3.77.68-.11.63-3.15-.57-.63,2.16.89.16C371.69,134,372.33,135,372.11,136.2Z"/><path class="cls-3" d="M378.94,137.38a2.19,2.19,0,0,1-2.74,1.7c-1.83-.32-2.6-1.77-2.21-4,.42-2.35,1.92-3.34,3.79-3a3.36,3.36,0,0,1,1.57.67l-.39.52a2.43,2.43,0,0,0-1.28-.56c-1.49-.27-2.62.52-2.95,2.39,0,.16-.05.36-.07.57a2.23,2.23,0,0,1,2.32-.81A2.12,2.12,0,0,1,378.94,137.38Zm-.71-.1c.16-.91-.4-1.61-1.47-1.8a1.62,1.62,0,0,0-2,1.19c-.14.76.37,1.59,1.56,1.81A1.53,1.53,0,0,0,378.23,137.28Z"/><path class="cls-3" d="M388.36,139.15c-.21,1.15-1.2,1.89-2.87,1.59a3.63,3.63,0,0,1-2.32-1.33l.44-.5a3.08,3.08,0,0,0,2,1.18c1.14.2,1.87-.22,2-1.07s-.34-1.48-1.62-1.71l-.49-.08.09-.53,2.34-2-3.53-.63.12-.63,4.43.79-.09.5-2.39,2.11C388,137.13,388.56,138,388.36,139.15Z"/><path class="cls-3" d="M395.29,140.3a2.18,2.18,0,0,1-2.73,1.7c-1.84-.33-2.6-1.78-2.22-3.95.42-2.35,1.92-3.34,3.79-3a3.13,3.13,0,0,1,1.57.67l-.39.52a2.4,2.4,0,0,0-1.28-.57c-1.49-.26-2.61.52-2.95,2.4,0,.15-.05.35-.07.56a2.25,2.25,0,0,1,2.32-.8A2.12,2.12,0,0,1,395.29,140.3Zm-.7-.11c.16-.9-.41-1.6-1.47-1.79a1.61,1.61,0,0,0-2,1.19c-.14.76.36,1.59,1.55,1.8A1.54,1.54,0,0,0,394.59,140.19Z"/><path class="cls-3" d="M402.5,136.59l-.09.51-4,5.88-.77-.14,4-5.76-3.55-.64-.23,1.3-.7-.13.34-1.92Z"/><path class="cls-3" d="M412.36,138.35l-.09.5-4,5.88-.77-.13,4-5.76-3.55-.64-.23,1.29-.7-.12.35-1.92Z"/><path class="cls-3" d="M418.26,144.54c-.22,1.22-1.39,1.79-3,1.5s-2.53-1.23-2.31-2.45a1.74,1.74,0,0,1,1.63-1.46,1.58,1.58,0,0,1-.81-1.71c.2-1.13,1.28-1.66,2.74-1.4s2.31,1.14,2.11,2.26a1.59,1.59,0,0,1-1.38,1.32A1.76,1.76,0,0,1,418.26,144.54Zm-.73-.14c.16-.85-.48-1.51-1.7-1.73s-2,.19-2.19,1,.47,1.52,1.69,1.74S417.38,145.25,417.53,144.4Zm-1.6-2.29c1.07.19,1.8-.18,1.93-.93s-.45-1.37-1.49-1.56-1.79.17-1.92.94S414.85,141.92,415.93,142.11Z"/><path class="cls-3" d="M425.24,144.15c-.41,2.34-1.91,3.33-3.79,3a3.1,3.1,0,0,1-1.56-.67l.38-.52a2.48,2.48,0,0,0,1.28.57c1.49.26,2.62-.52,2.95-2.4a3.87,3.87,0,0,0,.07-.56,2.23,2.23,0,0,1-2.32.8,2.11,2.11,0,0,1-1.95-2.48,2.18,2.18,0,0,1,2.73-1.7C424.86,140.52,425.63,142,425.24,144.15Zm-.73-1.55c.14-.76-.36-1.59-1.56-1.8A1.53,1.53,0,0,0,421,142c-.16.9.4,1.6,1.47,1.79A1.62,1.62,0,0,0,424.51,142.6Z"/><path class="cls-3" d="M432.84,142l-1.23,6.9-.71-.13,1.12-6.26-1.63-.29.12-.63Z"/><path class="cls-3" d="M438.82,149.53l-.11.64-4.84-.87.09-.5,3.37-2.3c.91-.63,1.14-1.06,1.23-1.54.14-.8-.34-1.39-1.39-1.58a2.4,2.4,0,0,0-2,.44l-.42-.53a3.19,3.19,0,0,1,2.62-.55c1.39.25,2.16,1.12,1.95,2.27a2.89,2.89,0,0,1-1.52,2L435,148.86Z"/><path class="cls-3" d="M445.25,149.29c-.21,1.15-1.2,1.89-2.87,1.59a3.63,3.63,0,0,1-2.32-1.33l.44-.5a3.08,3.08,0,0,0,2,1.18c1.14.2,1.87-.22,2-1.07s-.34-1.48-1.62-1.7l-.49-.09.09-.52,2.34-2.06-3.53-.63.11-.63,4.44.79-.09.51-2.39,2.1C444.84,147.27,445.44,148.18,445.25,149.29Z"/><rect class="cls-3" x="416.85" y="125.29" width="3.04" height="56.13" transform="translate(193.99 538.32) rotate(-79.89)"/><rect class="cls-3" x="429.24" y="147.34" width="3.04" height="28.79" transform="translate(195.96 557.43) rotate(-79.89)"/><g class="cls-4"><rect class="cls-5" x="340.24" y="103.72" width="23.55" height="17.59" rx="4.96" transform="translate(25.21 -60.03) rotate(10.11)"/></g><path class="cls-2" d="M339.73,114.32l.2-1.11,11.93,2.13a2.54,2.54,0,1,0,.89-5l-11.93-2.13.2-1.11L353,109.23a3.67,3.67,0,1,1-1.28,7.22Z"/><rect class="cls-2" x="358.9" y="109.95" width="1.13" height="8.32" transform="translate(183.72 447.8) rotate(-79.84)"/><rect class="cls-3" x="346.31" y="93.31" width="60.57" height="5.2" transform="translate(22.68 -64.62) rotate(10.11)"/><rect class="cls-2" x="146.57" y="21.75" width="100.96" height="104.17" rx="8.76" transform="translate(-11.86 48.62) rotate(-13.66)"/><path class="cls-3" d="M221.56,88.7s-.06,0-.19.07l-.57.16-2.23.58-8.25,2.08-27.75,6.82-.19,0-.07-.19-1.76-4.44c-5.12-13-9.7-24.65-12.68-32.23l.17.09-7.41,1.73-2,.44-.51.11L158,64s.05,0,.16-.06l.51-.14,2-.52L168,61.41l.12,0,0,.12c3,7.56,7.64,19.16,12.83,32.16l1.76,4.45-.26-.14,27.78-6.67,8.28-2,2.25-.5.58-.12A1,1,0,0,1,221.56,88.7Z"/><path class="cls-3" d="M179.43,90.38s.06,0,.19-.07l.57-.16,2.22-.57,8.34-2.1,28.8-7.08-.17.23c-.32-5.06-.67-10.53-1-16.19-.18-2.91-.36-5.77-.53-8.5l.27.21-34,8.18L174,66.7l-2.72.62-.71.15-.24,0a1,1,0,0,1,.23-.08l.7-.19,2.7-.69L184,64,218,55.71l.26-.06v.26c.18,2.73.36,5.59.55,8.5.35,5.66.7,11.13,1,16.19v.18l-.18,0-28.83,6.92-8.37,2-2.24.51-.58.12Z"/><path class="cls-3" d="M194.86,106.42c-.05,0-.13-.34-.44-.89a4,4,0,0,0-1.92-1.7,3.91,3.91,0,0,0-3.65.36,3.82,3.82,0,1,0,5.09,5.6,4,4,0,0,0,.94-2.39c0-.63-.07-1,0-1s0,.07.09.24a2.91,2.91,0,0,1,.1.74,3.94,3.94,0,0,1-.86,2.59,4.16,4.16,0,0,1-3.7,1.57,4.21,4.21,0,0,1-1.87-7.71,4.15,4.15,0,0,1,4-.31,4,4,0,0,1,2,1.91,2.9,2.9,0,0,1,.25.71A.82.82,0,0,1,194.86,106.42Z"/><path class="cls-3" d="M220,100.31s-.12-.34-.43-.88a3.94,3.94,0,0,0-1.93-1.7,3.82,3.82,0,1,0,1.45,6,4.07,4.07,0,0,0,.94-2.4c0-.62-.07-1,0-1s.05.08.1.24a3.06,3.06,0,0,1,.1.74,4,4,0,0,1-.86,2.6,4.16,4.16,0,0,1-3.7,1.57,4.21,4.21,0,0,1-1.88-7.72,4.16,4.16,0,0,1,4-.31,4,4,0,0,1,2,1.91,2.93,2.93,0,0,1,.24.71C220,100.22,220,100.31,220,100.31Z"/><path class="cls-3" d="M226.08,49.79a11.47,11.47,0,1,1-13.85-8.43A11.47,11.47,0,0,1,226.08,49.79Z"/><path class="cls-2" d="M219.8,48.21a11.61,11.61,0,0,1-1,2.13c-.69,1.29-1.67,3.06-2.78,5-.41.72-.81,1.41-1.19,2.06l-.1.18-.18-.09c-1.47-.78-2.72-1.45-3.6-1.95a6.89,6.89,0,0,1-1.36-.86,7,7,0,0,1,1.49.62c.91.43,2.19,1.06,3.67,1.8l-.29.09,1.17-2.07c1.11-1.94,2.13-3.68,2.89-4.93A12.51,12.51,0,0,1,219.8,48.21Z"/><path class="cls-6" d="M517.25,323c0,.11-102.26.19-228.38.19s-228.4-.08-228.4-.19,102.24-.18,228.4-.18S517.25,322.89,517.25,323Z"/><path class="cls-7" d="M342.78,323.13l-94.64-.43A20.61,20.61,0,0,1,227.63,302l1-237.26a20.61,20.61,0,0,1,20.71-20.52l94.63.43a20.62,20.62,0,0,1,20.52,20.71l-1,237.25A20.6,20.6,0,0,1,342.78,323.13Z"/><path class="cls-8" d="M343.84,52.84l-18.35-.08A4.56,4.56,0,0,0,321,57.39v3.33a4.55,4.55,0,0,1-4.47,4.64l-35.77-.17a4.55,4.55,0,0,1-4.43-4.67V57.19a4.57,4.57,0,0,0-4.44-4.68l-6.45,0-16.06-.07a14.43,14.43,0,0,0-14.5,14.37l-1,231.58a14.44,14.44,0,0,0,14.37,14.5l94.45.43a14.44,14.44,0,0,0,14.5-14.37l1-231.58A14.44,14.44,0,0,0,343.84,52.84Z"/><path class="cls-6" d="M345.9,75.63a14.57,14.57,0,0,1-2.37.13c-1.47,0-3.52,0-5.83.06h-.16l0-.16-.14-1c-.39-2.83-.72-5.37-.91-7l.12.1a14.63,14.63,0,0,1-2.11-.11,12.16,12.16,0,0,1,2.11-.12h.1v.1c.27,1.63.65,4.16,1.05,7,.05.33.09.66.13,1l-.18-.16c2.31,0,4.36,0,5.83.06A17.33,17.33,0,0,1,345.9,75.63Z"/><path class="cls-6" d="M337.46,73.94a1.82,1.82,0,0,1,.63-.06l1.76-.06c1.5,0,3.61,0,6-.06l-.17.14.57-3.26c.1-.58.2-1.16.3-1.71l.18.22c-2.84,0-5.34,0-7.13-.06L337.54,69a2.79,2.79,0,0,1-.77-.07,3.93,3.93,0,0,1,.77-.06l2.11-.06c1.79,0,4.29,0,7.13-.06H347l0,.22-.3,1.71c-.2,1.14-.4,2.24-.58,3.26l0,.14h-.15c-2.44,0-4.55,0-6-.06l-1.76,0A2.75,2.75,0,0,1,337.46,73.94Z"/><path class="cls-6" d="M339.75,77.86c-.06,0-.06-.32-.4-.55a.74.74,0,0,0-.64-.06.66.66,0,0,0,0,1.22.71.71,0,0,0,.64-.06c.34-.23.34-.56.4-.55s.06.07.05.22a.9.9,0,0,1-.29.54,1,1,0,0,1-.92.17,1,1,0,1,1,.92-1.69.9.9,0,0,1,.29.54C339.81,77.79,339.77,77.86,339.75,77.86Z"/><path class="cls-6" d="M345,77.86c-.06,0-.06-.32-.4-.55a.74.74,0,0,0-.64-.06.66.66,0,0,0,0,1.22.71.71,0,0,0,.64-.06c.34-.23.34-.56.4-.55s.06.07,0,.22a.83.83,0,0,1-.28.54,1,1,0,0,1-.92.17,1,1,0,0,1-.67-.93,1,1,0,0,1,.67-.93,1,1,0,0,1,.92.17.83.83,0,0,1,.28.54C345.09,77.79,345.05,77.86,345,77.86Z"/><path class="cls-6" d="M261.75,76.5a67.2,67.2,0,0,1-7.05.19,67.32,67.32,0,0,1-7.06-.19,69.17,69.17,0,0,1,7.06-.18A69,69,0,0,1,261.75,76.5Z"/><path class="cls-6" d="M261.75,73.83a64.08,64.08,0,0,1-7.05.19,64.19,64.19,0,0,1-7.06-.19,69.17,69.17,0,0,1,7.06-.18A69,69,0,0,1,261.75,73.83Z"/><path class="cls-6" d="M261.75,71.17a69,69,0,0,1-7.05.18,69.17,69.17,0,0,1-7.06-.18A67.32,67.32,0,0,1,254.7,71,67.2,67.2,0,0,1,261.75,71.17Z"/><g class="cls-9"><path class="cls-10" d="M285.28,114.45s-9.48-.13-11.56,3S263,139.79,263,139.79l13.44,7,2.89-8.26,4.72,17.27c-5.4,4.29-13.05,43.19-11.53,59.57l50.49.17s.34-45.47-13.31-60.42l3.2-18.06,3.08,8.81L330.25,140l-10.73-19.28a10.35,10.35,0,0,0-9-5.33l-3.5,0s-1.47,12.91-10.86,12.65S285.28,114.45,285.28,114.45Z"/><path class="cls-8" d="M333.84,175.76l0-.23-.05-.67a6.13,6.13,0,0,0-.13-1.08,9.39,9.39,0,0,0-.3-1.45,13.25,13.25,0,0,0-1.57-3.73,13.92,13.92,0,0,0-3.57-4,14,14,0,0,0-13.23-2,13.09,13.09,0,0,0-3.52,1.9,15.55,15.55,0,0,0-1.59,1.35,15.14,15.14,0,0,0-1.36,1.62,13.91,13.91,0,0,0-2.71,8.24,15.06,15.06,0,0,0,.71,4.4,13.63,13.63,0,0,0,2,3.84,15.14,15.14,0,0,0,1.36,1.62,16.48,16.48,0,0,0,1.58,1.34,13.63,13.63,0,0,0,3.53,1.91,14.13,14.13,0,0,0,7.34.61,13.86,13.86,0,0,0,5.89-2.6,14,14,0,0,0,3.57-4,13.25,13.25,0,0,0,1.57-3.73,9.89,9.89,0,0,0,.3-1.45,6.24,6.24,0,0,0,.13-1.08l.05-.67,0-.23a.82.82,0,0,1,0,.23v.67a6.86,6.86,0,0,1-.1,1.09,9.46,9.46,0,0,1-.27,1.47,13.17,13.17,0,0,1-1.53,3.8,14,14,0,0,1-3.59,4.07,14.18,14.18,0,0,1-13.5,2.1,13.56,13.56,0,0,1-3.63-1.94,13.38,13.38,0,0,1-3-3,14.06,14.06,0,0,1-2.05-3.94,15.43,15.43,0,0,1-.73-4.51,14.25,14.25,0,0,1,2.79-8.46,12.78,12.78,0,0,1,3-3,13.56,13.56,0,0,1,3.63-1.94,14.32,14.32,0,0,1,7.5-.6,14.1,14.1,0,0,1,6,2.69,14.3,14.3,0,0,1,3.6,4.07,13.28,13.28,0,0,1,1.53,3.8,9.46,9.46,0,0,1,.27,1.47,7,7,0,0,1,.1,1.1v.67A.82.82,0,0,1,333.84,175.76Z"/><path class="cls-8" d="M289.36,144a17.84,17.84,0,0,0-.4-2.53,10.32,10.32,0,0,0-13.54-7.11,9.46,9.46,0,0,0-2.59,1.4,9.55,9.55,0,0,0-2.17,2.18,10.24,10.24,0,0,0,0,12.13,10.34,10.34,0,0,0,4.76,3.58A10.34,10.34,0,0,0,289,146.56a17.62,17.62,0,0,0,.4-2.53s0,.06,0,.17v.5a4.16,4.16,0,0,1-.06.81,6.36,6.36,0,0,1-.2,1.09,9.57,9.57,0,0,1-1.13,2.82,10.47,10.47,0,0,1-2.65,3,10.53,10.53,0,0,1-10,1.56,10.64,10.64,0,0,1-4.94-3.69,10.56,10.56,0,0,1,0-12.56,9.81,9.81,0,0,1,2.25-2.25,9.69,9.69,0,0,1,2.69-1.43,10.53,10.53,0,0,1,10,1.56,10.34,10.34,0,0,1,2.65,3,9.57,9.57,0,0,1,1.13,2.82,6.36,6.36,0,0,1,.2,1.09,4.11,4.11,0,0,1,.06.81v.49C289.37,144,289.37,144,289.36,144Z"/><path class="cls-8" d="M289.35,205.51s0-.28-.17-.76a3.13,3.13,0,0,0-1.17-1.67,3,3,0,1,0,0,4.87,3.13,3.13,0,0,0,1.17-1.67c.14-.48.14-.77.17-.77s0,.07,0,.21a2,2,0,0,1-.06.59,3.12,3.12,0,0,1-1.15,1.85,3.31,3.31,0,0,1-3.16.52,3.36,3.36,0,0,1,0-6.33,3.31,3.31,0,0,1,3.16.52,3.09,3.09,0,0,1,1.15,1.85,2,2,0,0,1,.06.59C289.38,205.44,289.37,205.51,289.35,205.51Z"/><path class="cls-8" d="M283.8,123.5s0-.28-.17-.76a3.15,3.15,0,0,0-1.17-1.68,3,3,0,1,0,0,4.88,3.17,3.17,0,0,0,1.17-1.67c.14-.48.14-.77.17-.77s0,.07,0,.21a2,2,0,0,1-.06.59,3.15,3.15,0,0,1-1.15,1.85,3.34,3.34,0,0,1-3.16.52,3.36,3.36,0,0,1,0-6.33,3.31,3.31,0,0,1,3.16.51,3.15,3.15,0,0,1,1.15,1.85,2.06,2.06,0,0,1,.06.6C283.83,123.43,283.82,123.5,283.8,123.5Z"/><path class="cls-8" d="M294.24,190.18a2.18,2.18,0,0,1-.07-.3L294,189c-.14-.77-.32-1.85-.55-3.2-.46-2.77-1.1-6.67-1.87-11.33l.19.13-15.72,2.5.16-.21h0V177l0,.13,0,.27.09.54c.05.36.11.71.16,1.07l.33,2.1c.22,1.38.43,2.74.64,4.06.41,2.64.79,5.13,1.15,7.42l-.19-.14,11.36-1.7,3.22-.46.86-.12a1.17,1.17,0,0,1,.31,0l-.27.06-.83.15-3.16.54-11.44,1.88-.16,0,0-.16c-.37-2.29-.76-4.78-1.19-7.41-.2-1.32-.42-2.68-.64-4.07l-.33-2.1L276,178l-.08-.54-.05-.27,0-.13V177h0c-.14.18.19-.27.16-.22l15.72-2.45.16,0,0,.16c.71,4.71,1.3,8.65,1.72,11.45.19,1.35.35,2.42.46,3.19,0,.34.08.61.11.83Z"/><path class="cls-8" d="M313.44,149.06l.18-.31.55-.86c.48-.77,1.18-1.86,2.05-3.23l7.32-11.39,0,.23-15.71-10.21.25-.05h0v0l0,0,0,.07-.09.13-.18.27-.35.54-.69,1.06-1.37,2.1c-.9,1.39-1.79,2.74-2.65,4.06-1.72,2.63-3.34,5.11-4.84,7.39l0-.22,11.29,7.46,3.19,2.12.84.57.29.21a1.34,1.34,0,0,1-.28-.16l-.84-.52-3.2-2L297.65,139l-.13-.09.09-.13,4.8-7.42,2.64-4.06c.46-.69.91-1.39,1.37-2.1l.69-1.06.35-.54.18-.27.09-.13,0-.07,0,0v0h0c-.23,0,.32-.07.26-.06l15.69,10.25.13.09-.08.13-7.52,11.38-2.1,3.15-.55.82A2,2,0,0,1,313.44,149.06Z"/><path class="cls-8" d="M302.83,197l-.06.12-.18.33-.7,1.25-2.59,4.6c-2.18,3.89-5.37,9.43-9.08,15.89l-.15-.26h25.52l-.15.26c-3.71-6.46-6.89-12-9.08-15.89l-2.59-4.61-.7-1.24-.18-.33-.06-.12s.08.12.24.39l.72,1.19,2.69,4.54c2.33,3.94,5.53,9.45,9.27,15.9l.15.26H289.76l.16-.26c3.73-6.44,6.93-12,9.26-15.9l2.7-4.54c.3-.5.53-.9.71-1.19Z"/><path class="cls-8" d="M292.71,156.27a2.06,2.06,0,0,1,.09.29c.06.21.14.46.23.78.21.7.48,1.66.83,2.84.69,2.39,1.63,5.85,2.73,9.89l-.3-.08,5.06-5.07,5.08-5.06.07.29c-4-1.1-7.5-2-9.88-2.73l-2.85-.82-.78-.23-.28-.1.24,0,.75.18,2.88.71c2.52.62,6,1.54,10,2.6l.29.08-.22.22-5.06,5.07-5.07,5.06-.21.21-.08-.29c-1.07-4-2-7.5-2.6-10-.3-1.19-.54-2.16-.71-2.87l-.18-.75A1,1,0,0,1,292.71,156.27Z"/></g><path class="cls-6" d="M310,155.19c0,.1-5.73.33-12.79.5s-12.8.23-12.81.13,5.73-.33,12.8-.5S310,155.09,310,155.19Z"/><path class="cls-6" d="M275.14,126.82a60.62,60.62,0,0,1,2.39,6.29,64.82,64.82,0,0,1,2,6.41,59.54,59.54,0,0,1-2.39-6.29A63,63,0,0,1,275.14,126.82Z"/><path class="cls-6" d="M314.28,127.7a10.07,10.07,0,0,1-.13,2c-.14,1.26-.36,3-.67,4.91s-.63,3.63-.9,4.86a10.39,10.39,0,0,1-.51,2,11.38,11.38,0,0,1,.25-2c.23-1.37.5-3,.8-4.88s.55-3.51.77-4.88A12.46,12.46,0,0,1,314.28,127.7Z"/><path class="cls-6" d="M287.12,164.25a3.87,3.87,0,0,1-.27-1.35,10.58,10.58,0,0,1,1.58-6.39,3.53,3.53,0,0,1,.88-1.07,18.13,18.13,0,0,0-1.82,4.23A18.44,18.44,0,0,0,287.12,164.25Z"/><path class="cls-6" d="M291,160.27a6.33,6.33,0,0,1,.07-4.61,19.44,19.44,0,0,1-.1,2.3A20.16,20.16,0,0,1,291,160.27Z"/><path class="cls-6" d="M313.09,203.63a2.51,2.51,0,0,1-.43-.19c-.27-.14-.69-.31-1.18-.61a21.19,21.19,0,0,1-4-2.89,27.4,27.4,0,0,1-4.65-5.58,35.43,35.43,0,0,1-3.77-8.05,64.93,64.93,0,0,1-2.66-15.91c-.12-2.06-.18-3.73-.21-4.88,0-.55,0-1,0-1.33a2.35,2.35,0,0,1,0-.46,2.66,2.66,0,0,1,.06.46q0,.51.09,1.32c.08,1.2.2,2.85.34,4.87a68.55,68.55,0,0,0,2.74,15.81,35.72,35.72,0,0,0,3.71,8,28.26,28.26,0,0,0,4.54,5.57,23.34,23.34,0,0,0,3.85,3C312.53,203.3,313.1,203.59,313.09,203.63Z"/><g class="cls-11"><path d="M296.73,168.62a28.92,28.92,0,0,0,10.65,18.7c2.12,1.67,4.61,3.22,5.51,5.76a8.75,8.75,0,0,1-.68,6.35,3,3,0,0,1-1.71,1.88,3,3,0,0,1-2.46-.83c-4.68-3.52-7.69-8.9-9.37-14.51s-2.15-11.5-2.58-17.34"/></g><path class="cls-6" d="M324.71,243.19c0,.1-12,.19-26.87.19s-26.88-.09-26.88-.19,12-.18,26.88-.18S324.71,243.09,324.71,243.19Z"/><path class="cls-6" d="M324.71,95c0,.1-12,.18-26.87.18S271,95.11,271,95s12-.19,26.88-.19S324.71,94.9,324.71,95Z"/><path class="cls-6" d="M324.71,247.63c0,.1-12,.18-26.87.18s-26.88-.08-26.88-.18,12-.19,26.88-.19S324.71,247.52,324.71,247.63Z"/><path d="M294.2,260.55v7.73h-1.79V262h-1.55v-1.43Z"/><path d="M295.55,264.41c0-2.55,1.41-4,3.31-4s3.32,1.45,3.32,4-1.4,4-3.32,4S295.55,267,295.55,264.41Zm4.83,0c0-1.75-.62-2.48-1.52-2.48s-1.5.73-1.5,2.48.62,2.49,1.5,2.49S300.38,266.17,300.38,264.41Z"/><path class="cls-6" d="M307.12,262.24a1.53,1.53,0,0,1-1.61,1.7,1.67,1.67,0,0,1-.87-.22l.27-.53a1.06,1.06,0,0,0,.59.15.83.83,0,0,0,.88-.91,1.08,1.08,0,0,1-.78.28,1,1,0,0,1-1.08-1,1.08,1.08,0,0,1,1.19-1.05C306.58,260.68,307.12,261.22,307.12,262.24Zm-.82-.55c0-.27-.2-.47-.55-.47a.47.47,0,1,0,0,.94A.48.48,0,0,0,306.3,261.69Z"/><path class="cls-6" d="M310,262.24a1.53,1.53,0,0,1-1.6,1.7,1.69,1.69,0,0,1-.88-.22l.27-.53a1.08,1.08,0,0,0,.59.15.84.84,0,0,0,.89-.91,1.11,1.11,0,0,1-.78.28,1,1,0,0,1-1.09-1,1.08,1.08,0,0,1,1.19-1.05C309.45,260.68,310,261.22,310,262.24Zm-.81-.55c0-.27-.2-.47-.55-.47a.47.47,0,0,0-.53.47c0,.29.21.47.54.47A.48.48,0,0,0,309.17,261.69Z"/><rect class="cls-6" x="304.43" y="265.01" width="5.53" height="0.7"/><path class="cls-10" d="M313.23,237.52c0,.1-6.66.19-14.88.19s-14.88-.09-14.88-.19,6.66-.18,14.88-.18S313.23,237.42,313.23,237.52Z"/><circle class="cls-10" cx="337.66" cy="263.88" r="10.74" transform="translate(-75.28 149.3) rotate(-22.5)"/><path class="cls-8" d="M334.94,269.91a3.71,3.71,0,0,1,.59-.53l1.7-1.34c1.44-1.12,3.44-2.64,5.67-4.3V264h0l0,0-.05,0-.11-.07-.2-.16-.41-.3-.8-.61-1.51-1.14-2.54-1.94-1.7-1.34a3.71,3.71,0,0,1-.59-.53,3.27,3.27,0,0,1,.68.41l1.77,1.25L340,261.4l1.53,1.12.8.6.41.31.21.15.1.08.05,0,0,0h0v.3c-2.22,1.67-4.25,3.16-5.73,4.22l-1.77,1.24A3.11,3.11,0,0,1,334.94,269.91Z"/><circle class="cls-10" cx="256.34" cy="263.88" r="10.74" transform="matrix(0.16, -0.99, 0.99, 0.16, -45.19, 474.65)"/><path class="cls-8" d="M259.06,257.86a3.71,3.71,0,0,1-.59.53l-1.7,1.34c-1.44,1.11-3.44,2.64-5.67,4.3v-.29h0l0,0,0,0,.11.08.2.16.41.3.8.6,1.51,1.14,2.54,2,1.7,1.34a3.71,3.71,0,0,1,.59.53,3.11,3.11,0,0,1-.68-.42l-1.77-1.24L254,266.37l-1.53-1.13-.8-.59-.41-.31-.21-.15-.1-.08,0,0,0,0h0v-.3c2.22-1.66,4.25-3.15,5.73-4.21l1.77-1.25A3.27,3.27,0,0,1,259.06,257.86Z"/><rect class="cls-2" x="248.83" y="282.19" width="21.46" height="21.46"/><rect class="cls-2" x="276.05" y="282.19" width="21.46" height="21.46"/><rect class="cls-2" x="303.28" y="282.19" width="21.46" height="21.46"/><rect class="cls-2" x="330.5" y="282.19" width="21.46" height="21.46"/><rect class="cls-10" x="277.36" y="87.56" width="40.04" height="2.28"/><path class="cls-3" d="M450,282.42a1.24,1.24,0,0,1,0-.42c0-.32,0-.72,0-1.21,0-1.1,0-2.61,0-4.46,0-.94,0-2,0-3.08,0-.55,0-1.12,0-1.71a12.8,12.8,0,0,1,.06-1.84,6.07,6.07,0,0,1,5.62-5.26,6.09,6.09,0,0,1,6.3,4.43,6.54,6.54,0,0,1,.23,1.84c0,.59,0,1.16,0,1.72,0,1.1,0,2.13,0,3.08,0,1.84-.05,3.35-.06,4.45l0,1.21a2.43,2.43,0,0,1,0,.43,1.34,1.34,0,0,1,0-.43c0-.31,0-.71,0-1.21,0-1.1,0-2.61,0-4.45,0-.95,0-2,0-3.08a13.24,13.24,0,0,0-.24-3.47,5.77,5.77,0,0,0-11.25.79,13.4,13.4,0,0,0-.07,1.79c0,.59,0,1.16,0,1.71,0,1.11,0,2.14,0,3.08,0,1.85-.05,3.36-.06,4.46l0,1.21A2.24,2.24,0,0,1,450,282.42Z"/><path class="cls-3" d="M450,283c-.53,0-.55-.49-.57-.93l0-1.22-.09-9.63a11.65,11.65,0,0,1,.06-1.54,6.63,6.63,0,0,1,13-.9,6.68,6.68,0,0,1,.25,2l-.13,10.48c0,.44,0,.94-.56.94s-.55-.5-.57-.93l-.12-8.77c0-.3,0-.62,0-.95a8.09,8.09,0,0,0-.22-2.36,5.25,5.25,0,0,0-5.39-3.78,5.23,5.23,0,0,0-3.3,1.47,5.29,5.29,0,0,0-1.53,3,9.94,9.94,0,0,0-.06,1.35L450.6,282C450.59,282.46,450.57,283,450,283Z"/><path class="cls-3" d="M457.39,282.42a1.24,1.24,0,0,1,0-.42c0-.32,0-.72,0-1.21,0-1.1,0-2.61-.05-4.46,0-.94,0-2,0-3.08,0-.55,0-1.12,0-1.71a12.8,12.8,0,0,1,.06-1.84,6.07,6.07,0,0,1,5.62-5.26,6.09,6.09,0,0,1,6.3,4.43,6.54,6.54,0,0,1,.23,1.84c0,.59,0,1.16,0,1.72,0,1.1,0,2.13,0,3.08,0,1.84,0,3.35-.06,4.45l0,1.21a2.43,2.43,0,0,1,0,.43,1.34,1.34,0,0,1,0-.43c0-.31,0-.71,0-1.21,0-1.1,0-2.61-.05-4.45,0-.95,0-2,0-3.08a13.24,13.24,0,0,0-.24-3.47,5.77,5.77,0,0,0-11.25.79,13.4,13.4,0,0,0-.07,1.79c0,.59,0,1.16,0,1.71,0,1.11,0,2.14,0,3.08,0,1.85,0,3.36-.06,4.46l0,1.21A2.24,2.24,0,0,1,457.39,282.42Z"/><path class="cls-3" d="M457.39,283c-.53,0-.55-.49-.57-.93l-.13-10.85a10.21,10.21,0,0,1,.07-1.54,6.5,6.5,0,0,1,1.91-3.83,6.63,6.63,0,0,1,11,2.93,7,7,0,0,1,.25,2l-.13,10.48c0,.44,0,.94-.56.94s-.55-.5-.57-.93l0-1.9-.08-6.87c0-.3,0-.62,0-.95a8.09,8.09,0,0,0-.22-2.36,5.25,5.25,0,0,0-5.39-3.78,5.21,5.21,0,0,0-4.82,4.47,8.6,8.6,0,0,0-.07,1.35L458,282C457.94,282.46,457.91,283,457.39,283Z"/><polygon class="cls-10" points="441.13 279.29 436.18 323.01 470.17 323.01 474.46 279.29 441.13 279.29"/><polygon class="cls-10" points="474.46 279.29 481.55 279.29 487.55 323.01 470.17 323.01 474.46 279.29"/><g class="cls-12"><polygon points="474.46 279.29 481.55 279.29 487.55 323.01 470.17 323.01 474.46 279.29"/></g><polygon class="cls-8" points="439.73 291.59 472.4 300.28 470.74 317.23 437.78 308.86 439.73 291.59"/><path class="cls-6" d="M388.19,212.17a22.1,22.1,0,0,0-.24,13.39c.81,2.67,2.14,5.34,1.73,8.09-.33,2.25-1.79,4.22-2.08,6.48-.58,4.58,3.77,8.93,2.6,13.4a7.09,7.09,0,0,1-4.18,4.53,13,13,0,0,1-6.26.79c-3.13-.28-6.51-1.46-8-4.25-1.15-2.22-.79-4.89-.39-7.36,1.76-10.91,3.8-21.9,8.23-32"/><path class="cls-6" d="M389.58,245.9a1.91,1.91,0,0,1-.37.12,4,4,0,0,1-1.1.09,4.37,4.37,0,0,1-1.68-.48,3.89,3.89,0,0,1-1.61-1.65,4.24,4.24,0,0,1-.32-2.78,4,4,0,0,1,.67-1.43,6,6,0,0,1,1.19-1.17,33.19,33.19,0,0,0,2.82-2.1,5.61,5.61,0,0,0,1.58-3.3,9.44,9.44,0,0,0-.27-3.72,21.75,21.75,0,0,0-1.24-3.29,26.7,26.7,0,0,1-2.15-5.59,8.52,8.52,0,0,1,0-4,4.46,4.46,0,0,1,.59-1.36,9.41,9.41,0,0,0-.5,1.39,8.55,8.55,0,0,0,.05,4,28.21,28.21,0,0,0,2.19,5.54,21,21,0,0,1,1.26,3.32,9.63,9.63,0,0,1,.28,3.8,5.82,5.82,0,0,1-1.65,3.42,29.77,29.77,0,0,1-2.85,2.11,4.47,4.47,0,0,0-1.8,2.49,4.1,4.1,0,0,0,.28,2.66,3.8,3.8,0,0,0,1.53,1.61,4.36,4.36,0,0,0,1.63.5A4.76,4.76,0,0,0,389.58,245.9Z"/><path class="cls-13" d="M346.51,316.16,344.73,323l-18.34-.17s1.34-3.21,11.37-3.06l.74-3.59Z"/><path class="cls-7" d="M413.28,213.85c-.18.35-4.83,24.28-4.83,24.28l11,.51,4.25-20.57Z"/><polygon class="cls-6" points="408.45 238.13 407.19 237.6 411.94 214.01 413.43 213.91 408.45 238.13"/><path class="cls-6" d="M417.69,219.08a.59.59,0,0,0,.5.64.58.58,0,0,0,.63-.5.56.56,0,0,0-.49-.63A.57.57,0,0,0,417.69,219.08Z"/><path class="cls-13" d="M420,235.88l.16-3.13-4.69-1.94,1.83-4.34a3.79,3.79,0,0,1,5.27-1.8l1.88,1a5.41,5.41,0,0,1,2.67,3.47,71.12,71.12,0,0,1,1.09,7.65"/><path class="cls-10" d="M432.51,315.65s19.29,5.34,20.06,5.61c1.17.41,1,4.67-.84,4.6-.85,0-14.81.52-16.58.41s-7.08-2.2-7.08-2.2Z"/><path class="cls-6" d="M440.55,323a8.44,8.44,0,0,1,2.21-3.84,3.43,3.43,0,0,0-1.64,1.61A3.33,3.33,0,0,0,440.55,323Z"/><path class="cls-6" d="M438.53,322.1c.1,0,.29-.89.81-1.9s1.12-1.71,1.05-1.78a4.84,4.84,0,0,0-1.86,3.68Z"/><path class="cls-6" d="M436.65,321.6a13.07,13.07,0,0,1,.45-2,13.41,13.41,0,0,1,1-1.81,3,3,0,0,0-1.35,1.69A2.94,2.94,0,0,0,436.65,321.6Z"/><path class="cls-6" d="M437,319.1a3.23,3.23,0,0,0,.21-1.43,6.81,6.81,0,0,0-.2-1.57,6.62,6.62,0,0,0-.28-.9,1.2,1.2,0,0,0-.31-.47.53.53,0,0,0-.67,0,.86.86,0,0,0-.25.55,4.36,4.36,0,0,0,0,.51,4.64,4.64,0,0,0,.12.94,5.62,5.62,0,0,0,.59,1.47,3.85,3.85,0,0,0,.87,1.17s-.28-.48-.66-1.27a6.42,6.42,0,0,1-.51-1.43,4.26,4.26,0,0,1-.09-.89c0-.29,0-.66.18-.81a.19.19,0,0,1,.25,0,.76.76,0,0,1,.21.34,6.1,6.1,0,0,1,.29.85,7.25,7.25,0,0,1,.26,1.51C437,318.55,436.94,319.1,437,319.1Z"/><path class="cls-6" d="M437,318.91a2.57,2.57,0,0,0-1.25-.2,5.55,5.55,0,0,0-1.37.17,2.67,2.67,0,0,0-.78.29.81.81,0,0,0-.44.88,1,1,0,0,0,.69.69,1.82,1.82,0,0,0,.87,0,3.32,3.32,0,0,0,1.25-.61,3.46,3.46,0,0,0,.9-.89,9.51,9.51,0,0,0-1,.7,3.37,3.37,0,0,1-1.18.51,1.46,1.46,0,0,1-.72,0,.66.66,0,0,1-.47-.46.5.5,0,0,1,.29-.53,2.85,2.85,0,0,1,.7-.28,6.3,6.3,0,0,1,1.3-.22C436.49,318.88,437,319,437,318.91Z"/><path class="cls-6" d="M443.51,323.22a10.72,10.72,0,0,1,.38-1.74,11.29,11.29,0,0,1,.94-1.51,2.77,2.77,0,0,0-1.32,3.25Z"/><path class="cls-6" d="M430.05,324.11a4.47,4.47,0,0,0,.75.35,16.48,16.48,0,0,0,2.14.67,30.51,30.51,0,0,0,7.37.69c2.89,0,5.49-.16,7.38-.23l2.24-.12a4.8,4.8,0,0,0,.82-.09,3.92,3.92,0,0,0-.83,0l-2.23,0-7.38.14a34.09,34.09,0,0,1-7.32-.6C431.15,324.53,430.07,324.05,430.05,324.11Z"/><path class="cls-6" d="M429.48,324.55s.55-.26,1.45-.65a6.64,6.64,0,0,1,3.65-.61,5.75,5.75,0,0,1,3.15,1.88,12,12,0,0,0,1.11,1.13,6,6,0,0,0-.94-1.29,8.41,8.41,0,0,0-1.28-1.2,4.66,4.66,0,0,0-2-.84,6.34,6.34,0,0,0-3.8.72A5,5,0,0,0,429.48,324.55Z"/><path class="cls-10" d="M412,310.33s-18.26,11.95-18.91,12.44c-1,.75.14,4.28,1.85,3.67.8-.29,16.12-4.55,17.76-5.19s6.09-4.26,6.09-4.26Z"/><path class="cls-6" d="M406.62,319.78a3.45,3.45,0,0,0-1.23-1.95,3.38,3.38,0,0,0-2.05-1,8.53,8.53,0,0,1,3.28,3Z"/><path class="cls-6" d="M408.25,318.3a4.84,4.84,0,0,0-2.88-2.94c-.05.08.75.56,1.54,1.37S408.17,318.35,408.25,318.3Z"/><path class="cls-6" d="M409.9,317.25a3.64,3.64,0,0,0-2.6-3.21,13.38,13.38,0,0,1,1.55,1.4A14,14,0,0,1,409.9,317.25Z"/><path class="cls-6" d="M408.82,315s-.21-.52-.42-1.37a7.74,7.74,0,0,1-.21-1.51,6.84,6.84,0,0,1,0-.9.86.86,0,0,1,.1-.39.18.18,0,0,1,.25-.05c.2.08.31.43.41.71a4.82,4.82,0,0,1,.18.87,5.73,5.73,0,0,1,0,1.52c-.12.87-.3,1.39-.24,1.41a4,4,0,0,0,.47-1.37,5.94,5.94,0,0,0,.12-1.59,4,4,0,0,0-.18-.93,2.34,2.34,0,0,0-.18-.48.79.79,0,0,0-.41-.44.51.51,0,0,0-.64.17,1.2,1.2,0,0,0-.15.54,7.36,7.36,0,0,0,0,.94,7,7,0,0,0,.29,1.56A3.49,3.49,0,0,0,408.82,315Z"/><path class="cls-6" d="M408.78,314.78c0,.05.45-.17,1.19-.35a7.41,7.41,0,0,1,1.3-.18,3.09,3.09,0,0,1,.75.05.51.51,0,0,1,.44.43.66.66,0,0,1-.31.58,1.48,1.48,0,0,1-.68.22,3.45,3.45,0,0,1-1.28-.12,12.15,12.15,0,0,0-1.19-.36,3,3,0,0,0,1.12.57,3.37,3.37,0,0,0,1.38.21,1.79,1.79,0,0,0,.83-.26,1,1,0,0,0,.45-.87.83.83,0,0,0-.68-.71,3.46,3.46,0,0,0-.84,0,5.6,5.6,0,0,0-1.36.25A2.73,2.73,0,0,0,408.78,314.78Z"/><path class="cls-6" d="M397.3,325.77s.31-.18.45-.7a2.74,2.74,0,0,0-.34-2,6.7,6.7,0,0,0-.62-.92,3,3,0,0,0-.62-.66,1,1,0,0,0-.58-.24c-.15,0-.23,0-.23,0a1.8,1.8,0,0,1,.67.37,4.47,4.47,0,0,1,.52.67,10.52,10.52,0,0,1,.57.89,2.81,2.81,0,0,1,.4,1.78A6,6,0,0,1,397.3,325.77Z"/><path class="cls-6" d="M403.85,320.88a2.21,2.21,0,0,0-.64-1.75,2.26,2.26,0,0,0-1.61-.95,10.29,10.29,0,0,1,1.36,1.16A9.32,9.32,0,0,1,403.85,320.88Z"/><path class="cls-6" d="M417,317.64a5.94,5.94,0,0,0-.8.55,26.18,26.18,0,0,1-2.25,1.38,32.19,32.19,0,0,1-3.58,1.59c-1.38.51-2.93,1-4.57,1.48-3.28.94-6.26,1.81-8.4,2.45l-2.54.78a5.79,5.79,0,0,0-.92.33,6.6,6.6,0,0,0,1-.21l2.56-.68c2.16-.59,5.14-1.42,8.43-2.36,1.64-.48,3.2-1,4.59-1.51a27.69,27.69,0,0,0,3.58-1.67,18.4,18.4,0,0,0,2.21-1.48A5.92,5.92,0,0,0,417,317.64Z"/><path class="cls-6" d="M417.63,317.88a5.89,5.89,0,0,0-1.55-.41,6.4,6.4,0,0,0-3.84.47,4.56,4.56,0,0,0-1.64,1.41,7.86,7.86,0,0,0-.86,1.53,5.62,5.62,0,0,0-.5,1.52A14.92,14.92,0,0,0,410,321a5.75,5.75,0,0,1,2.44-2.75,6.77,6.77,0,0,1,3.66-.53C417,317.8,417.61,317.93,417.63,317.88Z"/><path class="cls-10" d="M368.26,239.12l15,1.42,6.08,1.72a16.45,16.45,0,0,1,6.93,4L415.83,265l3.58-29.21,9.79.85-1.63,37.61a11.2,11.2,0,0,1-10.67,7.79,11.57,11.57,0,0,1-7.89-3.24l-13.95-13.11-.42,18.74,9.69,7.86L367,313.12s-2-7.95-1.1-25.65c.17-3.25-5.79-13.1-6.24-16-1.75-11.15-1.48-27.46-1.48-27.46Z"/><path class="cls-10" d="M359.07,243.67s-7.58,2.81-9.41,8.74c-1.62,5.26-7,34.84-7,34.84l-5.38,31.3,11.26.43,13-53.35Z"/><path class="cls-6" d="M358.56,278.24a2.83,2.83,0,0,0,.23-.63c.13-.42.3-1,.5-1.77.4-1.5.92-3.58,1.44-5.89s.94-4.41,1.22-5.94c.14-.76.24-1.38.3-1.81a2.59,2.59,0,0,0,.07-.67,2.5,2.5,0,0,0-.19.65c-.11.49-.25,1.09-.4,1.79-.36,1.59-.81,3.64-1.31,5.91l-1.35,5.9-.4,1.8A2.91,2.91,0,0,0,358.56,278.24Z"/><path class="cls-6" d="M427.47,239.48a3.49,3.49,0,0,0,.28-1.48,3.61,3.61,0,0,0,0-1.5,6.81,6.81,0,0,0-.25,3Z"/><path class="cls-6" d="M424.6,239.57a4.05,4.05,0,0,0,.25-1.57,4,4,0,0,0-.09-1.59,4.35,4.35,0,0,0-.24,1.57A4.14,4.14,0,0,0,424.6,239.57Z"/><path class="cls-6" d="M421.76,239.39a5.11,5.11,0,0,0,.26-1.75,4.91,4.91,0,0,0-.07-1.77,5,5,0,0,0-.26,1.75A5,5,0,0,0,421.76,239.39Z"/><path class="cls-6" d="M416.25,269.52a10.66,10.66,0,0,0-.1-2.59,10.41,10.41,0,0,0-.43-2.55,10.4,10.4,0,0,0,.11,2.59A10.15,10.15,0,0,0,416.25,269.52Z"/><path class="cls-6" d="M346.65,315.72a4.26,4.26,0,0,0-.44,1.57,4.1,4.1,0,0,0-.11,1.62,4.07,4.07,0,0,0,.43-1.57A4.23,4.23,0,0,0,346.65,315.72Z"/><path class="cls-6" d="M343,315.72a6.72,6.72,0,0,0-.48,2.9,3.88,3.88,0,0,0,.4-1.43A3.45,3.45,0,0,0,343,315.72Z"/><path class="cls-6" d="M339.44,315.36a14.17,14.17,0,0,0-.55,3.25,6.34,6.34,0,0,0,.55-3.25Z"/><path class="cls-6" d="M353,247.32c0,.06.78,0,2,.26a9.34,9.34,0,0,1,7,6.09c.42,1.18.48,2,.54,2a1.77,1.77,0,0,0,0-.55,8.86,8.86,0,0,0-.31-1.47,9.2,9.2,0,0,0-2.69-4.14,9.1,9.1,0,0,0-4.46-2.1,8.29,8.29,0,0,0-1.5-.11A1.74,1.74,0,0,0,353,247.32Z"/><path class="cls-6" d="M393.42,273.73c-.06,0,.3-.92.65-2.43a21.6,21.6,0,0,0,.54-6,21.9,21.9,0,0,0-1.17-5.9c-.51-1.46-1-2.32-.9-2.35a2.73,2.73,0,0,1,.36.58,14.72,14.72,0,0,1,.79,1.68,19.33,19.33,0,0,1,1.29,6,19.65,19.65,0,0,1-.65,6.08,16.9,16.9,0,0,1-.6,1.75A2.34,2.34,0,0,1,393.42,273.73Z"/><path class="cls-6" d="M394.38,284.07a2.34,2.34,0,0,1-.64,0c-.42,0-1,0-1.77-.08a29.39,29.39,0,0,1-5.73-1,30.22,30.22,0,0,1-5.42-2.14,17.59,17.59,0,0,1-1.53-.87c-.35-.22-.54-.35-.53-.38s.84.39,2.18,1a38.36,38.36,0,0,0,5.4,2,37.78,37.78,0,0,0,5.66,1.15A22.82,22.82,0,0,1,394.38,284.07Z"/><g class="cls-11"><path d="M377.86,278.86c1.17,1.05,3,1.2,4.56,1.17s3.13-.34,4.7-.32a5.88,5.88,0,0,1,4.29,1.62,2.16,2.16,0,0,1,.61,1.29,1.16,1.16,0,0,1-.71,1.15,1.73,1.73,0,0,1-.9,0c-4.4-.91-9.15-1.94-12.55-4.87"/></g><g class="cls-11"><path d="M363.43,280.25c1.16-.33,1.35-1.69,1.47-2.9a26.32,26.32,0,0,0-2.81-14.45c-.54,3.27-1.46,6.68-2.1,10Z"/></g><path class="cls-8" d="M361.4,266.61a3.48,3.48,0,0,0-.95-.42,3.22,3.22,0,0,0-2.63.75,6,6,0,0,0-1.77,3.75c-.32,1.56-.47,3.47-1.68,5.06A3.88,3.88,0,0,1,352,277.2a19.74,19.74,0,0,1-2.58.19,5.55,5.55,0,0,0-3.81,1.57,5.76,5.76,0,0,0-1.5,2.4c-.21.65-.23,1-.27,1a1,1,0,0,1,0-.28,3.32,3.32,0,0,1,.13-.79,5.8,5.8,0,0,1,3.14-3.74,6.06,6.06,0,0,1,2.29-.53,20.07,20.07,0,0,0,2.53-.21,3.56,3.56,0,0,0,2.19-1.32,6.69,6.69,0,0,0,1.11-2.41c.23-.84.35-1.69.52-2.49a6.2,6.2,0,0,1,2-3.88,3.27,3.27,0,0,1,2.82-.69,2,2,0,0,1,.73.36C361.35,266.54,361.41,266.6,361.4,266.61Z"/><path class="cls-8" d="M403.71,252.83a4.76,4.76,0,0,1-.94,1.44,7,7,0,0,1-4.1,2.2,6.72,6.72,0,0,1-3.26-.25,10.61,10.61,0,0,1-3.17-2,18.78,18.78,0,0,0-3.27-2.38,5.37,5.37,0,0,0-2-.55,6.06,6.06,0,0,0-2.14.27,14.14,14.14,0,0,0-3.84,2,22.77,22.77,0,0,1-3.53,2.12,9.07,9.07,0,0,1-3.66.78,10,10,0,0,1-3.22-.53,9.83,9.83,0,0,1-3.94-2.52,7.81,7.81,0,0,1-.79-1,1.69,1.69,0,0,1-.22-.39s.34.51,1.11,1.29a9.92,9.92,0,0,0,3.92,2.38,9.28,9.28,0,0,0,6.66-.31,24.4,24.4,0,0,0,3.47-2.11,14.16,14.16,0,0,1,3.94-2.05,6.65,6.65,0,0,1,2.26-.28,5.74,5.74,0,0,1,2.14.6,18.16,18.16,0,0,1,3.34,2.43,10.49,10.49,0,0,0,3.06,2,6.47,6.47,0,0,0,3.11.28,7.06,7.06,0,0,0,4-2A12.08,12.08,0,0,0,403.71,252.83Z"/><path class="cls-8" d="M422.15,281.06a9.33,9.33,0,0,1-.29-1.31,17,17,0,0,0-1-3.49,7.77,7.77,0,0,0-1.34-2.09,5.36,5.36,0,0,0-2.33-1.54,9.92,9.92,0,0,0-3.13-.31,12.57,12.57,0,0,1-3.48-.25,7.58,7.58,0,0,1-3-1.74c-.85-.75-1.57-1.57-2.27-2.31A9.41,9.41,0,0,0,401,265a4.38,4.38,0,0,0-3.45.52,4.17,4.17,0,0,0-.92.94,1.58,1.58,0,0,1,.15-.32,3.13,3.13,0,0,1,.69-.74,4.45,4.45,0,0,1,3.59-.65,9.52,9.52,0,0,1,4.49,3.08c.71.75,1.43,1.55,2.26,2.27a7.25,7.25,0,0,0,2.89,1.66c2.24.57,4.58-.1,6.62.6a5.55,5.55,0,0,1,2.46,1.66,8.29,8.29,0,0,1,1.35,2.18,14.71,14.71,0,0,1,.92,3.57c.07.43.11.77.13,1A1.16,1.16,0,0,1,422.15,281.06Z"/><path class="cls-8" d="M394.36,270.26s-.12,0-.36.06a4.49,4.49,0,0,1-1.06,0,12.94,12.94,0,0,1-3.65-1.31,14.34,14.34,0,0,0-2.46-1,6.62,6.62,0,0,0-2.95-.1,12.54,12.54,0,0,0-5.9,3.44c-1.79,1.7-3.34,3.53-5.08,4.86a11.26,11.26,0,0,1-5.23,2.35,11,11,0,0,1-3.88-.05,7.36,7.36,0,0,1-1-.27,1.52,1.52,0,0,1-.35-.13s.5.12,1.39.26a11.74,11.74,0,0,0,3.81-.07,11.21,11.21,0,0,0,5.07-2.36c1.69-1.32,3.22-3.13,5-4.86a12.65,12.65,0,0,1,6.09-3.5,6.73,6.73,0,0,1,3.11.14,15.18,15.18,0,0,1,2.49,1,14,14,0,0,0,3.55,1.41A11.66,11.66,0,0,0,394.36,270.26Z"/><path class="cls-8" d="M387.82,282.81c0,.11-.75.06-1.41.59s-.83,1.23-.93,1.22-.08-.2,0-.51a1.94,1.94,0,0,1,.7-1,2.06,2.06,0,0,1,1.15-.43C387.65,282.68,387.83,282.77,387.82,282.81Z"/><path class="cls-8" d="M393.93,279.91a6.43,6.43,0,0,1-2.55,3.83,19.33,19.33,0,0,1,1.33-1.88A21.24,21.24,0,0,1,393.93,279.91Z"/><path class="cls-8" d="M369,290c0,.1-.81-.11-1.77-.11s-1.73.19-1.76.09a2.59,2.59,0,0,1,1.77-.46A2.65,2.65,0,0,1,369,290Z"/><path class="cls-8" d="M348.59,255.4s.17.08.47.17a2.15,2.15,0,0,0,1.29-.11,3.58,3.58,0,0,0,1.5-1.25,18.38,18.38,0,0,1,1.59-2,8.44,8.44,0,0,1,4-2.21,6.51,6.51,0,0,1,1.39-.17,1.48,1.48,0,0,1,.51,0c0,.06-.73.07-1.84.38a9.07,9.07,0,0,0-3.84,2.23,19.4,19.4,0,0,0-1.58,1.93,3.68,3.68,0,0,1-1.68,1.27,2,2,0,0,1-1.43,0C348.7,255.56,348.58,255.41,348.59,255.4Z"/><path class="cls-8" d="M386.7,241.35s-.22.43-.8.94a6.83,6.83,0,0,1-2.65,1.37,6.7,6.7,0,0,1-3,.1,2.63,2.63,0,0,1-1.16-.42,8.71,8.71,0,0,1,1.2.16,7.77,7.77,0,0,0,5.44-1.42A9.4,9.4,0,0,1,386.7,241.35Z"/><path class="cls-8" d="M354.74,294.45s-.3,0-.82.15a5.17,5.17,0,0,0-2,1,8.17,8.17,0,0,0-2.13,2.53c-.64,1.08-1.17,2.38-1.84,3.7a9.92,9.92,0,0,1-2.54,3.33,4.71,4.71,0,0,1-3.23,1.1,3.62,3.62,0,0,1-2.17-.79,2.28,2.28,0,0,1-.42-.47c-.08-.12-.12-.19-.11-.19s.2.23.62.54a3.56,3.56,0,0,0,2.09.65,4.57,4.57,0,0,0,3-1.1,10.19,10.19,0,0,0,2.42-3.24c.66-1.3,1.21-2.6,1.88-3.71a8.11,8.11,0,0,1,2.27-2.56,5,5,0,0,1,2.12-.9,3,3,0,0,1,.63,0Z"/><g class="cls-14"><path d="M415.51,264.65a6.42,6.42,0,0,0-1.28,5.58c.08.32.22.67.54.76a.66.66,0,0,0,.69-.27,1.74,1.74,0,0,0,.3-.73,11.37,11.37,0,0,0-.09-5.5"/></g><path class="cls-8" d="M428.85,248.19a10.72,10.72,0,0,0-1.79,2.16,16.43,16.43,0,0,0-1.29,2.77c-.42,1.08-.81,2.3-1.38,3.53a9,9,0,0,1-2.22,3.12,5.73,5.73,0,0,1-2.85,1.3,3.94,3.94,0,0,1-2.09-.27,2.23,2.23,0,0,1-.5-.3c-.1-.07-.16-.12-.15-.13s.25.13.7.29a3.94,3.94,0,0,0,2,.15,5.64,5.64,0,0,0,2.67-1.29,9.15,9.15,0,0,0,2.1-3c.56-1.21,1-2.42,1.4-3.51a15,15,0,0,1,1.39-2.78,7.33,7.33,0,0,1,1.37-1.59A2.46,2.46,0,0,1,428.85,248.19Z"/><path class="cls-8" d="M429.45,240.28a4.26,4.26,0,0,1-1.25,1.09,10.23,10.23,0,0,1-3.71,1.53,10.5,10.5,0,0,1-4,0,4.52,4.52,0,0,1-1.57-.54c0-.06.62.13,1.62.28a11.7,11.7,0,0,0,7.53-1.49C428.93,240.64,429.41,240.23,429.45,240.28Z"/><path class="cls-6" d="M434.7,315.43s-44.76-29.36-46.59-30-6.27-3.52-10.69-2.29-8.41,5.19-10.39,11S364.89,313,364.89,313s3.51,10.24,10.39,12.37a16.14,16.14,0,0,0,1.79.45,21.11,21.11,0,0,0,21.61-9.34l1-1.52s29.29,10.76,29.74,10.61Z"/><path class="cls-6" d="M450,281.18a8.76,8.76,0,0,1,5.5,8.1C455.51,301,431.7,314,431.7,314L400,293V290.8S440.8,276.14,450,281.18Z"/><path class="cls-7" d="M379.32,307.35l.25.11.73.29,2.84,1.09,10.55,4c4.48,1.67,9.84,3.66,15.86,5.85s12.7,4.59,19.82,7l.13,0,.07-.12c1.12-2.14,2.3-4.39,3.49-6.68.61-1.17,1.22-2.32,1.79-3.4l.06-.14-.12-.08-34.14-21.67-10.26-6.47-2.79-1.74-.72-.44-.26-.15a2,2,0,0,0,.24.17l.71.47,2.75,1.79,10.21,6.56,34.09,21.76-.06-.21-1.78,3.4-3.5,6.68.2-.08c-7.13-2.4-13.8-4.79-19.83-7l-15.89-5.79-10.58-3.88-2.86-1-.74-.26Z"/><path class="cls-7" d="M416.07,303.61a5.53,5.53,0,0,0,.83-.56c.51-.37,1.26-.93,2.16-1.63,1.82-1.41,4.28-3.39,6.94-5.67s5-4.42,6.65-6c.83-.79,1.5-1.44,2-1.9a4.55,4.55,0,0,0,.67-.73,7.45,7.45,0,0,0-.76.64l-2,1.82c-1.7,1.54-4.06,3.65-6.71,5.92s-5.09,4.29-6.87,5.74l-2.1,1.71A5.81,5.81,0,0,0,416.07,303.61Z"/><path class="cls-7" d="M441,285.58a7.76,7.76,0,0,0-5.76,1.7c.05.08,1.2-.65,2.8-1.12S441,285.68,441,285.58Z"/><path class="cls-7" d="M438.3,283.72a3.82,3.82,0,0,0-1.88,1.42,3.77,3.77,0,0,0-1,2.13c.09,0,.44-1,1.24-1.93S438.35,283.81,438.3,283.72Z"/><path class="cls-6" d="M451.71,321s-.38-.11-.82.25a3,3,0,0,0-.91,1.84,3.6,3.6,0,0,0,.29,2c.22.48.47.7.5.68a5.68,5.68,0,0,0-.29-.77,4.08,4.08,0,0,1-.18-1.89,3.2,3.2,0,0,1,.75-1.72C451.38,321,451.72,321,451.71,321Z"/><path class="cls-6" d="M360,216.15a4.49,4.49,0,0,0-6.55.28,7.67,7.67,0,0,0-1.51,4,19.24,19.24,0,0,1-.83,4.22,4.32,4.32,0,0,1-3,2.84c-1.08.2-2.34-.13-3.16.58a2,2,0,0,0-.18,2.55,4.71,4.71,0,0,0,2.19,1.65c.33.14.73.36.74.73s-.61.65-1.05.84a2.64,2.64,0,0,0-1,3.68,4.3,4.3,0,0,0,3.7,1.85,12.47,12.47,0,0,0,4.19-1,1.63,1.63,0,0,0,0,2.06,2.21,2.21,0,0,0,2,.75,3.63,3.63,0,0,0,2-1,7.17,7.17,0,0,0,1.93-3.88,24.89,24.89,0,0,0,.26-4.4,117.35,117.35,0,0,1,1.11-15.67"/><path class="cls-13" d="M375.11,206a10.84,10.84,0,0,1,10.33,10.81c0,4.48-.06,9.36-.34,12.25-.67,6.72-5.72,7.87-5.72,7.87s.16,4.18.38,8.14a7.3,7.3,0,0,1-6.92,7.42h0a6.92,6.92,0,0,1-7.69-6.15l-1.36-29A10.84,10.84,0,0,1,375.11,206Z"/><path class="cls-6" d="M383.91,219.78a.85.85,0,0,1-.77.91.82.82,0,0,1-.93-.72.86.86,0,0,1,.77-.91A.82.82,0,0,1,383.91,219.78Z"/><path class="cls-6" d="M383.89,218.46c-.1.11-.77-.33-1.69-.27s-1.57.56-1.68.45.05-.25.33-.49a2.35,2.35,0,0,1,1.33-.49,2.27,2.27,0,0,1,1.36.35C383.83,218.21,383.94,218.4,383.89,218.46Z"/><path class="cls-6" d="M374.34,220.28a.86.86,0,0,1-.78.91.81.81,0,0,1-.92-.72.86.86,0,0,1,.77-.91A.83.83,0,0,1,374.34,220.28Z"/><path class="cls-6" d="M374.32,219.36c-.1.12-.78-.32-1.7-.27s-1.56.56-1.67.45.05-.25.33-.48a2.33,2.33,0,0,1,1.33-.5,2.24,2.24,0,0,1,1.35.35C374.26,219.11,374.37,219.31,374.32,219.36Z"/><path class="cls-6" d="M378.06,226a5.94,5.94,0,0,1,1.48-.36c.23,0,.45-.1.48-.26a1.27,1.27,0,0,0-.2-.69l-.8-1.74a31.51,31.51,0,0,1-1.84-4.59,30.74,30.74,0,0,1,2.2,4.43l.78,1.76a1.37,1.37,0,0,1,.17.91.58.58,0,0,1-.36.37,2.35,2.35,0,0,1-.4.08A6.36,6.36,0,0,1,378.06,226Z"/><path class="cls-15" d="M379.4,237a18.26,18.26,0,0,1-9.12-2s2.48,4.79,9.18,3.92Z"/><path class="cls-6" d="M371.29,216.8c.11.16.77-.11,1.61-.3s1.55-.23,1.59-.42-.76-.47-1.74-.25S371.17,216.66,371.29,216.8Z"/><path class="cls-6" d="M380.39,215.15c0,.19.8.16,1.7.17s1.66.06,1.71-.13-.7-.54-1.7-.55S380.34,215,380.39,215.15Z"/><path class="cls-6" d="M365.5,242.88c-.06-1.38,1.49-7.38,2.1-11.06s-1.79-4.28-2.17-6.45a7.48,7.48,0,0,1,.71-4.24c3.51,1.26,4.9-1.24,6.83-2.73s2.49-3.51,3.32-6,1.81-4,4.38-4.2a7.6,7.6,0,0,1,3.42,3.93c.78,2.28,1.41,11.2,1.41,11.2.36-4.28,3.83-6.07,2.88-12.36-.4-2.72-2.65-6.43-6.13-7-1-.15-2.92-.28-2.92-.28-2.07-1.86-3.09-1.81-5.07-2.69-4.29-1.9-9.44,1.49-12.29,5.22-2.19,2.86-3.25,6.74-3.85,10.39a30.14,30.14,0,0,0-.17,7.65,5,5,0,0,1-1.53,4.61c-2.13,1.66-2.7,4.82-1.22,9s-4,11.39-4,11.39a33.52,33.52,0,0,1,4.84-3.28A91.21,91.21,0,0,1,365.5,242.88Z"/><path class="cls-15" d="M377,228.18a1.35,1.35,0,0,0-1.27-.42,1.25,1.25,0,0,0-.83.53.8.8,0,0,0,0,.91.94.94,0,0,0,1,.18,3,3,0,0,0,.93-.66.78.78,0,0,0,.2-.24.26.26,0,0,0,0-.28"/><path class="cls-6" d="M374.93,227c.13,0,.19.81.94,1.34s1.63.38,1.64.5-.18.17-.55.21a2.1,2.1,0,0,1-1.37-.36,1.79,1.79,0,0,1-.73-1.14C374.8,227.22,374.88,227,374.93,227Z"/><path class="cls-6" d="M345.88,225.12a6.31,6.31,0,0,0,.07.93,3.25,3.25,0,0,0,.35,1,2.4,2.4,0,0,0,1,1,1.94,1.94,0,0,0,1.64.08,2.07,2.07,0,0,0,1.09-1.51,7.94,7.94,0,0,0,.12-2.2c0-.77-.07-1.58-.08-2.41a9.8,9.8,0,0,1,.9-4.56,4.57,4.57,0,0,1,2.84-2.45,3.65,3.65,0,0,1,2.54.2,2.24,2.24,0,0,1,.75.57,6.18,6.18,0,0,0-.79-.49,3.67,3.67,0,0,0-2.46-.13,4.49,4.49,0,0,0-2.7,2.4,9.54,9.54,0,0,0-.85,4.46c0,.82,0,1.63.07,2.4a8.42,8.42,0,0,1-.14,2.26,2.26,2.26,0,0,1-1.22,1.63,2.14,2.14,0,0,1-1.78-.11,2.44,2.44,0,0,1-1-1.05,3.21,3.21,0,0,1-.32-1.06A2.7,2.7,0,0,1,345.88,225.12Z"/><path class="cls-7" d="M355.71,239.57a1.47,1.47,0,0,1-.35-.35,2.83,2.83,0,0,1-.53-1.32,3.91,3.91,0,0,1,.39-2.2,8.76,8.76,0,0,1,1.85-2.33,15.76,15.76,0,0,0,2.42-2.62,6.22,6.22,0,0,0,.83-3.91,40.23,40.23,0,0,1-.35-4.55,6.09,6.09,0,0,1,.56-2.38,4.27,4.27,0,0,1,1.74-1.81c1.49-.85,3.16-1.08,4.53-1.83a7.39,7.39,0,0,0,2.93-3.32c.66-1.28,1.13-2.59,1.74-3.74a8,8,0,0,1,2.24-2.82,4.33,4.33,0,0,1,2.8-1,3.45,3.45,0,0,1,2.07.84,2.52,2.52,0,0,1,.8,1.16,1.53,1.53,0,0,1,.09.36,1.16,1.16,0,0,1,0,.13s0-.17-.14-.47a2.6,2.6,0,0,0-.82-1.12,3.45,3.45,0,0,0-2-.77,4.16,4.16,0,0,0-2.69,1,7.89,7.89,0,0,0-2.18,2.77c-.59,1.14-1.05,2.45-1.71,3.76a7.61,7.61,0,0,1-3,3.41c-1.41.78-3.09,1-4.52,1.84a4.08,4.08,0,0,0-1.66,1.71,5.9,5.9,0,0,0-.53,2.29,41.06,41.06,0,0,0,.33,4.53,6.4,6.4,0,0,1-.87,4,15.72,15.72,0,0,1-2.47,2.63,8.68,8.68,0,0,0-1.85,2.27,3.82,3.82,0,0,0-.41,2.14A2.61,2.61,0,0,0,355.71,239.57Z"/><path class="cls-8" d="M357.47,219.36a2.72,2.72,0,0,1-.26-2.16,2.86,2.86,0,0,1,1.1-1.89,15.51,15.51,0,0,0-.73,2A13.37,13.37,0,0,0,357.47,219.36Z"/><path class="cls-6" d="M359.8,239.91a15.88,15.88,0,0,0,2.08,10.3,8.16,8.16,0,0,0,2.54,2.81,4.22,4.22,0,0,0,3.66.51,2.88,2.88,0,0,0,1.89-3c-.29-1.78-2.49-2.9-2.5-4.71.8.48,1.88.95,2.58.33a1.57,1.57,0,0,0,.26-1.75,6.63,6.63,0,0,0-1.08-1.55,9.67,9.67,0,0,1-1.94-7.38c.11-.72.3-2.94.31-3.67s-.19,0-.74-.48a2.25,2.25,0,0,0-2-.37,4.27,4.27,0,0,0-1.8,1.13,8.32,8.32,0,0,0-2.48,6.33"/><path class="cls-2" d="M167.78,198s0,0-.06-.15l-.23-.42c-.21-.36-.53-.89-1-1.55a16.7,16.7,0,0,0-4.9-4.62,11.88,11.88,0,0,0-4.39-1.61,10.88,10.88,0,0,0-5.33.55,8.71,8.71,0,0,0-4.57,3.74c-1.05,1.83-1.39,4-2,6a10.83,10.83,0,0,1-1.27,2.88,8.78,8.78,0,0,1-2.17,2.13c-.82.61-1.67,1.15-2.44,1.78a10.6,10.6,0,0,0-2,2.15,13.12,13.12,0,0,0-2,5,17.63,17.63,0,0,0-.28,4.67,35.36,35.36,0,0,0,1.2,6.64c.2.77.37,1.37.49,1.77a5.24,5.24,0,0,0,.2.61,3.94,3.94,0,0,0-.13-.63c-.1-.44-.24-1-.42-1.78a38.58,38.58,0,0,1-1.08-6.62,18,18,0,0,1,.32-4.6,13,13,0,0,1,2-4.83,10.19,10.19,0,0,1,1.93-2.07c.75-.62,1.6-1.15,2.43-1.76a9,9,0,0,0,2.26-2.23,11.34,11.34,0,0,0,1.33-3c.62-2.09,1-4.21,2-6a8.28,8.28,0,0,1,4.37-3.59,10.49,10.49,0,0,1,5.17-.58,12,12,0,0,1,4.3,1.53,16.9,16.9,0,0,1,4.91,4.49c.48.63.82,1.15,1.05,1.5A4.41,4.41,0,0,0,167.78,198Z"/><path class="cls-2" d="M140.91,205.55c.57-.53.84-.16,1.6,0a4.83,4.83,0,0,1,2.06,1,8.65,8.65,0,0,1,2.8,9.08,6.75,6.75,0,0,1-6.2-10.14"/><path class="cls-2" d="M164.16,195c.28-.72.69-.51,1.43-.71a4.6,4.6,0,0,1,2.3,0,8.65,8.65,0,0,1,6.44,7,6.76,6.76,0,0,1-10-6.49"/><path class="cls-2" d="M135.79,219.87a7.79,7.79,0,0,1,12.25.59,9.57,9.57,0,0,1-6.35,2.51,9.84,9.84,0,0,1-6.4-2.59"/><path class="cls-2" d="M137.7,209.17a7.89,7.89,0,0,1-8-9.42,7.09,7.09,0,0,1,8.24,9.34"/><path class="cls-2" d="M145.88,196.6a7.9,7.9,0,0,1-10.66-6.24,7.09,7.09,0,0,1,10.88,6.08"/><path class="cls-2" d="M148.62,192.5a7.9,7.9,0,0,1,10.66,6.23,7.09,7.09,0,0,1-10.88-6.07"/><path class="cls-2" d="M151.89,190.29a7.91,7.91,0,0,1-4.2-11.62,7.09,7.09,0,0,1,4.48,11.63"/><path class="cls-2" d="M160.27,190.69a7.91,7.91,0,0,1,6.45-10.54,7.1,7.1,0,0,1-6.29,10.76"/><polyline class="cls-6" points="126.5 247.32 122.03 219.3 156.24 219.72 152.87 246.96"/><path class="cls-10" d="M141.26,214.19a5.84,5.84,0,0,0,5.67.48,6.15,6.15,0,0,0,3.11-4.91,6.56,6.56,0,0,0-9.44,3.93"/><path class="cls-10" d="M156.89,220.22a5.83,5.83,0,0,0,5.68.48,6.14,6.14,0,0,0,3.11-4.91,6.56,6.56,0,0,0-9.44,3.93"/><path class="cls-10" d="M148.12,206.74a5.84,5.84,0,0,0,4.47,3.53,6.15,6.15,0,0,0,5.3-2.39,7,7,0,0,0-4.58-3.36,6.89,6.89,0,0,0-5.46,1.45"/><path class="cls-10" d="M153.82,213.73a5.8,5.8,0,0,0-5.1,2.52,6.16,6.16,0,0,0-.12,5.81,6.55,6.55,0,0,0,6-8.24"/><path class="cls-10" d="M159.33,224.75a5.84,5.84,0,0,0,.14,5.7,6.18,6.18,0,0,0,5.21,2.56,7,7,0,0,0-.32-5.67c-.9-1.63-2.52-2.44-4.55-2.9"/><path class="cls-10" d="M168.43,226.05a4.35,4.35,0,0,0-1.36-.86,5.78,5.78,0,0,0-1.85-.33,24.42,24.42,0,0,0-2.53.15,7.32,7.32,0,0,1-3.1-.26,4.82,4.82,0,0,1-2.57-2.48,14.48,14.48,0,0,1-1.11-3.79,10.88,10.88,0,0,0-1.31-3.88,13.48,13.48,0,0,0-2.9-2.94,14.1,14.1,0,0,1-2.76-2.81,9.26,9.26,0,0,1-1.38-6.44,9,9,0,0,1,1.68-4.14,6.58,6.58,0,0,1,.82-.9,1.82,1.82,0,0,1,.32-.28,1.36,1.36,0,0,1-.27.33,10.58,10.58,0,0,0-.76.94,9.15,9.15,0,0,0-1.53,4.09,9,9,0,0,0,1.4,6.21,13.73,13.73,0,0,0,2.72,2.72,14,14,0,0,1,3,3,11.1,11.1,0,0,1,1.36,4,14,14,0,0,0,1.06,3.7,4.44,4.44,0,0,0,2.36,2.35,7.23,7.23,0,0,0,3,.29,20.85,20.85,0,0,1,2.55-.09,5.53,5.53,0,0,1,1.9.4,3.15,3.15,0,0,1,1,.66,2.94,2.94,0,0,1,.21.24Z"/><path class="cls-10" d="M168.43,226.05a4.35,4.35,0,0,0-1.36-.86,5.78,5.78,0,0,0-1.85-.33,24.42,24.42,0,0,0-2.53.15,7.32,7.32,0,0,1-3.1-.26,4.82,4.82,0,0,1-2.57-2.48,14.48,14.48,0,0,1-1.11-3.79,10.88,10.88,0,0,0-1.31-3.88,13.48,13.48,0,0,0-2.9-2.94,14.1,14.1,0,0,1-2.76-2.81,9.26,9.26,0,0,1-1.38-6.44,9,9,0,0,1,1.68-4.14,6.58,6.58,0,0,1,.82-.9,1.82,1.82,0,0,1,.32-.28,1.36,1.36,0,0,1-.27.33,10.58,10.58,0,0,0-.76.94,9.15,9.15,0,0,0-1.53,4.09,9,9,0,0,0,1.4,6.21,13.73,13.73,0,0,0,2.72,2.72,14,14,0,0,1,3,3,11.1,11.1,0,0,1,1.36,4,14,14,0,0,0,1.06,3.7,4.44,4.44,0,0,0,2.36,2.35,7.23,7.23,0,0,0,3,.29,20.85,20.85,0,0,1,2.55-.09,5.53,5.53,0,0,1,1.9.4,3.15,3.15,0,0,1,1,.66,2.94,2.94,0,0,1,.21.24Z"/><path class="cls-10" d="M103.13,228.92a8.66,8.66,0,0,0-11.72-8.52,14.42,14.42,0,0,0,11.41,8.41"/><path class="cls-10" d="M100.87,230.11c-1.68,1.84-1.57,4.8-.37,7a15.51,15.51,0,0,0,5.32,5.11A11.24,11.24,0,0,0,101,229.45"/><path class="cls-10" d="M109,221.5a10,10,0,0,0,11.35,8.9,13.67,13.67,0,0,0-3.81-7.23c-2.07-1.82-5.35-2.5-7.65-1"/><path class="cls-10" d="M108.92,218.76a5.88,5.88,0,0,0-5.31-4.46,10.22,10.22,0,0,0-6.9,2.32,9,9,0,0,0,12.23,1.21"/><path class="cls-10" d="M96.17,239.58c-2.35,2-2.93,5.57-2,8.5a14.14,14.14,0,0,0,5.83,7,18.53,18.53,0,0,0,1.09-9A9.49,9.49,0,0,0,96,238.85"/><path class="cls-10" d="M108.54,211.89a7.22,7.22,0,0,1,11.43-.67,6.24,6.24,0,0,1-11.26.29"/><path class="cls-10" d="M111.41,204.83a9.38,9.38,0,0,1-12-7.34,21.37,21.37,0,0,1,5.65.09,9.15,9.15,0,0,1,5,2.46,5,5,0,0,1,1.31,4.79"/><path class="cls-10" d="M116.84,203a7.68,7.68,0,0,1,0-11.84,16.06,16.06,0,0,1,3.36,7.15,6,6,0,0,1,0,3,2.72,2.72,0,0,1-2.07,1.94"/><g class="cls-12"><path d="M103.13,228.92a8.66,8.66,0,0,0-11.72-8.52,14.42,14.42,0,0,0,11.41,8.41"/></g><g class="cls-12"><path d="M100.87,230.11c-1.68,1.84-1.57,4.8-.37,7a15.51,15.51,0,0,0,5.32,5.11A11.24,11.24,0,0,0,101,229.45"/></g><g class="cls-12"><path d="M109,221.5a10,10,0,0,0,11.35,8.9,13.67,13.67,0,0,0-3.81-7.23c-2.07-1.82-5.35-2.5-7.65-1"/></g><g class="cls-12"><path d="M108.92,218.76a5.88,5.88,0,0,0-5.31-4.46,10.22,10.22,0,0,0-6.9,2.32,9,9,0,0,0,12.23,1.21"/></g><g class="cls-12"><path d="M96.17,239.58c-2.35,2-2.93,5.57-2,8.5a14.14,14.14,0,0,0,5.83,7,18.53,18.53,0,0,0,1.09-9A9.49,9.49,0,0,0,96,238.85"/></g><g class="cls-12"><path d="M108.54,211.89a7.22,7.22,0,0,1,11.43-.67,6.24,6.24,0,0,1-11.26.29"/></g><g class="cls-12"><path d="M111.41,204.83a9.38,9.38,0,0,1-12-7.34,21.37,21.37,0,0,1,5.65.09,9.15,9.15,0,0,1,5,2.46,5,5,0,0,1,1.31,4.79"/></g><g class="cls-12"><path d="M116.84,203a7.68,7.68,0,0,1,0-11.84,16.06,16.06,0,0,1,3.36,7.15,6,6,0,0,1,0,3,2.72,2.72,0,0,1-2.07,1.94"/></g><path class="cls-10" d="M126.22,220.2V220c0-.15,0-.33,0-.56,0-.5.08-1.23.09-2.17a19.33,19.33,0,0,0-1.27-7.77,11.94,11.94,0,0,0-3.12-4.4,8.34,8.34,0,0,0-5.69-2.09,7.16,7.16,0,0,0-3.21.8,6.41,6.41,0,0,0-2.48,2.37,12.75,12.75,0,0,0-1.44,7.15,51.36,51.36,0,0,1,.17,7.52,11.35,11.35,0,0,1-.94,3.48,7.23,7.23,0,0,1-2.1,2.76,10.44,10.44,0,0,1-2.93,1.5,14.23,14.23,0,0,0-2.76,1.26A9.87,9.87,0,0,0,97,233.81a9.63,9.63,0,0,0-1,4.32,10.07,10.07,0,0,0,.55,3.34,13.14,13.14,0,0,0,1.29,2.61l-.12-.15a4.44,4.44,0,0,1-.33-.46,9.1,9.1,0,0,1-1-1.95,10.16,10.16,0,0,1-.62-3.39,9.87,9.87,0,0,1,1-4.44,10.34,10.34,0,0,1,3.7-4.1c1.69-1.12,3.93-1.4,5.65-2.76a8.8,8.8,0,0,0,2.89-6,52.42,52.42,0,0,0-.18-7.47,13.07,13.07,0,0,1,1.5-7.35,6.73,6.73,0,0,1,2.62-2.49,7.52,7.52,0,0,1,3.37-.83,8.68,8.68,0,0,1,5.9,2.2,12.09,12.09,0,0,1,3.16,4.53,16.25,16.25,0,0,1,1.08,4.44,24.74,24.74,0,0,1,.1,3.44c0,.94-.11,1.67-.17,2.16,0,.23,0,.42-.07.57S126.23,220.21,126.22,220.2Z"/><g class="cls-12"><path d="M126.22,220.2V220c0-.15,0-.33,0-.56,0-.5.08-1.23.09-2.17a19.33,19.33,0,0,0-1.27-7.77,11.94,11.94,0,0,0-3.12-4.4,8.34,8.34,0,0,0-5.69-2.09,7.16,7.16,0,0,0-3.21.8,6.41,6.41,0,0,0-2.48,2.37,12.75,12.75,0,0,0-1.44,7.15,51.36,51.36,0,0,1,.17,7.52,11.35,11.35,0,0,1-.94,3.48,7.23,7.23,0,0,1-2.1,2.76,10.44,10.44,0,0,1-2.93,1.5,14.23,14.23,0,0,0-2.76,1.26A9.87,9.87,0,0,0,97,233.81a9.63,9.63,0,0,0-1,4.32,10.07,10.07,0,0,0,.55,3.34,13.14,13.14,0,0,0,1.29,2.61l-.12-.15a4.44,4.44,0,0,1-.33-.46,9.1,9.1,0,0,1-1-1.95,10.16,10.16,0,0,1-.62-3.39,9.87,9.87,0,0,1,1-4.44,10.34,10.34,0,0,1,3.7-4.1c1.69-1.12,3.93-1.4,5.65-2.76a8.8,8.8,0,0,0,2.89-6,52.42,52.42,0,0,0-.18-7.47,13.07,13.07,0,0,1,1.5-7.35,6.73,6.73,0,0,1,2.62-2.49,7.52,7.52,0,0,1,3.37-.83,8.68,8.68,0,0,1,5.9,2.2,12.09,12.09,0,0,1,3.16,4.53,16.25,16.25,0,0,1,1.08,4.44,24.74,24.74,0,0,1,.1,3.44c0,.94-.11,1.67-.17,2.16,0,.23,0,.42-.07.57S126.23,220.21,126.22,220.2Z"/></g><path class="cls-10" d="M176,214.09a7,7,0,0,0,.51-2.51,6.18,6.18,0,0,0-.66-2.89,6,6,0,0,0-2.79-2.69,6.13,6.13,0,0,0-2.2-.6,7.27,7.27,0,0,0-2.46.29c-1.67.44-3.33,1.39-5.32,1.79a6.2,6.2,0,0,1-3.08-.08,4.59,4.59,0,0,1-2.51-2c-1.19-1.86-1.53-4.18-3-5.89a5.91,5.91,0,0,0-2.71-1.77,7.68,7.68,0,0,0-3.15-.32,8.07,8.07,0,0,0-5.25,2.74,12.27,12.27,0,0,0-2.61,4.82,14.55,14.55,0,0,0-.58,4.78,53.3,53.3,0,0,0,.88,7l.33,1.9.07.49a1.06,1.06,0,0,1,0,.17s0-.05-.05-.16l-.11-.49-.4-1.88a47.76,47.76,0,0,1-1-7,14.88,14.88,0,0,1,.55-4.88,12.71,12.71,0,0,1,2.65-5,9.62,9.62,0,0,1,2.4-1.92,7.92,7.92,0,0,1,3.07-.95,8.13,8.13,0,0,1,3.31.33,6.29,6.29,0,0,1,2.87,1.88c1.52,1.83,1.85,4.17,3,5.93a4.26,4.26,0,0,0,2.31,1.86,5.86,5.86,0,0,0,2.91.08c1.91-.36,3.58-1.3,5.3-1.75a7.54,7.54,0,0,1,2.56-.27,6.33,6.33,0,0,1,2.29.64,6.19,6.19,0,0,1,2.86,2.84,6.32,6.32,0,0,1,.63,3,6.06,6.06,0,0,1-.37,1.89A3.2,3.2,0,0,1,176,214.09Z"/><path class="cls-10" d="M156,201.68a6.64,6.64,0,0,0,6.1.4,6.15,6.15,0,0,0,3.1-4.91,7,7,0,0,0-5.66-.29,6.87,6.87,0,0,0-3.77,4.22"/><path class="cls-10" d="M162.51,207.56a6.67,6.67,0,0,0,2.83,5.42,6.16,6.16,0,0,0,5.81.1,6.57,6.57,0,0,0-8.26-6"/><path class="cls-10" d="M173.76,206.26a6.65,6.65,0,0,0,6.11-.26,6.14,6.14,0,0,0,2.57-5.21,7,7,0,0,0-5.67.32,6.91,6.91,0,0,0-3.3,4.59"/><path class="cls-10" d="M146.58,197.78a7,7,0,0,1-2.43-5.76,6.17,6.17,0,0,1,3.77-4.41,6.55,6.55,0,0,1-1,10.17"/><path class="cls-10" d="M102.65,189.73s0-.06.07-.15l.22-.42a18.38,18.38,0,0,1,1-1.55,16.57,16.57,0,0,1,4.9-4.62,12,12,0,0,1,4.39-1.62,10.92,10.92,0,0,1,5.34.56,8.69,8.69,0,0,1,4.56,3.74c1,1.83,1.39,4,2,6a10.93,10.93,0,0,0,1.28,2.87,8.78,8.78,0,0,0,2.16,2.14c.82.6,1.67,1.15,2.45,1.78a10.31,10.31,0,0,1,2,2.15,13.24,13.24,0,0,1,2,5,17.58,17.58,0,0,1,.27,4.67,35.49,35.49,0,0,1-1.19,6.64c-.21.77-.38,1.36-.49,1.77a4,4,0,0,1-.2.6,3.16,3.16,0,0,1,.12-.62c.11-.44.25-1,.43-1.79a39.41,39.41,0,0,0,1.07-6.62,17.47,17.47,0,0,0-.31-4.59,13.07,13.07,0,0,0-2-4.84,10.41,10.41,0,0,0-1.92-2.07c-.76-.61-1.61-1.15-2.44-1.76a9,9,0,0,1-2.26-2.22,10.93,10.93,0,0,1-1.32-3c-.62-2.09-1-4.21-2-6a8.33,8.33,0,0,0-4.37-3.6,10.63,10.63,0,0,0-5.18-.57,11.87,11.87,0,0,0-4.3,1.53,17,17,0,0,0-4.91,4.49c-.47.63-.82,1.15-1,1.5S102.66,189.73,102.65,189.73Z"/><path class="cls-10" d="M129.52,197.26c-.56-.52-.84-.16-1.6,0a4.63,4.63,0,0,0-2,1,8.65,8.65,0,0,0-2.81,9.08,6.75,6.75,0,0,0,6.2-10.15"/><path class="cls-10" d="M106.28,186.68c-.29-.72-.69-.5-1.44-.71a4.8,4.8,0,0,0-2.29,0,8.67,8.67,0,0,0-6.44,7,6.75,6.75,0,0,0,10-6.49"/><path class="cls-10" d="M134.64,211.58a7.79,7.79,0,0,0-12.25.6,9.71,9.71,0,0,0,6.35,2.51,9.89,9.89,0,0,0,6.41-2.59"/><path class="cls-10" d="M132.73,200.89a7.9,7.9,0,0,0,8-9.43,7.1,7.1,0,0,0-8.24,9.35"/><path class="cls-10" d="M124.55,188.32a7.91,7.91,0,0,0,10.66-6.24,7.09,7.09,0,0,0-10.88,6.08"/><path class="cls-10" d="M121.81,184.21a7.91,7.91,0,0,0-10.66,6.24A7.09,7.09,0,0,0,122,184.37"/><path class="cls-10" d="M118.54,182a7.89,7.89,0,0,0,4.2-11.61A7.09,7.09,0,0,0,118.27,182"/><path class="cls-10" d="M110.16,182.4a7.9,7.9,0,0,0-6.45-10.53,7.1,7.1,0,0,0,6.3,10.76"/><polygon class="cls-6" points="121.6 244.07 124.21 247.32 156.41 247.32 158.6 244.07 121.6 244.07"/><path class="cls-7" d="M157.89,244.05c0,.1-7.91.18-17.66.18s-17.67-.08-17.67-.18,7.91-.19,17.67-.19S157.89,243.94,157.89,244.05Z"/><path class="cls-7" d="M154.27,231.82s-.06.1-.2.27a8.79,8.79,0,0,1-.65.68,12.08,12.08,0,0,1-2.88,2,12.66,12.66,0,0,1-5,1.29,11.67,11.67,0,0,1-3.08-.26,18,18,0,0,1-3.13-1c-2.08-.88-4-1.89-5.8-2.47a9.85,9.85,0,0,0-5-.48,6.46,6.46,0,0,0-3.07,1.42c-.61.54-.85.94-.88.92a1.42,1.42,0,0,1,.16-.3,5,5,0,0,1,.62-.73,6.47,6.47,0,0,1,3.12-1.57,10,10,0,0,1,5.16.41c1.88.58,3.79,1.59,5.84,2.46a18.78,18.78,0,0,0,3.07,1,12.34,12.34,0,0,0,3,.27,12.72,12.72,0,0,0,4.93-1.19A15.19,15.19,0,0,0,154.27,231.82Z"/><path class="cls-7" d="M154.59,229.31s-.06.09-.22.25a8.73,8.73,0,0,1-.7.64,13.31,13.31,0,0,1-3,1.85,14.15,14.15,0,0,1-5.06,1.21,13.54,13.54,0,0,1-3.08-.21,21.5,21.5,0,0,1-3.19-.9c-2.12-.77-4.07-1.66-5.94-2.18a12,12,0,0,0-5-.46,7.63,7.63,0,0,0-3.18,1.22c-.67.47-1,.83-1,.8s.06-.1.2-.26a4.22,4.22,0,0,1,.7-.65,7.3,7.3,0,0,1,3.23-1.36,11.85,11.85,0,0,1,5.19.38c1.9.51,3.87,1.4,6,2.16a19.83,19.83,0,0,0,3.12.89,14.13,14.13,0,0,0,3,.23,14.29,14.29,0,0,0,5-1.11A17.26,17.26,0,0,0,154.59,229.31Z"/><rect class="cls-10" x="79.62" y="277.26" width="68.47" height="45.83"/><g class="cls-12"><rect x="79.62" y="277.26" width="68.47" height="45.83"/></g><rect class="cls-10" x="134.21" y="277.32" width="5.44" height="9.29"/><rect class="cls-10" x="133.61" y="313.8" width="5.44" height="9.29"/><path class="cls-6" d="M99.22,323c-.1,0-.18-10.27-.18-22.94s.08-22.94.18-22.94.19,10.27.19,22.94S99.32,323,99.22,323Z"/><path class="cls-6" d="M123.5,302.22c0,.1-9.87.18-22,.18s-22-.08-22-.18,9.87-.19,22-.19S123.5,302.12,123.5,302.22Z"/><path class="cls-3" d="M100.31,277.15A12.5,12.5,0,0,1,101.9,276a17.79,17.79,0,0,1,5.12-2.26,18.07,18.07,0,0,1,4-.57,3.27,3.27,0,0,1,1.15.09,1,1,0,0,1,.75.95,1.5,1.5,0,0,1-.48,1.17,3.21,3.21,0,0,1-1.11.65A21.64,21.64,0,0,1,100,277.09l-.14,0,0-.14a27.26,27.26,0,0,1,1.64-7.14,26.36,26.36,0,0,1,1.65-3.55,4.63,4.63,0,0,1,1.36-1.54,2.53,2.53,0,0,1,2.08-.39,2.17,2.17,0,0,1,1.41,1.61,3.48,3.48,0,0,1-.22,2.16,18.22,18.22,0,0,1-2.24,3.67A23.83,23.83,0,0,1,99,277.67l-.07,0-.07,0-.78-.2-.8-.27a13.68,13.68,0,0,1-5.74-4.05,13,13,0,0,1-1.87-2.91,3.24,3.24,0,0,1-.44-1.7.92.92,0,0,1,.57-.8,1.31,1.31,0,0,1,.94.05,13.83,13.83,0,0,1,7.91,9.47l-.32.1a37.12,37.12,0,0,1-2.73-14.09,4.19,4.19,0,0,1,.28-1.6,1.64,1.64,0,0,1,.5-.67,1.2,1.2,0,0,1,.78-.27,1.55,1.55,0,0,1,1.29.84A4.19,4.19,0,0,1,99,263a38.57,38.57,0,0,1,.68,5.11,40.46,40.46,0,0,1-.18,7.26c-.1.83-.2,1.47-.28,1.9l-.09.48c0,.11,0,.17,0,.17s0-.06,0-.17l.07-.49c.06-.43.14-1.07.23-1.9a43.14,43.14,0,0,0,.08-7.23,41.68,41.68,0,0,0-.71-5.08,4,4,0,0,0-.53-1.27,1.32,1.32,0,0,0-1.08-.72,1.14,1.14,0,0,0-1,.78,3.94,3.94,0,0,0-.25,1.5,37,37,0,0,0,2.76,14l-.32.1a13.53,13.53,0,0,0-7.7-9.2,1,1,0,0,0-.69,0,.55.55,0,0,0-.34.5,3,3,0,0,0,.41,1.51,13.11,13.11,0,0,0,1.82,2.83,13.61,13.61,0,0,0,5.59,3.94l.78.25.76.2-.14,0a23.71,23.71,0,0,0,6.48-5.83,18.61,18.61,0,0,0,2.2-3.59,3.07,3.07,0,0,0,.2-1.93,1.79,1.79,0,0,0-1.17-1.36,2.19,2.19,0,0,0-1.78.34,4.31,4.31,0,0,0-1.25,1.43,25.69,25.69,0,0,0-1.64,3.49,27.08,27.08,0,0,0-1.65,7l-.12-.16a21.56,21.56,0,0,0,11.13-1,3.26,3.26,0,0,0,1-.59,1.32,1.32,0,0,0,.42-1,.81.81,0,0,0-.59-.75,3.19,3.19,0,0,0-1.07-.09,17.77,17.77,0,0,0-3.94.54,18.08,18.08,0,0,0-5.12,2.16c-.55.33-1,.62-1.23.81A4.87,4.87,0,0,1,100.31,277.15Z"/><path class="cls-3" d="M99.12,278.4h-.07a.62.62,0,0,1-.34-.2l-.66-.17h0l-1.8.29.94-.57h0a14.49,14.49,0,0,1-6-4.21,14.33,14.33,0,0,1-1.94-3l-.06-.13a3.56,3.56,0,0,1-.43-1.86,1.47,1.47,0,0,1,.92-1.24,1.85,1.85,0,0,1,1.29.05,14.28,14.28,0,0,1,4.9,3.51,37.48,37.48,0,0,1-.74-7.53,4.57,4.57,0,0,1,.33-1.81,2.2,2.2,0,0,1,.65-.88,1.77,1.77,0,0,1,1.11-.38h0a2.07,2.07,0,0,1,1.74,1.09,4.69,4.69,0,0,1,.62,1.51,39.61,39.61,0,0,1,.69,5.21c.08,1.31.11,2.61.07,3.9.22-.79.48-1.57.76-2.33a26.38,26.38,0,0,1,1.69-3.62,5.34,5.34,0,0,1,1.52-1.72,3.06,3.06,0,0,1,2.52-.46,2.66,2.66,0,0,1,1.78,2,3.93,3.93,0,0,1-.23,2.47,19.28,19.28,0,0,1-2.32,3.79,25.88,25.88,0,0,1-1.73,2,18.23,18.23,0,0,1,2.61-.9,17.72,17.72,0,0,1,4.1-.59,3.55,3.55,0,0,1,1.31.11,1.57,1.57,0,0,1,1.13,1.45,2,2,0,0,1-.65,1.57,3.7,3.7,0,0,1-1.28.75,22,22,0,0,1-10.83,1.24l-.06.62-.51-.67-.16,0-.3.2C99.55,278.23,99.37,278.4,99.12,278.4Zm3.07-1.88a20.91,20.91,0,0,0,8.84-1.25,2.55,2.55,0,0,0,.86-.48.77.77,0,0,0,.25-.57.29.29,0,0,0-.22-.27,2.75,2.75,0,0,0-.89-.07,17.71,17.71,0,0,0-3.84.52,17.53,17.53,0,0,0-5,2.1Zm-12-7.93h0a2.42,2.42,0,0,0,.35,1.29,12.3,12.3,0,0,0,1.74,2.71,13,13,0,0,0,5.12,3.69c-.19-.51-.36-1-.53-1.55a12.9,12.9,0,0,0-6.4-6.09A.77.77,0,0,0,90.18,268.59Zm7.92,5.56a15.32,15.32,0,0,1,.71,1.73c0-.19,0-.4.07-.63a40.48,40.48,0,0,0,.08-7.13,39.69,39.69,0,0,0-.7-5,3.61,3.61,0,0,0-.45-1.09c-.15-.24-.39-.49-.63-.48a.66.66,0,0,0-.54.45,3.25,3.25,0,0,0-.22,1.31A36.51,36.51,0,0,0,98.1,274.15Zm7.94-9a1.87,1.87,0,0,0-1,.32,3.89,3.89,0,0,0-1.09,1.26,24.51,24.51,0,0,0-1.59,3.41,26.43,26.43,0,0,0-1.38,5.09,22.89,22.89,0,0,0,3.89-4,17.13,17.13,0,0,0,2.14-3.47,2.57,2.57,0,0,0,.18-1.6,1.3,1.3,0,0,0-.8-1A1.34,1.34,0,0,0,106,265.11Z"/><rect class="cls-10" x="123.36" y="247.53" width="112.97" height="75.61"/><g class="cls-11"><rect x="197.05" y="247.53" width="39.28" height="75.61"/></g><rect class="cls-10" x="213.41" y="247.63" width="8.97" height="15.33"/><rect class="cls-10" x="212.43" y="307.81" width="8.97" height="15.33"/><path class="cls-6" d="M155.69,323c-.1,0-.18-17-.18-37.85s.08-37.85.18-37.85.19,16.94.19,37.85S155.79,323,155.69,323Z"/><g class="cls-16"><path class="cls-10" d="M183.51,148.22l12-8.72L211.1,158a7.89,7.89,0,0,1,1.61,7.11L207.45,185a6.67,6.67,0,0,1-6.93,5h0a6.68,6.68,0,0,1-6.16-7.52l2.32-18Z"/><path class="cls-8" d="M195,163.44a3.86,3.86,0,0,1-.31-.69,17.92,17.92,0,0,1-.68-1.95,23.83,23.83,0,0,1,0-13.46,16.89,16.89,0,0,1,.68-1.94,6,6,0,0,1,.31-.69,4.26,4.26,0,0,1-.23.72c-.17.45-.38,1.12-.61,2a25.55,25.55,0,0,0,0,13.37c.23.83.44,1.5.61,2A5.32,5.32,0,0,1,195,163.44Z"/><path class="cls-8" d="M195.28,154.75a8.29,8.29,0,0,0-1.3,5.87,2.43,2.43,0,0,1-.22-.89,6.4,6.4,0,0,1,.1-2.22,6.49,6.49,0,0,1,.84-2A2.62,2.62,0,0,1,195.28,154.75Z"/><path class="cls-8" d="M191.28,150.77a2.35,2.35,0,0,1,.56.61,7.36,7.36,0,0,1,.93,1.77,7,7,0,0,1,.38,2,2,2,0,0,1-.05.83,14.19,14.19,0,0,0-.54-2.71A14.73,14.73,0,0,0,191.28,150.77Z"/><path class="cls-8" d="M195.56,148.55a7.14,7.14,0,0,0-2.25,4.1,3.94,3.94,0,0,1,.59-2.35A4.07,4.07,0,0,1,195.56,148.55Z"/><path class="cls-8" d="M193.69,144.94a4.47,4.47,0,0,1-.06,3.74c-.07,0,.21-.83.22-1.86S193.63,145,193.69,144.94Z"/><path class="cls-8" d="M208.09,188.82a4.37,4.37,0,0,1-.31-.69,17.18,17.18,0,0,1-.68-1.95,24.13,24.13,0,0,1-.95-6.73,23.55,23.55,0,0,1,1-6.72,19.43,19.43,0,0,1,.68-1.95,7.26,7.26,0,0,1,.31-.69,4.26,4.26,0,0,1-.23.72c-.17.46-.38,1.13-.61,2a26.16,26.16,0,0,0-.9,6.68,25.84,25.84,0,0,0,.88,6.69c.23.83.44,1.5.61,2A5.89,5.89,0,0,1,208.09,188.82Z"/><path class="cls-8" d="M208.36,180.13a10.1,10.1,0,0,0-1.21,2.82,10.67,10.67,0,0,0-.1,3.06,3,3,0,0,1-.22-.9,6.34,6.34,0,0,1,.1-2.21,6.45,6.45,0,0,1,.85-2.06A2.61,2.61,0,0,1,208.36,180.13Z"/><path class="cls-8" d="M204.35,176.15a2.32,2.32,0,0,1,.56.62,7.36,7.36,0,0,1,.93,1.77,7,7,0,0,1,.39,2,2.51,2.51,0,0,1,0,.82,15.07,15.07,0,0,0-.55-2.71A14.37,14.37,0,0,0,204.35,176.15Z"/><path class="cls-8" d="M208.64,173.93a9.86,9.86,0,0,0-1.48,1.86,10,10,0,0,0-.78,2.24,4.12,4.12,0,0,1,.59-2.35A4.06,4.06,0,0,1,208.64,173.93Z"/><path class="cls-8" d="M206.77,170.33a4.5,4.5,0,0,1-.07,3.73c-.06,0,.21-.83.22-1.86S206.7,170.35,206.77,170.33Z"/><path class="cls-8" d="M202,178.66a4.27,4.27,0,0,1-.32-.69A19.86,19.86,0,0,1,201,176a23.92,23.92,0,0,1,0-13.45,16.87,16.87,0,0,1,.69-1.95,4.37,4.37,0,0,1,.31-.69,5.89,5.89,0,0,1-.23.72,20.21,20.21,0,0,0-.61,2,25.68,25.68,0,0,0-.91,6.68,26.23,26.23,0,0,0,.89,6.69c.23.83.44,1.5.6,2A5.21,5.21,0,0,1,202,178.66Z"/><path class="cls-8" d="M202.24,170a10.28,10.28,0,0,0-1.2,2.81,9.85,9.85,0,0,0-.1,3.06,2.55,2.55,0,0,1-.23-.89,6.63,6.63,0,0,1,.11-2.21,6.46,6.46,0,0,1,.84-2.06A2.42,2.42,0,0,1,202.24,170Z"/><path class="cls-8" d="M198.24,166a2.59,2.59,0,0,1,.56.61,7.21,7.21,0,0,1,.92,1.77,7,7,0,0,1,.39,2,2.21,2.21,0,0,1-.05.82,13.8,13.8,0,0,0-.55-2.71A14.78,14.78,0,0,0,198.24,166Z"/><path class="cls-8" d="M202.52,163.77a7.14,7.14,0,0,0-2.25,4.1,4,4,0,0,1,.58-2.35A4.06,4.06,0,0,1,202.52,163.77Z"/><path class="cls-8" d="M189,155.52a6,6,0,0,1-.31-.69,19.43,19.43,0,0,1-.68-2,24,24,0,0,1,0-13.45,19.43,19.43,0,0,1,.68-2,4.27,4.27,0,0,1,.32-.69,5.21,5.21,0,0,1-.24.72c-.16.46-.38,1.13-.61,2a26.16,26.16,0,0,0-.9,6.68,25.79,25.79,0,0,0,.89,6.69c.22.84.44,1.51.6,2A4.26,4.26,0,0,1,189,155.52Z"/><path class="cls-8" d="M189.26,146.83a10.45,10.45,0,0,0-1.21,2.82,10,10,0,0,0-.09,3.06,2.47,2.47,0,0,1-.23-.89,6.62,6.62,0,0,1,1-4.28A2.83,2.83,0,0,1,189.26,146.83Z"/><path class="cls-8" d="M185.26,142.86s.25.19.55.61a6.71,6.71,0,0,1,.93,1.77,7,7,0,0,1,.39,2,2.21,2.21,0,0,1,0,.82,10,10,0,0,0-1.82-5.16Z"/><path class="cls-8" d="M189.54,140.63a10.57,10.57,0,0,0-1.47,1.86,9.78,9.78,0,0,0-.79,2.24,4.12,4.12,0,0,1,.59-2.35A4.06,4.06,0,0,1,189.54,140.63Z"/><path class="cls-8" d="M199.81,143.5a5.62,5.62,0,0,1,.45.61,18.39,18.39,0,0,1,1.08,1.75A23.9,23.9,0,0,1,204.21,159a18.12,18.12,0,0,1-.25,2.05,4.83,4.83,0,0,1-.16.74,7.47,7.47,0,0,1,.08-.76c.06-.48.13-1.18.17-2a25.61,25.61,0,0,0-.55-6.72,26.08,26.08,0,0,0-2.3-6.34c-.4-.77-.75-1.38-1-1.79A3.9,3.9,0,0,1,199.81,143.5Z"/><path class="cls-8" d="M201.41,152a10.14,10.14,0,0,0,.57-3,10,10,0,0,0-.56-3,2.45,2.45,0,0,1,.41.82,6.39,6.39,0,0,1,.38,2.19,6.6,6.6,0,0,1-.39,2.18A2.6,2.6,0,0,1,201.41,152Z"/><path class="cls-8" d="M206.18,155.07a2.15,2.15,0,0,1-.68-.48,7,7,0,0,1-1.29-1.53,7.17,7.17,0,0,1-.8-1.83,2.59,2.59,0,0,1-.13-.82,15,15,0,0,0,1.12,2.53A13.72,13.72,0,0,0,206.18,155.07Z"/><path class="cls-8" d="M202.47,158.16a10.8,10.8,0,0,0,1-2.14,9.84,9.84,0,0,0,.28-2.35,4,4,0,0,1-.07,2.42A4.1,4.1,0,0,1,202.47,158.16Z"/><path class="cls-8" d="M205.07,161.28a4.49,4.49,0,0,1-.74-3.67c.07,0,0,.86.19,1.87S205.13,161.24,205.07,161.28Z"/><path class="cls-8" d="M207.67,158a5.62,5.62,0,0,1,.45.61,15.85,15.85,0,0,1,1.08,1.76,23.84,23.84,0,0,1,2.87,13.14,18.54,18.54,0,0,1-.24,2.05,6.32,6.32,0,0,1-.16.74,4.09,4.09,0,0,1,.07-.75c.07-.48.13-1.18.18-2.05a26.11,26.11,0,0,0-.56-6.72,25.82,25.82,0,0,0-2.3-6.34c-.4-.77-.75-1.38-1-1.78A5.05,5.05,0,0,1,207.67,158Z"/><path class="cls-8" d="M209.27,166.51a10,10,0,0,0,.58-3,10.88,10.88,0,0,0-.56-3,2.6,2.6,0,0,1,.41.82,6.67,6.67,0,0,1,.37,2.19,6.37,6.37,0,0,1-.38,2.18A2.15,2.15,0,0,1,209.27,166.51Z"/><path class="cls-8" d="M214,169.54a2.28,2.28,0,0,1-.68-.48,6.76,6.76,0,0,1-1.28-1.53,6.83,6.83,0,0,1-.8-1.83,2.25,2.25,0,0,1-.13-.82,14.06,14.06,0,0,0,1.12,2.53A14.73,14.73,0,0,0,214,169.54Z"/><path class="cls-8" d="M210.33,172.63a9.44,9.44,0,0,0,1-2.13,10.26,10.26,0,0,0,.29-2.36,4.73,4.73,0,0,1-1.33,4.49Z"/><path class="cls-8" d="M212.93,175.75a3.62,3.62,0,0,1-.77-1.75,3.45,3.45,0,0,1,0-1.92,18.43,18.43,0,0,0,.18,1.87C212.58,175,213,175.72,212.93,175.75Z"/><path class="cls-8" d="M189.71,168.94a3.36,3.36,0,0,1,.61.44,18,18,0,0,1,1.56,1.35,24,24,0,0,1,6.69,11.68,19.46,19.46,0,0,1,.38,2,5.86,5.86,0,0,1,.07.76,4.83,4.83,0,0,1-.16-.74c-.08-.48-.23-1.17-.45-2a25.63,25.63,0,0,0-2.54-6.24,26.08,26.08,0,0,0-4.1-5.36c-.61-.61-1.13-1.08-1.5-1.39A5.49,5.49,0,0,1,189.71,168.94Z"/><path class="cls-8" d="M193.8,176.6a10,10,0,0,0-.35-3,10.3,10.3,0,0,0-1.44-2.7,2.48,2.48,0,0,1,.64.66,6.38,6.38,0,0,1,1,2,6.46,6.46,0,0,1,.29,2.2A2.29,2.29,0,0,1,193.8,176.6Z"/><path class="cls-8" d="M199.26,178.06a2.46,2.46,0,0,1-.79-.26,6.9,6.9,0,0,1-1.69-1.07,6.77,6.77,0,0,1-1.31-1.51,2.41,2.41,0,0,1-.37-.74,14,14,0,0,0,1.83,2.08A14.62,14.62,0,0,0,199.26,178.06Z"/><path class="cls-8" d="M196.65,182.12a9.86,9.86,0,0,0,.35-2.35,10.09,10.09,0,0,0-.43-2.33,4.79,4.79,0,0,1,.08,4.68Z"/><path class="cls-8" d="M200.07,184.31a3.46,3.46,0,0,1-1.26-1.44,3.6,3.6,0,0,1-.55-1.83c.07,0,.24.82.74,1.73S200.12,184.26,200.07,184.31Z"/><path class="cls-8" d="M206.8,189.84a8,8,0,0,0-13-6.06l1.48,5,6.47,3.15Z"/><path class="cls-8" d="M215.43,170.71a7.9,7.9,0,0,1-4.52-14l6.65,4.23Z"/></g><g class="cls-12"><path d="M183.51,148.22l12-8.72L211.1,158a7.89,7.89,0,0,1,1.61,7.11L207.45,185a6.67,6.67,0,0,1-6.93,5h0a6.68,6.68,0,0,1-6.16-7.52l2.32-18Z"/></g><g class="cls-17"><path class="cls-10" d="M189.7,141.83l12-8.72,15.6,18.47a7.93,7.93,0,0,1,1.61,7.11l-5.26,19.95a6.69,6.69,0,0,1-6.93,5h0a6.69,6.69,0,0,1-6.16-7.52l2.32-18Z"/><path class="cls-8" d="M201.21,157.05a6,6,0,0,1-.31-.69,16.8,16.8,0,0,1-.67-2,24,24,0,0,1-1-6.72,24.42,24.42,0,0,1,1-6.73,20.38,20.38,0,0,1,.68-2,4.27,4.27,0,0,1,.32-.69,5.32,5.32,0,0,1-.23.72c-.17.46-.39,1.13-.62,2a26.18,26.18,0,0,0-.9,6.69,25.77,25.77,0,0,0,.89,6.68c.22.84.44,1.51.6,2A3.53,3.53,0,0,1,201.21,157.05Z"/><path class="cls-8" d="M201.48,148.36a10.64,10.64,0,0,0-1.21,2.82,10,10,0,0,0-.09,3.06,2.47,2.47,0,0,1-.23-.89,6.68,6.68,0,0,1,.11-2.22,6.39,6.39,0,0,1,.84-2A2.79,2.79,0,0,1,201.48,148.36Z"/><path class="cls-8" d="M197.48,144.39a2.35,2.35,0,0,1,.56.61,7,7,0,0,1,.92,1.77,7,7,0,0,1,.39,2,2.29,2.29,0,0,1,0,.83,10,10,0,0,0-1.82-5.17Z"/><path class="cls-8" d="M201.76,142.16a10.57,10.57,0,0,0-1.47,1.86,9.78,9.78,0,0,0-.79,2.24,4.78,4.78,0,0,1,2.26-4.1Z"/><path class="cls-8" d="M199.89,138.56a4.42,4.42,0,0,1-.07,3.74c-.06,0,.21-.83.23-1.87S199.83,138.58,199.89,138.56Z"/><path class="cls-8" d="M214.29,182.43a3.43,3.43,0,0,1-.32-.68c-.19-.45-.42-1.12-.67-1.95a23.83,23.83,0,0,1,0-13.46,16.89,16.89,0,0,1,.68-1.94,6,6,0,0,1,.31-.69,6.63,6.63,0,0,1-.23.72c-.17.45-.38,1.12-.61,2a25.18,25.18,0,0,0-.9,6.68,25.75,25.75,0,0,0,.88,6.68c.23.84.44,1.51.61,2A6.63,6.63,0,0,1,214.29,182.43Z"/><path class="cls-8" d="M214.55,173.75a10.46,10.46,0,0,0-1.2,2.81,9.87,9.87,0,0,0-.1,3.06,2.52,2.52,0,0,1-.22-.89,6.4,6.4,0,0,1,.1-2.22,6.49,6.49,0,0,1,.84-2A2.62,2.62,0,0,1,214.55,173.75Z"/><path class="cls-8" d="M210.55,169.77a2.35,2.35,0,0,1,.56.61,7,7,0,0,1,.92,1.77,7,7,0,0,1,.39,2,2.29,2.29,0,0,1,0,.83,13.8,13.8,0,0,0-.55-2.71A14.3,14.3,0,0,0,210.55,169.77Z"/><path class="cls-8" d="M214.83,167.55a10.12,10.12,0,0,0-1.47,1.86,10.24,10.24,0,0,0-.78,2.23,3.91,3.91,0,0,1,.59-2.34A4.07,4.07,0,0,1,214.83,167.55Z"/><path class="cls-8" d="M213,163.94a3.61,3.61,0,0,1,.38,1.88,3.48,3.48,0,0,1-.44,1.86c-.07,0,.21-.83.22-1.87S212.9,164,213,163.94Z"/><path class="cls-8" d="M208.17,172.27a6,6,0,0,1-.31-.69,19.09,19.09,0,0,1-.68-1.94,24.13,24.13,0,0,1-1-6.73,24.42,24.42,0,0,1,1-6.73,20.38,20.38,0,0,1,.68-2,3.43,3.43,0,0,1,.32-.68,5.43,5.43,0,0,1-.24.71c-.16.46-.38,1.13-.61,2a26.18,26.18,0,0,0-.9,6.69,25.77,25.77,0,0,0,.89,6.68c.22.84.43,1.51.6,2A4.61,4.61,0,0,1,208.17,172.27Z"/><path class="cls-8" d="M208.44,163.59a8.16,8.16,0,0,0-1.3,5.87,2.38,2.38,0,0,1-.23-.89,6.57,6.57,0,0,1,1-4.27A2.42,2.42,0,0,1,208.44,163.59Z"/><path class="cls-8" d="M204.44,159.61a2.23,2.23,0,0,1,.55.61,6.71,6.71,0,0,1,.93,1.77,7,7,0,0,1,.39,2,2.6,2.6,0,0,1-.05.83,10,10,0,0,0-1.82-5.17Z"/><path class="cls-8" d="M208.72,157.39a9.77,9.77,0,0,0-1.47,1.85,10,10,0,0,0-.79,2.24,4.1,4.1,0,0,1,.59-2.34A4,4,0,0,1,208.72,157.39Z"/><path class="cls-8" d="M195.19,149.14a7.26,7.26,0,0,1-.31-.69,20.38,20.38,0,0,1-.68-1.95,24.13,24.13,0,0,1-.95-6.73,23.68,23.68,0,0,1,1-6.73,19.09,19.09,0,0,1,.68-1.94,6,6,0,0,1,.31-.69,4.61,4.61,0,0,1-.23.72c-.17.45-.38,1.12-.61,2a25.51,25.51,0,0,0,0,13.36c.23.84.44,1.51.61,2A5.32,5.32,0,0,1,195.19,149.14Z"/><path class="cls-8" d="M195.46,140.45a10.12,10.12,0,0,0-1.21,2.81,10.66,10.66,0,0,0-.1,3.06,2.71,2.71,0,0,1-.22-.89,6.66,6.66,0,0,1,.1-2.22,6.48,6.48,0,0,1,.85-2.05A2.42,2.42,0,0,1,195.46,140.45Z"/><path class="cls-8" d="M191.45,136.47a2.16,2.16,0,0,1,.56.61,6.71,6.71,0,0,1,.93,1.77,7,7,0,0,1,.39,2,2.55,2.55,0,0,1-.05.83,14.73,14.73,0,0,0-.55-2.71A13.17,13.17,0,0,0,191.45,136.47Z"/><path class="cls-8" d="M195.74,134.25a9.47,9.47,0,0,0-1.48,1.86,10,10,0,0,0-.78,2.24,4.11,4.11,0,0,1,.59-2.35A4.06,4.06,0,0,1,195.74,134.25Z"/><path class="cls-8" d="M206,137.11a7.34,7.34,0,0,1,.45.61,18,18,0,0,1,1.08,1.76,23.87,23.87,0,0,1,2.38,6.36,24.19,24.19,0,0,1,.5,6.78c-.07.87-.16,1.57-.25,2a4.47,4.47,0,0,1-.16.74,5.79,5.79,0,0,1,.07-.75c.07-.48.14-1.18.18-2a25.73,25.73,0,0,0-.56-6.72,25.42,25.42,0,0,0-2.3-6.34c-.4-.76-.75-1.37-1-1.78A5.87,5.87,0,0,1,206,137.11Z"/><path class="cls-8" d="M207.61,145.66a10.36,10.36,0,0,0,.57-3,10.07,10.07,0,0,0-.56-3,2.76,2.76,0,0,1,.41.82,6.58,6.58,0,0,1,0,4.38A2.76,2.76,0,0,1,207.61,145.66Z"/><path class="cls-8" d="M212.37,148.68a2.32,2.32,0,0,1-.67-.48,6.77,6.77,0,0,1-1.29-1.53,6.88,6.88,0,0,1-.8-1.83,2.53,2.53,0,0,1-.13-.82,9.91,9.91,0,0,0,2.89,4.66Z"/><path class="cls-8" d="M208.67,151.77a9.92,9.92,0,0,0,1-2.13,9.58,9.58,0,0,0,.29-2.35,4,4,0,0,1-.07,2.41A4.05,4.05,0,0,1,208.67,151.77Z"/><path class="cls-8" d="M211.27,154.89a3.42,3.42,0,0,1-.78-1.75,3.62,3.62,0,0,1,0-1.91c.07,0,0,.85.18,1.87S211.33,154.86,211.27,154.89Z"/><path class="cls-8" d="M213.87,151.59a4.76,4.76,0,0,1,.45.6A20.23,20.23,0,0,1,215.4,154a24.52,24.52,0,0,1,2.38,6.37,24.11,24.11,0,0,1,.49,6.78,15.86,15.86,0,0,1-.25,2,5,5,0,0,1-.15.74,4.15,4.15,0,0,1,.07-.75c.07-.48.13-1.18.17-2A25.33,25.33,0,0,0,215.26,154c-.4-.77-.75-1.38-1-1.79A3.64,3.64,0,0,1,213.87,151.59Z"/><path class="cls-8" d="M215.47,160.13a8.17,8.17,0,0,0,0-6,2.5,2.5,0,0,1,.41.82,6.48,6.48,0,0,1,.38,2.19,6.64,6.64,0,0,1-.38,2.19A2.63,2.63,0,0,1,215.47,160.13Z"/><path class="cls-8" d="M220.24,163.15a2.35,2.35,0,0,1-.68-.47,7.25,7.25,0,0,1-1.29-1.53,7.07,7.07,0,0,1-.8-1.84,2.05,2.05,0,0,1-.12-.81,14.42,14.42,0,0,0,1.11,2.53A13.39,13.39,0,0,0,220.24,163.15Z"/><path class="cls-8" d="M216.53,166.24a9.66,9.66,0,0,0,1-2.13,9.84,9.84,0,0,0,.28-2.35,4.73,4.73,0,0,1-1.32,4.48Z"/><path class="cls-8" d="M219.13,169.36a4.48,4.48,0,0,1-.74-3.66c.07,0,0,.86.19,1.87S219.19,169.33,219.13,169.36Z"/><path class="cls-8" d="M195.91,162.55a6.89,6.89,0,0,1,.61.44,20.49,20.49,0,0,1,1.56,1.36A23.79,23.79,0,0,1,204.76,176a17.19,17.19,0,0,1,.38,2,4.15,4.15,0,0,1,.07.75,5.47,5.47,0,0,1-.15-.74c-.08-.48-.23-1.16-.45-2a25.49,25.49,0,0,0-6.64-11.6c-.62-.61-1.13-1.09-1.51-1.4A5.94,5.94,0,0,1,195.91,162.55Z"/><path class="cls-8" d="M200,170.22a8.2,8.2,0,0,0-1.79-5.74,2.35,2.35,0,0,1,.63.66,6.43,6.43,0,0,1,1.31,4.17A2.45,2.45,0,0,1,200,170.22Z"/><path class="cls-8" d="M205.46,171.67a2,2,0,0,1-.79-.25,6.88,6.88,0,0,1-3-2.58,2.25,2.25,0,0,1-.37-.74,14.58,14.58,0,0,0,1.83,2.08A13.24,13.24,0,0,0,205.46,171.67Z"/><path class="cls-8" d="M202.85,175.73a10.34,10.34,0,0,0,.35-2.34,9.64,9.64,0,0,0-.44-2.33,4,4,0,0,1,.66,2.32A4.08,4.08,0,0,1,202.85,175.73Z"/><path class="cls-8" d="M206.27,177.93a3.61,3.61,0,0,1-1.27-1.44,3.69,3.69,0,0,1-.54-1.84c.07,0,.23.83.74,1.73S206.31,177.88,206.27,177.93Z"/><g class="cls-18"><path class="cls-3" d="M213,183.46a8,8,0,0,0-13-6.07l1.48,5,6.47,3.16Z"/></g><g class="cls-18"><path class="cls-3" d="M221.62,164.33a7.91,7.91,0,0,1-4.52-14l6.65,4.24Z"/></g></g><rect class="cls-10" x="392.02" y="149.17" width="21.18" height="31.71" rx="2.55" transform="translate(97.98 475.72) rotate(-67.85)"/><g class="cls-12"><rect x="392.02" y="149.17" width="21.18" height="31.71" rx="2.55" transform="translate(97.98 475.72) rotate(-67.85)"/></g><path class="cls-6" d="M411.83,161.56a1.89,1.89,0,0,1,.15-.37l.5-1.05a26.12,26.12,0,0,0,1.57-3.94,9.62,9.62,0,0,0-.13-6.1,6.22,6.22,0,0,0-2.24-2.79,16.89,16.89,0,0,0-3.52-1.8c-2.51-1-5.19-1.52-7.43-.82a6.7,6.7,0,0,0-2.8,1.68,10.09,10.09,0,0,0-1.75,2.3,20.93,20.93,0,0,0-1.59,3.92c-.15.44-.26.81-.35,1.1a1.62,1.62,0,0,1-.15.38,2.92,2.92,0,0,1,.07-.4c.06-.26.16-.64.29-1.12a18.84,18.84,0,0,1,1.5-4,10.11,10.11,0,0,1,1.76-2.39,7,7,0,0,1,2.92-1.79,8.78,8.78,0,0,1,3.77-.26,15.89,15.89,0,0,1,3.89,1.07,17.43,17.43,0,0,1,3.6,1.84,6.49,6.49,0,0,1,2.34,3,9.68,9.68,0,0,1,.07,6.31,23.2,23.2,0,0,1-1.69,3.93l-.56,1A1.4,1.4,0,0,1,411.83,161.56Z"/><rect class="cls-10" x="388.36" y="147.56" width="21.18" height="31.71" rx="2.55" transform="matrix(0.38, -0.93, 0.93, 0.38, 97.2, 471.32)"/><g class="cls-19"><path class="cls-3" d="M384.61,156.6a51.74,51.74,0,0,0,6.06,3.39c2.16.88.14,1.45,3.68,1s3.84-.4,4.63.24,1.15,1.57,1.75,1.9,1.7.74,1.7.74,2.58,1.07,3.17,1.23c4.15,1.16,5.1.16,6.28,1.91s2,1.84,2,1.84l.8-2-3.76-1.53s-1.73-1.44-2.23-1.75-.74-1-1.63-.67a5.18,5.18,0,0,1-2.24.35c-.53,0-2.4-.32-2.4-.32l-1.62-.66-.36-1.43-1.48-1-.8-.12-2-.5-2.79-.39-2.86-.73-1.62-.66-2.46-.15Z"/></g><g class="cls-19"><path class="cls-3" d="M384,160.36l4.23,3.3,2.1,1.8s2.84,1.58,3.79,1.55a8.22,8.22,0,0,1,2.5.59l1.41,1.18,2,.81,2.2.29,2,.05,1.71.7,2.26.92,2.07.84,1.27.52.32.86.73-1.79-5.89-4-4.42-.51L398.62,166,397,164l-3-.23-2.76-.71-3-1.43-3.15-1.28Z"/></g><g class="cls-19"><polygon class="cls-3" points="382.26 162.35 384.17 167.25 385.78 169.48 390.93 171.58 387.74 166.5 385.25 164.85 383.22 162.34 382.59 161.56 382.26 162.35"/></g><g class="cls-19"><polygon class="cls-3" points="390.26 167 393.7 170.19 394.26 172.94 397.6 174.29 401.48 175.88 404.04 174.76 407.23 174.43 408.58 174.46 405.97 173.39 402.74 173.55 400.25 173.22 397.68 171.01 394.79 169.84 393.96 168.51 392.58 167.52 390.26 167"/></g><g class="cls-19"><path class="cls-3" d="M387,153.47l4.91.84,4.08-1,2.83-.74,3.08,2,3.58,1.67,4.44.85,2.82.31,2.19,1.84,1,3.46.07.89-.4,1-2.48-3.75a24.88,24.88,0,0,0-2-1.76c-.27-.11-1.52-.94-2.08-.85a10.66,10.66,0,0,1-3.58-.51c-1.3-.42-3.6-1.05-3.6-1.05l-2.17-1.3-1.27-.51h-3l-1.74.66-1.59.79-2.62-1.06-3.77-1.17.56-1.38Z"/></g><g class="cls-19"><polygon class="cls-3" points="392.54 149.71 386.89 150.99 386.47 152.02 389.71 152.05 392.77 151.79 394.78 150.62 392.54 149.71"/></g><path class="cls-6" d="M407.28,178.23a3.26,3.26,0,0,0,1,.15,2.52,2.52,0,0,0,2.25-1.56l4-10.08,1.35-3.34c.22-.57.49-1.18.69-1.76a2.39,2.39,0,0,0-.21-1.81,2.56,2.56,0,0,0-1.49-1.19l-2-.79-4.1-1.67-18.28-7.42a2.37,2.37,0,0,0-2.3.29,2.25,2.25,0,0,0-.75.92l-.48,1.17q-1,2.37-1.9,4.67c-1.25,3.05-2.46,6-3.6,8.81a3.38,3.38,0,0,0-.31,1,2.53,2.53,0,0,0,.15,1,2.38,2.38,0,0,0,1.4,1.41l3.86,1.58,6.95,2.85c4.22,1.75,7.64,3.17,10,4.15l2.72,1.15.7.31.24.11a1,1,0,0,1-.25-.08l-.72-.27-2.75-1.08-10.08-4-7-2.81-3.88-1.57a2.74,2.74,0,0,1-1.59-1.59,2.89,2.89,0,0,1-.16-1.17,3.51,3.51,0,0,1,.32-1.13l3.58-8.82,1.89-4.66c.17-.4.32-.79.5-1.2a2.53,2.53,0,0,1,.86-1.06,2.75,2.75,0,0,1,2.66-.33L409,155.87l4.11,1.67,2,.81a2.88,2.88,0,0,1,1.64,1.33,2.7,2.7,0,0,1,.23,2c-.23.64-.49,1.2-.72,1.79l-1.37,3.33c-1.74,4.22-3.16,7.65-4.15,10a2.6,2.6,0,0,1-2.38,1.58A2,2,0,0,1,407.28,178.23Z"/><path class="cls-3" d="M493,201s0-.15,0-.46.08-.77.15-1.36c0-.3.08-.63.09-1l0-1.21c0-.44,0-.91,0-1.42l-.14-1.6a25.76,25.76,0,0,0-8.56-16.75l-1.16-1-1.28-.92a26.31,26.31,0,0,0-2.77-1.71,25.91,25.91,0,0,0-6.47-2.34,28,28,0,0,0-3.59-.56c-.62-.07-1.24,0-1.86-.06l-1,0c-.31,0-.63,0-.94.07a24.64,24.64,0,0,0-7.62,1.68,25.94,25.94,0,0,0-12.73,10.52,26.4,26.4,0,0,0-3.67,17.3c.06.4.13.79.2,1.18v.08l0,.06-8.39,11.65-.18-.28L445.54,211h.11l.07.09a25.84,25.84,0,0,0,15.21,10.72,20.92,20.92,0,0,0,2.87.53l1.43.17c.47.06.94,0,1.41.06a25.79,25.79,0,0,0,10.28-1.84,26.26,26.26,0,0,0,7.65-4.71l1.46-1.37,1.25-1.42a13.7,13.7,0,0,0,1.09-1.41c.33-.48.69-.91.95-1.38a26.82,26.82,0,0,0,2.42-4.91l.64-1.88.33-1.4.21-.87L493,201a2.9,2.9,0,0,1-.05.3c0,.21-.1.49-.18.87s-.19.86-.31,1.42l-.61,1.89a26.27,26.27,0,0,1-2.38,5,16.36,16.36,0,0,1-1,1.39,12.89,12.89,0,0,1-1.09,1.43l-1.25,1.44-1.46,1.4a26.78,26.78,0,0,1-7.7,4.79,26.1,26.1,0,0,1-10.39,1.89c-.47,0-.95,0-1.43-.05l-1.44-.18a18.43,18.43,0,0,1-2.9-.53,26.14,26.14,0,0,1-15.44-10.82l.18.07-12.38,1.93-.43.06.25-.35,8.38-11.66,0,.15c-.07-.4-.14-.79-.19-1.19a26.69,26.69,0,0,1,3.72-17.55A26.29,26.29,0,0,1,457.84,172a24.91,24.91,0,0,1,7.72-1.69l1-.06,1,0c.63,0,1.26,0,1.88.06A28,28,0,0,1,473,171a26.22,26.22,0,0,1,6.54,2.39,25.73,25.73,0,0,1,2.79,1.73c.44.32.88.62,1.29.94l1.17,1a25.81,25.81,0,0,1,6.46,8.88,26.24,26.24,0,0,1,2.08,8q.06.85.12,1.62c0,.5,0,1,0,1.42s0,.84,0,1.22-.08.7-.11,1l-.18,1.35C493,200.88,493,201,493,201Z"/><path class="cls-3" d="M467.25,223.35h-1.13a8.15,8.15,0,0,1-1-.05l-1.44-.17a20,20,0,0,1-3-.54,26.65,26.65,0,0,1-15.49-10.68l-11.64,1.82-.3.4-.2-.33-1.48.23.88-1.22-.2-.33.49-.07,8-11.17c-.06-.3-.1-.6-.15-.91a25.67,25.67,0,0,1,.38-9.42,26,26,0,0,1,3.42-8.49,26.73,26.73,0,0,1,13.19-10.86,25.52,25.52,0,0,1,7.87-1.72l.32,0c.22,0,.43,0,.65,0l1,0h.67c.42,0,.84,0,1.26.06l.82.1a19.39,19.39,0,0,1,2.89.49,26.63,26.63,0,0,1,6.64,2.43l.8.46a16.28,16.28,0,0,1,2.08,1.33l.44.31c.29.21.57.41.84.62l1.2,1a26.44,26.44,0,0,1,6.59,9.07,26.09,26.09,0,0,1,2.12,8.2l.13,1.63c0,.35,0,.67,0,1l.19-.55-.24,2.27c0,.27,0,.51-.07.74s0,.21,0,.31l-.19,1.37c0,.26-.07.42-.08.47a2.86,2.86,0,0,1,0,.31l-.49,2.3-.63,1.94a26.82,26.82,0,0,1-2.43,5.08,7.91,7.91,0,0,1-.62.93c-.11.16-.23.31-.34.48l-.25.36a10.08,10.08,0,0,1-.89,1.14l-1.24,1.42-1.5,1.43a27.12,27.12,0,0,1-7.86,4.9A26.77,26.77,0,0,1,467.25,223.35Zm-20.45-11.7a25.57,25.57,0,0,0,8.71,7.48,25.87,25.87,0,0,0,5.55,2.1,19.08,19.08,0,0,0,2.8.52l1.43.18c.28,0,.57,0,.85,0h.52a25.2,25.2,0,0,0,10.06-1.8,25.81,25.81,0,0,0,7.5-4.62l1.45-1.36,1.21-1.38a9.27,9.27,0,0,0,.81-1l.26-.36.35-.5a6.91,6.91,0,0,0,.56-.81,27,27,0,0,0,2.38-4.84l.63-1.87.54-2.22c0-.12,0-.2.06-.26s0-.22,0-.42l.15-1.37c0-.1,0-.21,0-.33a6,6,0,0,0,.05-.62l0-1.21v-.48c0-.29,0-.59,0-.9l-.14-1.59a25.18,25.18,0,0,0-8.38-16.39l-1.16-1c-.24-.18-.5-.37-.78-.56l-.46-.33a16.41,16.41,0,0,0-1.94-1.23c-.27-.14-.53-.29-.79-.45a25,25,0,0,0-6.31-2.28,18.65,18.65,0,0,0-2.74-.46l-.81-.09a10.56,10.56,0,0,0-1.13-.05h-.69l-.93,0-.55,0-.34,0a24.41,24.41,0,0,0-7.47,1.64,25.38,25.38,0,0,0-12.47,10.31,24.36,24.36,0,0,0-3.23,8,23.86,23.86,0,0,0-.43,8.35l.49-.68-.36,1.62c0,.26.08.52.13.77l0,.23-.12.26-.49.68-.37,1.65-.17-.91-6.41,8.91,9.6-1.48-.4-.6,1.11.49.83-.13.26.37a4,4,0,0,0,.23.34l1.08.48Z"/><polygon class="cls-7" points="475.76 186.58 478.89 210.26 455.73 210.26 459.11 186.58 475.76 186.58"/><path class="cls-3" d="M461,190a10.07,10.07,0,0,0,1.18,2.24,6.22,6.22,0,0,0,2,1.78,6.59,6.59,0,0,0,3.2.77,6.73,6.73,0,0,0,3.2-.7,5.5,5.5,0,0,0,2-1.8,9.85,9.85,0,0,0,1.06-2.29,1.52,1.52,0,0,1-.09.69,6.21,6.21,0,0,1-.75,1.75,5.53,5.53,0,0,1-2.05,2,7.41,7.41,0,0,1-6.72-.07A6.17,6.17,0,0,1,462,192.4a7,7,0,0,1-.83-1.7A1.63,1.63,0,0,1,461,190Z"/><rect class="cls-1" width="576" height="340"/></g></g></svg>