<svg xmlns="http://www.w3.org/2000/svg" viewBox="0 0 576 340"><defs><style>.cls-1{fill:#bbb;}.cls-2{fill:#966d24;}.cls-3{fill:#fff;}.cls-4{fill:#455a64;}.cls-5{fill:#fafafa;}.cls-6{fill:#263238;}.cls-7{opacity:0.3;}.cls-8{opacity:0.5;}.cls-9{fill:#ffbf9d;}.cls-10{opacity:0.2;}.cls-11{opacity:0.6;}.cls-12{fill:#ff9a6c;}.cls-13{fill:none;}</style></defs><g id="Layer_2" data-name="Layer 2"><g id="hover"><path class="cls-1" d="M76.57,138.17s-5.74-.41-5.22,12.47a148.43,148.43,0,0,0,1.85,19.73s-.17,2.86-2.38,2.3-6.38-3.34-8.43-1.26-1.37,5.46,1.45,9.35,8.71,12.64,9.24,13.44.73,2.24-.84,2.1-12.15-3.73-13.55,1.39,8.25,14.68,9.29,15.74,1.09,1.74.67,2.38-3.86-.9-6.92-1.79-6.74-1.4-7.3,1.62,3.69,11.87,19.62,21.17l7.66,3.83L89,236c14.92-10.85,18.27-20.08,17.4-23s-4.48-2.08-7.43-.88-6.22,3.07-6.7,2.48-.49-1.28.43-2.44,9.58-11.63,7.67-16.59-12.08-.33-13.62,0-1.49-1.18-1-2,5.42-10.14,7.85-14.29,2.84-7.52.51-9.45-6.12,1.32-8.26,2.1-2.6-2.05-2.6-2.05A149.52,149.52,0,0,0,83,150c-.76-12.87-6.57-11.83-6.57-11.83"/><path d="M77,149.7a1.87,1.87,0,0,1,0,.27c0,.19,0,.46.06.79,0,.71.12,1.73.21,3,.17,2.65.4,6.47.66,11.2.53,9.45,1.14,22.51,1.77,36.94s1.21,27.5,1.68,36.95c.24,4.72.44,8.54.57,11.19.07,1.31.12,2.34.15,3l0,.79v.27a1.87,1.87,0,0,1,0-.27c0-.19,0-.45-.06-.79,0-.71-.12-1.73-.21-3-.18-2.64-.4-6.46-.66-11.19-.53-9.45-1.14-22.52-1.77-37S78.25,174.46,77.77,165c-.24-4.72-.43-8.54-.57-11.2-.06-1.31-.11-2.33-.15-3,0-.34,0-.6,0-.8Z"/><path d="M68.05,175.53s.19.13.48.39.71.67,1.21,1.17c1,1,2.38,2.42,3.85,4l3.74,4.1,1.15,1.24a2.14,2.14,0,0,1,.39.47,2.29,2.29,0,0,1-.48-.39c-.29-.27-.7-.67-1.21-1.18-1-1-2.34-2.45-3.81-4l-3.77-4.07L68.45,176A3.4,3.4,0,0,1,68.05,175.53Z"/><path d="M79.63,186.67c0-.06,2.75-3,6.26-6.56s6.41-6.4,6.47-6.34-2.74,3-6.26,6.55S79.69,186.73,79.63,186.67Z"/><path d="M79.6,208.87a2.34,2.34,0,0,1,.54-.34l1.5-.84c1.26-.71,3-1.7,4.89-2.85s3.56-2.26,4.76-3.07l1.43-1a2.08,2.08,0,0,1,.55-.32,3.21,3.21,0,0,1-.48.41c-.32.25-.79.61-1.38,1-1.18.85-2.84,2-4.73,3.15s-3.65,2.12-5,2.78c-.64.33-1.17.6-1.54.76A2.11,2.11,0,0,1,79.6,208.87Z"/><path d="M66.91,201.1a2,2,0,0,1,.53.25l1.39.77c1.16.67,2.77,1.6,4.53,2.65s3.34,2,4.48,2.71l1.34.85a2.3,2.3,0,0,1,.47.35,2,2,0,0,1-.53-.25l-1.39-.77c-1.16-.66-2.77-1.6-4.52-2.64s-3.35-2-4.49-2.72c-.57-.35-1-.64-1.34-.85A2.3,2.3,0,0,1,66.91,201.1Z"/><path d="M64.39,220.7a3.53,3.53,0,0,1,.68.33l1.78,1c1.5.84,3.56,2,5.83,3.34s4.31,2.53,5.78,3.42l1.74,1.06a3.6,3.6,0,0,1,.61.43,3.67,3.67,0,0,1-.67-.33l-1.78-1c-1.5-.84-3.56-2-5.83-3.34s-4.31-2.53-5.79-3.42L65,221.13A3.48,3.48,0,0,1,64.39,220.7Z"/><path d="M80.49,229.92a3.5,3.5,0,0,1,.66-.45L83,228.34c1.57-1,3.73-2.29,6.08-3.82s4.45-3,6-4l1.8-1.24a4.12,4.12,0,0,1,.67-.43,3.74,3.74,0,0,1-.61.52c-.4.32-1,.77-1.73,1.32-1.49,1.1-3.57,2.57-5.92,4.1s-4.55,2.84-6.15,3.76c-.8.45-1.45.81-1.91,1A4.41,4.41,0,0,1,80.49,229.92Z"/><polygon class="cls-1" points="92 243.14 70.8 243.14 77.72 295.52 85.08 295.52 92 243.14"/><path class="cls-1" d="M71.9,249.58a.76.76,0,0,0,.12.19,1.31,1.31,0,0,0,.51.36,2.57,2.57,0,0,0,2.24-.27,16.8,16.8,0,0,1,2.75-1.81,5.92,5.92,0,0,1,3.89.08A16.53,16.53,0,0,1,85,249.88a23.93,23.93,0,0,0,3,1.59,8.38,8.38,0,0,0,2.17.63,5.82,5.82,0,0,0,.62,0c.14,0,.21,0,.21,0a11.11,11.11,0,0,1-2.9-.88,27.68,27.68,0,0,1-2.89-1.63,15.85,15.85,0,0,0-3.69-1.81,6.27,6.27,0,0,0-4.12-.05,5.43,5.43,0,0,0-1.55,1,12.54,12.54,0,0,1-1.21.94,2.5,2.5,0,0,1-2.06.36A2.23,2.23,0,0,1,71.9,249.58Z"/><path class="cls-1" d="M72.68,259.23s.17-.22.5-.57a4.77,4.77,0,0,1,1.69-1.07,7.55,7.55,0,0,1,2.95-.44,32.3,32.3,0,0,1,3.69.5,12.77,12.77,0,0,0,3.77.16,10.65,10.65,0,0,0,3-.85A9.35,9.35,0,0,0,90,255.89a2.78,2.78,0,0,0,.57-.5,19.88,19.88,0,0,1-2.45,1.34,11,11,0,0,1-2.91.76,13,13,0,0,1-3.69-.18,27.44,27.44,0,0,0-3.73-.48,7.54,7.54,0,0,0-3,.53,4.42,4.42,0,0,0-1.7,1.21,2.6,2.6,0,0,0-.32.47C72.69,259.16,72.67,259.22,72.68,259.23Z"/><path class="cls-1" d="M89.6,264.39a1.63,1.63,0,0,0-.58-.3,6.14,6.14,0,0,0-1.76-.38,11.43,11.43,0,0,0-2.66.15c-1,.16-2,.44-3.16.67a13.3,13.3,0,0,1-3.15.36,7.12,7.12,0,0,1-2.51-.54,5.72,5.72,0,0,1-1.9-1.42,1.55,1.55,0,0,0,.36.55,4.39,4.39,0,0,0,1.44,1.09,6.79,6.79,0,0,0,2.59.64,12.77,12.77,0,0,0,3.24-.34c1.13-.24,2.18-.52,3.15-.69a12.51,12.51,0,0,1,2.59-.23A9.44,9.44,0,0,1,89.6,264.39Z"/><path class="cls-1" d="M74.55,271.65a3.48,3.48,0,0,1,2.06-.2,9.31,9.31,0,0,1,2.15.8,8.24,8.24,0,0,0,2.8.77,8.34,8.34,0,0,0,5.07-1.18,6.6,6.6,0,0,0,1.26-1c.26-.27.39-.43.37-.45a16.59,16.59,0,0,1-1.75,1.21,8.64,8.64,0,0,1-4.92,1c-2-.11-3.55-1.31-4.94-1.46a3.1,3.1,0,0,0-1.6.13A1.07,1.07,0,0,0,74.55,271.65Z"/><path class="cls-1" d="M75.73,281.71a4.18,4.18,0,0,0,1.77-.35c1.06-.36,2.38-1.18,3.92-1.79a6.4,6.4,0,0,1,2.26-.47,4.1,4.1,0,0,1,1.81.41,4.33,4.33,0,0,1,1.31,1.13,1.08,1.08,0,0,0-.2-.44,2.91,2.91,0,0,0-1-.9,4,4,0,0,0-1.92-.52,6.26,6.26,0,0,0-2.38.47c-1.6.63-2.87,1.47-3.89,1.88S75.72,281.65,75.73,281.71Z"/><path class="cls-1" d="M76.77,286.38a4.67,4.67,0,0,0,1.34.44,25.09,25.09,0,0,0,6.76.66,5.31,5.31,0,0,0,1.4-.16c0-.11-2.15,0-4.77-.28S76.8,286.28,76.77,286.38Z"/><rect class="cls-1" x="411.5" y="161.43" width="66.13" height="44.57" transform="translate(-29.76 103.66) rotate(-12.87)"/><path d="M472.16,155.1a6.21,6.21,0,0,1-.47.72l-1.44,2L464.88,165l-17.95,23.78-.14.2-.23-.11-.53-.26-27.17-13.19-8.2-4-2.21-1.14a4.11,4.11,0,0,1-.76-.43,5,5,0,0,1,.81.33l2.26,1,8.29,3.89,27.24,13,.53.26-.37.09,18.09-23.67,5.53-7.12,1.52-1.92A4.84,4.84,0,0,1,472.16,155.1Z"/><path d="M417.62,213.29c-.15-.08,3.34-7.14,7.79-15.78s8.17-15.58,8.32-15.5-3.34,7.14-7.79,15.77S417.77,213.36,417.62,213.29Z"/><path d="M455,176.57c.11-.13,6.25,4.69,13.72,10.76s13.44,11.09,13.34,11.22-6.25-4.68-13.72-10.76S454.93,176.69,455,176.57Z"/><rect class="cls-1" x="187.57" y="34.2" width="26.28" height="38.99" transform="translate(103.23 237.17) rotate(-77)"/><path d="M222.71,45.61l-.43.26-1.28.68L216.29,49l-15.64,8-.13.06-.09-.11-.22-.28-11-14-3.31-4.27c-.37-.48-.66-.87-.88-1.17a2.64,2.64,0,0,1-.29-.42,2.13,2.13,0,0,1,.34.38l.94,1.13,3.39,4.19,11.1,13.92.22.28-.22-.05,15.69-7.9,4.76-2.36,1.3-.62A2.75,2.75,0,0,1,222.71,45.61Z"/><path d="M178.8,62.45c-.05-.08,3.61-2.93,8.19-6.37s8.35-6.16,8.41-6.08-3.61,2.93-8.19,6.36S178.86,62.52,178.8,62.45Z"/><path d="M208.1,52.59c.09,0,2.11,4.1,4.51,9.24s4.27,9.35,4.18,9.39-2.1-4.09-4.5-9.24S208,52.64,208.1,52.59Z"/><rect class="cls-1" x="400.51" y="48.03" width="30.21" height="20.36" transform="translate(10.78 168.82) rotate(-23.25)"/><path d="M425.66,43.08a1.5,1.5,0,0,1-.15.36l-.48,1c-.45.9-1.06,2.15-1.82,3.69L417.1,60.31l-.05.1-.11,0-.26-.07-13.29-3.69-4-1.15-1.09-.33a2.81,2.81,0,0,1-.38-.13l.39.08,1.1.27,4.05,1.07L416.75,60l.26.07-.15.07c2.41-4.73,4.58-9,6.18-12.12l1.89-3.66.53-1A1.83,1.83,0,0,1,425.66,43.08Z"/><path d="M405.94,73.72c-.07,0,.91-3.48,2.2-7.73s2.39-7.68,2.47-7.65-.92,3.48-2.21,7.73S406,73.74,405.94,73.72Z"/><path d="M419.73,54.14c0-.07,3.19,1.59,7,3.7s7,3.88,6.92,3.95-3.19-1.59-7.05-3.71S419.7,54.2,419.73,54.14Z"/><path class="cls-2" d="M462.23,232.16a23.12,23.12,0,0,0-9.82-3.38,6.54,6.54,0,0,0-4.65.86,1,1,0,0,0-.48.85,1.12,1.12,0,0,0,.46.58,14,14,0,0,0,14.49,1.09"/><path class="cls-2" d="M462,231.89a48.3,48.3,0,0,1-6.35-5.59,16.11,16.11,0,0,1-4-7.35,3,3,0,0,1,.32-2.46c5.06,3.95,9,9,10,15.4"/><path class="cls-2" d="M462.17,232.13a23.08,23.08,0,0,1,.12-8.33,11.33,11.33,0,0,1,4.44-6.88c.87,2.05.5,4.4-.12,6.53a31.72,31.72,0,0,1-4.4,9.27"/><path class="cls-2" d="M467.13,241a14.45,14.45,0,0,0-7.87,4,14.91,14.91,0,0,0-4.51,7.74c2.95-.18,5.46-2.27,7.27-4.6s3.08-4.89,5.07-7.08"/><path class="cls-2" d="M468.21,242.43a19.41,19.41,0,0,1,2.24-18.38,23.37,23.37,0,0,1-2.24,18.38"/><path class="cls-2" d="M474.76,250.23A14,14,0,0,0,461.33,258c-.17.33-.32.75-.09,1.05a1,1,0,0,0,.89.26c2.64-.17,5-1.76,6.93-3.57s3.62-3.91,5.76-5.48"/><path class="cls-2" d="M474.55,249.8a25,25,0,0,1-.25-14c.49-1.8,1.32-3.69,3-4.54a.63.63,0,0,1,.46-.08.65.65,0,0,1,.29.34,8.44,8.44,0,0,1,.7,4,25.44,25.44,0,0,1-.63,4.05c-.52,2.48-.8,5.15-2.16,7.29a16.5,16.5,0,0,0-.87,1.6c-.25.54-.26.73-.49,1.17"/><path class="cls-2" d="M491.89,252.39A18,18,0,0,1,495,237.57c.23-.29.53-.61.9-.58.57.06.72.81.69,1.38a26.85,26.85,0,0,1-4.74,14"/><path class="cls-2" d="M493.45,253.45a21.53,21.53,0,0,0,17.68-3.59,14.27,14.27,0,0,0-9.57-1.18,13.68,13.68,0,0,0-8.11,4.77"/><path class="cls-2" d="M494.77,250.2a20.43,20.43,0,0,1,16.05-9.28,9.92,9.92,0,0,1-5.25,5.8,28.87,28.87,0,0,1-7.71,2.26c-1,.2-2.43.41-3.09,1.22"/><path class="cls-2" d="M492.22,234.41a46.73,46.73,0,0,0,2-9.39,15.65,15.65,0,0,0-1.87-9.3,20.47,20.47,0,0,0-.28,19"/><path class="cls-2" d="M502.67,229.13c3.63-6.6,11-11.87,18.54-12.61-2.89,7.2-10.78,12.77-18.54,12.61"/><path class="cls-2" d="M500.39,230.42c5.41.83,10,4.29,15.09,6.38a6.77,6.77,0,0,0,3.41.66,3,3,0,0,0,2.57-2.08,3,3,0,0,0-.9-2.65,7.3,7.3,0,0,0-2.48-1.5,27.59,27.59,0,0,0-17.23-1"/><path class="cls-2" d="M497.25,234.22c1.23.35,1.65,1,2.62,1.82a28.19,28.19,0,0,0,11.44,5.87c.44.11,1,.16,1.23-.24s0-.76-.3-1.07a15.69,15.69,0,0,0-6.91-4.69c-2.64-1-4.93-2.17-8.08-1.91"/><path class="cls-2" d="M493.72,211.28a21.65,21.65,0,0,0,16.6,5.65,1.19,1.19,0,0,0,.76-.27c.41-.46-.09-1.16-.57-1.54a19.16,19.16,0,0,0-16.79-3.84"/><path class="cls-2" d="M497.91,209.75a23.1,23.1,0,0,1,20.72-3.42,16.46,16.46,0,0,1-9.87,4.33,31.26,31.26,0,0,1-10.85-.91"/><path class="cls-2" d="M496.24,199.2c-.48-4.87-.17-8.72-.5-13.61,0-.39-.12-.86-.48-1s-.94.43-1.1.95a15.6,15.6,0,0,0,2.08,13.56"/><path class="cls-2" d="M495.89,199.74A28.68,28.68,0,0,0,504,191.9c1.6-2.18,2.94-4.8,2.58-7.48a7.71,7.71,0,0,0-5.82,2.9,16.18,16.18,0,0,0-3,6c-.65,2.14-1.1,4.34-1.86,6.45"/><path class="cls-2" d="M503.82,197.54a65.25,65.25,0,0,0,19.87-11.71c-2.38-1-5.09-.39-7.47.57a23.52,23.52,0,0,0-12.5,11.09"/><path class="cls-2" d="M498.12,202.41a40.35,40.35,0,0,0,11,.05,46.66,46.66,0,0,0,10.3-3.42,1.23,1.23,0,0,0,.7-.53.81.81,0,0,0-.25-.88,2,2,0,0,0-.88-.41,19.09,19.09,0,0,0-11.13.66,52.16,52.16,0,0,0-9.77,4.53"/><path class="cls-2" d="M477.18,211.45A19.49,19.49,0,0,1,477,195.3c1.52,2.32,1.7,5.27,1.42,8s-1.11,5.6-1.17,8.37"/><path class="cls-2" d="M467.19,206.41a22.51,22.51,0,0,0-16.74,7.13,15.7,15.7,0,0,0,9.17-1.7,47.19,47.19,0,0,0,7.85-5.26"/><path class="cls-2" d="M460.47,204.16c-3.06-.25-6-.63-8.93.27a10.7,10.7,0,0,0-6.81,5.78,16.23,16.23,0,0,0,8.37-1.58,49.05,49.05,0,0,0,7.37-4.47"/><path class="cls-2" d="M470.42,204.26c-2.75-1.8-5.57-3.63-8.77-4.38s-6.91-.19-9.15,2.22c2.6,1.52,5.74,1.7,8.74,1.7s6.69,0,9.52,1"/><path class="cls-2" d="M470.43,204.41c-4.69-4.62-6.48-12.91-4.59-19.22a29.25,29.25,0,0,1,4.59,19.22"/><path class="cls-2" d="M483.36,191.33c.88-2.06,1.51-4.22,2.3-6.32a18.35,18.35,0,0,1,3.29-5.83,8.66,8.66,0,0,1,5.82-3,23.41,23.41,0,0,1-11.3,15.19"/><path class="cls-2" d="M481,194.06c-1.47-2-3.16-4.76-5.15-6.27a8.61,8.61,0,0,0-7-1.84A16.37,16.37,0,0,0,481,194.06"/><path class="cls-2" d="M481.49,191.5a34.91,34.91,0,0,1-2.32-7.51,11.74,11.74,0,0,1,1.17-7.63c2.58,4.87,3.41,10.11,1.28,15.19"/><path class="cls-2" d="M483.38,176.36c1.46-4.84,5.89-8.4,10.67-10a3.89,3.89,0,0,1,1.87-.28,1.64,1.64,0,0,1,1.38,1.15c.17.82-.51,1.56-1.15,2.11a36.38,36.38,0,0,1-12.77,7.05"/><path class="cls-2" d="M483.43,172.4a34.61,34.61,0,0,1,1.4-9.23,11.66,11.66,0,0,1,5.81-7c.48,3.14-.91,6.28-2.58,9s-3.7,5.27-4.7,8.29"/><path class="cls-2" d="M483.36,174.55c-1.21-3.52-1.34-8-3.44-11.07-1.48-2.14-3.84-3.6-5.11-5.88a8.9,8.9,0,0,0,.3,6.68,19.24,19.24,0,0,0,3.9,5.58c1.56,1.67,2.9,2.93,4.35,4.69"/><path class="cls-3" d="M483.38,278.3c-.09,0-.17-23.5-.18-52.49s.06-52.49.16-52.49.17,23.5.18,52.49S483.47,278.3,483.38,278.3Z"/><path class="cls-3" d="M503.92,207.9a5.1,5.1,0,0,1-.88.33l-2.44.82c-2.05.7-4.86,1.71-7.92,3s-5.88,2.35-7.51,3.76a5.48,5.48,0,0,0-1.51,2c-.23.55-.27.89-.3.89a.7.7,0,0,1,0-.25,3.54,3.54,0,0,1,.17-.69A5.28,5.28,0,0,1,485,215.6a13.21,13.21,0,0,1,3.26-2c1.3-.6,2.75-1.24,4.28-1.87,3.07-1.26,5.91-2.23,8-2.88,1-.32,1.88-.56,2.47-.71A4.75,4.75,0,0,1,503.92,207.9Z"/><path class="cls-3" d="M510.65,191.36s-.08.1-.25.27l-.75.71-2.82,2.55-9.37,8.35c-3.65,3.25-6.82,6.37-9,8.71-1.09,1.17-2,2.14-2.55,2.81-.27.32-.5.57-.68.78s-.24.27-.25.26a1.34,1.34,0,0,1,.2-.3c.14-.19.35-.47.63-.82.56-.71,1.4-1.7,2.48-2.89a115.34,115.34,0,0,1,9-8.8c3.67-3.25,7-6.17,9.43-8.28l2.89-2.47.8-.66A2.07,2.07,0,0,1,510.65,191.36Z"/><path class="cls-3" d="M493.51,206.55c-.09,0,.67-1.81,1.43-4s1.13-4.11,1.23-4.1a13.9,13.9,0,0,1-.9,4.21,28.93,28.93,0,0,1-1.14,2.82A4.17,4.17,0,0,1,493.51,206.55Z"/><path class="cls-3" d="M483.4,220.77a3.69,3.69,0,0,1-.56-.65l-1.45-1.85c-1.21-1.57-2.88-3.73-4.76-6.1s-3.61-4.5-4.86-6l-1.48-1.83a3.94,3.94,0,0,1-.51-.7,4.37,4.37,0,0,1,.61.62c.38.4.91,1,1.56,1.75,1.3,1.5,3.06,3.6,4.94,6s3.53,4.56,4.7,6.16L483,220A4.19,4.19,0,0,1,483.4,220.77Z"/><path class="cls-3" d="M478.9,215a8.16,8.16,0,0,1-1.89-3.53,10.39,10.39,0,0,1-.43-3.56h.15c-.06.27-.11.42-.14.41s0-.15,0-.43h.15a16,16,0,0,0,.6,3.46A26.08,26.08,0,0,0,478.9,215Z"/><path class="cls-3" d="M473.09,207.68a6.56,6.56,0,0,0-1.32-.77,8.91,8.91,0,0,0-3.66-.29,22.74,22.74,0,0,0-3.68.6,10.28,10.28,0,0,1-1.52.36,5.46,5.46,0,0,1,1.45-.59,16.55,16.55,0,0,1,3.73-.7,7.94,7.94,0,0,1,3.77.4A2.36,2.36,0,0,1,473.09,207.68Z"/><path class="cls-3" d="M471.71,205.91c0,.05-.77-.31-2-.74a20.43,20.43,0,0,0-10.17-.77c-1.3.23-2.09.47-2.11.42a2.51,2.51,0,0,1,.54-.23,13.08,13.08,0,0,1,1.52-.43,18,18,0,0,1,10.3.79,11.88,11.88,0,0,1,1.44.65A2.08,2.08,0,0,1,471.71,205.91Z"/><path class="cls-3" d="M483.36,198.41a41,41,0,0,1-1.47-5.11,41,41,0,0,1-1.15-5.2,43.16,43.16,0,0,1,1.48,5.12A42,42,0,0,1,483.36,198.41Z"/><path class="cls-3" d="M483.45,198.41a24.82,24.82,0,0,0-1.63-3.06,14,14,0,0,0-2.4-2.48,2.41,2.41,0,0,1,.93.48,7.6,7.6,0,0,1,1.75,1.81A6.75,6.75,0,0,1,483.45,198.41Z"/><path class="cls-3" d="M483.38,265.77s-.1-.56-.37-1.56a21.88,21.88,0,0,0-1.57-4.07,56.16,56.16,0,0,0-8.33-11.74c-1.86-2.13-3.67-4.13-5.2-6.05a42.85,42.85,0,0,1-3.72-5.36,25.54,25.54,0,0,1-1.87-4c-.17-.49-.3-.87-.37-1.14a1.76,1.76,0,0,1-.1-.4s.2.54.59,1.49a29.91,29.91,0,0,0,2,3.91,44.17,44.17,0,0,0,3.75,5.28c1.54,1.9,3.35,3.9,5.21,6a52.93,52.93,0,0,1,8.3,11.86,20.77,20.77,0,0,1,1.48,4.14c.11.51.18.9.21,1.18A2.11,2.11,0,0,1,483.38,265.77Z"/><path class="cls-3" d="M501.94,244.81a11.1,11.1,0,0,1-1,.55,21.85,21.85,0,0,0-2.53,1.66,30.7,30.7,0,0,0-3.31,3c-1.16,1.23-2.36,2.66-3.58,4.19-2.45,3.07-4.73,5.78-6.1,8-.7,1.07-1.2,2-1.53,2.61a7.61,7.61,0,0,1-.54,1,.93.93,0,0,1,.09-.27c.07-.18.17-.44.33-.77a24.85,24.85,0,0,1,1.44-2.68,87.26,87.26,0,0,1,6-8c1.23-1.54,2.44-3,3.63-4.19a26.28,26.28,0,0,1,3.39-3,17.7,17.7,0,0,1,2.61-1.59c.32-.16.58-.26.76-.34A.93.93,0,0,1,501.94,244.81Z"/><path class="cls-3" d="M502.3,251.61a14.69,14.69,0,0,1-2.05.3,26.4,26.4,0,0,0-4.88,1,14.53,14.53,0,0,0-4.36,2.29c-1,.78-1.48,1.42-1.53,1.38s.08-.18.3-.47a8,8,0,0,1,1.07-1.1,13.23,13.23,0,0,1,4.42-2.42,21.79,21.79,0,0,1,5-.88A12.21,12.21,0,0,1,502.3,251.61Z"/><path class="cls-3" d="M490.08,255.8c-.11-.06.82-1.48,1.54-3.38s.83-3.61.95-3.59a3.52,3.52,0,0,1,0,1.1,12.68,12.68,0,0,1-.6,2.6,12.27,12.27,0,0,1-1.2,2.39A3.3,3.3,0,0,1,490.08,255.8Z"/><path class="cls-3" d="M508,226.55l-.33.18-1,.44c-.43.18-.94.41-1.52.71s-1.26.61-2,1l-1.13.63c-.38.23-.77.49-1.18.75-.83.5-1.65,1.12-2.54,1.75a47.81,47.81,0,0,0-5.3,4.66,48.3,48.3,0,0,0-4.48,5.46c-.6.9-1.19,1.75-1.66,2.6-.24.41-.49.81-.7,1.2l-.6,1.15c-.4.72-.69,1.4-1,2s-.5,1.11-.66,1.54l-.41,1a1.42,1.42,0,0,1-.16.34,1.3,1.3,0,0,1,.1-.36c.09-.26.2-.6.34-1s.35-1,.62-1.57.53-1.3.92-2c.19-.37.38-.76.59-1.16s.45-.8.69-1.23c.46-.85,1.05-1.71,1.64-2.63a41.87,41.87,0,0,1,9.86-10.19c.89-.63,1.73-1.24,2.57-1.74.42-.25.81-.51,1.2-.73l1.14-.63c.72-.41,1.41-.7,2-1s1.11-.5,1.54-.67l1-.38A1.73,1.73,0,0,1,508,226.55Z"/><path class="cls-3" d="M493.26,236.39a2.45,2.45,0,0,1,.81-1.2,5.08,5.08,0,0,1,3.25-1.25,9,9,0,0,1,3.43.67,4.82,4.82,0,0,1,1.29.63,7.93,7.93,0,0,1-1.37-.4,10.42,10.42,0,0,0-3.33-.56,5.32,5.32,0,0,0-3.11,1.09A10.62,10.62,0,0,0,493.26,236.39Z"/><path class="cls-3" d="M491.07,238.66a12.79,12.79,0,0,0,.92-3,11.93,11.93,0,0,0-.21-3.14,2,2,0,0,1,.39.88,6.27,6.27,0,0,1,.16,2.3,6.07,6.07,0,0,1-.69,2.2A2.18,2.18,0,0,1,491.07,238.66Z"/><path class="cls-4" d="M467.15,269.14c.51,9,3.21,18.11,7.38,27.35h18.1c4-9.14,6.49-18.26,6.94-27.35Z"/><path class="cls-5" d="M496.63,283.67c0,.1-6,.17-13.31.17s-13.31-.07-13.31-.17,6-.17,13.31-.17S496.63,283.58,496.63,283.67Z"/><path class="cls-5" d="M496.23,286.93c0,.09-5.59.17-12.48.17s-12.48-.08-12.48-.17,5.58-.17,12.48-.17S496.23,286.83,496.23,286.93Z"/><rect class="cls-4" x="147.86" y="107.86" width="278.77" height="184.35" rx="14.57"/><path class="cls-4" d="M137,280.3H439a0,0,0,0,1,0,0v1.07a15.06,15.06,0,0,1-15.06,15.06H152A15.06,15.06,0,0,1,137,281.38V280.3A0,0,0,0,1,137,280.3Z"/><rect class="cls-6" x="155.34" y="115.19" width="263.02" height="155.68"/><polygon class="cls-6" points="259.76 278.57 263.51 284.54 316.24 284.54 319.72 278.57 259.76 278.57"/><rect class="cls-1" x="160.76" y="120.46" width="252.73" height="149.91" rx="3.27"/><polygon class="cls-5" points="413.21 270.59 160.49 270.59 160.75 131.66 413.21 131.66 413.21 270.59"/><path class="cls-6" d="M181.48,126.25a2,2,0,1,1-2-2A2,2,0,0,1,181.48,126.25Z"/><path class="cls-6" d="M169.25,126.25a2,2,0,1,1-2-2A2,2,0,0,1,169.25,126.25Z"/><path class="cls-6" d="M175.12,126.25a2,2,0,1,1-2-2A2,2,0,0,1,175.12,126.25Z"/><path class="cls-6" d="M424.23,278.57c0,.1-61.88.19-138.18.19s-138.19-.09-138.19-.19,61.85-.18,138.19-.18S424.23,278.47,424.23,278.57Z"/><polygon class="cls-2" points="241.68 185.93 344.5 184.97 347.51 254.87 241.04 254.1 241.68 185.93"/><path class="cls-2" d="M241.68,185.93l48.58-39.48a5.59,5.59,0,0,1,7.06,0L344.5,185"/><g class="cls-7"><path d="M241.68,185.93l48.58-39.48a5.59,5.59,0,0,1,7.06,0L344.5,185"/></g><path class="cls-6" d="M241,254.1c-.12-.12,8.09-9.12,18.35-20.11s18.68-19.79,18.81-19.67-8.09,9.12-18.35,20.11S241.17,254.22,241,254.1Z"/><path class="cls-6" d="M347.51,254.87c-.13.12-8.16-8.67-17.94-19.63S312,215.3,312.1,215.19s8.16,8.67,17.95,19.63S347.65,254.75,347.51,254.87Z"/><g class="cls-8"><polyline points="344.5 184.97 292.96 226.32 241.68 185.93"/></g><polygon class="cls-5" points="246.87 189.74 246.64 157.63 336.67 156.37 337.76 190.16 292.95 225.78 246.87 189.74"/><path class="cls-6" d="M246.87,189.74s.3.21.85.64l2.46,1.89,9.32,7.24,33.55,26.15h-.19L337.64,190l-.07.16c-.21-6.45-.42-13.21-.64-20.09-.15-4.63-.3-9.21-.44-13.7l.19.18-90,1.19.12-.13c.05,10.1.09,18.12.11,23.62,0,2.75,0,4.87,0,6.31v1.63c0,.37,0,.56,0,.56s0-.18,0-.54,0-.92,0-1.62c0-1.44,0-3.55-.07-6.29-.05-5.52-.13-13.55-.23-23.66v-.12h.12l90-1.31h.19v.19q.22,6.74.44,13.7c.22,6.88.44,13.64.65,20.08v.1l-.08.06L293.05,225.9l-.1.08-.09-.07-33.51-26.3-9.25-7.29-2.42-1.92C247.14,190,246.87,189.74,246.87,189.74Z"/><path class="cls-6" d="M322.48,172.57c0,.11-13.77.3-30.75.44s-30.75.17-30.76.06,13.77-.3,30.76-.44S322.48,172.47,322.48,172.57Z"/><path class="cls-6" d="M322.5,181.64c0,.11-13.77.3-30.75.44s-30.76.17-30.76.06,13.77-.3,30.76-.43S322.5,181.54,322.5,181.64Z"/><path class="cls-6" d="M322.52,192.1c0,.1-13.77.3-30.75.44s-30.75.16-30.75.06,13.76-.3,30.75-.44S322.52,192,322.52,192.1Z"/><path class="cls-6" d="M322.54,202.55c0,.11-13.13.3-29.33.43s-29.34.16-29.35.05,13.14-.29,29.34-.43S322.54,202.45,322.54,202.55Z"/><path class="cls-6" d="M311,211.75s-.12,0-.36.05l-1,0-3.8.09-12.55.23c-4.9.09-9.34.12-12.55.12l-3.81,0-1,0c-.24,0-.36,0-.36,0l.36,0,1,0,3.8-.1,12.55-.23c4.9-.09,9.34-.12,12.55-.11l3.81,0,1,0A1.65,1.65,0,0,1,311,211.75Z"/><path class="cls-6" d="M299.47,220.6a59.24,59.24,0,0,1-6.55.2,58.33,58.33,0,0,1-6.56-.17,55.1,55.1,0,0,1,6.56-.21A56.7,56.7,0,0,1,299.47,220.6Z"/><path class="cls-6" d="M311.6,156.09c.11,0,.15.42.1.92s-.17.9-.27.89-.15-.43-.1-.93S311.5,156.08,311.6,156.09Z"/><path class="cls-6" d="M312.57,149a4.38,4.38,0,0,1-.08,1.79,4.19,4.19,0,0,1-.46,1.73,4.58,4.58,0,0,1,.08-1.79A4.38,4.38,0,0,1,312.57,149Z"/><path class="cls-6" d="M314,142.05a4.45,4.45,0,0,1-.2,1.78,4.38,4.38,0,0,1-.57,1.7,4.5,4.5,0,0,1,.2-1.79A4.4,4.4,0,0,1,314,142.05Z"/><path class="cls-6" d="M315.92,135.19a4.4,4.4,0,0,1-.33,1.76,4.44,4.44,0,0,1-.7,1.65,8.74,8.74,0,0,1,1-3.41Z"/><path class="cls-6" d="M318.41,128.51a4.31,4.31,0,0,1-.48,1.72,4.42,4.42,0,0,1-.83,1.59,4.18,4.18,0,0,1,.48-1.73A4.43,4.43,0,0,1,318.41,128.51Z"/><path class="cls-6" d="M321.5,122.09a4.49,4.49,0,0,1-.64,1.67c-.45.88-.89,1.55-1,1.5a4.41,4.41,0,0,1,.64-1.67C321,122.71,321.41,122,321.5,122.09Z"/><path class="cls-3" d="M325.23,116a4.44,4.44,0,0,1-.84,1.58c-.52.83-1,1.46-1.11,1.41a4.3,4.3,0,0,1,.8-1.61C324.63,116.57,325.14,116,325.23,116Z"/><path class="cls-3" d="M329.62,110.41c.08.07-.37.73-1,1.49s-1.2,1.31-1.28,1.25.36-.73,1-1.49S329.54,110.34,329.62,110.41Z"/><path class="cls-3" d="M334.64,105.35c.07.08-.45.69-1.16,1.37s-1.35,1.16-1.43,1.08.45-.68,1.17-1.36S334.57,105.28,334.64,105.35Z"/><path class="cls-3" d="M340.25,101c.06.09-.53.63-1.33,1.21a4.45,4.45,0,0,1-1.54.9c-.07-.08.52-.62,1.32-1.21A4.54,4.54,0,0,1,340.25,101Z"/><path class="cls-3" d="M346.39,97.35c.05.1-.61.55-1.47,1a4.37,4.37,0,0,1-1.66.68c-.05-.09.61-.54,1.48-1A4.56,4.56,0,0,1,346.39,97.35Z"/><path class="cls-3" d="M353,94.67a4.48,4.48,0,0,1-1.61.79,4.63,4.63,0,0,1-1.74.43A8.4,8.4,0,0,1,353,94.67Z"/><path class="cls-3" d="M359.93,93.06a4.67,4.67,0,0,1-1.72.48,4.43,4.43,0,0,1-1.78.18,4.29,4.29,0,0,1,1.71-.55A4.11,4.11,0,0,1,359.93,93.06Z"/><path class="cls-3" d="M367,92.66a4.29,4.29,0,0,1-1.78.21,4.35,4.35,0,0,1-1.79-.17,4.62,4.62,0,0,1,1.78-.21A4.48,4.48,0,0,1,367,92.66Z"/><path class="cls-3" d="M374.11,93.5a4.4,4.4,0,0,1-1.79-.1,4.64,4.64,0,0,1-1.73-.47,4.39,4.39,0,0,1,1.79.1A4.23,4.23,0,0,1,374.11,93.5Z"/><path class="cls-3" d="M380.93,95.53a4.29,4.29,0,0,1-1.74-.4,4.34,4.34,0,0,1-1.62-.76,4.32,4.32,0,0,1,1.74.4A4.5,4.5,0,0,1,380.93,95.53Z"/><path class="cls-3" d="M387.28,98.77a4.45,4.45,0,0,1-1.64-.72,4.7,4.7,0,0,1-1.46-1,4.39,4.39,0,0,1,1.64.72C386.68,98.21,387.33,98.68,387.28,98.77Z"/><path class="cls-3" d="M392.86,103.18a4.47,4.47,0,0,1-1.46-1c-.74-.64-1.28-1.23-1.22-1.31s.72.38,1.47,1S392.94,103.1,392.86,103.18Z"/><path class="cls-3" d="M396.38,107.24c-.08.06-.4-.21-.7-.6s-.49-.77-.41-.84.4.21.71.61S396.47,107.18,396.38,107.24Z"/><path class="cls-3" d="M429.91,150.92a4.64,4.64,0,0,1-1.72-.59,4.8,4.8,0,0,1-1.57-.94,4.61,4.61,0,0,1,1.73.59A4.46,4.46,0,0,1,429.91,150.92Z"/><path class="cls-3" d="M436.75,153.3A4.58,4.58,0,0,1,435,153a4.27,4.27,0,0,1-1.68-.71,4.59,4.59,0,0,1,1.79.35A4.46,4.46,0,0,1,436.75,153.3Z"/><path class="cls-3" d="M443.9,154.44a4.53,4.53,0,0,1-1.82,0,4.27,4.27,0,0,1-1.78-.39,4.81,4.81,0,0,1,1.82,0A4.59,4.59,0,0,1,443.9,154.44Z"/><path class="cls-3" d="M451.14,154.21a4.39,4.39,0,0,1-1.79.33,4.71,4.71,0,0,1-1.82,0,4.44,4.44,0,0,1,1.79-.33A4.76,4.76,0,0,1,451.14,154.21Z"/><path class="cls-3" d="M458.26,152.88a4.35,4.35,0,0,1-1.72.61,4.22,4.22,0,0,1-1.82.18,4.83,4.83,0,0,1,1.74-.54A4.5,4.5,0,0,1,458.26,152.88Z"/><path class="cls-3" d="M465,150.21a4.43,4.43,0,0,1-1.57.93,4.64,4.64,0,0,1-1.72.59,4.34,4.34,0,0,1,1.57-.93A4.53,4.53,0,0,1,465,150.21Z"/><path class="cls-3" d="M471,146.17c.06.08-.5.68-1.31,1.28a3.86,3.86,0,0,1-1.59.9,5.52,5.52,0,0,1,1.37-1.2A5.06,5.06,0,0,1,471,146.17Z"/><path class="cls-3" d="M475.93,140.88a4,4,0,0,1-1,1.55c-.64.78-1.26,1.32-1.34,1.24a5.58,5.58,0,0,1,1.05-1.48C475.31,141.43,475.84,140.82,475.93,140.88Z"/><path class="cls-3" d="M479.32,134.5a6.5,6.5,0,0,1-1.47,3.31,12.93,12.93,0,0,1,1.47-3.31Z"/><path class="cls-3" d="M480.66,127.41a3.7,3.7,0,0,1,.08,1.82,3.78,3.78,0,0,1-.45,1.78,15.57,15.57,0,0,1,.37-3.6Z"/><path class="cls-3" d="M479.62,120.26a3.92,3.92,0,0,1,.65,1.71,3.78,3.78,0,0,1,.15,1.82,5.81,5.81,0,0,1-.52-1.74A5.37,5.37,0,0,1,479.62,120.26Z"/><path class="cls-3" d="M476.47,113.76c.08-.06.62.56,1.13,1.44a3.89,3.89,0,0,1,.69,1.69c-.1,0-.52-.65-1-1.5A5.52,5.52,0,0,1,476.47,113.76Z"/><path class="cls-3" d="M471.44,108.59c.05-.09.78.31,1.54,1s1.27,1.32,1.19,1.39-.69-.46-1.44-1.11S471.37,108.68,471.44,108.59Z"/><path class="cls-3" d="M464.86,105.64a3.66,3.66,0,0,1,1.81.3c1,.32,1.68.74,1.63.84a6.27,6.27,0,0,1-1.75-.48A5.7,5.7,0,0,1,464.86,105.64Z"/><path class="cls-3" d="M457.67,105.76a5.85,5.85,0,0,1,3.59-.47,6,6,0,0,1-1.78.32A5.79,5.79,0,0,1,457.67,105.76Z"/><path class="cls-3" d="M451.42,109.26c-.07-.06.43-.74,1.24-1.35a3.42,3.42,0,0,1,1.64-.84c.05.1-.62.54-1.41,1.14S451.5,109.34,451.42,109.26Z"/><path class="cls-3" d="M448.56,115.77a3.37,3.37,0,0,1,.1-1.84,3.3,3.3,0,0,1,.76-1.67A7.2,7.2,0,0,1,449,114,8.12,8.12,0,0,1,448.56,115.77Z"/><path class="cls-3" d="M450,122.8a3.55,3.55,0,0,1-.88-1.61,3.42,3.42,0,0,1-.3-1.81,6.86,6.86,0,0,1,.66,1.68A6.28,6.28,0,0,1,450,122.8Z"/><path class="cls-3" d="M454.71,128.19a3.67,3.67,0,0,1-1.55-1c-.76-.68-1.24-1.36-1.16-1.42s.67.48,1.41,1.13S454.77,128.1,454.71,128.19Z"/><path class="cls-3" d="M461.29,131.14a3.81,3.81,0,0,1-1.8-.34,3.64,3.64,0,0,1-1.63-.84,6,6,0,0,1,1.75.49A5.46,5.46,0,0,1,461.29,131.14Z"/><path class="cls-6" d="M468.48,131.82a3.87,3.87,0,0,1-1.81.22,4,4,0,0,1-1.81-.29,5.19,5.19,0,0,1,1.81-.09A5.51,5.51,0,0,1,468.48,131.82Z"/><path class="cls-3" d="M475.59,130.51a4.17,4.17,0,0,1-1.7.68,4,4,0,0,1-1.81.21,5,5,0,0,1,1.72-.57A5.12,5.12,0,0,1,475.59,130.51Z"/><path class="cls-3" d="M482.16,127.49c.06.09-.62.55-1.51,1a4.6,4.6,0,0,1-1.69.68,4.52,4.52,0,0,1,1.51-1A4.68,4.68,0,0,1,482.16,127.49Z"/><path class="cls-3" d="M488,123.17c.07.08-.5.66-1.28,1.3s-1.46,1.09-1.52,1,.51-.66,1.28-1.29A4.82,4.82,0,0,1,488,123.17Z"/><path class="cls-3" d="M492.91,117.88a4.64,4.64,0,0,1-1,1.5c-.66.76-1.25,1.32-1.32,1.25s.38-.74,1-1.5S492.83,117.81,492.91,117.88Z"/><path class="cls-3" d="M496.9,111.83a4.64,4.64,0,0,1-.77,1.65c-.52.86-1,1.51-1.1,1.45a4.64,4.64,0,0,1,.77-1.65C496.31,112.43,496.81,111.78,496.9,111.83Z"/><path class="cls-3" d="M499.84,105.2a4.44,4.44,0,0,1-.49,1.76c-.36.94-.75,1.66-.85,1.61a5,5,0,0,1,.5-1.75A4.47,4.47,0,0,1,499.84,105.2Z"/><path class="cls-3" d="M501.86,98.25a4.33,4.33,0,0,1-.27,1.8,4.56,4.56,0,0,1-.64,1.71,4.69,4.69,0,0,1,.28-1.81A4.55,4.55,0,0,1,501.86,98.25Z"/><path class="cls-3" d="M503.13,91.11a4.31,4.31,0,0,1-.08,1.82,4.4,4.4,0,0,1-.47,1.76,8.84,8.84,0,0,1,.55-3.58Z"/><path class="cls-3" d="M503.8,83.89a4.57,4.57,0,0,1,.05,1.83,4.29,4.29,0,0,1-.32,1.79,4.53,4.53,0,0,1,0-1.82A4.62,4.62,0,0,1,503.8,83.89Z"/><path class="cls-3" d="M504,76.65a4.41,4.41,0,0,1,.15,1.82,4.57,4.57,0,0,1-.22,1.8,4.59,4.59,0,0,1-.15-1.81A4.69,4.69,0,0,1,504,76.65Z"/><path class="cls-3" d="M504,69.4a4.58,4.58,0,0,1,.21,1.81A4.58,4.58,0,0,1,504,73a4.58,4.58,0,0,1-.21-1.81A4.34,4.34,0,0,1,504,69.4Z"/><path class="cls-3" d="M503.87,64.94c.1,0,.19.18.2.41s-.07.42-.18.42-.19-.18-.2-.41S503.77,64.94,503.87,64.94Z"/><rect class="cls-2" x="472.13" y="46.01" width="49.57" height="33.41" transform="translate(-3.87 54.02) rotate(-6.2)"/><path class="cls-6" d="M474.07,82h0l-3.61-33.24h0l49.3-5.35h0l3.61,33.24h0ZM470.5,48.8,474.1,82l49.24-5.35-3.6-33.18Z"/><path class="cls-6" d="M520,43.82a3.47,3.47,0,0,1-.41.49l-1.25,1.35c-1.12,1.2-2.69,2.87-4.63,4.92L498.24,66.72l-.13.13-.15-.1-.38-.23L478.51,54.33l-5.76-3.74-1.55-1a3.35,3.35,0,0,1-.52-.39,3.55,3.55,0,0,1,.57.31l1.6,1,5.83,3.62,19.14,12.08.38.23-.28,0,15.53-16,4.73-4.82,1.3-1.29A3.55,3.55,0,0,1,520,43.82Z"/><path class="cls-6" d="M474.28,82.39c-.1-.07,3.11-5,7.18-11.07S488.9,60.43,489,60.5s-3.11,5-7.17,11.07S474.39,82.46,474.28,82.39Z"/><path class="cls-6" d="M505.34,58.31c.09-.09,4.24,4,9.27,9.2s9,9.44,8.95,9.53-4.24-4-9.27-9.21S505.25,58.39,505.34,58.31Z"/><path class="cls-6" d="M294.72,144.14c.1,0,.26.37.34.87s.07.91,0,.92-.25-.37-.33-.86S294.62,144.16,294.72,144.14Z"/><path class="cls-6" d="M293.56,137.07a4.58,4.58,0,0,1,.47,1.74,4.44,4.44,0,0,1,.1,1.8,4.5,4.5,0,0,1-.47-1.74A4.44,4.44,0,0,1,293.56,137.07Z"/><path class="cls-6" d="M292.53,130a4.64,4.64,0,0,1,.43,1.75,4.21,4.21,0,0,1,.06,1.8,4.43,4.43,0,0,1-.43-1.75A4.2,4.2,0,0,1,292.53,130Z"/><path class="cls-6" d="M291.71,122.86a4.59,4.59,0,0,1,.38,1.76,4.25,4.25,0,0,1,0,1.8,4.42,4.42,0,0,1-.37-1.76A4.55,4.55,0,0,1,291.71,122.86Z"/><path class="cls-3" d="M291.21,115.71a4.17,4.17,0,0,1,.29,1.78,4.53,4.53,0,0,1-.08,1.8,4.22,4.22,0,0,1-.29-1.78A4.48,4.48,0,0,1,291.21,115.71Z"/><path class="cls-3" d="M291.14,108.54a4.52,4.52,0,0,1,.17,1.79,4.28,4.28,0,0,1-.2,1.8,4.55,4.55,0,0,1-.17-1.8A4.18,4.18,0,0,1,291.14,108.54Z"/><path class="cls-3" d="M291.59,101.39a4.55,4.55,0,0,1,0,1.8,4.6,4.6,0,0,1-.34,1.77,4.29,4.29,0,0,1,0-1.8A4.2,4.2,0,0,1,291.59,101.39Z"/><path class="cls-3" d="M292.66,94.31a4.22,4.22,0,0,1-.12,1.79,4.57,4.57,0,0,1-.5,1.74,8.85,8.85,0,0,1,.62-3.53Z"/><path class="cls-3" d="M294.49,87.38a8.6,8.6,0,0,1-1,3.43A4.48,4.48,0,0,1,293.8,89,4.34,4.34,0,0,1,294.49,87.38Z"/><path class="cls-3" d="M297.17,80.73a4.26,4.26,0,0,1-.55,1.72,4.27,4.27,0,0,1-.89,1.56,4.37,4.37,0,0,1,.55-1.71A4.61,4.61,0,0,1,297.17,80.73Z"/><path class="cls-3" d="M300.67,74.48a4.47,4.47,0,0,1-.76,1.63c-.51.85-1,1.49-1.09,1.44a4.42,4.42,0,0,1,.76-1.63C300.09,75.07,300.58,74.42,300.67,74.48Z"/><path class="cls-3" d="M305,68.75c.08.07-.36.75-1,1.51s-1.19,1.34-1.27,1.28.35-.74,1-1.51S304.89,68.68,305,68.75Z"/><path class="cls-3" d="M310.06,63.71c.07.08-.47.69-1.2,1.35s-1.37,1.15-1.45,1.07.47-.68,1.2-1.35S310,63.63,310.06,63.71Z"/><path class="cls-3" d="M315.92,59.6c.05.09-.58.59-1.41,1.12a4.3,4.3,0,0,1-1.61.8c-.06-.08.57-.58,1.41-1.12S315.87,59.5,315.92,59.6Z"/><path class="cls-3" d="M322.44,56.66a4.34,4.34,0,0,1-1.6.83,4.42,4.42,0,0,1-1.73.47,4.47,4.47,0,0,1,1.6-.83A4.29,4.29,0,0,1,322.44,56.66Z"/><path class="cls-6" d="M327.68,55.37c0,.1-.37.26-.85.35s-.9.09-.93,0,.36-.26.86-.36S327.66,55.26,327.68,55.37Z"/><rect class="cls-2" x="289.54" y="27.86" width="36.33" height="53.9" transform="translate(145.61 322.03) rotate(-68.86)"/><path class="cls-6" d="M326.29,81.49h0L276,62v0l13.11-33.9h0l50.29,19.44v0ZM276,62l50.23,19.43L339.36,47.6,289.13,28.17Z"/><path class="cls-6" d="M339.39,48.05a3.23,3.23,0,0,1-.64.27l-1.88.69L330,51.45l-23,7.88-.19.07-.1-.18-.25-.42L294.11,37.51,290.42,31l-1-1.78a3.57,3.57,0,0,1-.31-.63,4.24,4.24,0,0,1,.4.58l1.06,1.73,3.82,6.4c3.22,5.47,7.61,13,12.47,21.23l.24.42-.29-.11,23-7.75,7-2.29,1.91-.6A4.73,4.73,0,0,1,339.39,48.05Z"/><path class="cls-6" d="M276,62.5c-.07-.12,5.51-3.3,12.45-7.11s12.63-6.8,12.69-6.68-5.51,3.3-12.45,7.11S276.08,62.62,276,62.5Z"/><path class="cls-6" d="M318,54.75c.13,0,2.09,6,4.36,13.52s4,13.63,3.9,13.67-2.08-6-4.36-13.53S317.91,54.79,318,54.75Z"/><path class="cls-6" d="M273.61,152.08c.1,0,.15.42.11.92s-.15.9-.26.89-.15-.42-.11-.92S273.5,152.07,273.61,152.08Z"/><path class="cls-6" d="M273.79,144.71a4.46,4.46,0,0,1,.19,1.84,4.67,4.67,0,0,1-.2,1.85,5,5,0,0,1-.18-1.85A4.75,4.75,0,0,1,273.79,144.71Z"/><path class="cls-6" d="M273.29,137.35a4.84,4.84,0,0,1,.36,1.82,4.76,4.76,0,0,1,0,1.85,4.9,4.9,0,0,1-.36-1.82A4.8,4.8,0,0,1,273.29,137.35Z"/><path class="cls-6" d="M272.06,130.08a9.08,9.08,0,0,1,.71,3.62,5,5,0,0,1-.54-1.78A4.83,4.83,0,0,1,272.06,130.08Z"/><path class="cls-6" d="M270.06,123a9.06,9.06,0,0,1,1.1,3.52,9.06,9.06,0,0,1-1.1-3.52Z"/><path class="cls-3" d="M267.24,116.17a4.64,4.64,0,0,1,.93,1.6,4.54,4.54,0,0,1,.58,1.76,4.9,4.9,0,0,1-.93-1.6A4.64,4.64,0,0,1,267.24,116.17Z"/><path class="cls-3" d="M263.58,109.77c.08-.06.6.59,1.15,1.46a4.34,4.34,0,0,1,.78,1.68c-.09,0-.58-.61-1.1-1.49A4.64,4.64,0,0,1,263.58,109.77Z"/><path class="cls-3" d="M259.06,103.94c.08-.07.67.51,1.32,1.3s1.12,1.47,1,1.54-.68-.52-1.33-1.3A4.77,4.77,0,0,1,259.06,103.94Z"/><path class="cls-3" d="M253.76,98.82c.07-.08.74.41,1.5,1.09s1.32,1.3,1.24,1.38a4.86,4.86,0,0,1-1.49-1.1C254.25,99.51,253.7,98.9,253.76,98.82Z"/><path class="cls-3" d="M247.78,94.5a4.76,4.76,0,0,1,1.64.87c.85.57,1.49,1.1,1.43,1.18a4.76,4.76,0,0,1-1.64-.87C248.37,95.12,247.73,94.59,247.78,94.5Z"/><path class="cls-3" d="M241.21,91.16a4.53,4.53,0,0,1,1.76.6,4.88,4.88,0,0,1,1.6.94,9.18,9.18,0,0,1-3.36-1.54Z"/><path class="cls-3" d="M234.19,88.93a4.63,4.63,0,0,1,1.83.3,4.79,4.79,0,0,1,1.73.66,4.69,4.69,0,0,1-1.83-.29A4.51,4.51,0,0,1,234.19,88.93Z"/><path class="cls-3" d="M226.88,88a4.5,4.5,0,0,1,1.85-.08,4.37,4.37,0,0,1,1.82.38,4.71,4.71,0,0,1-1.85,0A4.83,4.83,0,0,1,226.88,88Z"/><path class="cls-3" d="M219.53,88.51a4.4,4.4,0,0,1,1.81-.41,4.73,4.73,0,0,1,1.85,0,4.52,4.52,0,0,1-1.81.41A5,5,0,0,1,219.53,88.51Z"/><path class="cls-3" d="M212.41,90.4a4.49,4.49,0,0,1,1.7-.74,4.33,4.33,0,0,1,1.81-.37,9.33,9.33,0,0,1-3.51,1.11Z"/><path class="cls-3" d="M205.77,93.6c-.06-.09.63-.56,1.53-1a4.88,4.88,0,0,1,1.71-.71,8.93,8.93,0,0,1-3.24,1.76Z"/><path class="cls-3" d="M199.88,98c-.07-.07.51-.67,1.29-1.32a4.73,4.73,0,0,1,1.54-1c.06.09-.52.68-1.3,1.33A4.49,4.49,0,0,1,199.88,98Z"/><path class="cls-3" d="M195.06,103.59A4.08,4.08,0,0,1,196,102c.63-.81,1.25-1.38,1.32-1.31a5.32,5.32,0,0,1-1,1.54C195.67,103,195.15,103.65,195.06,103.59Z"/><path class="cls-3" d="M192.37,108.38c-.1,0,0-.45.22-.9s.48-.78.57-.74,0,.46-.23.9S192.46,108.42,192.37,108.38Z"/><path class="cls-3" d="M146.3,151.16c0-.1.39-.24.88-.3s.9,0,.92.08-.37.24-.87.3S146.31,151.26,146.3,151.16Z"/><path class="cls-3" d="M139.12,150.35a5.41,5.41,0,0,1,1.8.26,5.59,5.59,0,0,1,1.75.48,3.78,3.78,0,0,1-1.83-.11A3.83,3.83,0,0,1,139.12,150.35Z"/><path class="cls-3" d="M132.63,147.14a5.31,5.31,0,0,1,1.63.82c.85.51,1.54.94,1.49,1a3.79,3.79,0,0,1-1.69-.71C133.19,147.77,132.57,147.22,132.63,147.14Z"/><path class="cls-3" d="M127.24,142.29c.08-.07.67.49,1.37,1.2s1.25,1.31,1.18,1.39a4.16,4.16,0,0,1-1.45-1.13C127.63,143,127.16,142.36,127.24,142.29Z"/><path class="cls-3" d="M123,136.42c.09,0,.61.58,1.16,1.42a4.48,4.48,0,0,1,.83,1.62c-.08.06-.6-.57-1.15-1.42A4.57,4.57,0,0,1,123,136.42Z"/><path class="cls-3" d="M119.84,129.87a4.57,4.57,0,0,1,.89,1.6,4.73,4.73,0,0,1,.54,1.74c-.1,0-.5-.67-.89-1.59A4.38,4.38,0,0,1,119.84,129.87Z"/><path class="cls-3" d="M117.76,122.91a4.66,4.66,0,0,1,.64,1.71,4.47,4.47,0,0,1,.28,1.81,9,9,0,0,1-.92-3.52Z"/><path class="cls-3" d="M116.5,115.76a4.65,4.65,0,0,1,.46,1.77,4.75,4.75,0,0,1,.08,1.82,4.51,4.51,0,0,1-.46-1.77A4.31,4.31,0,0,1,116.5,115.76Z"/><path class="cls-3" d="M115.8,108.53a4.59,4.59,0,0,1,.33,1.79,4.28,4.28,0,0,1,0,1.83,4.67,4.67,0,0,1-.33-1.8A4.6,4.6,0,0,1,115.8,108.53Z"/><path class="cls-3" d="M115.5,103.08c.1,0,.21.4.23.9s0,.91-.14.91-.21-.39-.24-.89S115.39,103.09,115.5,103.08Z"/><rect class="cls-2" x="83.44" y="60.53" width="60.35" height="40.68" transform="translate(-3.68 5.44) rotate(-2.7)"/><path class="cls-6" d="M84.41,102.62v0L82.49,62h0l60.3-2.84v0l1.92,40.65h0ZM82.53,62l1.91,40.59,60.25-2.84-1.91-40.59Z"/><path class="cls-6" d="M143,59.61a4.44,4.44,0,0,1-.54.57l-1.6,1.54-6,5.64-20,18.46-.17.16-.18-.14-.44-.31L91.86,69.3l-6.71-5L83.34,63a5.07,5.07,0,0,1-.61-.51,4,4,0,0,1,.67.42l1.87,1.29L92.09,69l22.36,16.09.44.32-.34,0,20.06-18.35,6.11-5.5,1.68-1.48A3.78,3.78,0,0,1,143,59.61Z"/><path class="cls-6" d="M84.64,103.08c-.12-.09,4.15-5.87,9.54-12.91s9.85-12.68,10-12.59S100,83.46,94.62,90.5,84.76,103.17,84.64,103.08Z"/><path class="cls-6" d="M124.17,76.13c.11-.1,4.85,5.22,10.58,11.88s10.29,12.13,10.18,12.23S140.07,95,134.34,88.36,124.05,76.23,124.17,76.13Z"/><path class="cls-9" d="M190.4,203.46a1.65,1.65,0,0,0-1.25-1.84l-1.62.11-5.78-2a1.73,1.73,0,0,0-2.18,1.58c0,1.66-.7,6.18-2,4.76l-.09-.09c-1.91-2.13-4.11-3.16-5-3a1,1,0,0,0-.41,1.71,1.09,1.09,0,0,0,.34.24l.2.1a14.28,14.28,0,0,1,2.2,2,7.6,7.6,0,0,1,1.46,2.2c.39.9.69,1.69.93,2.36l.09,5.31L175,241.68s-15.3-16.07-14.94-16.22l.88,25,9.26,7.67A11.65,11.65,0,0,0,189.24,249l-.54-32.13.38-4.21Z"/><path class="cls-9" d="M104.51,238.78,87.78,277.09,74.53,304.72,64.7,308s-7.79,2.26-7.79,3.87S59,313.15,59,313.15c.37,2.4,3.7,1,6,0s7.51-1.3,7.51-1.3a2.11,2.11,0,0,0-.14,3.38c.82.58,2.26-.12,3.23-1.16s3.48-1.52,6.27-2.51,3.25-4.75,3.25-4.75l33.52-56.45Z"/><path class="cls-2" d="M160.08,252.69l4.21,5.56L173.42,238s-8.86-10.81-12.1-15.34-5.62-5.28-5.62-5.28-5.89-1.74-8.83-1.68l-14.54.86L117.56,223a20.43,20.43,0,0,0-8.89,7.49L94.76,252.83l19.69,8.42L121.06,299c1.26,5.66,2.37,11,7.6,13.62l36.52-35.1-4.28-6.74Z"/><path class="cls-6" d="M125.16,245.77c.09,0-2.16,3.55-5,7.81s-5.26,7.66-5.34,7.6,2.16-3.55,5-7.81S125.08,245.71,125.16,245.77Z"/><path class="cls-6" d="M155.78,281.6a6.16,6.16,0,0,1-1,.58c-.64.35-1.57.85-2.72,1.44-2.3,1.2-5.52,2.8-9.1,4.49s-6.87,3.15-9.26,4.17c-1.19.51-2.17.91-2.84,1.17a5.65,5.65,0,0,1-1.07.38,7.6,7.6,0,0,1,1-.51l2.79-1.29c2.36-1.08,5.62-2.57,9.21-4.26s6.81-3.25,9.14-4.38l2.77-1.34A7.36,7.36,0,0,1,155.78,281.6Z"/><path class="cls-6" d="M124,237.59a13,13,0,0,1-1.28-1.62,25.64,25.64,0,0,0-3.24-3.69,11.42,11.42,0,0,0-4.18-2.47c-1.2-.37-2-.36-2-.43a1.4,1.4,0,0,1,.55,0,6.39,6.39,0,0,1,1.51.22,10.43,10.43,0,0,1,4.36,2.44,20.58,20.58,0,0,1,3.21,3.82A9.81,9.81,0,0,1,124,237.59Z"/><path class="cls-6" d="M154,256a1.71,1.71,0,0,1,0,.4c0,.26,0,.65,0,1.14a27.35,27.35,0,0,1-.58,4.19,30,30,0,0,1-16.88,21,27.52,27.52,0,0,1-4,1.48c-.47.14-.85.22-1.11.28a1.62,1.62,0,0,1-.39.07s.52-.18,1.46-.5a32.06,32.06,0,0,0,3.89-1.57,31.16,31.16,0,0,0,17.42-25A14.74,14.74,0,0,1,154,256Z"/><g class="cls-7"><path d="M117,275.85c-.07-.36,4.68-24.91,4.68-24.91l-7.16,10.75"/></g><path class="cls-6" d="M159.14,229.13a2,2,0,0,1,.05.42c0,.32.05.72.08,1.21.06,1.11.13,2.62.22,4.47.19,3.81.44,9,.72,14.72s.49,10.95.6,14.73c.06,1.88.09,3.41.11,4.46v1.22a1.91,1.91,0,0,1,0,.42,1.54,1.54,0,0,1-.06-.42l-.07-1.21c-.06-1.11-.13-2.62-.23-4.46-.18-3.82-.43-9-.71-14.73s-.49-11-.6-14.72c-.06-1.89-.1-3.42-.11-4.47v-1.22A2,2,0,0,1,159.14,229.13Z"/><g class="cls-10"><path d="M130,293.81c-1.16-1-.9-3,.14-4.07a9,9,0,0,1,4-2.07c6.94-2.25,13.92-5.42,18.5-11.1a10.79,10.79,0,0,1,2.05-2.21,2.81,2.81,0,0,1,2.84-.39c1.41.72,1.46,2.76.87,4.22a8.1,8.1,0,0,1-3.83,4.18"/></g><g class="cls-10"><polygon points="159.29 233.49 163.34 257 160.19 252.83 159.29 233.49"/></g><path class="cls-2" d="M197.85,295.26,191,318.76l29.19,8.68c.66-2.84-12.78-12.93-12.78-12.93l5-14.88Z"/><g class="cls-11"><path class="cls-3" d="M198.76,310.56a1.25,1.25,0,0,0-1.23,1.12,1.21,1.21,0,0,0,1.1,1.23,1.31,1.31,0,0,0,1.29-1.19c0-.61-.68-1.28-1.28-1.15"/></g><g class="cls-11"><path class="cls-3" d="M191,318.76l.78-2.34,27.7,9.19s1.13,1,.71,1.83Z"/></g><path class="cls-6" d="M207.93,314.5c-.05.14-.78,0-1.62.25s-1.39.73-1.5.64.34-.86,1.36-1.14S208,314.38,207.93,314.5Z"/><path class="cls-6" d="M210.61,316.68c0,.15-.69.21-1.36.66s-1,1.06-1.13,1,0-.88.84-1.43S210.65,316.54,210.61,316.68Z"/><path class="cls-6" d="M211.26,320.86c-.13,0-.12-.78.48-1.45s1.35-.79,1.38-.65-.51.43-1,1S211.41,320.89,211.26,320.86Z"/><path class="cls-6" d="M208.69,311c-.09.11-.69-.28-1.51-.47s-1.53-.12-1.57-.26.72-.47,1.69-.24S208.8,310.89,208.69,311Z"/><path class="cls-6" d="M209,307.31a2.73,2.73,0,0,1-1.46-.44,6.65,6.65,0,0,1-1.39-.92,7.78,7.78,0,0,1-.71-.7,1.84,1.84,0,0,1-.34-.47.66.66,0,0,1,.16-.78.81.81,0,0,1,.72-.14,2,2,0,0,1,.53.24,4.92,4.92,0,0,1,.81.58,5.16,5.16,0,0,1,1.09,1.29,2.63,2.63,0,0,1,.51,1.44c-.08,0-.28-.52-.81-1.24a6,6,0,0,0-1.09-1.12,5.3,5.3,0,0,0-.76-.51c-.29-.17-.55-.25-.67-.14s-.05.06,0,.17a1.77,1.77,0,0,0,.25.35,8.29,8.29,0,0,0,.64.67,8,8,0,0,0,1.26,1C208.51,307,209.05,307.24,209,307.31Z"/><path class="cls-6" d="M208.78,307.46a2.34,2.34,0,0,1,0-1.52,4.81,4.81,0,0,1,.67-1.54,5.09,5.09,0,0,1,.64-.78,1.25,1.25,0,0,1,1.15-.46.72.72,0,0,1,.49.59,1.86,1.86,0,0,1,0,.58,3.39,3.39,0,0,1-.29,1,3.52,3.52,0,0,1-1.08,1.33,2,2,0,0,1-1.43.53c0-.09.55-.22,1.2-.81a3.6,3.6,0,0,0,.87-1.24,3.33,3.33,0,0,0,.23-.85c0-.33,0-.61-.13-.62a.9.9,0,0,0-.65.33,4.78,4.78,0,0,0-.6.69,5.14,5.14,0,0,0-.71,1.37C208.87,306.89,208.87,307.47,208.78,307.46Z"/><path class="cls-6" d="M227.82,260.27c.74,5.42-1.11,11.53-3.07,16.64L211.94,307l-14.17-2.18a18.29,18.29,0,0,1-6.73,4.55c-1.69.56-7.25,1.65-11.82-1.64h0s-6.48,9-16.66,11.75-25.61,4.23-33.08-7.69L165,277.56c.74.18,30.62-20,46.76-24.56C211.78,253,226.47,250.3,227.82,260.27Z"/><path class="cls-4" d="M196.72,304.72l.19-.11.58-.31c.51-.27,1.27-.66,2.22-1.19A36.54,36.54,0,0,0,203.1,301a17.66,17.66,0,0,0,3.84-3.55,12.4,12.4,0,0,0,2.49-5.76,19.22,19.22,0,0,0-.31-7.24,11.64,11.64,0,0,0-3.91-6.81,14.8,14.8,0,0,0-8-2.85,24.72,24.72,0,0,0-4.39,0,32.19,32.19,0,0,0-4.21.74,50.05,50.05,0,0,0-7.64,2.64c-4.74,2.07-8.85,4.31-12.47,5.85a44.47,44.47,0,0,1-8.8,2.94c-.54.12-1,.2-1.44.26a8.9,8.9,0,0,1-1.06.14l-.65.07h-.23a.63.63,0,0,1,.22-.05l.65-.1c.29,0,.64-.09,1.05-.18s.89-.16,1.43-.29a47.16,47.16,0,0,0,8.73-3c3.58-1.57,7.67-3.83,12.43-5.92a49.75,49.75,0,0,1,7.7-2.69,32.51,32.51,0,0,1,4.25-.75,24.58,24.58,0,0,1,4.46,0,15,15,0,0,1,8.2,2.93,10.32,10.32,0,0,1,2.67,3.24,14.77,14.77,0,0,1,1.35,3.78,19.46,19.46,0,0,1,.28,7.37,12.58,12.58,0,0,1-2.59,5.87,17.57,17.57,0,0,1-3.93,3.57,34.16,34.16,0,0,1-3.44,2c-1,.51-1.74.88-2.26,1.13l-.6.27Z"/><path class="cls-4" d="M205.61,265.22a45.24,45.24,0,0,1-3,4.85,43.4,43.4,0,0,1-3.29,4.64,41.6,41.6,0,0,1,3-4.85A42.17,42.17,0,0,1,205.61,265.22Z"/><path class="cls-4" d="M195.39,302.33a24.29,24.29,0,0,1-2.58.66c-1.59.4-3.77,1-6.13,1.83s-4.45,1.71-5.94,2.4a22.81,22.81,0,0,1-2.42,1.08,2.85,2.85,0,0,1,.59-.39c.4-.24,1-.56,1.72-.93a49,49,0,0,1,5.92-2.52,49.81,49.81,0,0,1,6.2-1.73c.81-.16,1.46-.28,1.92-.34A3.2,3.2,0,0,1,195.39,302.33Z"/><path class="cls-4" d="M211.69,305c-.06,0-.23-.64-.84-1.52a6.11,6.11,0,0,0-7.29-2.37c-1,.36-1.54.8-1.58.75s.1-.15.35-.34a5.09,5.09,0,0,1,1.13-.66,6,6,0,0,1,7.62,2.47,5.12,5.12,0,0,1,.53,1.2A1.21,1.21,0,0,1,211.69,305Z"/><path class="cls-4" d="M150.37,293.81a2,2,0,0,1,.19.68,10.78,10.78,0,0,1,.16,1.91,11.72,11.72,0,0,1-1.67,6.05,9.26,9.26,0,0,1-4.86,3.95,6.85,6.85,0,0,1-1.88.36c-.46,0-.71,0-.7,0a13.34,13.34,0,0,0,2.49-.58,9.39,9.39,0,0,0,4.63-3.89,12.23,12.23,0,0,0,1.72-5.86C150.52,294.8,150.3,293.82,150.37,293.81Z"/><path class="cls-4" d="M134.38,310.07c-.08.07-.45-.26-.81-.75s-.54-1-.45-1,.41.31.76.8S134.46,310,134.38,310.07Z"/><path class="cls-4" d="M137.37,313.22c-.07.08-.48-.19-.91-.61s-.73-.82-.65-.89.48.2.91.61S137.44,313.15,137.37,313.22Z"/><path class="cls-4" d="M140.89,315.77c-.06.09-.51-.1-1-.43s-.87-.67-.81-.75.52.11,1,.43S140.94,315.68,140.89,315.77Z"/><path class="cls-4" d="M144.87,317.48c0,.11-.51,0-1.08-.19s-1-.45-1-.54.53,0,1.08.19S144.9,317.38,144.87,317.48Z"/><path class="cls-4" d="M149.16,318.16c0,.1-.5.14-1.1.09S147,318.06,147,318s.51-.14,1.1-.09S149.16,318.05,149.16,318.16Z"/><path class="cls-4" d="M153.5,317.92c0,.1-.47.22-1.08.26a4.17,4.17,0,0,1-.81,0h0c-.18,0-.29,0-.29-.09s.09-.1.26-.16h0a4.54,4.54,0,0,1,.79-.11C153,317.77,153.48,317.82,153.5,317.92Z"/><path class="cls-4" d="M157.77,317.15c0,.1-.43.29-1,.41s-1.09.15-1.11,0,.44-.28,1-.41S157.74,317.05,157.77,317.15Z"/><path class="cls-4" d="M161.92,315.88c0,.1-.4.34-1,.53s-1.06.26-1.09.16.41-.33,1-.52S161.89,315.79,161.92,315.88Z"/><path class="cls-4" d="M165.92,314.19c.05.09-.36.37-.91.62s-1,.37-1.07.28.37-.38.91-.63S165.88,314.09,165.92,314.19Z"/><path class="cls-4" d="M169.73,312.1c.06.08-.32.4-.84.7s-1,.48-1,.39.33-.41.85-.71S169.68,312,169.73,312.1Z"/><path class="cls-4" d="M173.32,309.65c.07.08-.28.43-.77.78s-.94.57-1,.48.28-.44.77-.78S173.26,309.56,173.32,309.65Z"/><path class="cls-4" d="M176.67,306.88c.07.07-.24.46-.7.85s-.88.65-.94.57.24-.46.7-.85S176.6,306.8,176.67,306.88Z"/><path class="cls-4" d="M179.83,303.89c.07.08-.22.48-.66.89s-.85.68-.92.6.22-.47.66-.88S179.77,303.81,179.83,303.89Z"/><path class="cls-4" d="M183.27,301.22c.06.09-.29.44-.77.79s-.93.57-1,.49.28-.44.77-.79S183.21,301.13,183.27,301.22Z"/><path class="cls-4" d="M187.08,299.12c0,.09-.36.39-.89.65s-1,.4-1.06.31.35-.38.89-.65S187,299,187.08,299.12Z"/><path class="cls-4" d="M191.23,297.83c0,.1-.43.3-1,.44s-1.07.18-1.1.08.42-.3,1-.44S191.21,297.72,191.23,297.83Z"/><path class="cls-4" d="M195.56,297.61c0,.1-.49.14-1.09.13s-1.07-.07-1.08-.17.48-.22,1.09-.21S195.57,297.5,195.56,297.61Z"/><path class="cls-4" d="M199.75,298.7c0,.1-.51,0-1.06-.24s-1-.39-1-.49.52-.07,1.1.14S199.8,298.61,199.75,298.7Z"/><path class="cls-4" d="M198.84,301.86c-.07-.08.26-.44.64-.88s.7-.8.79-.74-.09.53-.51,1S198.9,301.94,198.84,301.86Z"/><path class="cls-4" d="M195,303.85c0-.1.38-.36.93-.59s1-.33,1.08-.24-.37.36-.94.59S195,304,195,303.85Z"/><path class="cls-4" d="M190.85,305.18c0-.1.4-.33,1-.52s1.06-.27,1.09-.17-.41.34-1,.53S190.89,305.28,190.85,305.18Z"/><path class="cls-4" d="M186.79,306.73c0-.09.38-.35.94-.57s1.05-.32,1.08-.22-.38.35-.94.57S186.83,306.83,186.79,306.73Z"/><path class="cls-4" d="M182.78,308.43c0-.1.37-.37.92-.61s1-.35,1.08-.25-.37.36-.93.6S182.82,308.52,182.78,308.43Z"/><path class="cls-4" d="M174.68,184.11s4.74-1.42,11-8.45,8.84-15.93,9.67-15.95,4.34-2,12.35,12.52,5.55,18.17,4.18,18.24-10.89-1.83-16.66-.73-13,4.68-13,4.68Z"/><path class="cls-6" d="M165.05,193.05l1.87,3,.84,1.35a4.11,4.11,0,0,0,5.46,1.41l10.06-4.37-7-13.29-9.91,6.27A4.09,4.09,0,0,0,165.05,193.05Z"/><path class="cls-6" d="M171.38,197.61l3.77,6.21,1.61-.58,11.4,7.95,2.57-6.11s-6.56-2.26-7.9-4.44,0-2.8,0-2.8l-3.25-3.17Z"/><path class="cls-6" d="M207.2,172.54c4.27,7.85,6.34,15,4.61,15.92s-6.58-4.67-10.86-12.52-6.34-15-4.61-15.92S202.93,164.69,207.2,172.54Z"/><polygon class="cls-4" points="164.5 197.63 167.23 196.54 165.25 193.38 163.25 194.84 164.5 197.63"/><polygon class="cls-4" points="180.67 195.76 173.5 201.12 172.43 199.35 180.67 195.76"/><polygon class="cls-4" points="165.25 193.38 167.23 196.54 166.67 196.77 165.01 193.55 165.25 193.38"/><path class="cls-4" d="M167.24,194a15.79,15.79,0,0,0,3-1.44,16.38,16.38,0,0,0,2.86-1.76,15.49,15.49,0,0,0-3,1.44A16.38,16.38,0,0,0,167.24,194Z"/><path class="cls-4" d="M166.23,192.1a14.13,14.13,0,0,0,2.74-1.4,12.79,12.79,0,0,0,2.55-1.72,14.45,14.45,0,0,0-2.74,1.4A12.79,12.79,0,0,0,166.23,192.1Z"/><path class="cls-4" d="M168.48,196c0,.05.34-.05.86-.26.26-.1.57-.22.91-.37s.68-.36,1.05-.56a12.13,12.13,0,0,0,2.55-1.69,14.68,14.68,0,0,0-2.73,1.37c-.36.2-.7.42-1,.58l-.85.44C168.75,195.74,168.46,195.93,168.48,196Z"/><path class="cls-4" d="M199.58,171.29s4-2.91,6.71,2.58-1.62,6.75-1.62,6.75A37.88,37.88,0,0,1,199.58,171.29Z"/><path class="cls-6" d="M194.63,164.88a5.65,5.65,0,0,0,.24,1.07c.19.68.45,1.67.81,2.88l.72,1.94.41,1.08.21.56c.08.19.18.37.26.56l1.13,2.38.3.62c.1.21.23.4.34.61.24.4.48.82.72,1.24s.48.83.72,1.23c.12.2.23.41.36.6l.39.57,1.51,2.15c.12.17.23.35.36.51l.38.46.74.89,1.33,1.6c.87.91,1.6,1.62,2.1,2.12a5.89,5.89,0,0,0,.81.74,8,8,0,0,0-.71-.84l-2-2.2L204.46,184l-.72-.89-.37-.47a5.62,5.62,0,0,1-.35-.5L201.54,180l-.39-.56c-.13-.19-.23-.4-.36-.6l-.71-1.23-.71-1.22a6.21,6.21,0,0,1-.34-.61l-.3-.62q-.6-1.22-1.14-2.34c-.09-.19-.19-.37-.27-.56s-.14-.37-.22-.56c-.14-.36-.28-.72-.42-1.06-.27-.69-.53-1.33-.76-1.91l-.91-2.84A6.47,6.47,0,0,0,194.63,164.88Z"/><path class="cls-9" d="M183.85,197.86a1.24,1.24,0,0,1,.85,1.49c-.31,1.23-.82,3.17-1.23,4.35a3.18,3.18,0,0,1-.54,1.07,1.12,1.12,0,0,1-1.08.41,1.15,1.15,0,0,1-.77-.93,3.23,3.23,0,0,1,.11-1.27c.25-1.14.72-2.87,1.13-4.28a1.23,1.23,0,0,1,1.53-.84Z"/><path class="cls-9" d="M185.81,199.86a1.23,1.23,0,0,1,.85,1.49c-.31,1.23-.82,3.17-1.23,4.35a3.13,3.13,0,0,1-.54,1.08,1,1,0,0,1-1.85-.53,3.36,3.36,0,0,1,.11-1.26c.25-1.15.72-2.88,1.13-4.29a1.24,1.24,0,0,1,1.53-.84Z"/><path class="cls-9" d="M187.71,201.06a1.06,1.06,0,0,1,.73,1.29c-.27,1.07-.71,2.75-1.06,3.77a2.81,2.81,0,0,1-.47.93,1,1,0,0,1-.93.35,1,1,0,0,1-.67-.8,2.92,2.92,0,0,1,.09-1.1c.22-1,.63-2.49,1-3.71a1.07,1.07,0,0,1,1.33-.73Z"/><path class="cls-9" d="M189.86,201.31a1.07,1.07,0,0,1,.74,1.29c-.27,1.07-.72,2.76-1.07,3.79a2.81,2.81,0,0,1-.47.93.88.88,0,0,1-1.61-.45,2.73,2.73,0,0,1,.09-1.1c.22-1,.63-2.51,1-3.73a1.08,1.08,0,0,1,1.34-.73Z"/><path class="cls-12" d="M183.17,204.79a15.12,15.12,0,0,1,1.42-4.52,14.89,14.89,0,0,1-1.42,4.52Z"/><path class="cls-12" d="M187.25,206.44a10,10,0,0,1,.58-2.31,10.78,10.78,0,0,1,.77-2.25,10,10,0,0,1-1.35,4.56Z"/><path class="cls-12" d="M185.23,206.18a9.84,9.84,0,0,1,.58-2.31,10.78,10.78,0,0,1,.77-2.25,6.2,6.2,0,0,1-.41,2.36A6.34,6.34,0,0,1,185.23,206.18Z"/><path class="cls-6" d="M222.06,144.87c.08.06-2.89,4.1-6.64,9s-6.86,8.86-6.94,8.79,2.89-4.1,6.64-9S222,144.8,222.06,144.87Z"/><path class="cls-6" d="M241.51,156.37c.05.1-6.2,3.09-14,6.69s-14.07,6.44-14.12,6.35,6.21-3.09,14-6.69S241.47,156.28,241.51,156.37Z"/><path class="cls-6" d="M238.62,180.32c0,.1-4.47-.25-10-.77s-9.93-1.05-9.92-1.15,4.47.24,9.95.77S238.63,180.21,238.62,180.32Z"/><path class="cls-9" d="M124.31,193.74l4.92,28a9.22,9.22,0,0,0,10.38,7.45h0a9.11,9.11,0,0,0,7.83-10.47l-.8-4.82s6.88-1.86,6.16-8.78c-.34-3.33-1.62-10.13-2.85-16.28a13.2,13.2,0,0,0-15.09-10.32h0A12.88,12.88,0,0,0,124.31,193.74Z"/><path class="cls-12" d="M146.65,213.91a16.58,16.58,0,0,1-9.44-1.53s2.74,4.73,9.66,3.32Z"/><path class="cls-6" d="M148.45,193.49a1,1,0,0,1-.85,1.11,1,1,0,0,1-1.13-.77,1,1,0,0,1,.84-1.11A1,1,0,0,1,148.45,193.49Z"/><path class="cls-6" d="M148.68,191.82c-.11.14-.93-.32-2-.2s-1.8.75-1.94.63,0-.3.36-.58a2.72,2.72,0,0,1,1.53-.66,2.63,2.63,0,0,1,1.61.31C148.6,191.54,148.73,191.76,148.68,191.82Z"/><path class="cls-6" d="M138.32,194.72a1,1,0,0,1-.85,1.1,1,1,0,0,1-1.14-.77,1,1,0,0,1,.85-1.11A1,1,0,0,1,138.32,194.72Z"/><path class="cls-6" d="M138.27,193.22c-.11.14-.93-.33-2-.2s-1.8.74-1.93.63,0-.3.35-.59a2.79,2.79,0,0,1,1.53-.66,2.74,2.74,0,0,1,1.62.32C138.19,192.93,138.33,193.15,138.27,193.22Z"/><path class="cls-6" d="M143.1,201.28a7.19,7.19,0,0,1,1.71-.51c.27-.06.53-.14.55-.33a1.3,1.3,0,0,0-.27-.78l-1.06-2a35.08,35.08,0,0,1-2.45-5.19,35.92,35.92,0,0,1,2.87,5c.36.69.7,1.36,1,2a1.56,1.56,0,0,1,.27,1.05.67.67,0,0,1-.41.44,1.49,1.49,0,0,1-.46.12A7.09,7.09,0,0,1,143.1,201.28Z"/><path class="cls-6" d="M140,202.38c.18,0,.32,1.12,1.41,1.82s2.33.44,2.36.6-.26.25-.78.33a3,3,0,0,1-2-.44,2.47,2.47,0,0,1-1.1-1.54C139.84,202.68,139.93,202.38,140,202.38Z"/><path class="cls-6" d="M138.07,189.67c-.08.3-1.17.28-2.41.57s-2.23.75-2.43.51.06-.4.43-.73a4.14,4.14,0,0,1,1.75-.83,4.19,4.19,0,0,1,1.94,0C137.84,189.32,138.1,189.52,138.07,189.67Z"/><path class="cls-6" d="M148.08,189.43c-.16.27-.93.1-1.82.19s-1.63.35-1.83.11,0-.36.3-.63a2.7,2.7,0,0,1,3-.24C148,189.07,148.15,189.31,148.08,189.43Z"/><path class="cls-6" d="M150,177a2.44,2.44,0,0,0-3.18.2,2.2,2.2,0,0,0-.61-2.9,3.74,3.74,0,0,0-3.18-.46,10.94,10.94,0,0,0-2.95,1.45,1.12,1.12,0,0,0-.5-1.12,2.42,2.42,0,0,0-1.24-.39,9.43,9.43,0,0,0-5.23,1.17,32.32,32.32,0,0,0-4.83,3.28h0a23,23,0,0,0-4.42,4.73l0,.05a7.73,7.73,0,0,0-1.74,5c.58,5,2.22,7.85,3.15,12.57a1.61,1.61,0,0,0,.36.87c.57.6,1.6.09,2.14-.53a8.92,8.92,0,0,0,1.85-5.6c.06-2-.22-4-.18-6v-.14a11.81,11.81,0,0,1,.15-1.53c.09-.32.93-3.18,3.68-3.65,2.92-.5,8.67,2.33,11.52,1.88s3-2.46,3-2.46l1.68,3.41a10.36,10.36,0,0,0,.27-4.26,4.81,4.81,0,0,0,1.41-2.48A3.19,3.19,0,0,0,150,177Z"/><path class="cls-9" d="M127.05,196.72c-.13,0-5-.86-4.28,3.84s5.35,3,5.34,2.9S127.05,196.72,127.05,196.72Z"/><path class="cls-12" d="M126.39,201.89s-.08.07-.21.16a.84.84,0,0,1-.62.1,2.06,2.06,0,0,1-1.22-1.68,2.71,2.71,0,0,1,0-1.21,1,1,0,0,1,.54-.72.43.43,0,0,1,.52.16c.08.12.07.22.09.22s.1-.09,0-.28a.63.63,0,0,0-.23-.27.65.65,0,0,0-.48-.05,1.16,1.16,0,0,0-.76.85,2.68,2.68,0,0,0-.09,1.36,2.15,2.15,0,0,0,1.51,1.85.93.93,0,0,0,.75-.23C126.4,202,126.41,201.9,126.39,201.89Z"/><path class="cls-5" d="M116.32,230.78a.94.94,0,0,1,.42-.06,1.59,1.59,0,0,1,1.07.53,2.35,2.35,0,0,1,.62,1.78,10,10,0,0,1-.55,2.44,3.34,3.34,0,0,0,.17,2.79c.51.9,1.56,1.59,2,2.84a3.36,3.36,0,0,1-1.06,3.65,3.42,3.42,0,0,1-2,.76,7.62,7.62,0,0,1-2.09-.34,3.75,3.75,0,0,0-2-.13,2.87,2.87,0,0,0-1.45,1.18,10,10,0,0,1-1.23,1.54,2.46,2.46,0,0,1-1.84.68,3.66,3.66,0,0,1-2.89-1.93,6.94,6.94,0,0,1-.74-2.95c0-.93,0-1.76,0-2.49a11.47,11.47,0,0,0-.16-1.85,9.59,9.59,0,0,0-.44-1.52,1.21,1.21,0,0,1,.21.36,5.38,5.38,0,0,1,.38,1.13,11.18,11.18,0,0,1,.22,1.87c0,.74,0,1.57.1,2.48a6.77,6.77,0,0,0,.74,2.82,3.36,3.36,0,0,0,2.64,1.73,2.12,2.12,0,0,0,1.57-.59,10.2,10.2,0,0,0,1.19-1.5,3.12,3.12,0,0,1,1.63-1.32,4.12,4.12,0,0,1,2.15.12,7.08,7.08,0,0,0,2,.33,3,3,0,0,0,1.74-.67,3,3,0,0,0,.95-3.25c-.35-1.11-1.37-1.81-1.93-2.79a2.79,2.79,0,0,1-.42-1.57,6,6,0,0,1,.27-1.45,10.42,10.42,0,0,0,.59-2.38,2.19,2.19,0,0,0-.52-1.67,1.62,1.62,0,0,0-1-.56C116.47,230.76,116.33,230.8,116.32,230.78Z"/><path class="cls-5" d="M118.32,281.52a4.07,4.07,0,0,0,.22.45,1.87,1.87,0,0,0,1.12.78,2.26,2.26,0,0,0,2.07-.43,4.32,4.32,0,0,0,1.39-2.54c.23-1.08.19-2.31.4-3.64a5.78,5.78,0,0,1,.66-2,3.34,3.34,0,0,1,1.67-1.49,4.72,4.72,0,0,1,2.33-.21c.78.08,1.56.26,2.35.36a5.53,5.53,0,0,0,2.36-.11,5.36,5.36,0,0,0,2.12-1.18,4.69,4.69,0,0,0,1.31-2,3.87,3.87,0,0,0,0-2.31,4,4,0,0,0-3.15-2.81c-1.42-.16-2.75.54-4.12.57a4,4,0,0,1-1.92-.43,10.44,10.44,0,0,1-1.5-1A8.9,8.9,0,0,0,123,262a2.54,2.54,0,0,0-2.14.14,2,2,0,0,0-.93,1,3,3,0,0,0-.11.48,1.05,1.05,0,0,1,0-.51,2,2,0,0,1,.93-1.11,2.74,2.74,0,0,1,1-.35,3,3,0,0,1,1.27.14,9.23,9.23,0,0,1,2.63,1.53,5.18,5.18,0,0,0,3.25,1.3,10.4,10.4,0,0,0,2-.36,6.11,6.11,0,0,1,2.2-.24,4.33,4.33,0,0,1,3.47,3,4.23,4.23,0,0,1,.05,2.54,5.08,5.08,0,0,1-1.41,2.19,5.73,5.73,0,0,1-2.27,1.26,6,6,0,0,1-2.52.12c-.81-.11-1.58-.29-2.34-.37A4.44,4.44,0,0,0,126,273a3,3,0,0,0-1.51,1.34,5.56,5.56,0,0,0-.65,1.87c-.21,1.27-.19,2.52-.44,3.64a4.54,4.54,0,0,1-1.52,2.64,2.36,2.36,0,0,1-2.24.41,1.93,1.93,0,0,1-1.15-.88A1,1,0,0,1,118.32,281.52Z"/><path class="cls-5" d="M143,237.6a2.35,2.35,0,0,1,.5-.68,3.88,3.88,0,0,1,2.14-1.09,3.76,3.76,0,0,1,3.47,1.38,4.05,4.05,0,0,1,.87,2.25,6.12,6.12,0,0,0,.55,2.52,2,2,0,0,0,1.06.78A5.63,5.63,0,0,0,153,243c.51,0,1,0,1.57.08a2.91,2.91,0,0,1,1.59.55,1.92,1.92,0,0,1,.55.71,2,2,0,0,1,.15.91,3.07,3.07,0,0,1-.76,1.64,4.58,4.58,0,0,1-1.44,1.13c-.55.28-1.12.51-1.67.76a6.26,6.26,0,0,0-1.55.95,3.1,3.1,0,0,0-.91,1.55,22.94,22.94,0,0,0-.09,3.92,4.84,4.84,0,0,1-.55,2,2.37,2.37,0,0,1-1.72,1.3,2.63,2.63,0,0,1-2.08-.69,6.36,6.36,0,0,1-1.38-1.68,19.29,19.29,0,0,0-1.12-1.78,3.3,3.3,0,0,0-1.55-1.21,2.84,2.84,0,0,0-1.9.13,11.08,11.08,0,0,0-1.76.94,10.27,10.27,0,0,1-1.8.94,5.73,5.73,0,0,1-2,.33,6.2,6.2,0,0,1-3.63-1.28,5.12,5.12,0,0,1-2-3.06,3.53,3.53,0,0,1,.86-3.31,3.41,3.41,0,0,1,1.49-.78,12.75,12.75,0,0,1,1.56-.27,5,5,0,0,0,2.67-.9,5.29,5.29,0,0,0,1.42-2.15c.31-.77.52-1.55.78-2.25a6.63,6.63,0,0,1,1-1.85,8,8,0,0,1,1.27-1.22,4.49,4.49,0,0,1,2.16-1,1,1,0,0,1,.81.23,1.26,1.26,0,0,0-.8-.15,4.44,4.44,0,0,0-2.08,1.09,8.16,8.16,0,0,0-1.22,1.21,6.47,6.47,0,0,0-.92,1.82c-.25.69-.45,1.46-.75,2.26a5.58,5.58,0,0,1-1.48,2.26,5.23,5.23,0,0,1-2.8,1,5.14,5.14,0,0,0-2.87,1,3.24,3.24,0,0,0-.76,3,4.89,4.89,0,0,0,1.88,2.86,5.94,5.94,0,0,0,3.42,1.19,5.17,5.17,0,0,0,1.86-.32,9.66,9.66,0,0,0,1.74-.91,10.88,10.88,0,0,1,1.82-1,3.11,3.11,0,0,1,2.15-.13,3.5,3.5,0,0,1,1.72,1.33,15.75,15.75,0,0,1,1.15,1.81,5.92,5.92,0,0,0,1.3,1.59,2.28,2.28,0,0,0,1.78.61,2,2,0,0,0,1.46-1.1,4.87,4.87,0,0,0,.51-1.88,21.25,21.25,0,0,1,.1-4,3.37,3.37,0,0,1,1-1.72,6.23,6.23,0,0,1,1.64-1c.57-.26,1.14-.48,1.67-.75a4.31,4.31,0,0,0,1.34-1.05,2.71,2.71,0,0,0,.68-1.45,1.47,1.47,0,0,0-.11-.75,1.66,1.66,0,0,0-.46-.59,2.62,2.62,0,0,0-1.42-.5c-.52-.06-1-.06-1.55-.09a5.56,5.56,0,0,1-1.52-.25,2.26,2.26,0,0,1-1.19-.91,6,6,0,0,1-.56-2.64,3.83,3.83,0,0,0-.8-2.13,3.59,3.59,0,0,0-3.29-1.37,3.81,3.81,0,0,0-2.11,1A5.46,5.46,0,0,0,143,237.6Z"/><path class="cls-5" d="M130.74,225.36a2.51,2.51,0,0,1-1.5.74,5,5,0,0,1-1.85,0,3.24,3.24,0,0,1-2-1.13,4.39,4.39,0,0,1-.71-2.16,5.82,5.82,0,0,1,.13-1.83,2.45,2.45,0,0,1,.77-1.49,7.52,7.52,0,0,0-.51,1.54,6.17,6.17,0,0,0,0,1.74,4.07,4.07,0,0,0,.67,2,2.91,2.91,0,0,0,1.74,1,5.17,5.17,0,0,0,1.73.07A7.28,7.28,0,0,0,130.74,225.36Z"/><path class="cls-5" d="M162,223.51s0,.07-.06.2a1.94,1.94,0,0,1-.28.52,3.19,3.19,0,0,1-1.8,1.2,3.26,3.26,0,0,1-1.53,0,4.06,4.06,0,0,1-1.54-.83,5.15,5.15,0,0,0-1.53-.93,1.38,1.38,0,0,0-1.55.61,13.8,13.8,0,0,0-.89,1.76,3.51,3.51,0,0,1-1.28,1.46,3.43,3.43,0,0,1-3.17.35,3.55,3.55,0,0,1-1.67-1.39,1.71,1.71,0,0,1-.3-.74s.13.26.42.66a3.59,3.59,0,0,0,1.64,1.22,3.2,3.2,0,0,0,2.89-.39,3.24,3.24,0,0,0,1.14-1.33,12.45,12.45,0,0,1,.92-1.82,1.93,1.93,0,0,1,.86-.71,1.77,1.77,0,0,1,1.09,0,5.14,5.14,0,0,1,1.64,1,3.74,3.74,0,0,0,1.4.79,3,3,0,0,0,1.4,0,3.19,3.19,0,0,0,1.74-1C161.82,223.76,161.92,223.49,162,223.51Z"/><path class="cls-5" d="M167.12,252a3.86,3.86,0,0,1-.8-.52,16.88,16.88,0,0,1-2-1.72,9,9,0,0,1-1.15-1.42,4.79,4.79,0,0,1-.72-2,3.83,3.83,0,0,1,.37-2.32,2.76,2.76,0,0,1,.82-1,8,8,0,0,1,1.07-.68,4.65,4.65,0,0,0,1-.7,2.3,2.3,0,0,0,.56-.95,5.63,5.63,0,0,0,.07-2.2,11.45,11.45,0,0,1-.15-2.08,2.54,2.54,0,0,1,.67-1.74,3.88,3.88,0,0,1,2.44-1c.66,0,.93.34.9.34a1.54,1.54,0,0,0-.89-.19,3.82,3.82,0,0,0-2.26,1,2.29,2.29,0,0,0-.55,1.56,11.4,11.4,0,0,0,.18,2,5.63,5.63,0,0,1-.06,2.34,2.65,2.65,0,0,1-.64,1.11,4.7,4.7,0,0,1-1,.76,3.93,3.93,0,0,0-1.76,1.51,3.63,3.63,0,0,0-.35,2.11,5.9,5.9,0,0,0,1.72,3.28C166,251.14,167.17,251.92,167.12,252Z"/><path class="cls-5" d="M152,266.36s.12,0,.34,0,.55,0,1,.06a9.41,9.41,0,0,1,3.43,1A6.24,6.24,0,0,1,160,271.5a4.37,4.37,0,0,1-.45,3.14,4.22,4.22,0,0,1-2.72,2,3.85,3.85,0,0,1-1.76-.09,2.37,2.37,0,0,0-1.51,0,2.8,2.8,0,0,0-1.17.9,7.86,7.86,0,0,0-.81,1.25,4.88,4.88,0,0,1-1.89,2.16,3.57,3.57,0,0,1-2.49.3,3.16,3.16,0,0,1-1.73-1.13,3.52,3.52,0,0,1-.67-1.41,2.88,2.88,0,0,1-.05-1,1.12,1.12,0,0,1,.07-.33,5.52,5.52,0,0,0,.13,1.28,3.34,3.34,0,0,0,.68,1.3,3,3,0,0,0,1.63,1,3.31,3.31,0,0,0,2.28-.31,4.62,4.62,0,0,0,1.73-2.06,4.67,4.67,0,0,1,2.16-2.33,2.73,2.73,0,0,1,1.72,0,3.48,3.48,0,0,0,1.6.09,3.88,3.88,0,0,0,2.48-1.85,4,4,0,0,0,.43-2.88,6.06,6.06,0,0,0-3-4,10,10,0,0,0-3.33-1.08C152.43,266.41,152,266.39,152,266.36Z"/><path class="cls-5" d="M138.39,290.3a5.38,5.38,0,0,0-.68-1.49,3.65,3.65,0,0,0-1.36-1.1,2.88,2.88,0,0,0-3.74,1,3.68,3.68,0,0,0-.62,1.62,5,5,0,0,0,.16,1.64s-.12-.12-.24-.4a3,3,0,0,1-.19-1.26,3.71,3.71,0,0,1,.61-1.8,3.11,3.11,0,0,1,4.17-1.12,3.79,3.79,0,0,1,1.43,1.25,2.91,2.91,0,0,1,.46,1.19C138.43,290.14,138.41,290.3,138.39,290.3Z"/><path class="cls-5" d="M140.71,300.85a8.52,8.52,0,0,0-.32-.89,3.84,3.84,0,0,0-1.74-1.78,3.61,3.61,0,0,0-3.54.26,5.81,5.81,0,0,0-1.46,1.66,4.83,4.83,0,0,1-.83.94,1.94,1.94,0,0,1-1.26.47,3.16,3.16,0,0,1-2.18-1.31,7.12,7.12,0,0,0-1.53-1.6,2.69,2.69,0,0,0-1.88-.34,3.63,3.63,0,0,0-1.59.66,6.37,6.37,0,0,0-1.67,1.92,7.09,7.09,0,0,1-.5.82,3.45,3.45,0,0,1,.37-.89,6.18,6.18,0,0,1,1.64-2.07,4,4,0,0,1,1.7-.75,3,3,0,0,1,2.11.35,7.34,7.34,0,0,1,1.63,1.66,2.8,2.8,0,0,0,1.9,1.17,2.34,2.34,0,0,0,1.79-1.25,6.05,6.05,0,0,1,1.57-1.73,3.85,3.85,0,0,1,3.85-.21,3.81,3.81,0,0,1,1.75,2,3.41,3.41,0,0,1,.19.7C140.72,300.76,140.73,300.85,140.71,300.85Z"/><path class="cls-5" d="M146.27,274.55a8.43,8.43,0,0,0-2.08-.92,6.4,6.4,0,0,0-2.44-.13,5.78,5.78,0,0,0-2.75,1.07,4.94,4.94,0,0,0-1.74,2.36,5.19,5.19,0,0,0-.27,2.4,6.87,6.87,0,0,0,.77,2.13s-.18-.14-.4-.48a4.13,4.13,0,0,1-.63-1.61,5.26,5.26,0,0,1,2-5.1,6.09,6.09,0,0,1,2.94-1.12,6.42,6.42,0,0,1,2.55.22,5.07,5.07,0,0,1,1.55.75C146.14,274.36,146.29,274.53,146.27,274.55Z"/><rect class="cls-13" width="576" height="340"/></g></g></svg>