<?xml version="1.0" encoding="utf-8"?>
<!-- Generator: Adobe Illustrator 25.2.1, SVG Export Plug-In . SVG Version: 6.00 Build 0)  -->
<svg version="1.1" id="Layer_1" xmlns="http://www.w3.org/2000/svg" xmlns:xlink="http://www.w3.org/1999/xlink" x="0px" y="0px"
	 viewBox="0 0 441.8 82.6" style="enable-background:new 0 0 441.8 82.6;" xml:space="preserve">
<style type="text/css">
	.st0{fill:#C68835;}
</style>
<g>
	<path class="st0" d="M0.9,78.1c3,5.9,14.4,4.8,19.5,3c3.7-1.3,7-4.1,10-6.6c4.2-3.4,7.8-8.6,12.4-11.3c0.5-0.3,0.8-0.7,1-1.1
		c12-6.1,24.6-10.8,37.4-14.7c-1.7,1.6-3.3,3.4-4.8,5.2C72.5,57,63.6,65.2,69,71.7c6.1,7.4,16.2,1.1,21.6-3.5
		c4.3-3.7,6.3-7.6,8.6-12.6c2.1-4.6,4.6-9.4,4.4-14.6c8.3-2.1,16.8-3.5,25.2-3.4c6.5,0.1,13.1,1.2,19.7,2.7
		c-7,1.3-13.3,3.7-19.7,8.1c-5.3,3.6-16.6,10.3-11.9,18.1c4.7,7.9,16.5,4.1,22.5,0.2c9.3-6,15.4-13.6,20.3-23.4
		c4.7,1.3,9.4,2.7,13.9,3.8c13.4,3.4,26.7,7.3,37.9,15.8c2.8,2.1,5.5-2.6,2.7-4.7c-7.6-5.7-16.2-9.4-25.1-12.3
		c1.4-3.4,2.6-7,1.9-10.7c-0.8-4.1-2.9-8.6-4.9-12.3c-3.7-6.8-9.9-13.4-18.3-13c-0.9,0-1.9,0.5-2.3,1.3c-0.5,0.9-1.7,1.4-2.3,2.2
		c-0.9,1.1-1.3,2.5-1.5,3.9c-0.5,3.9,1.7,7.8,3.2,11.3c1.7,3.8,3.7,7.5,6.5,10.7c0.7,0.8,1.4,1.4,2.1,2.1c-13.3-3.5-27.2-8.2-41-9.1
		c-0.1-0.3-0.2-0.6-0.3-0.9c-5.9-9.7-13.8-19.9-23.4-26.1c-4.5-3-9.1-5.9-14.7-5.4C90,0.4,85.3,2.4,83.6,6.4
		c-4.1,9.7,4.6,17.4,11.9,21.7c5.2,3,10.8,3.9,16.5,5.4c0.2,0,0.3,0.1,0.5,0.1c-9.7,1.7-19.2,4.5-28.4,7.3c-0.7,0-1.3,0-2,0
		c-0.2-0.5-0.5-0.9-1-1.3C76,36.1,71,32,65.3,29.5c-5.1-2.3-10.6-3.4-16.1-4.7c-8-1.9-21.3-3.7-23.6,7.4
		c-2.1,10.1,10.9,12.7,18,14.6c5.8,1.5,11.5,1.9,17.2,1.9c-6.3,2.4-12.4,5.1-18.4,8.1c-0.2,0-0.4-0.1-0.6-0.1
		c-10-0.1-21-0.2-30.2,4.3C6,63.6-2.9,70.8,0.9,78.1z M28,69.5c-5.4,4.6-10,7.8-17.4,7.3c-1-0.1-2-0.2-3-0.4c0-0.2-0.1-0.5-0.1-0.7
		c4.1-3.4,9.6-4,14.5-6c3.1-1.3,6.1-2.4,9.2-3.3C30.1,67.5,29.1,68.6,28,69.5z M73.8,64.4c2.5-4.6,7-8.9,10.7-12.6
		c0.9-0.9,1.8-1.7,2.7-2.5c-0.9,1.1-1.7,2.3-2.6,3.5c-3.4,4.9-7.8,10.6-9,16.6c-0.1,0-0.1,0-0.2-0.1C72.9,68.2,72.7,66.4,73.8,64.4z
		 M90.5,60.8c-2,2.4-4.7,4.7-7.3,6.4c-0.5,0.3-1.1,0.7-1.7,1c1.5-4.5,5.4-9.3,7.9-12.7c2.5-3.6,4.8-6.5,7.9-9
		c-0.6,1.7-1.3,3.3-2,4.9C93.7,54.6,92.6,58.1,90.5,60.8z M129.2,54.7c2.5-1.8,5.2-3.6,7.9-5.1c3.4-1.9,7-3,10.7-3.7
		c-0.6,0.6-1.3,1.1-2,1.7c-2.5,1.8-5,3.7-7.6,5.3c-2.5,1.5-5.1,2.2-7.8,3.3c-2.2,0.9-4.1,1.9-6.3,2.6c0.3-0.3,0.8-0.6,1.3-1.1
		C126.5,56.6,127.9,55.7,129.2,54.7z M143.8,56.6c-2.5,2.2-5.1,4.3-8,6c-1.7,1-3.5,2-5.5,2.6c-1,0.2-2,0.4-3.1,0.6
		c-2,0.6-3.1,0.1-3.5-1.3c3.2-0.7,5.8-2.2,8.8-3.4c3.5-1.4,6.5-2.4,9.6-4.5c1.7-1.1,3.4-2.3,5.1-3.5
		C146.2,54.3,145.1,55.5,143.8,56.6z M181.5,25.7c2.1,3.8,3.7,7.6,3.9,11.5c-3.3-7.5-9.1-14.4-13.5-21.2
		C176.2,17.6,179.4,21.8,181.5,25.7z M172.3,31.4c-1.5-2.6-2.8-5.4-4-8.2c-0.6-1.4-0.7-2.5-0.6-3.5c2,3.2,4,6.2,6.1,9.3
		c2.2,3.5,5.2,7.3,7,11.3C177.6,37.8,174.5,35.2,172.3,31.4z M112.4,15c2.9,2.8,5.8,6.2,8.5,9.7c-9.7-7.1-20-13.9-31.8-16.2
		c-0.1,0-0.3,0-0.4,0C92-0.6,108.5,11.2,112.4,15z M106.6,26.7c-6.1-1.5-16.2-5.9-18.1-12.8c11.2,2.4,21,9,30.3,15.9
		C114.7,28.8,110.7,27.8,106.6,26.7z M44,29.1c4.2,0.8,8.4,1.9,12.5,3c6.1,1.7,11.1,4.7,16.1,8.2c-4.3-0.6-8.5-1.5-13-2.6
		c-8.8-2.1-18.4-3.4-26.4-7.8C36.3,28.2,41.5,28.6,44,29.1z M56.9,43.5c-4.6-0.2-9.2-1.2-13.7-2.4c-3-0.8-11.3-2.4-12.3-6.3
		c8.3,4.5,18.1,5.9,27.3,8.1c0.9,0.2,1.8,0.4,2.7,0.6C59.6,43.6,58.3,43.5,56.9,43.5z M19.6,63.8c1.4-0.4,2.7-0.6,4.1-0.8
		c-1.9,0.9-3.7,1.8-5.7,2.5c-2.8,1-5.5,1.7-8.1,2.8c0.6-0.4,1.2-0.8,1.4-1C13.9,65.6,16.7,64.5,19.6,63.8z"/>
	<path class="st0" d="M230.3,63c11.2-8.4,24.5-12.3,37.9-15.8c4.6-1.2,9.2-2.5,13.9-3.8c4.8,9.6,10.6,16.8,19.5,22.9
		c6.1,4.1,18.4,8.7,23.3,0.4c4.5-7.6-5.9-14-11.1-17.6c-6.7-4.6-13.2-7.2-20.5-8.6c6.6-1.5,13.2-2.6,19.7-2.7
		c8.5-0.1,16.9,1.3,25.2,3.4c-0.2,4.6,1.7,9,3.7,13.1c2.4,5.2,4.3,9.6,8.6,13.5c5.4,4.8,15.9,11.7,22.2,4c5.2-6.3-3.1-14.2-7-18.6
		c-1.7-2-3.5-3.9-5.3-5.7c12.8,3.9,25.4,8.6,37.4,14.7c0.2,0.4,0.5,0.8,1,1.1c4.4,2.6,7.8,7.5,11.8,10.8c3,2.5,6.3,5.4,9.9,6.9
		c5.1,2.1,17.1,3.4,20.2-2.7c3.6-7.1-4.5-14-10-16.8c-9.4-4.8-20.7-4.8-31-4.7c-0.2,0-0.4,0-0.6,0.1c-6-3-12.1-5.7-18.4-8.1
		c5.4,0.1,10.8-0.4,16.2-1.7c7.4-1.8,21-4.4,19-14.8c-2.1-10.6-14.8-9.5-22.6-7.6c-5.6,1.3-11.4,2.4-16.7,4.8
		c-5.8,2.6-10.9,6.7-16,10.3c-0.5,0.4-0.8,0.8-1,1.3c-0.7,0-1.3,0-2,0c-9.2-2.7-18.8-5.6-28.4-7.3c5.5-1.6,11.1-2.3,16.2-5.1
		c7.6-4.1,17-12.2,12.7-22.1c-1.7-3.9-6.1-5.8-10.1-6.3c-5.5-0.6-9.9,2.1-14.4,4.9c-9.9,6.3-18,16.6-24.1,26.6
		c-0.2,0.3-0.3,0.6-0.3,0.9c-13.8,0.9-27.7,5.6-41,9.1c0.7-0.7,1.4-1.3,2.1-2.1c2.7-3.2,4.7-6.9,6.5-10.7c1.6-3.4,3.8-7.4,3.2-11.3
		c-0.2-1.4-0.6-2.8-1.5-3.9c-0.6-0.8-1.9-1.3-2.3-2.2c-0.4-0.9-1.4-1.3-2.3-1.3c-8.3-0.4-14.6,6.2-18.3,13
		c-1.9,3.5-3.7,7.6-4.7,11.4c-1,4,0.2,7.8,1.7,11.5c-8.9,2.9-17.5,6.6-25.1,12.3C224.8,60.4,227.5,65,230.3,63z M316,65.7
		c-1.5,0.2-3,0-4.5-0.5c-1.6-0.5-3.2-1.2-4.7-2.1c-3.2-1.8-6.1-4.1-8.8-6.5c-1.2-1.1-2.3-2.2-3.3-3.3c1.6,1.1,3.3,2.2,4.9,3.3
		c2.6,1.8,5.3,2.9,8.2,4c3.5,1.3,6.6,3.1,10.3,3.9C317.9,65.5,317.2,65.9,316,65.7z M311.9,54.2c1.6,1.1,3.2,2.3,4.7,3.5
		c0.5,0.4,1,0.8,1.3,1.1c-2-0.7-3.9-1.7-5.9-2.5c-2.8-1.1-5.5-1.8-8.1-3.4c-2.4-1.4-4.6-3.1-6.8-4.7c-1.1-0.8-2-1.5-2.8-2.2
		c3.7,0.7,7.2,1.8,10.6,3.7C307.2,50.9,309.6,52.5,311.9,54.2z M351.9,61.4c-2.3-2.7-3.5-5.9-4.9-9.1c-0.9-1.9-1.8-3.8-2.5-5.8
		c3.1,2.5,5.4,5.4,7.9,9c2.4,3.5,6.3,8.2,7.9,12.7c-0.4-0.2-0.7-0.3-1-0.5C356.7,66,354,63.8,351.9,61.4z M368,64.4
		c1.6,3,0.2,4.3-1.9,4.6c-1.2-5.9-5.5-11.4-8.9-16.2c-0.9-1.3-1.7-2.4-2.6-3.5c0.7,0.6,1.4,1.2,2.1,1.9
		C360.6,55,365.4,59.6,368,64.4z M431.3,76.8c-7.1,0.4-11.5-2.3-16.7-6.7c-1.3-1.1-2.5-2.3-3.8-3.6c3,0.9,6,1.9,9.1,3.2
		c5,2.1,10.5,2.6,14.7,6.2C434.2,76.9,433.1,77.3,431.3,76.8z M430.5,67.2c0.5,0.3,1,0.7,1.6,1c-2.6-1.1-5.4-1.8-8.2-2.8
		c-2-0.7-3.8-1.7-5.6-2.5c1,0.2,2.1,0.4,3.1,0.6C424.5,64.3,427.7,65.4,430.5,67.2z M399.5,40.8c-4.8,1.4-9.7,2.4-14.6,2.7
		c-1.3,0.1-2.7,0.1-4,0.1c0.9-0.2,1.8-0.4,2.8-0.7c9.2-2.2,18.9-3.6,27.3-8.1C410,38.7,402.4,40,399.5,40.8z M385.3,32.1
		c3.9-1.1,18.1-5.6,23.6-2.4c-8,4.5-17.8,5.8-26.7,8c-4.4,1.1-8.7,2-13,2.6C374.2,36.8,379.2,33.8,385.3,32.1z M335.2,26.7
		c-4.1,1.1-8.1,2.1-12.2,3.1c9.2-6.9,19.1-13.5,30.2-15.9C351.2,20.9,341.4,25.1,335.2,26.7z M329.4,15c2.9-2.9,6.5-5.2,10.1-7.2
		c3.5-2,11.5-4.1,13.6,0.7c-0.1,0-0.2,0-0.3,0c-11.8,2.3-22.1,9-31.8,16.2C323.6,21.2,326.5,17.9,329.4,15z M274,21.8
		c-0.8,3.1-2.9,6.7-4.5,9.5c-2.2,3.9-5.2,6.5-8.5,8.9c1.8-4,4.8-7.9,7-11.3c2.1-3.2,4.2-6.3,6.2-9.5C274.3,20.2,274.2,21,274,21.8z
		 M269.9,16c-4.3,6.8-10.1,13.7-13.5,21.2c0.2-3.9,1.8-7.6,3.9-11.5C262.5,21.8,265.6,17.6,269.9,16z"/>
</g>
</svg>
