
<svg xmlns="http://www.w3.org/2000/svg" enable-background="new 0 0 703.6 432.3" version="1.1" viewBox="0 0 703.6 432.3" xml:space="preserve" xmlns="http://www.w3.org/2000/svg">
	<style type="text/css">
		.st0{fill:#E0E0E0;}
		.st1{fill:#FFFFFF;}
		.st2{opacity:0.3;}
		.st3{fill:#EBEBEB;}
		.st4{fill:#B6883F;}
		.st5{display:none;}
		.st6{display:inline;fill:#EBEBEB;}
		.st7{fill:#455A64;}
		.st8{fill:#263238;}
		.st9{fill:#FAFAFA;}
		.st10{fill:#FFBE9D;}
		.st11{fill:#EB996E;}
	</style>
	<path class="st0" d="m153.5 152.7v-1.9-5.4c0-4.7 0-11.6-0.1-20.5 0-17.7-0.1-43.2-0.1-74.2l0.2 0.2c-42 0-94.9 0-152.3 0.1l0.3-0.3v102l-0.2-0.2c44.8 0.1 82.9 0.1 109.7 0.1 13.4 0 24.1 0.1 31.3 0.1h8.3 2.2 0.7s-0.2 0-0.7 0h-2.1-8.3c-7.3 0-17.9 0-31.3 0.1-26.9 0-65 0.1-109.9 0.1l-0.2 0.1v-0.3-102-0.3h0.3c57.4 0 110.3 0 152.3 0.1h0.2v0.2c0 31.1-0.1 56.6-0.1 74.4 0 8.8 0 15.8-0.1 20.5v5.3c-0.1 1.2-0.1 1.8-0.1 1.8z"/>
	<path class="st1" d="m2 153.9-0.5-0.5h-1v-1l-0.5-0.4h0.5v-100.4h-0.5l0.4-0.4v-1.2h1.1l0.5-0.4v0.4h150.8v-0.5l0.5 0.5h0.9v0.9l0.5 0.5h-0.5l-0.2 99.4v1.8h-0.5v0.5h-0.7-10.4l-31.3 0.1-109.1 0.3v0.4zm0-1.9 150.8 0.2h0.2v-1.3l-0.1-25.9-0.1-73.5h-150.8v100.5z"/>
	<path class="st0" d="m1.2 59.9c0-0.2 34.1-0.3 76.1-0.3s76.1 0.1 76.1 0.3-34.1 0.3-76.1 0.3c-42-0.1-76.1-0.2-76.1-0.3z"/>
	<path class="st1" d="m77.3 60.6c-20.3 0-39.4 0-53.8-0.1-6.9 0-12.5-0.1-16.3-0.1-3.4 0-5 0-5.8-0.1h-0.1c-0.6-0.1-0.6-0.2-0.6-0.5s0-0.4 0.6-0.5h0.1c0.8-0.1 2.4-0.1 5.8-0.1 3.9 0 9.4-0.1 16.3-0.1 14.4-0.1 33.5-0.1 53.8-0.1s39.4 0 53.8 0.1c6.9 0 12.5 0.1 16.3 0.1 3.4 0 5 0 5.8 0.1h0.1c0.6 0.1 0.6 0.2 0.6 0.5s0 0.4-0.6 0.5h-0.1c-0.8 0.1-2.4 0.1-5.8 0.1-3.9 0-9.4 0.1-16.3 0.1-14.4 0.1-33.5 0.1-53.8 0.1z"/>
	<g class="st2">
		<path class="st0" d="m7.2 55.3c0 0.7-0.5 1.2-1.2 1.2s-1.2-0.5-1.2-1.2 0.5-1.3 1.2-1.3 1.2 0.6 1.2 1.3z"/>
		<path class="st1" d="m6 57c-0.9 0-1.7-0.8-1.7-1.7s0.7-1.8 1.7-1.8 1.7 0.8 1.7 1.7-0.8 1.8-1.7 1.8zm0-2.5c-0.4 0-0.7 0.3-0.7 0.7s0.3 0.8 0.7 0.8 0.7-0.3 0.7-0.7-0.3-0.8-0.7-0.8z"/>
	</g>
	<g class="st2">
		<path class="st0" d="m11.4 55.3c0 0.7-0.5 1.2-1.2 1.2s-1.2-0.6-1.2-1.2c0-0.7 0.5-1.2 1.2-1.2s1.2 0.5 1.2 1.2z"/>
		<path class="st1" d="m10.2 57c-0.9 0-1.7-0.8-1.7-1.7s0.8-1.7 1.7-1.7 1.7 0.8 1.7 1.7-0.8 1.7-1.7 1.7zm0-2.5c-0.4 0-0.7 0.3-0.7 0.7s0.3 0.8 0.7 0.8 0.7-0.3 0.7-0.7-0.3-0.8-0.7-0.8z"/>
	</g>
	<g class="st2">
		<path class="st0" d="m15.5 55.3c0 0.7-0.5 1.2-1.2 1.2s-1.2-0.5-1.2-1.2 0.5-1.2 1.2-1.2c0.7-0.1 1.2 0.5 1.2 1.2z"/>
		<path class="st1" d="m14.3 57c-0.9 0-1.7-0.8-1.7-1.7s0.8-1.7 1.7-1.7 1.7 0.8 1.7 1.7-0.7 1.7-1.7 1.7zm0-2.5c-0.4 0-0.7 0.3-0.7 0.7s0.3 0.7 0.7 0.7 0.7-0.3 0.7-0.7-0.3-0.7-0.7-0.7z"/>
	</g>
	<rect class="st0" x="14.3" y="70.5" width="40.6" height="40.6"/>
	<path class="st0" d="m132.6 82c0 0.2-15.8 0.3-35.4 0.3-19.5 0-35.4-0.1-35.4-0.3s15.8-0.3 35.4-0.3 35.4 0.1 35.4 0.3z"/>
	<path class="st1" d="m97.2 82.8c-9.5 0-18.3 0-25-0.1-6.6-0.1-9.2-0.1-10.2-0.2-0.6-0.1-0.6-0.2-0.6-0.5s0-0.4 0.6-0.5c1-0.1 3.6-0.2 10.2-0.2 6.7-0.1 15.6-0.1 25-0.1s18.3 0 25 0.1c6.6 0.1 9.2 0.1 10.2 0.2 0.6 0.1 0.6 0.2 0.6 0.5s0 0.4-0.6 0.5c-1 0.1-3.6 0.2-10.2 0.2s-15.5 0.1-25 0.1z"/>
	<path class="st0" d="m132.6 89.5c0 0.2-15.8 0.3-35.4 0.3-19.5 0-35.4-0.1-35.4-0.3s15.8-0.3 35.4-0.3c19.6 0.1 35.4 0.2 35.4 0.3z"/>
	<path class="st1" d="m97.2 90.3c-9.5 0-18.3 0-25-0.1-6.6 0-9.2-0.1-10.2-0.2-0.6-0.1-0.6-0.2-0.6-0.5s0-0.4 0.6-0.5c1-0.1 3.6-0.2 10.2-0.2 6.7-0.1 15.6-0.1 25-0.1 9.5 0 18.3 0 25 0.1 6.6 0.1 9.2 0.1 10.2 0.2 0.6 0.1 0.6 0.2 0.6 0.5s0 0.4-0.6 0.5c-1 0.1-3.6 0.2-10.2 0.2-6.6 0.1-15.5 0.1-25 0.1z"/>
	<path class="st0" d="m132.6 97.1c0 0.2-15.8 0.3-35.4 0.3-19.5 0-35.4-0.1-35.4-0.3s15.8-0.3 35.4-0.3 35.4 0.1 35.4 0.3z"/>
	<path class="st1" d="m97.2 97.9c-9.5 0-18.3 0-25-0.1-6.6-0.1-9.2-0.1-10.2-0.2-0.6-0.1-0.6-0.2-0.6-0.5s0-0.4 0.6-0.5c1-0.1 3.6-0.2 10.2-0.2 6.7-0.1 15.6-0.1 25-0.1 9.5 0 18.3 0 25 0.1 6.6 0.1 9.2 0.1 10.2 0.2 0.6 0.1 0.6 0.2 0.6 0.5s0 0.4-0.6 0.5c-1 0.1-3.6 0.2-10.2 0.2s-15.5 0.1-25 0.1z"/>
	<path class="st0" d="m103.7 104.6s-0.6 0.1-1.6 0.1c-1.2 0-2.7 0.1-4.5 0.1-3.8 0-9 0.1-14.8 0.1s-11 0-14.8-0.1c-1.8 0-3.3-0.1-4.5-0.1-1.1 0-1.6-0.1-1.6-0.1s0.6-0.1 1.6-0.1c1.2 0 2.7-0.1 4.5-0.1 3.8 0 9-0.1 14.8-0.1s11 0 14.8 0.1c1.8 0 3.3 0.1 4.5 0.1 1 0.1 1.6 0.1 1.6 0.1z"/>
	<path class="st1" d="m82.8 105.4c-5.6 0-10.8 0-14.8-0.1l-4.5-0.1c-1.9-0.1-2.1-0.1-2.1-0.6s0.2-0.5 2.1-0.6l4.5-0.1c3.9-0.1 9.2-0.1 14.8-0.1s10.9 0 14.8 0.1l4.5 0.1c1.9 0.1 2.1 0.1 2.1 0.6s-0.2 0.5-2.1 0.6l-4.5 0.1c-4 0.1-9.3 0.1-14.8 0.1z"/>
	<rect class="st0" x="16.8" y="124.8" width="19.1" height="19.1"/>
	<rect class="st0" x="51.5" y="124.8" width="19.1" height="19.1"/>
	<rect class="st0" x="86.1" y="124.8" width="19.1" height="19.1"/>
	<rect class="st0" x="120.7" y="124.8" width="19.1" height="19.1"/>
	<path class="st0" d="m307.2 54.5v-1-2.8-10.6c0-9.2 0-22.5-0.1-39l0.1 0.1c-33.4 0-79.8 0-131.2 0.1l0.2-0.2v53.3l-0.2-0.2c38 0 70.8 0.1 94.1 0.1 11.6 0 20.9 0 27.3 0.1h7.3 1.9c0.3 0.1 0.6 0.1 0.6 0.1s-0.2 0-0.6 0h-1.9-7.3c-6.4 0-15.6 0-27.2 0.1-23.3 0-56.1 0.1-94.2 0.1h-0.2v-0.2-53.3-0.2h0.2c51.4 0 97.8 0 131.2 0.1h0.1v0.1c0 16.5-0.1 29.8-0.1 39.1v10.6 2.7 0.9z"/>
	<path class="st1" d="m176.7 55.7-0.5-0.5h-0.9v-0.9l-0.5-0.5h0.5v-51.9h-0.5l0.5-0.5v-0.9h0.9l0.5-0.5v0.5l129.8 0.1v-0.6l0.6 0.6h0.7v0.7l0.6 0.6h-0.6l-0.1 51.7v0.9h-0.5v0.5h-0.6-9.1l-27.2 0.1-93.5 0.1v0.5zm0-1.9 129.8 0.2h0.1v-0.4l-0.1-27.1v-24.6h-129.8v51.9z"/>
	<path class="st0" d="m176.1 8.4c0-0.1 29.3-0.2 65.5-0.2s65.5 0.1 65.5 0.2-29.3 0.2-65.5 0.2-65.5-0.1-65.5-0.2z"/>
	<path class="st1" d="m241.6 9.1c-17.5 0-33.9 0-46.3-0.1-5.9 0-10.7 0-14-0.1-2.8 0-4.2 0-4.9-0.1h-0.2c-0.6-0.1-0.6-0.2-0.6-0.5s0-0.4 0.6-0.5h0.2c0.7-0.1 2.1-0.1 4.9-0.1 3.3 0 8.1 0 14-0.1 12.4 0 28.8-0.1 46.3-0.1s33.9 0 46.3 0.1c5.9 0 10.7 0 14 0.1 2.8 0 4.2 0 4.9 0.1h0.2c0.6 0.1 0.6 0.2 0.6 0.5s0 0.4-0.6 0.5h-0.2c-0.7 0.1-2.1 0.1-4.9 0.1-3.3 0-8.1 0-14 0.1-12.4 0.1-28.8 0.1-46.3 0.1z"/>
	<g class="st2">
		<path class="st3" d="m181.6 5.2c0 0.5-0.4 1-1 1-0.5 0-1-0.4-1-1 0-0.5 0.4-1 1-1s1 0.5 1 1z"/>
		<path class="st1" d="m180.6 6.6c-0.8 0-1.5-0.7-1.5-1.5s0.7-1.5 1.5-1.5 1.5 0.7 1.5 1.5-0.6 1.5-1.5 1.5zm0-1.9c-0.2 0-0.5 0.2-0.5 0.5s0.2 0.5 0.5 0.5 0.5-0.2 0.5-0.5-0.2-0.5-0.5-0.5z"/>
	</g>
	<g class="st2">
		<path class="st3" d="m184.9 5.2c0 0.5-0.4 1-1 1-0.5 0-1-0.4-1-1 0-0.5 0.4-1 1-1 0.5 0 1 0.5 1 1z"/>
		<path class="st1" d="m183.9 6.6c-0.8 0-1.5-0.7-1.5-1.5s0.7-1.5 1.5-1.5 1.5 0.7 1.5 1.5-0.7 1.5-1.5 1.5zm0-1.9c-0.2 0-0.5 0.2-0.5 0.5s0.2 0.5 0.5 0.5 0.5-0.2 0.5-0.5-0.2-0.5-0.5-0.5z"/>
	</g>
	<g class="st2">
		<circle class="st3" cx="187.1" cy="5.2" r="1"/>
		<path class="st1" d="m187.1 6.6c-0.8 0-1.5-0.7-1.5-1.5s0.7-1.5 1.5-1.5 1.5 0.7 1.5 1.5-0.7 1.5-1.5 1.5zm0-1.9c-0.2 0-0.5 0.2-0.5 0.5s0.2 0.5 0.5 0.5 0.5-0.2 0.5-0.5-0.2-0.5-0.5-0.5z"/>
	</g>
	<rect class="st0" x="187.1" y="17.1" width="31.7" height="31.7"/>
	<path class="st0" d="m298.1 25.5c0 0.1-16.3 0.2-36.4 0.2s-36.4-0.1-36.4-0.2 16.3-0.2 36.4-0.2 36.4 0.1 36.4 0.2z"/>
	<path class="st1" d="m261.7 26.3c-9.7 0-18.9 0-25.8-0.1-6.5 0-9.2-0.1-10.4-0.2h-0.2c-0.6-0.1-0.6-0.2-0.6-0.4s0-0.4 0.6-0.4h0.2c1.1-0.1 3.8-0.1 10.4-0.2 6.9 0 16-0.1 25.8-0.1 9.7 0 18.9 0 25.8 0.1 6.5 0 9.2 0.1 10.4 0.2h0.2c0.6 0.1 0.6 0.2 0.6 0.4s0 0.4-0.6 0.4h-0.2c-1.1 0.1-3.8 0.1-10.4 0.2-6.9 0-16.1 0.1-25.8 0.1z"/>
	<path class="st0" d="m298.1 32c0 0.1-16.3 0.2-36.4 0.2s-36.4-0.1-36.4-0.2 16.3-0.2 36.4-0.2 36.4 0.1 36.4 0.2z"/>
	<path class="st1" d="m261.7 32.7c-9.7 0-18.9 0-25.8-0.1-6.5 0-9.2-0.1-10.4-0.2h-0.2c-0.6-0.1-0.6-0.2-0.6-0.4s0-0.4 0.6-0.4h0.2c1.1-0.1 3.8-0.1 10.4-0.2 6.9 0 16-0.1 25.8-0.1 9.7 0 18.9 0 25.8 0.1 6.5 0 9.2 0.1 10.4 0.2h0.2c0.6 0.1 0.6 0.2 0.6 0.4s0 0.4-0.6 0.4h-0.2c-1.1 0.1-3.8 0.1-10.4 0.2-7 0.1-16.1 0.1-25.8 0.1z"/>
	<path class="st0" d="m272.1 38.5h-0.5-1.4c-1.2 0-2.9 0-5 0.1-4.3 0-10.1 0-16.6 0.1-6.5 0-12.3 0-16.6-0.1-2.1 0-3.8 0-5-0.1h-1.4-0.5 0.5 1.4c1.2 0 2.9 0 5-0.1 4.3 0 10.1 0 16.6-0.1 6.4 0 12.3 0 16.6 0.1 2.1 0 3.8 0 5 0.1h1.4c0.4-0.1 0.5-0.1 0.5 0z"/>
	<path class="st1" d="m248.7 39.2-23-0.2c-0.5 0-1 0-1-0.5s0.4-0.5 1-0.5h1.4l5-0.1 16.6-0.1 23 0.2c0.5 0 1 0 1 0.5s-0.4 0.5-1 0.5h-1.4l-5 0.1-16.6 0.1z"/>
	<path class="st0" d="m661.1 72.3s0.2-0.3 0.7-0.8l2.2-2.2c1.8-1.8 4.4-4.3 7.2-7l0.1-0.1v0.4c-2.9-2.7-5.4-5.1-7.3-6.9-0.9-0.8-1.6-1.5-2.2-2.1-0.5-0.5-0.8-0.8-0.7-0.8 0 0 0.3 0.2 0.9 0.7s1.4 1.2 2.3 2c1.9 1.7 4.5 4.1 7.4 6.8l0.2 0.2-0.3 0.3c-2.8 2.7-5.4 5.2-7.3 6.9-0.9 0.8-1.7 1.5-2.3 2.1-0.5 0.3-0.8 0.5-0.9 0.5z"/>
	<path class="st1" d="m661.1 72.8c-0.1 0-0.2-0.1-0.3-0.2-0.4-0.4-0.1-0.7 0.7-1.5l2.2-2.2c1.8-1.8 4.2-4.1 6.7-6.5-2.6-2.4-4.9-4.6-6.7-6.3l-2.2-2.1c-0.9-0.9-1.1-1.1-0.8-1.5 0.4-0.4 0.7-0.1 1.6 0.6l2.3 2c1.9 1.7 4.3 3.9 6.9 6.3l0.3-0.3v0.5l0.2 0.2 0.6 0.5-0.6 0.7-0.2 0.2v0.6l-0.3-0.3c-2.6 2.5-5.1 4.8-6.9 6.5l-2.3 2.1c-0.6 0.5-0.9 0.7-1.2 0.7z"/>
	<path class="st0" d="m639 52.8s-0.2 0.3-0.7 0.8l-2.2 2.2c-1.8 1.8-4.4 4.3-7.2 7l-0.1 0.1v-0.4c2.9 2.7 5.4 5.1 7.3 6.9 0.9 0.8 1.6 1.5 2.2 2.1 0.5 0.5 0.8 0.8 0.7 0.8 0 0-0.3-0.2-0.9-0.7s-1.4-1.2-2.3-2c-1.9-1.7-4.5-4.1-7.4-6.8l-0.2-0.2 0.3-0.3c2.8-2.7 5.4-5.2 7.3-6.9 0.9-0.8 1.7-1.5 2.3-2.1 0.5-0.3 0.9-0.5 0.9-0.5z"/>
	<path class="st1" d="m639 72.8c-0.3 0-0.6-0.3-1.2-0.8l-2.3-2c-1.9-1.7-4.3-3.9-6.9-6.3l-0.3 0.3v-0.5l-0.2-0.2-0.6-0.5 0.8-0.8v-0.6l0.3 0.3c2.6-2.5 5-4.8 6.9-6.5l2.3-2.1c0.9-0.8 1.2-1.1 1.6-0.7s0.1 0.7-0.8 1.5l-2.2 2.2c-1.8 1.8-4.2 4.1-6.7 6.5 2.5 2.4 4.9 4.6 6.7 6.3l2.2 2.1c0.9 0.9 1.1 1.1 0.8 1.5-0.2 0.3-0.3 0.3-0.4 0.3z"/>
	<path class="st0" d="m644.7 76.9c-0.1 0 2.2-6.6 5.2-14.6s5.5-14.5 5.7-14.4c0.1 0-2.2 6.6-5.2 14.6-3.1 8-5.6 14.5-5.7 14.4z"/>
	<path class="st1" d="m644.7 77.5-0.2-0.1c-0.6-0.2-0.7-0.3 4.9-15.2 5.4-14.5 5.7-14.6 5.9-14.7l0.2-0.1 0.2 0.1c0.6 0.2 0.7 0.3-4.9 15.2-5.4 14.5-5.7 14.6-5.9 14.7l-0.2 0.1z"/>
	<path class="st0" d="m686.1 90.9v-1.1-3.1c0-2.8 0-6.8-0.1-11.9 0-10.3-0.1-24.9-0.1-42.6l0.2 0.2h-72l0.3-0.3v58.7l-0.2-0.2c21.4 0 39.4 0.1 52 0.1 6.3 0 11.3 0 14.7 0.1h3.9 1c0.2 0.1 0.3 0.1 0.3 0.1s-0.1 0-0.3 0h-1-3.9c-3.4 0-8.4 0-14.7 0.1-12.7 0-30.7 0.1-52.2 0.1h-0.2v-0.2-58.7-0.2h0.3 72 0.2v0.2c0 17.7-0.1 32.4-0.1 42.7 0 5.1 0 9.1-0.1 11.9v3.1c0.1 0.7 0 1 0 1z"/>
	<path class="st1" d="m614.8 92.1-0.5-0.5h-1v-1l-0.5-0.5h0.5v-57.2h-0.4l0.4-0.5v-1h1l0.5-0.5v0.5h70.6v-0.5l0.5 0.5h0.9v0.9l0.5 0.5h-0.5l-0.2 57v1.1h-0.5v0.5h-0.4-4.9l-14.7 0.1-51.4 0.1 0.1 0.5zm0-1.9 70.8 0.2v-0.6l-0.1-15.1-0.1-41.9h-70.6v57.4z"/>
	<path class="st0" d="m686.9 40.9c0 0.1-16.3 0.3-36.3 0.3-20.1 0-36.3-0.1-36.3-0.3 0-0.1 16.3-0.3 36.3-0.3 20 0.1 36.3 0.2 36.3 0.3z"/>
	<path class="st1" d="m650.5 41.7c-9.7 0-18.8 0-25.7-0.1-6.7 0-9.4-0.1-10.4-0.2h-0.1c-0.6-0.1-0.6-0.2-0.6-0.5s0-0.4 0.6-0.5h0.1c1.1-0.1 3.7-0.2 10.4-0.2 6.9 0 16-0.1 25.7-0.1s18.8 0 25.7 0.1c6.7 0 9.4 0.1 10.4 0.2h0.1c0.6 0.1 0.6 0.2 0.6 0.5s0 0.4-0.6 0.5h-0.1c-1.1 0.1-3.7 0.2-10.4 0.2-6.8 0-15.9 0.1-25.7 0.1z"/>
	<path class="st0" d="m620.1 36.6c0 0.5-0.4 1-1 1-0.5 0-1-0.4-1-1 0-0.5 0.4-1 1-1 0.6 0.1 1 0.5 1 1z"/>
	<path class="st1" d="m619.2 38.1c-0.8 0-1.5-0.7-1.5-1.5s0.7-1.5 1.5-1.5 1.5 0.7 1.5 1.5c-0.1 0.8-0.7 1.5-1.5 1.5zm0-1.9c-0.3 0-0.5 0.2-0.5 0.5s0.2 0.5 0.5 0.5 0.5-0.2 0.5-0.5-0.3-0.5-0.5-0.5z"/>
	<path class="st0" d="m623.7 36.6c0 0.5-0.4 1-1 1-0.5 0-1-0.4-1-1 0-0.5 0.4-1 1-1 0.5 0.1 1 0.5 1 1z"/>
	<path class="st1" d="m622.7 38.1c-0.8 0-1.5-0.7-1.5-1.5s0.7-1.5 1.5-1.5 1.5 0.7 1.5 1.5-0.7 1.5-1.5 1.5zm0-1.9c-0.3 0-0.5 0.2-0.5 0.5s0.2 0.5 0.5 0.5 0.5-0.2 0.5-0.5-0.2-0.5-0.5-0.5z"/>
	<path class="st0" d="m627.2 36.6c0 0.5-0.4 1-1 1-0.5 0-1-0.4-1-1 0-0.5 0.4-1 1-1 0.6 0.1 1 0.5 1 1z"/>
	<path class="st1" d="m626.2 38.1c-0.8 0-1.5-0.7-1.5-1.5s0.7-1.5 1.5-1.5 1.5 0.7 1.5 1.5-0.7 1.5-1.5 1.5zm0-1.9c-0.3 0-0.5 0.2-0.5 0.5s0.2 0.5 0.5 0.5 0.5-0.2 0.5-0.5-0.2-0.5-0.5-0.5z"/>
	<path class="st4" d="m669.7 349.1c4.2-2.1 9.1-2.4 13.7-1.7 2.5 0.4 5.1 1.2 6.8 3 1.7 1.9 2 5.1 0.1 6.8-1.2 1-2.8 1.1-4.3 1.1-3.6 0-7.6-0.7-10.5 1.5-1.6 1.2-2.7 3.3-4.7 3.9-1.9 0.6-4.1-0.5-5.1-2.3-1-1.7-1.1-3.9-0.6-5.9-0.1 0 0.4-4.3 4.6-6.4z"/>
	<path class="st4" d="m660.2 330.7c2.5 3.6 7.5 2.4 9.8 0.2s3.3-5.4 4.1-8.5c2-7 4.1-14.4 2.6-21.5-0.4-2.1-1.2-4.3-2.7-5.8-1.5-1.6-3.8-2.5-5.9-2-2.5 0.7-4 3.1-5.2 5.4-3.3 6.8-5 14.4-5.1 22-0.1 3.5 0.4 7.2 2.4 10.2"/>
	<path class="st4" d="m653.2 335.9c2.8-3.3 3.3-8.1 2.1-12.2s-4-7.6-7.2-10.5c-3.8-3.3-8.2-6-12.9-7.6-1.9-0.7-3.8-1.2-5.8-1s-4 1.2-4.9 2.9c-1.4 2.6-0.1 5.7 1.4 8.3 2.5 4.5 5.3 8.8 8.5 12.9 2.5 3.3 5.5 6.5 9.3 8 3.9 1.5 7.9 1.3 10-1.4"/>
	<path class="st1" d="m660 385.5s0.1-0.6 0.2-1.7c0.1-1.2 0.3-2.7 0.4-4.5 0.2-1.9 0.5-4.2 1-6.6 0.5-2.5 1.3-5.1 2.4-7.8s2.4-5.1 4-7.1c1.5-2 3.3-3.4 5-4.2s3.2-1.2 4.2-1.3c1.1-0.1 1.6-0.2 1.6-0.2s-0.6-0.1-1.7 0-2.6 0.3-4.4 1.2c-1.8 0.8-3.7 2.2-5.3 4.2s-3 4.5-4.1 7.2-1.9 5.4-2.4 7.9-0.7 4.8-0.9 6.7c-0.1 1.9-0.2 3.5-0.2 4.5 0.1 1.1 0.1 1.7 0.2 1.7z"/>
	<path class="st1" d="m660 386c-0.6 0-0.6-0.4-0.6-2.2 0-1.6 0.1-3 0.2-4.6 0.1-1.8 0.4-4.2 0.9-6.8 0.5-2.5 1.3-5.2 2.4-8 1.2-2.9 2.6-5.4 4.2-7.3s3.5-3.5 5.5-4.4c1.9-0.9 3.5-1.1 4.6-1.2 1.8 0 1.9 0 2.1 0.2l0.2 0.1v0.2c0 0.5-0.3 0.5-2.1 0.7-1.4 0.2-2.8 0.6-4.1 1.3-1.7 0.8-3.5 2.3-4.9 4.1-1.5 1.8-2.8 4.2-3.9 6.9s-1.9 5.3-2.4 7.7-0.8 4.6-1 6.6l-0.4 4.5c-0.2 1.9-0.2 2.2-0.7 2.2z"/>
	<path class="st1" d="m660.3 382v-0.8-2.2c0-1.9 0-4.7 0.1-8.1 0.2-6.8 0.8-14.1 1.9-24.4 1.1-9.7 2.5-21 4-28.3 0.3-1.7 0.7-3.2 1-4.5s0.5-2.5 0.8-3.4c0.2-0.9 0.4-1.6 0.5-2.1s0.2-0.7 0.1-0.8c0 0-0.1 0.2-0.3 0.7-0.2 0.6-0.4 1.2-0.6 2.1-0.3 0.9-0.6 2-0.9 3.4-0.3 1.3-0.7 2.8-1.1 4.5-1.5 6.7-3.1 15.9-4.2 26.3-1.1 10.3-1.6 19.8-1.7 26.6 0 3.4 0 6.2 0.1 8.1 0.1 0.9 0.1 1.6 0.1 2.2 0.1 0.5 0.2 0.7 0.2 0.7z"/>
	<path class="st1" d="m660.3 382.5c-0.5 0-0.5-0.4-0.6-1.2l-0.1-2.2c-0.1-1.7-0.2-4.5-0.1-8.1 0.1-7.7 0.7-17.1 1.7-26.6 1.1-9.5 2.6-18.9 4.2-26.3 0.3-1.5 0.7-3.1 1.1-4.5 0.3-1.3 0.6-2.5 0.9-3.4l0.6-2.1c0.3-0.8 0.4-1.2 0.9-1.1 0.5 0.2 0.4 0.5 0.2 1.4l-0.5 2.1c-0.2 0.9-0.5 1.9-0.7 3.1l-0.1 0.2c-0.3 1.4-0.7 3-1 4.5-1.6 7.7-3.1 19.6-4 28.3-1.2 10.7-1.7 17.8-1.9 24.4-0.1 3.2-0.1 5.9-0.1 8v2.2c0 0.9 0 1.3-0.5 1.3z"/>
	<path class="st1" d="m660.3 363.9v-2.3c-0.1-1.5-0.3-3.6-0.7-6.2s-1.1-5.7-2-9c-0.4-1.5-1.4-5.2-3.8-10.7-3.1-7.4-7.4-13.5-11.1-17.3-0.9-1-1.8-1.7-2.6-2.4-0.4-0.3-0.8-0.7-1.1-0.9-0.4-0.2-0.7-0.5-1-0.7-1.2-0.8-1.9-1.3-1.9-1.2-0.1 0.1 2.7 1.8 6.3 5.6s7.7 9.8 10.8 17.2c1.7 4 2.9 7.6 3.8 10.6 1 3.3 1.6 6.4 2.1 8.9 0.5 2.6 0.7 4.7 0.9 6.1 0.2 1.5 0.3 2.3 0.3 2.3z"/>
	<path class="st1" d="m660.3 364.4c-0.5 0-0.5-0.2-0.7-2.7-0.2-2-0.5-4-0.9-6.1s-1.1-5.4-2.1-8.9-2.3-7-3.8-10.5c-2.7-6.5-6.7-12.7-10.7-17.1-2.4-2.6-4.5-4.2-5.5-5-0.8-0.6-1.1-0.9-0.8-1.3l0.1-0.2h0.2c0.3-0.1 0.3-0.1 2.3 1.3l1 0.7c0.3 0.2 0.5 0.4 0.8 0.6l0.4 0.3c0.2 0.2 0.5 0.4 0.7 0.6 0.6 0.5 1.3 1.1 1.9 1.8 4.3 4.3 8.3 10.7 11.2 17.4 2.3 5.4 3.3 9.1 3.8 10.7 0.8 2.9 1.5 5.8 2.1 9.2 0.5 2.8 0.6 5 0.7 6.3-0.1 2.7-0.1 2.9-0.7 2.9z"/>
	<polygon class="st4" points="642.8 395.9 644.6 420.8 676.6 420.8 678.5 395.9"/>
	<rect class="st4" x="639.7" y="386.1" width="42.6" height="9.8"/>
	<polygon class="st4" points="639.7 419.9 639.7 422.6 641.7 422.6 681.6 422.6 681.6 419.9"/>
	<polygon class="st4" points="643.7 427.4 641.7 422.6 680.1 422.6 677.8 427.4"/>
	<path class="st1" d="m677.9 404.1s0 0.1-0.1 0.2c-0.1 0.2-0.3 0.4-0.5 0.6-0.5 0.6-1.1 1.4-1.9 2.4l-0.1 0.1-0.1-0.1c-1.2-1.6-2.7-3.8-4.6-6.3h0.3c-1.4 1.9-2.9 4.1-4.5 6.4l-0.1 0.2-0.2-0.2c-1.7-2-3.5-4.1-5.4-6.4h0.3c-0.1 0.1-0.2 0.2-0.3 0.4-1.7 2.1-3.3 4.1-4.8 6l-0.2 0.2-0.1-0.2c-1.6-2.3-3.1-4.4-4.5-6.4h0.3c-2.2 2.5-4.1 4.7-5.6 6.3l-0.1 0.1-0.1-0.1c-0.7-1.2-1.3-2.2-1.7-2.9-0.2-0.3-0.3-0.6-0.4-0.8s-0.1-0.3-0.1-0.3l0.2 0.2c0.1 0.2 0.3 0.4 0.5 0.7 0.4 0.7 1.1 1.7 1.8 2.9h-0.2c1.4-1.7 3.3-3.8 5.5-6.4l0.1-0.2 0.1 0.2c1.4 1.9 2.9 4.1 4.6 6.4h-0.3c1.5-1.9 3.1-3.9 4.8-6 0.1-0.1 0.2-0.3 0.3-0.4l0.2-0.2 0.2 0.2c1.9 2.2 3.7 4.4 5.3 6.4h-0.3c1.6-2.3 3.2-4.4 4.6-6.4l0.1-0.2 0.1 0.2c1.8 2.6 3.3 4.8 4.5 6.4h-0.2c0.8-1 1.5-1.8 1.9-2.3 0.2-0.2 0.4-0.4 0.5-0.6 0.1-0.1 0.2-0.2 0.2-0.1z"/>
	<path class="st1" d="m655.8 408.4-0.6-0.8h-0.6l0.3-0.4-3.7-5.3-4.7 5.4 0.3 0.5-0.7-0.1-0.5 0.6-0.4-0.6h-0.6l0.4-0.4-2-3.3c-0.2-0.3-0.4-0.7 0-0.9 0.4-0.3 0.7 0.1 0.9 0.4l1.9 2.9 4.6-5.4-0.3-0.4h0.6l0.6-0.7 0.5 0.7h0.6l-0.3 0.4 3.7 5.2 4.1-5.2-0.3-0.4h0.6l0.6-0.7 0.6 0.7h0.6l-0.3 0.4 4.4 5.3 3.8-5.2-0.3-0.4h0.6l0.5-0.7 0.5 0.7h0.6l-0.3 0.4 3.8 5.4 2-2.3c0.2-0.2 0.5-0.6 0.9-0.3s0.1 0.7-0.1 0.9l-2.1 2.7 0.3 0.5h-0.7l-0.4 0.6-0.4-0.6h-0.7l0.4-0.4-3.8-5.2-3.7 5.2 0.3 0.4-0.6 0.1-0.5 0.7-0.6-0.7h-0.6l0.3-0.4-4.5-5.3-4.2 5.3 0.3 0.4h-0.6l-0.5 0.3z"/>
	<path class="st1" d="m678.9 395.7c0 0.1-8 0.2-17.9 0.2s-17.9-0.1-17.9-0.2 8-0.2 17.9-0.2 17.9 0.1 17.9 0.2z"/>
	<path class="st1" d="m661 396.4c-12.3 0-16.4 0-17.7-0.2h-0.1c-0.6-0.1-0.6-0.3-0.6-0.5s0-0.4 0.6-0.5h0.1c1.4-0.2 5.4-0.2 17.7-0.2s16.4 0 17.7 0.2h0.1c0.6 0.1 0.6 0.3 0.6 0.5s0 0.4-0.6 0.5h-0.1c-1.3 0.2-5.4 0.2-17.7 0.2z"/>
	<path class="st1" d="m680.5 422.9c0 0.1-8.7 0.2-19.5 0.2s-19.5-0.1-19.5-0.2 8.7-0.2 19.5-0.2 19.5 0.1 19.5 0.2z"/>
	<path class="st1" d="m661 423.6c-13.4 0-17.8 0-19.3-0.2h-0.1c-0.6-0.1-0.6-0.2-0.6-0.5 0-0.2 0-0.4 0.6-0.5h0.1c1.5-0.2 5.9-0.2 19.3-0.2s17.8 0 19.3 0.2h0.1c0.6 0.1 0.6 0.2 0.6 0.5s0 0.4-0.6 0.5h-0.1c-1.4 0.1-5.9 0.2-19.3 0.2z"/>
	<g class="st5">
		<path class="st6" d="m664.2 90.9-2.3-4.5c-19-38-57-63.2-99.1-64-5.4-0.1-10.8 0.2-16.2 0.9-38.8 5-74.3 31.1-91.1 66.9-9.9 21-14.2 45.8-30.9 61.8-21.8 20.8-55.8 18.7-85.5 15.3s-63.7-5.4-85.4 15.5c-13.6 13.1-19.2 32.8-19.8 51.8-1.5 50.2 29.7 97.8 72.1 123.6 42.5 25.9 94.5 32.2 143.7 26.4 69-8.1 136.7-40.4 180.3-95.2 43.8-55 60.1-133.3 34.2-198.5z"/>
		<circle class="st6" cx="95" cy="101.7" r="68.5"/>
	</g>
	<path class="st7" d="m589.3 422.7h-496.2c-8 0-14.6-6.5-14.6-14.6v-325.1c0-4.3 3.5-7.8 7.8-7.8h510.9c3.7 0 6.7 3 6.7 6.7v326.1c0 8.2-6.5 14.7-14.6 14.7z"/>
	<path class="st7" d="m612 427.4h-541.7c-7.6 0-13.7-6.1-13.7-13.7v-16.7h569.2v16.7c-0.1 7.5-6.2 13.7-13.8 13.7z"/>
	<rect class="st0" x="92.6" y="89.1" width="495.7" height="293.4"/>
	<polygon class="st8" points="289.4 397 296.5 408.2 395.9 408.2 402.4 397"/>
	<rect class="st8" x="107.3" y="106.1" width="467.5" height="276.4"/>
	<path class="st0" d="m143.2 374.3c-0.2 0-0.4-58.9-0.4-131.5s0.2-131.5 0.4-131.5 0.4 58.9 0.4 131.5c0 72.7-0.2 131.5-0.4 131.5z"/>
	<path class="st0" d="m133.8 135.2c0 0.2-3.4 0.4-7.6 0.4s-7.6-0.2-7.6-0.4 3.4-0.4 7.6-0.4 7.6 0.2 7.6 0.4z"/>
	<path class="st0" d="m134.3 120.3c0 0.2-3.4 0.4-7.6 0.4s-7.6-0.2-7.6-0.4 3.4-0.4 7.6-0.4 7.6 0.2 7.6 0.4z"/>
	<path class="st0" d="m133.8 151.3c0 0.2-3.4 0.4-7.6 0.4s-7.6-0.2-7.6-0.4 3.4-0.4 7.6-0.4 7.6 0.2 7.6 0.4z"/>
	<path class="st0" d="m133.8 167.4c0 0.2-3.4 0.4-7.6 0.4s-7.6-0.2-7.6-0.4 3.4-0.4 7.6-0.4 7.6 0.2 7.6 0.4z"/>
	<path class="st0" d="m133.8 183.5c0 0.2-3.4 0.4-7.6 0.4s-7.6-0.2-7.6-0.4 3.4-0.4 7.6-0.4c4.2-0.1 7.6 0.1 7.6 0.4z"/>
	<path class="st0" d="m133.8 199.6c0 0.2-3.4 0.4-7.6 0.4s-7.6-0.2-7.6-0.4 3.4-0.4 7.6-0.4c4.2-0.1 7.6 0.1 7.6 0.4z"/>
	<path class="st0" d="m133.8 215.6c0 0.2-3.4 0.4-7.6 0.4s-7.6-0.2-7.6-0.4 3.4-0.4 7.6-0.4 7.6 0.2 7.6 0.4z"/>
	<path class="st0" d="m133.8 231.7c0 0.2-3.4 0.4-7.6 0.4s-7.6-0.2-7.6-0.4 3.4-0.4 7.6-0.4 7.6 0.2 7.6 0.4z"/>
	<path class="st0" d="m133.8 247.8c0 0.2-3.4 0.4-7.6 0.4s-7.6-0.2-7.6-0.4 3.4-0.4 7.6-0.4 7.6 0.2 7.6 0.4z"/>
	<path class="st0" d="m133.8 263.9c0 0.2-3.4 0.4-7.6 0.4s-7.6-0.2-7.6-0.4 3.4-0.4 7.6-0.4 7.6 0.2 7.6 0.4z"/>
	<path class="st0" d="m133.8 280c0 0.2-3.4 0.4-7.6 0.4s-7.6-0.2-7.6-0.4 3.4-0.4 7.6-0.4c4.2-0.1 7.6 0.1 7.6 0.4z"/>
	<path class="st0" d="m133.8 296.1c0 0.2-3.4 0.4-7.6 0.4s-7.6-0.2-7.6-0.4 3.4-0.4 7.6-0.4c4.2-0.1 7.6 0.1 7.6 0.4z"/>
	<path class="st0" d="m133.8 312.1c0 0.2-3.4 0.4-7.6 0.4s-7.6-0.2-7.6-0.4 3.4-0.4 7.6-0.4 7.6 0.2 7.6 0.4z"/>
	<path class="st0" d="m133.8 328.2c0 0.2-3.4 0.4-7.6 0.4s-7.6-0.2-7.6-0.4 3.4-0.4 7.6-0.4 7.6 0.2 7.6 0.4z"/>
	<path class="st0" d="m133.8 344.3c0 0.2-3.4 0.4-7.6 0.4s-7.6-0.2-7.6-0.4 3.4-0.4 7.6-0.4 7.6 0.2 7.6 0.4z"/>
	<path class="st0" d="m133.8 360.4c0 0.2-3.4 0.4-7.6 0.4s-7.6-0.2-7.6-0.4 3.4-0.4 7.6-0.4 7.6 0.1 7.6 0.4z"/>
	<path class="st1" d="m194.6 134.3c0 0.2-8.8 0.4-19.7 0.4s-19.7-0.2-19.7-0.4 8.8-0.4 19.7-0.4c10.9-0.1 19.7 0.1 19.7 0.4z"/>
	<path class="st4" d="m174.9 135.2c-20.2 0-20.2-0.4-20.2-0.9s0-0.9 20.2-0.9 20.2 0.4 20.2 0.9 0 0.9-20.2 0.9z"/>
	<path class="st1" d="m194.6 360.4c0 0.2-8.8 0.4-19.7 0.4s-19.7-0.2-19.7-0.4 8.8-0.4 19.7-0.4 19.7 0.1 19.7 0.4z"/>
	<path class="st4" d="m174.9 361.3c-20.2 0-20.2-0.4-20.2-0.9s0-0.9 20.2-0.9 20.2 0.4 20.2 0.9 0 0.9-20.2 0.9z"/>
	<path class="st1" d="m249.5 167.4c0 0.2-16.5 0.4-36.9 0.4s-36.9-0.2-36.9-0.4 16.5-0.4 36.9-0.4 36.9 0.2 36.9 0.4z"/>
	<path class="st4" d="m212.6 168.3c-9.9 0-19.1 0-26.1-0.1-11.3-0.1-11.3-0.1-11.3-0.8s0-0.7 11.3-0.8c7-0.1 16.2-0.1 26.1-0.1 9.8 0 19.1 0 26.1 0.1 11.3 0.1 11.3 0.1 11.3 0.8s0 0.7-11.3 0.8c-6.9 0.1-16.2 0.1-26.1 0.1z"/>
	<path class="st0" d="m334.8 167.4c0 0.2-16.5 0.4-36.9 0.4s-36.9-0.2-36.9-0.4 16.5-0.4 36.9-0.4 36.9 0.2 36.9 0.4z"/>
	<path class="st1" d="m297.9 168.3c-9.9 0-19.1 0-26.1-0.1-11.3-0.1-11.3-0.1-11.3-0.8s0-0.7 11.3-0.8c7-0.1 16.2-0.1 26.1-0.1 9.8 0 19.1 0 26.1 0.1 11.3 0.1 11.3 0.1 11.3 0.8s0 0.7-11.3 0.8c-7 0.1-16.2 0.1-26.1 0.1z"/>
	<path class="st0" d="m302.2 183.5c0 0.2-24.3 0.4-54.3 0.4s-54.3-0.2-54.3-0.4 24.3-0.4 54.3-0.4c30-0.1 54.3 0.1 54.3 0.4z"/>
	<path class="st1" d="m247.9 184.4c-14.5 0-28.2 0-38.4-0.1-16.4-0.1-16.4-0.1-16.4-0.8s0-0.7 16.4-0.8c10.3-0.1 23.9-0.1 38.4-0.1s28.2 0 38.4 0.1c16.4 0.1 16.4 0.1 16.4 0.8s0 0.7-16.4 0.8c-10.3 0.1-23.9 0.1-38.4 0.1z"/>
	<path class="st0" d="m302.2 199.6c0 0.2-24.3 0.4-54.3 0.4s-54.3-0.2-54.3-0.4 24.3-0.4 54.3-0.4c30-0.1 54.3 0.1 54.3 0.4z"/>
	<path class="st1" d="m247.9 200.5c-14.5 0-28.2 0-38.4-0.1-16.4-0.1-16.4-0.1-16.4-0.8s0-0.7 16.4-0.8c10.3-0.1 23.9-0.1 38.4-0.1s28.2 0 38.4 0.1c16.4 0.1 16.4 0.1 16.4 0.8s0 0.7-16.4 0.8c-10.3 0.1-23.9 0.1-38.4 0.1z"/>
	<path class="st0" d="m377 247.8c0 0.2-24.3 0.4-54.3 0.4s-54.3-0.2-54.3-0.4 24.3-0.4 54.3-0.4 54.3 0.2 54.3 0.4z"/>
	<path class="st1" d="m322.7 248.8c-14.5 0-28.2 0-38.4-0.1-16.4-0.1-16.4-0.1-16.4-0.8s0-0.7 16.4-0.8c10.3-0.1 23.9-0.1 38.4-0.1s28.2 0 38.4 0.1c16.4 0.1 16.4 0.1 16.4 0.8s0 0.7-16.4 0.8c-10.3 0-23.9 0.1-38.4 0.1z"/>
	<path class="st0" d="m344.7 215.6c0 0.2-24.3 0.4-54.3 0.4s-54.3-0.2-54.3-0.4 24.3-0.4 54.3-0.4 54.3 0.2 54.3 0.4z"/>
	<path class="st1" d="m290.4 216.6c-14.5 0-28.2 0-38.4-0.1-16.4-0.1-16.4-0.1-16.4-0.8s0-0.7 16.4-0.8c10.3-0.1 23.9-0.1 38.4-0.1s28.2 0 38.4 0.1c16.4 0.1 16.4 0.1 16.4 0.8s0 0.7-16.4 0.8c-10.3 0-23.9 0.1-38.4 0.1z"/>
	<path class="st0" d="m477.5 215.6c0 0.2-24.3 0.4-54.3 0.4s-54.3-0.2-54.3-0.4 24.3-0.4 54.3-0.4 54.3 0.2 54.3 0.4z"/>
	<path class="st1" d="m423.2 216.6c-14.5 0-28.2 0-38.4-0.1-16.4-0.1-16.4-0.1-16.4-0.8s0-0.7 16.4-0.8c10.3-0.1 23.9-0.1 38.4-0.1s28.2 0 38.4 0.1c16.4 0.1 16.4 0.1 16.4 0.7s0 0.7-16.4 0.8c-10.2 0.1-23.9 0.2-38.4 0.2z"/>
	<path class="st9" d="m431.3 183.5c0 0.2-24.3 0.4-54.3 0.4s-54.3-0.2-54.3-0.4 24.3-0.4 54.3-0.4c30-0.1 54.3 0.1 54.3 0.4z"/>
	<path class="st9" d="m506.4 247.8c0 0.2-24.3 0.4-54.3 0.4s-54.3-0.2-54.3-0.4 24.3-0.4 54.3-0.4 54.3 0.2 54.3 0.4z"/>
	<path class="st1" d="m452.1 248.8c-14.5 0-28.2 0-38.4-0.1-16.4-0.1-16.4-0.1-16.4-0.8s0-0.7 16.4-0.8c10.3-0.1 23.9-0.1 38.4-0.1s28.2 0 38.4 0.1c16.4 0.1 16.4 0.1 16.4 0.8s0 0.7-16.4 0.8c-10.2 0-23.9 0.1-38.4 0.1z"/>
	<path class="st7" d="m491.4 199.6c0 0.2-37.8 0.4-84.4 0.4s-84.4-0.2-84.4-0.4 37.8-0.4 84.4-0.4c46.6-0.1 84.4 0.1 84.4 0.4z"/>
	<path class="st9" d="m194.6 151.3c0 0.2-8.8 0.4-19.7 0.4s-19.7-0.2-19.7-0.4 8.8-0.4 19.7-0.4 19.7 0.2 19.7 0.4z"/>
	<path class="st1" d="m174.9 152.3c-20.2 0-20.2-0.4-20.2-0.9s0-0.9 20.2-0.9 20.2 0.4 20.2 0.9 0 0.9-20.2 0.9z"/>
	<path class="st9" d="m194.6 344.3c0 0.2-8.8 0.4-19.7 0.4s-19.7-0.2-19.7-0.4 8.8-0.4 19.7-0.4 19.7 0.2 19.7 0.4z"/>
	<path class="st1" d="m174.9 345.2c-20.2 0-20.2-0.4-20.2-0.9s0-0.9 20.2-0.9 20.2 0.4 20.2 0.9 0 0.9-20.2 0.9z"/>
	<path class="st9" d="m214.2 215.6c0 0.2-8.8 0.4-19.7 0.4s-19.7-0.2-19.7-0.4 8.8-0.4 19.7-0.4c10.8 0 19.7 0.2 19.7 0.4z"/>
	<path class="st1" d="m194.4 216.6c-20.2 0-20.2-0.4-20.2-0.9s0-0.9 20.2-0.9 20.2 0.4 20.2 0.9 0.1 0.9-20.2 0.9z"/>
	<path class="st4" d="m530 215.6c0 0.2-8.8 0.4-19.7 0.4s-19.7-0.2-19.7-0.4 8.8-0.4 19.7-0.4 19.7 0.2 19.7 0.4z"/>
	<path class="st1" d="m249.5 279.9c0 0.2-16.5 0.4-36.9 0.4s-36.9-0.2-36.9-0.4 16.5-0.4 36.9-0.4c20.4-0.1 36.9 0.1 36.9 0.4z"/>
	<path class="st4" d="m212.6 280.8c-9.9 0-19.1 0-26.1-0.1-11.3-0.1-11.3-0.1-11.3-0.8s0-0.7 11.3-0.8c7-0.1 16.2-0.1 26.1-0.1s19.1 0 26.1 0.1c11.3 0.1 11.3 0.1 11.3 0.8s0 0.7-11.3 0.8c-6.9 0.1-16.2 0.1-26.1 0.1z"/>
	<path class="st0" d="m334.8 279.9c0 0.2-16.5 0.4-36.9 0.4s-36.9-0.2-36.9-0.4 16.5-0.4 36.9-0.4c20.4-0.1 36.9 0.1 36.9 0.4z"/>
	<path class="st1" d="m297.9 280.8c-9.9 0-19.1 0-26.1-0.1-11.3-0.1-11.3-0.1-11.3-0.8s0-0.7 11.3-0.8c7-0.1 16.2-0.1 26.1-0.1 9.8 0 19.1 0 26.1 0.1 11.3 0.1 11.3 0.1 11.3 0.8s0 0.7-11.3 0.8c-7 0.1-16.2 0.1-26.1 0.1z"/>
	<path class="st0" d="m302.2 296c0 0.2-24.3 0.4-54.3 0.4s-54.3-0.2-54.3-0.4 24.3-0.4 54.3-0.4c30-0.1 54.3 0.1 54.3 0.4z"/>
	<path class="st1" d="m247.9 296.9c-14.5 0-28.2 0-38.4-0.1-16.4-0.1-16.4-0.1-16.4-0.8s0-0.7 16.4-0.8c10.3-0.1 23.9-0.1 38.4-0.1s28.2 0 38.4 0.1c16.4 0.1 16.4 0.1 16.4 0.8s0 0.7-16.4 0.8c-10.3 0.1-23.9 0.1-38.4 0.1z"/>
	<path class="st0" d="m302.2 312c0 0.2-24.3 0.4-54.3 0.4s-54.3-0.2-54.3-0.4 24.3-0.4 54.3-0.4 54.3 0.2 54.3 0.4z"/>
	<path class="st1" d="m247.9 313c-14.5 0-28.2 0-38.4-0.1-16.4-0.1-16.4-0.1-16.4-0.8s0-0.7 16.4-0.8c10.3-0.1 23.9-0.1 38.4-0.1s28.2 0 38.4 0.1c16.4 0.1 16.4 0.1 16.4 0.8s0 0.7-16.4 0.8c-10.3 0-23.9 0.1-38.4 0.1z"/>
	<path class="st0" d="m344.7 328.1c0 0.2-24.3 0.4-54.3 0.4s-54.3-0.2-54.3-0.4 24.3-0.4 54.3-0.4 54.3 0.2 54.3 0.4z"/>
	<path class="st1" d="m290.4 329.1c-14.5 0-28.2 0-38.4-0.1-16.4-0.1-16.4-0.1-16.4-0.8s0-0.7 16.4-0.8c10.3-0.1 23.9-0.1 38.4-0.1s28.1 0 38.4 0.1c16.4 0.1 16.4 0.1 16.4 0.8s0 0.7-16.4 0.8c-10.2 0-23.9 0.1-38.4 0.1z"/>
	<path class="st0" d="m477.5 328.1c0 0.2-24.3 0.4-54.3 0.4s-54.3-0.2-54.3-0.4 24.3-0.4 54.3-0.4 54.3 0.2 54.3 0.4z"/>
	<path class="st1" d="m423.2 329.1c-14.5 0-28.2 0-38.4-0.1-16.4-0.1-16.4-0.1-16.4-0.8s0-0.7 16.4-0.8c10.3-0.1 23.9-0.1 38.4-0.1s28.1 0 38.4 0.1c16.4 0.1 16.4 0.1 16.4 0.8s0 0.7-16.4 0.8c-10.2 0-23.9 0.1-38.4 0.1z"/>
	<path class="st9" d="m431.3 296c0 0.2-24.3 0.4-54.3 0.4s-54.3-0.2-54.3-0.4 24.3-0.4 54.3-0.4c30-0.1 54.3 0.1 54.3 0.4z"/>
	<path class="st1" d="m377 296.9c-14.5 0-28.2 0-38.4-0.1-16.4-0.1-16.4-0.1-16.4-0.8s0-0.7 16.4-0.8c10.3-0.1 23.9-0.1 38.4-0.1s28.2 0 38.4 0.1c16.4 0.1 16.4 0.1 16.4 0.8s0 0.7-16.4 0.8c-10.2 0.1-23.9 0.1-38.4 0.1z"/>
	<path class="st7" d="m491.4 312c0 0.2-37.8 0.4-84.4 0.4s-84.4-0.2-84.4-0.4 37.8-0.4 84.4-0.4 84.4 0.2 84.4 0.4z"/>
	<path class="st7" d="m407.1 313c-22.5 0-43.7 0-59.7-0.1-17.3-0.1-22.7-0.1-24.4-0.3h-0.2c-0.6-0.1-0.6-0.2-0.6-0.4s0-0.3 0.6-0.4h0.2c1.7-0.2 7.1-0.3 24.4-0.3 15.9-0.1 37.1-0.1 59.7-0.1 22.5 0 43.7 0 59.7 0.1 17.3 0.1 22.7 0.1 24.4 0.3h0.2c0.6 0.1 0.6 0.2 0.6 0.4s0 0.3-0.6 0.4h-0.2c-1.7 0.2-7.1 0.3-24.4 0.3-16 0-37.2 0.1-59.7 0.1z"/>
	<path class="st9" d="m214.2 328.1c0 0.2-8.8 0.4-19.7 0.4s-19.7-0.2-19.7-0.4 8.8-0.4 19.7-0.4c10.8 0 19.7 0.2 19.7 0.4z"/>
	<path class="st1" d="m194.4 329.1c-20.2 0-20.2-0.4-20.2-0.9 0-0.6 0-0.9 20.2-0.9s20.2 0.4 20.2 0.9c0.1 0.5 0.1 0.9-20.2 0.9z"/>
	<path class="st4" d="m530 328.1c0 0.2-8.8 0.4-19.7 0.4s-19.7-0.2-19.7-0.4 8.8-0.4 19.7-0.4 19.7 0.2 19.7 0.4z"/>
	<path class="st1" d="m540.5 407.1c0 0.1-100.6 0.3-224.8 0.3s-224.8-0.1-224.8-0.3c0-0.1 100.6-0.3 224.8-0.3 124.2 0.1 224.8 0.2 224.8 0.3z"/>
	<path class="st1" d="m315.8 407.9c-60 0-116.5 0-158.9-0.1-20.3 0-36.8-0.1-48.2-0.1h-13.1c-2.2 0-3.5 0-4.2-0.1h-0.3c-0.6-0.1-0.6-0.2-0.6-0.5s0-0.4 0.6-0.5h0.3c0.7 0 1.9-0.1 4.2-0.1h13.1c11.4 0 27.8-0.1 48.2-0.1 42.5 0 98.9-0.1 158.9-0.1s116.4 0 158.9 0.1c20.3 0 36.8 0.1 48.2 0.1h13.1c2.2 0 3.5 0 4.2 0.1h0.3c0.6 0.1 0.6 0.2 0.6 0.5s0 0.4-0.6 0.5h-0.3c-0.7 0-1.9 0.1-4.2 0.1h-13.1c-11.4 0-27.8 0.1-48.2 0.1-42.5 0.1-98.9 0.1-158.9 0.1z"/>
	<path class="st4" d="m74.2 319c-13.8-14.1-35.4-20-54.5-14.9 16.6 11.1 35.2 17 55.1 17.2"/>
	<path class="st4" d="m55.7 253.6c2.3-16-4-34.1-16-45.8-0.4 15.9 6.4 33.8 16 45.8"/>
	<path class="st4" d="m65.3 283.9c-8.6-16.4-22.6-29.8-39.3-37.6 5 18.5 20.8 33.6 39.5 37.8"/>
	<path class="st4" d="m67.3 289.8c-9.7 0.3-19.5-0.1-28.9-2.5-9.4-2.5-18.3-7.2-24.6-14.7 18.9 0 37.7 5.8 53.3 16.3"/>
	<path class="st4" d="m62.4 270.5c4.9-18.4 13-31.2 27.5-41.5 1.1 9-1.1 18.3-6.1 25.8s-12.7 13.2-21.4 15.7"/>
	<path class="st4" d="m99 302.3c0.3-10.7-6.7-21.2-16.6-25.3 0.8 9.5 8.3 20.5 16.6 25.3"/>
	<path class="st4" d="m103.6 286.7c1.1-15.4 12-29.6 26.6-34.7-3.3 15.5-12.2 28.3-26.6 34.7"/>
	<path class="st4" d="m96.6 314.3c3.4-4.9 9-7.9 14.8-9.4s11.8-1.6 17.8-1.8c-8 8.9-20.1 13.9-32.1 13.4"/>
	<path class="st4" d="m89.7 353.6c10.8-3.3 22.7-2.5 32.9 2.4 10.2 4.8 18.4 13.5 22.7 24-20.2-3.9-40.1-12.9-55.6-26.4"/>
	<path class="st4" d="m67.5 340c3.4 9.9 2.7 21.9-4.7 30.4-3-10.2-1.2-21.7 4.7-30.4"/>
	<path class="st4" d="m54.5 334.5c-0.9 12.7-9.1 24.7-20.6 30.3-0.6 0.3-1.2 0.5-1.8 0.3-0.9-0.4-1-1.6-0.9-2.6 1.4-12.8 10.8-25 23.3-28"/>
	<path class="st4" d="m45.9 333.2c-5.7 6.1-13.9 9.8-22.3 9.8-8.3 0-16.7-3.5-22.4-9.6 14.2-1.6 30.6-2.6 44.7-0.2"/>
	<path class="st1" d="m43.8 219.7s0 0.1 0.1 0.4 0.2 0.7 0.4 1.2c0.4 1.1 1 2.6 1.7 4.6 0.8 2 1.6 4.4 2.7 7.3 0.5 1.4 1.1 2.9 1.6 4.6 0.6 1.6 1.2 3.3 1.8 5.1 2.5 7.2 5.3 15.8 8.3 25.4s6.1 20.3 9.1 31.5 5.7 22 8 31.8c2.2 9.8 4.1 18.7 5.5 26.2 0.4 1.9 0.7 3.7 1 5.3 0.3 1.7 0.6 3.3 0.8 4.8 0.5 3 1 5.6 1.3 7.7s0.6 3.7 0.7 4.8c0.1 0.5 0.2 1 0.2 1.3s0.1 0.4 0.1 0.4 0-0.1 0-0.4-0.1-0.7-0.2-1.3c-0.2-1.1-0.4-2.8-0.6-4.9-0.3-2.1-0.7-4.7-1.2-7.7-0.2-1.5-0.5-3.1-0.8-4.8s-0.6-3.5-1-5.3c-1.3-7.5-3.2-16.4-5.4-26.2-2.3-9.8-4.9-20.6-7.9-31.8-3.1-11.2-6.2-21.8-9.2-31.5-3-9.6-5.9-18.2-8.4-25.4-0.6-1.8-1.2-3.5-1.8-5.1s-1.2-3.1-1.7-4.5c-1-2.8-2-5.3-2.8-7.3s-1.4-3.5-1.8-4.6c-0.2-0.5-0.4-0.9-0.5-1.2v-0.4z"/>
	<path class="st1" d="m87.3 382.7-0.4-0.3c-0.2-0.1-0.2-0.2-0.3-0.8l-1-6.1c-0.3-2.2-0.8-5-1.2-7.7l-0.8-4.8-1-5.3c-1.2-6.6-3-15-5.5-26.2-2.4-10.4-5.1-21.1-8-31.8-2.9-10.5-5.9-21-9.1-31.4-3.4-10.8-6-18.9-8.3-25.4l-1.8-5.1-1.6-4.6c-1-2.7-1.9-5.3-2.7-7.3l-2.1-5.8c-0.2-0.5-0.3-0.9 0.1-1 0.5-0.2 0.6 0.2 0.8 0.7l0.5 1.2 1.8 4.6c0.8 2 1.8 4.6 2.8 7.3l1.7 4.5 1.8 5.1c2.4 6.6 5 14.7 8.4 25.4 3.2 10.4 6.3 21 9.2 31.5 2.9 10.8 5.6 21.5 7.9 31.8 2.5 11.1 4.2 19.5 5.4 26.3l1 5.3 0.8 4.8c0.5 2.8 0.9 5.5 1.2 7.7l0.8 6.1c0.1 0.5 0.1 0.6-0.1 0.8l-0.3 0.5z"/>
	<path class="st1" d="m121.8 260.3-0.9 0.9c-0.6 0.6-1.5 1.6-2.5 2.8-2.1 2.5-5.2 6.2-8.4 11.1s-6.5 11.2-8.7 18.7c-2.3 7.4-3.8 15.9-5.2 24.8-2.9 17.7-6.4 33.6-9 45-1.3 5.7-2.3 10.3-3.1 13.6-0.3 1.6-0.6 2.8-0.8 3.7-0.1 0.4-0.1 0.7-0.2 1 0 0.2-0.1 0.3 0 0.3 0 0 0-0.1 0.1-0.3s0.1-0.6 0.3-1c0.2-0.9 0.5-2.1 0.9-3.7 0.8-3.2 1.9-7.8 3.2-13.5 2.7-11.4 6.3-27.3 9.2-45 1.4-8.8 2.9-17.3 5.2-24.7 2.2-7.4 5.4-13.7 8.6-18.6 3.1-5 6.1-8.7 8.2-11.2 1-1.3 1.9-2.2 2.4-2.9 0.3-0.3 0.5-0.6 0.6-0.7 0-0.2 0.1-0.3 0.1-0.3z"/>
	<path class="st1" d="m82.9 382.8h-0.1c-0.5-0.1-0.4-0.6-0.3-0.9l0.2-1 0.8-3.7 3.1-13.6c2.6-11.5 6.1-27.3 9-45 1.5-9.2 3-17.5 5.3-24.8 2-6.5 5-12.9 8.8-18.8 3.3-5.1 6.4-8.8 8.4-11.2 1.1-1.3 2-2.3 2.5-2.8l0.7-0.7c0.2-0.2 0.6-0.6 0.9-0.3 0.4 0.3 0.1 0.7-0.2 1l-0.6 0.8c-0.6 0.7-1.4 1.6-2.4 2.9-2.2 2.7-5.1 6.3-8.2 11.2-3.7 5.9-6.6 12.1-8.5 18.5-2.2 7.2-3.6 15.1-5.2 24.6-2.7 16.6-6 31.5-9.2 45.1l-4.4 18.2c-0.2 0.1-0.3 0.5-0.6 0.5z"/>
	<path class="st1" d="m41.7 332.6s0.2 0.1 0.5 0.1c0.4 0 0.9 0.1 1.5 0.2 0.3 0 0.7 0.1 1.1 0.1 0.4 0.1 0.8 0.1 1.3 0.2 0.9 0.1 1.9 0.3 3 0.5 0.6 0.1 1.2 0.2 1.8 0.4s1.2 0.3 1.9 0.5c1.3 0.3 2.7 0.8 4.1 1.2 2.9 1 5.9 2.3 9 4s5.8 3.7 8.1 5.6c1.1 1 2.2 2 3.1 3 1 0.9 1.7 1.9 2.4 2.8 0.8 0.9 1.3 1.8 1.8 2.5s0.9 1.4 1.2 2c0.3 0.5 0.5 0.9 0.8 1.3 0.2 0.3 0.3 0.4 0.3 0.4s-0.1-0.2-0.2-0.5c-0.2-0.4-0.4-0.8-0.7-1.3-0.3-0.6-0.7-1.3-1.2-2-0.5-0.8-1-1.7-1.8-2.6-0.7-0.9-1.5-1.9-2.4-2.9s-2-2-3.1-3c-2.3-2-5-4-8.1-5.7s-6.2-3-9.1-4c-1.5-0.4-2.8-0.9-4.2-1.2-0.7-0.2-1.3-0.3-1.9-0.5l-1.8-0.3c-1.1-0.2-2.2-0.3-3.1-0.4-0.4-0.1-0.9-0.1-1.3-0.1s-0.7 0-1.1-0.1c-0.6 0-1.1 0-1.5-0.1-0.3-0.2-0.4-0.2-0.4-0.1z"/>
	<path class="st1" d="m83.5 357.7c-0.3 0-0.5-0.3-0.7-0.7l-0.8-1.3c-0.3-0.6-0.7-1.2-1.2-1.9-0.2-0.2-0.3-0.5-0.5-0.7-0.4-0.6-0.8-1.1-1.3-1.7l-0.2-0.2c-0.7-0.8-1.4-1.7-2.3-2.6-0.8-0.9-1.7-1.7-2.7-2.6l-0.4-0.3c-2.5-2.1-5.2-4-8-5.5-2.7-1.5-5.7-2.8-8.9-3.9-0.4-0.1-0.8-0.3-1.3-0.4-1-0.3-1.9-0.6-2.8-0.8l-1.9-0.5-1.7-0.3c-1-0.2-1.9-0.3-2.6-0.5l-4.2-0.5c-0.5-0.1-1-0.1-1-0.6s0.5-0.5 1-0.5l3.1 0.2 1.1 0.1c0.8 0.1 1.8 0.2 2.8 0.4l1.8 0.3 1.9 0.5c1 0.2 1.9 0.5 3 0.8 0.4 0.1 0.8 0.2 1.2 0.4 3.3 1.1 6.4 2.5 9.2 4 2.9 1.6 5.6 3.5 8.2 5.8l0.3 0.3c1 0.9 2 1.8 2.8 2.8 0.9 0.9 1.7 1.9 2.3 2.8l0.1 0.1c0.5 0.6 1 1.3 1.3 1.9 0.2 0.2 0.3 0.5 0.4 0.7 0.5 0.8 0.9 1.5 1.2 2.1l0.7 1.3c0.2 0.5 0.3 0.6 0.2 0.9l-0.1 0.2-0.2 0.1c0.3-0.2 0.2-0.2 0.2-0.2z"/>
	<path class="st1" d="m37.6 260.6s0.3 0.4 1 1c0.8 0.7 1.8 1.5 2.9 2.5 2.5 2.1 5.9 5 9.8 8.2 3.8 3.2 7.3 6 9.9 8.1 1.2 1 2.2 1.8 3 2.4 0.7 0.6 1.1 0.9 1.2 0.8 0 0-0.3-0.4-1-1-0.8-0.7-1.8-1.5-2.9-2.5-2.5-2.1-5.9-5-9.8-8.2-3.8-3.2-7.3-6-9.9-8.1-1.2-1-2.2-1.8-3-2.4-0.7-0.5-1.2-0.8-1.2-0.8z"/>
	<path class="st1" d="m65.4 284.2c-0.3 0-0.7-0.3-1.5-1l-3-2.4c-2.7-2.1-6.2-5-9.9-8.1s-7.2-6-9.8-8.2l-2.9-2.5c-1.2-1.1-1.4-1.3-1.1-1.7s0.6-0.2 1.8 0.8l3 2.4c2.7 2.1 6.2 5 9.9 8.1s7.2 6 9.8 8.2l2.9 2.5c1.2 1.1 1.4 1.3 1.1 1.7 0 0.1-0.1 0.2-0.3 0.2z"/>
	<path class="st1" d="m34.1 279.4c0 0.1 7.4 2.5 16.7 5.2 9.2 2.7 16.8 4.8 16.8 4.7s-7.4-2.5-16.7-5.2c-9.2-2.7-16.7-4.8-16.8-4.7z"/>
	<path class="st1" d="m67.6 289.7c-1 0-4.4-0.9-17-4.6-16.7-4.9-16.8-5.3-16.9-5.4l-0.1-0.2 0.1-0.4 0.2-0.1c0.2-0.1 0.5-0.3 17.2 4.6 4.5 1.3 8.7 2.6 11.8 3.6 5.3 1.7 5.3 1.7 5.2 2.2-0.1 0.2-0.1 0.3-0.5 0.3z"/>
	<path class="st1" d="m61.7 271.9s0.3-0.4 0.8-1.1c0.5-0.8 1.2-1.8 2-3 1.7-2.5 4-6 6.8-9.6 2.8-3.7 5.5-6.9 7.5-9.1 0.9-1.1 1.7-2 2.4-2.7 0.6-0.6 0.9-1 0.8-1 0 0-0.4 0.3-1 0.9s-1.5 1.5-2.5 2.6c-2.1 2.2-4.8 5.4-7.6 9.1s-5.1 7.2-6.7 9.7c-0.8 1.3-1.4 2.3-1.8 3.1-0.6 0.7-0.8 1.1-0.7 1.1z"/>
	<path class="st1" d="m61.7 272.4c-0.1 0-0.2 0-0.3-0.1-0.5-0.3-0.3-0.6 0.4-1.9 0.4-0.8 1.1-1.8 1.8-3.1 1.1-1.8 3.5-5.5 6.8-9.8 3.2-4.2 6.2-7.5 7.7-9.1 1-1.1 1.9-2 2.5-2.6 1-1 1.3-1.3 1.7-0.9s0.2 0.6-0.8 1.7l-2.4 2.7c-2.7 3.1-5.2 6.1-7.5 9.1-2.9 3.8-5.3 7.3-6.8 9.6l-2 3c-0.6 1.1-0.8 1.4-1.1 1.4z"/>
	<path class="st1" d="m87.5 282.3c-0.1 0 0.6 1.1 1.7 2.9s2.6 4.2 4.2 6.9c1.6 2.8 2.9 5.3 3.8 7.1 0.9 1.9 1.5 3 1.6 3s-0.4-1.2-1.2-3.1-2.1-4.5-3.7-7.2c-1.6-2.8-3.1-5.2-4.3-6.9s-2-2.7-2.1-2.7z"/>
	<path class="st1" d="m98.8 302.8c-0.3 0-0.5-0.5-1.6-2.7l-0.3-0.6c-1.3-2.5-2.6-4.9-3.8-7.1s-2.7-4.5-4.2-6.9l-0.4-0.6c-1.7-2.6-1.7-2.6-1.2-2.9l0.2-0.1h0.2c0.2 0 0.4 0.1 2.4 2.9 0.8 1.2 2.5 3.7 4.4 6.9 1.9 3.3 3.1 6 3.7 7.3 1.4 3.1 1.3 3.3 1.2 3.5l-0.1 0.2-0.2 0.1h-0.3z"/>
	<path class="st1" d="m96.4 314.8c0 0.1 1.5-0.6 3.8-1.7 2.3-1 5.6-2.4 9.3-3.7s7.1-2.2 9.5-2.9c2.5-0.6 4-1 4-1.1 0 0-0.4 0-1.1 0.1s-1.7 0.3-3 0.6c-2.5 0.5-5.9 1.4-9.6 2.7s-6.9 2.7-9.2 3.9c-1.1 0.6-2.1 1.1-2.7 1.4-0.7 0.5-1 0.7-1 0.7z"/>
	<path class="st1" d="m96.3 315.4c-0.2 0-0.2-0.1-0.3-0.3-0.2-0.5 0.1-0.7 1.1-1.3 0.7-0.4 1.6-0.9 2.7-1.4 1.6-0.8 5-2.4 9.3-3.9s7.9-2.4 9.7-2.8c1.2-0.3 2.3-0.5 3-0.6 1.2-0.2 1.6-0.2 1.7 0.3s0.1 0.5-2.3 1.1c-0.6 0.1-1.3 0.3-2.1 0.5-2.2 0.6-5.7 1.5-9.5 2.9-3.8 1.3-7.1 2.7-9.2 3.7-0.7 0.3-1.4 0.6-1.9 0.9-1.4 0.6-1.9 0.9-2.2 0.9z"/>
	<path class="st1" d="m89.4 353.7s0.2 0.1 0.5 0.2c0.4 0.1 0.8 0.2 1.3 0.3 1.3 0.3 2.9 0.7 5 1.1 4.2 1 10 2.2 16.2 4.3s11.5 4.8 15.1 7.1c1.8 1.2 3.2 2.2 4.2 2.9s1.5 1.1 1.5 1.1-0.1-0.1-0.3-0.4c-0.2-0.2-0.6-0.5-1-0.9-0.9-0.8-2.3-1.9-4.1-3.1-3.6-2.4-8.9-5.2-15.1-7.3s-12.1-3.3-16.3-4.1c-2-0.4-3.7-0.7-5-1-1.3-0.1-2-0.3-2-0.2z"/>
	<path class="st1" d="m133.2 371.2c-0.2 0-0.6-0.2-1.3-0.8l-0.6-0.4c-0.8-0.6-2.2-1.7-4.1-2.9-4.1-2.6-9.6-5.2-15-7-5.3-1.8-10.3-2.9-14.3-3.8l-8.2-1.9c-0.5-0.1-0.9-0.3-0.8-0.7 0.1-0.5 0.2-0.5 2.4-0.1l5.9 1.2c4.1 0.8 9.6 2 15.5 4 5.6 1.9 11.2 4.6 15.3 7.3 1.6 1.1 3 2.2 4.1 3.1 0.4 0.3 0.6 0.6 0.9 0.8l0.2 0.2c0.4 0.3 0.7 0.7 0.4 1h-0.4z"/>
	<path class="st1" d="m64.2 363.3c0.1 0 1-5.2 2-11.7 0.9-6.5 1.6-11.7 1.4-11.8-0.1 0-1 5.2-2 11.7-0.9 6.5-1.5 11.7-1.4 11.8z"/>
	<path class="st1" d="m64.3 363.8h-0.1c-0.6-0.1-0.8-0.1 1-12.3 1.7-11.7 2-11.9 2.2-12l0.2-0.1 0.4 0.1 0.1 0.2c0.1 0.2 0.3 0.5-1.4 12.1-1.7 11.1-1.9 12-2.4 12z"/>
	<path class="st1" d="m38 353.7c0.1 0 0.9-1 2.4-2.8 1.4-1.8 3.4-4.2 5.6-6.8s4.3-5 5.8-6.7 2.4-2.8 2.4-2.8-0.3 0.2-0.8 0.6-1.1 1.1-1.9 1.9c-1.6 1.6-3.7 4-5.9 6.6-2.2 2.7-4.2 5.1-5.5 7-0.7 0.9-1.2 1.7-1.6 2.2s-0.6 0.8-0.5 0.8z"/>
	<path class="st1" d="m38 354.3c-0.1 0-0.2-0.1-0.3-0.1-0.4-0.3-0.2-0.7 0.4-1.5 0.4-0.5 0.9-1.3 1.6-2.2 0.9-1.2 2.9-3.8 5.5-7 2.7-3.2 4.9-5.5 5.9-6.6 0.8-0.8 1.4-1.5 1.9-1.9 0.7-0.7 1.1-1 1.4-0.6 0.4 0.4 0.4 0.4-2.3 3.5-1.5 1.7-3.6 4.1-5.8 6.7s-4.1 5-5.6 6.8c-2 2.3-2.4 2.9-2.7 2.9z"/>
	<polygon class="st4" points="107.4 378.1 107.4 391 104.2 391 92.7 427.4 67.1 427.4 55.9 391.4 51.6 391 51.6 378.1"/>
	<g class="st2">
		<polygon points="107.4 378.1 107.4 391 104.2 391 92.7 427.4 67.1 427.4 55.9 391.4 51.6 391 51.6 378.1"/>
	</g>
	<path class="st1" d="m53.8 391.4c0 0.1 11.3 0.3 25.2 0.3s25.2-0.1 25.2-0.3c0-0.1-11.3-0.3-25.2-0.3-14 0-25.2 0.2-25.2 0.3z"/>
	<path class="st1" d="m79 392.2c-17.8 0-23.3-0.1-25-0.3h-0.1c-0.6-0.1-0.6-0.3-0.6-0.4s0-0.3 0.6-0.4h0.1c1.7-0.3 7.1-0.3 25-0.3 17.8 0 23.3 0.1 25 0.3h0.1c0.6 0.1 0.6 0.3 0.6 0.4s0 0.3-0.6 0.4h-0.1c-1.7 0.2-7.2 0.3-25 0.3z"/>
	<path class="st1" d="m35.4 308s0.6 0.2 1.6 0.4c1.2 0.3 2.7 0.6 4.5 1.1 3.8 0.9 9 2.4 14.6 4.3s10.6 3.9 14.2 5.4c1.7 0.8 3.1 1.4 4.2 1.9 1 0.4 1.6 0.7 1.6 0.6 0 0-0.5-0.3-1.5-0.8s-2.4-1.2-4.2-2c-3.5-1.6-8.5-3.7-14.2-5.6s-10.9-3.3-14.7-4.1c-1.9-0.4-3.5-0.7-4.5-0.9-1-0.3-1.6-0.4-1.6-0.3z"/>
	<path class="st1" d="m76.2 322.2c-0.3 0-0.8-0.2-1.9-0.7l-4.2-1.8c-3.2-1.4-8.3-3.4-14.2-5.4s-11.2-3.4-14.6-4.2l-4.5-1.1c-1.9-0.5-2.1-0.5-2-1s0.3-0.5 2.3-0.2c1.1 0.2 2.7 0.5 4.6 0.9 2.7 0.6 8.2 1.9 14.7 4.1 6.6 2.2 11.7 4.5 14.2 5.6 1.7 0.8 3.2 1.5 4.2 2 1.8 0.9 1.9 1 1.7 1.5 0 0.2-0.1 0.3-0.3 0.3z"/>
	<path class="st1" d="m62.2 411.6c0 0.1 7.9 0.3 17.7 0.3s17.7-0.1 17.7-0.3-7.9-0.3-17.7-0.3c-9.7 0-17.7 0.2-17.7 0.3z"/>
	<path class="st1" d="m79.9 412.4c-18.2 0-18.2-0.1-18.2-0.8 0-0.6 0-0.8 18.2-0.8s18.2 0.1 18.2 0.8c0 0.6 0 0.8-18.2 0.8z"/>
	<path class="st1" d="m61.3 408.6c0 0.1 8.4 0.3 18.8 0.3s18.8-0.1 18.8-0.3-8.4-0.3-18.8-0.3c-10.5 0-18.8 0.2-18.8 0.3z"/>
	<path class="st1" d="m80 409.4c-19.2 0-19.2-0.1-19.2-0.8s0-0.8 19.2-0.8c19.3 0 19.3 0.1 19.3 0.8s0 0.8-19.3 0.8z"/>
	<path class="st8" d="m686.6 427.7c0 0.1-152.4 0.3-340.4 0.3-188.1 0-340.5-0.1-340.5-0.3 0-0.1 152.4-0.3 340.5-0.3 187.9 0 340.4 0.1 340.4 0.3z"/>
	<polygon class="st9" points="593.1 47.3 325.2 47.3 325.2 213.3 550.8 213.3 564.7 245.4 577.1 213.3 593.1 213.3"/>
	<path class="st8" d="m593.1 47.3c0 1.6 0.1 64 0.2 166v0.2h-0.2-16l0.2-0.1c-3.9 10.1-8.1 20.9-12.4 32.1l-0.2 0.5-0.2-0.5c-4.4-10.1-9.1-21-14-32.1l0.2 0.1h-204-21.6-0.3v-0.3-166-0.2h0.2c158.4 0.2 266 0.3 268.1 0.3-2.1 0-109.8 0.1-268 0.2l0.2-0.2v166l-0.3-0.3h21.6 204 0.2l0.1 0.1c4.9 11.2 9.6 22.1 14 32.1h-0.4c4.3-11.2 8.5-22.1 12.4-32.1l0.1-0.1h0.1 16l-0.2 0.2c0.2-101.9 0.2-164.3 0.2-165.9z"/>
	<path d="m564.8 247.3-0.6-1.5h-0.3l0.2-0.4-13.8-31.4h-203.5-20.8v0.4l-0.4-0.4h-1.1v-1.1l-0.4-0.4h0.4v-164.5h-0.5l0.5-0.5v-1h1l0.5-0.5v0.5l267.2 0.2v0.5h0.5l0.2 165.3h0.5l-0.5 0.5v0.9h-0.9l-0.5 0.5v-0.4h-14.9l-12.1 31.4 0.2 0.4h-0.3l-0.6 1.5zm-12.9-33.3 12.8 29.5 11.4-29.5h-0.6l0.8-0.5 0.3-0.9h0.9l0.8-0.5-0.2 0.5h14.3l0.2-164.8-266.7 0.2v164.5h20.8 202.9l-0.2-0.5 0.8 0.5h1l0.4 1 0.8 0.5h-0.5z"/>
	<path class="st8" d="m593 63.5c0 0.2-59.9 0.4-133.7 0.4-73.9 0-133.7-0.2-133.7-0.4s59.9-0.4 133.7-0.4 133.7 0.2 133.7 0.4z"/>
	<path d="m459.3 64.4c-35.7 0-69.3 0-94.6-0.1-12.1 0-21.9-0.1-28.7-0.1-6.3 0-9-0.1-10.1-0.2h-0.3v-0.1c-0.6-0.1-0.6-0.2-0.6-0.4s0-0.3 0.6-0.4v-0.1h0.3c1.2-0.1 3.9-0.1 10.1-0.2 6.8 0 16.6-0.1 28.7-0.1 25.3-0.1 58.8-0.1 94.6-0.1 35.7 0 69.3 0 94.5 0.1 12.1 0 21.9 0.1 28.7 0.1 6.3 0 9 0.1 10.1 0.2h0.3v0.1c0.6 0.1 0.6 0.2 0.6 0.4s0 0.3-0.6 0.4v0.1h-0.3c-1.2 0.1-3.9 0.1-10.1 0.2-6.8 0-16.6 0.1-28.7 0.1-25.2 0-58.8 0.1-94.5 0.1z"/>
	<path class="st8" d="m339.4 56.2c0 1.2-1 2.2-2.2 2.2s-2.2-1-2.2-2.2 1-2.2 2.2-2.2 2.2 0.9 2.2 2.2z"/>
	<path class="st8" d="m347.4 56.2c0 1.2-1 2.2-2.2 2.2s-2.2-1-2.2-2.2 1-2.2 2.2-2.2 2.2 0.9 2.2 2.2z"/>
	<path class="st8" d="m355.3 56.2c0 1.2-1 2.2-2.2 2.2s-2.2-1-2.2-2.2 1-2.2 2.2-2.2 2.2 0.9 2.2 2.2z"/>
	<path class="st8" d="m354.4 93.2-6.4 2.5 6.4 2.5v1.5l-8-3.2v-1.5l8-3.2v1.4z"/>
	<path class="st8" d="m361 86.8h1.6l-5.9 16.9h-1.6l5.9-16.9z"/>
	<path class="st8" d="m371.1 94.9v1.5l-8 3.2v-1.5l6.4-2.5-6.4-2.5v-1.5l8 3.3z"/>
	<path class="st8" d="m373.2 100.8c0-0.7 0.6-1.2 1.2-1.2s1.2 0.5 1.2 1.2-0.5 1.2-1.2 1.2-1.2-0.5-1.2-1.2z"/>
	<path class="st8" d="m377.2 100.8c0-0.7 0.6-1.2 1.2-1.2s1.2 0.5 1.2 1.2-0.5 1.2-1.2 1.2c-0.6 0-1.2-0.5-1.2-1.2z"/>
	<path class="st8" d="m381.3 100.8c0-0.7 0.6-1.2 1.2-1.2s1.2 0.5 1.2 1.2-0.5 1.2-1.2 1.2c-0.6 0-1.2-0.5-1.2-1.2z"/>
	<path class="st7" d="m523.6 116.9c0 0.2-39.6 0.4-88.5 0.4s-88.5-0.2-88.5-0.4 39.6-0.4 88.5-0.4 88.5 0.2 88.5 0.4z"/>
	<path class="st7" d="m435.1 117.7c-23.6 0-45.9 0-62.6-0.1-8 0-14.5-0.1-19-0.1-4.1 0-6-0.1-6.8-0.2-0.6-0.1-0.6-0.2-0.6-0.5 0-0.2 0-0.4 0.6-0.5 0.8-0.1 2.7-0.1 6.8-0.2 4.5 0 11-0.1 19-0.1 16.7-0.1 38.9-0.1 62.6-0.1 23.6 0 45.9 0 62.6 0.1 8 0 14.5 0.1 19 0.1 4.1 0 6 0.1 6.8 0.2 0.6 0.1 0.6 0.2 0.6 0.5 0 0.2 0 0.4-0.6 0.5-0.8 0.1-2.7 0.1-6.8 0.2-4.5 0-11 0.1-19 0.1-16.7 0.1-38.9 0.1-62.6 0.1z"/>
	<path class="st8" d="m552.5 117.4c0 0.2-3.8 0.4-8.5 0.4s-8.5-0.2-8.5-0.4 3.8-0.4 8.5-0.4 8.5 0.2 8.5 0.4z"/>
	<path class="st7" d="m544 118.3c-9 0-9-0.3-9-0.9s0-0.9 9-0.9 9 0.3 9 0.9 0 0.9-9 0.9z"/>
	<path class="st8" d="m577.4 117.4c0 0.2-4.2 0.4-9.3 0.4s-9.3-0.2-9.3-0.4 4.2-0.4 9.3-0.4 9.3 0.2 9.3 0.4z"/>
	<path class="st7" d="m568.1 118.3c-9.8 0-9.8-0.3-9.8-0.9s0-0.9 9.8-0.9 9.8 0.3 9.8 0.9 0 0.9-9.8 0.9z"/>
	<path class="st7" d="m459.3 131.8c0 0.2-25.2 0.4-56.2 0.4-31.1 0-56.2-0.2-56.2-0.4s25.2-0.4 56.2-0.4c31.1 0 56.2 0.2 56.2 0.4z"/>
	<path class="st7" d="m403.1 132.6c-15 0-29.1 0-39.8-0.1-11.1-0.1-15-0.1-16.3-0.3h-0.1c-0.6-0.1-0.6-0.2-0.6-0.5s0-0.4 0.6-0.5h0.1c1.3-0.2 5.2-0.2 16.3-0.3 10.6-0.1 24.7-0.1 39.8-0.1 15 0 29.1 0 39.8 0.1 11.1 0.1 15 0.1 16.3 0.3h0.1c0.6 0.1 0.6 0.2 0.6 0.5s0 0.4-0.6 0.5h-0.1c-1.3 0.2-5.2 0.2-16.3 0.3-10.7 0.1-24.8 0.1-39.8 0.1z"/>
	<path class="st7" d="m458.5 187.4c0 0.2-25.2 0.4-56.2 0.4-31.1 0-56.2-0.2-56.2-0.4s25.2-0.4 56.2-0.4c31.1 0 56.2 0.2 56.2 0.4z"/>
	<path class="st7" d="m402.3 188.3c-15 0-29.1 0-39.8-0.1-11.1-0.1-15-0.1-16.3-0.3h-0.1c-0.6-0.1-0.6-0.2-0.6-0.5s0-0.4 0.6-0.5h0.1c1.3-0.2 5.2-0.2 16.3-0.3 10.6-0.1 24.7-0.1 39.8-0.1 15 0 29.1 0 39.8 0.1 11.1 0.1 15 0.1 16.3 0.3h0.1c0.6 0.1 0.6 0.2 0.6 0.5s0 0.4-0.6 0.5h-0.1c-1.3 0.2-5.2 0.2-16.3 0.3-10.7 0-24.8 0.1-39.8 0.1z"/>
	<path class="st8" d="m500.2 131.8c0 0.2-6.9 0.4-15.3 0.4-8.5 0-15.3-0.2-15.3-0.4s6.8-0.4 15.3-0.4 15.3 0.2 15.3 0.4z"/>
	<path class="st7" d="m484.9 132.6c-15.8 0-15.8-0.3-15.8-0.9s0-0.9 15.8-0.9 15.8 0.3 15.8 0.9 0 0.9-15.8 0.9z"/>
	<path class="st8" d="m499.9 187.4c0 0.2-6.9 0.4-15.3 0.4-8.5 0-15.3-0.2-15.3-0.4s6.8-0.4 15.3-0.4c8.4 0 15.3 0.2 15.3 0.4z"/>
	<path class="st7" d="m484.6 188.3c-15.8 0-15.8-0.3-15.8-0.9s0-0.9 15.8-0.9 15.8 0.3 15.8 0.9 0 0.9-15.8 0.9z"/>
	<path class="st4" d="m354.2 139.4c0 0.2-1.7 0.4-3.8 0.4s-3.8-0.2-3.8-0.4 1.7-0.4 3.8-0.4c2.2 0 3.8 0.2 3.8 0.4z"/>
	<path class="st7" d="m350.5 140.2c-4.3 0-4.3-0.5-4.3-0.9s0-0.9 4.3-0.9 4.3 0.5 4.3 0.9c-0.1 0.5-0.1 0.9-4.3 0.9z"/>
	<path class="st8" d="m380.4 139.5c0 0.2-3.7 0.4-8.2 0.4-4.6 0-8.2-0.2-8.2-0.4s3.7-0.4 8.2-0.4c4.5 0.1 8.2 0.2 8.2 0.4z"/>
	<path class="st7" d="m372.2 140.4c-8.7 0-8.7-0.3-8.7-0.9s0-0.9 8.7-0.9 8.7 0.3 8.7 0.9 0 0.9-8.7 0.9z"/>
	<path class="st8" d="m397.1 139.5c0 0.2-3.2 0.4-7.1 0.4s-7.1-0.2-7.1-0.4 3.2-0.4 7.1-0.4c4 0.1 7.1 0.2 7.1 0.4z"/>
	<path class="st7" d="m390.1 140.4c-7.6 0-7.6-0.3-7.6-0.9s0-0.9 7.6-0.9 7.6 0.3 7.6 0.9c-0.1 0.5-0.1 0.9-7.6 0.9z"/>
	<path class="st8" d="m418.3 139.5c0 0.2-3.2 0.4-7.2 0.4s-7.2-0.2-7.2-0.4 3.2-0.4 7.2-0.4c4 0.1 7.2 0.2 7.2 0.4z"/>
	<path class="st7" d="m411.1 140.4c-7.7 0-7.7-0.3-7.7-0.9s0-0.9 7.7-0.9 7.7 0.3 7.7 0.9 0 0.9-7.7 0.9z"/>
	<path class="st8" d="m436.9 139.5c0 0.2-2.9 0.4-6.5 0.4s-6.5-0.2-6.5-0.4 2.9-0.4 6.5-0.4c3.6 0.1 6.5 0.2 6.5 0.4z"/>
	<path class="st7" d="m430.4 140.4c-7 0-7-0.4-7-0.9s0-0.9 7-0.9 7 0.4 7 0.9 0 0.9-7 0.9z"/>
	<path class="st8" d="m498.4 139.5c0 0.2-12.9 0.4-28.8 0.4s-28.8-0.2-28.8-0.4 12.9-0.4 28.8-0.4c15.9 0.1 28.8 0.2 28.8 0.4z"/>
	<path class="st7" d="m469.6 140.4c-7.7 0-14.9 0-20.4-0.1-8.9-0.1-8.9-0.1-8.9-0.8s0-0.6 8.9-0.8c5.4-0.1 12.7-0.1 20.4-0.1s14.9 0 20.3 0.1c8.9 0.1 8.9 0.1 8.9 0.8s0 0.6-8.9 0.8c-5.4 0.1-12.6 0.1-20.3 0.1z"/>
	<path class="st4" d="m353.2 149c0 0.2-1.5 0.4-3.3 0.4s-3.3-0.2-3.3-0.4 1.5-0.4 3.3-0.4c1.8 0.1 3.3 0.2 3.3 0.4z"/>
	<path class="st7" d="m349.9 149.9c-3.8 0-3.8-0.5-3.8-0.9s0-0.9 3.8-0.9 3.8 0.5 3.8 0.9 0 0.9-3.8 0.9z"/>
	<path class="st4" d="m353.5 159c0 0.2-1.5 0.4-3.4 0.4s-3.4-0.2-3.4-0.4 1.5-0.4 3.4-0.4c1.8 0 3.4 0.2 3.4 0.4z"/>
	<path class="st7" d="m350.1 159.9c-3.9 0-3.9-0.5-3.9-0.9s0-0.9 3.9-0.9 3.9 0.5 3.9 0.9 0 0.9-3.9 0.9z"/>
	<path class="st4" d="m353.5 170.2c0 0.2-1.5 0.4-3.4 0.4s-3.4-0.2-3.4-0.4 1.5-0.4 3.4-0.4c1.8 0.1 3.4 0.2 3.4 0.4z"/>
	<path class="st7" d="m350.1 171.1c-3.9 0-3.9-0.5-3.9-0.9s0-0.9 3.9-0.9 3.9 0.5 3.9 0.9 0 0.9-3.9 0.9z"/>
	<path class="st8" d="m415.5 169.7c0 0.2-11.4 0.4-25.4 0.4s-25.4-0.2-25.4-0.4 11.4-0.4 25.4-0.4 25.4 0.2 25.4 0.4z"/>
	<path class="st7" d="m390.1 170.6c-6.8 0-13.2 0-17.9-0.1-7.9-0.1-7.9-0.1-7.9-0.8s0-0.6 7.9-0.8c4.8-0.1 11.2-0.1 17.9-0.1 6.8 0 13.2 0 17.9 0.1 7.9 0.1 7.9 0.1 7.9 0.8s0 0.6-7.9 0.8c-4.8 0-11.1 0.1-17.9 0.1z"/>
	<path class="st8" d="m411 159c0 0.2-10.8 0.4-24.2 0.4s-24.2-0.2-24.2-0.4 10.8-0.4 24.2-0.4 24.2 0.2 24.2 0.4z"/>
	<path class="st7" d="m386.8 159.9c-17.2 0-22.4-0.1-24-0.4-0.7-0.1-0.7-0.3-0.7-0.5s0-0.3 0.7-0.5c1.6-0.3 6.8-0.4 24-0.4s22.4 0.1 24 0.4c0.7 0.1 0.7 0.3 0.7 0.5s0 0.3-0.7 0.5c-1.5 0.2-6.7 0.4-24 0.4z"/>
	<path class="st8" d="m527.9 148.5c0 0.2-36.9 0.4-82.4 0.4s-82.4-0.2-82.4-0.4 36.9-0.4 82.4-0.4c45.5 0.1 82.4 0.2 82.4 0.4z"/>
	<path class="st7" d="m445.5 149.4c-22 0-42.7 0-58.3-0.1-7.5 0-13.5-0.1-17.7-0.1-3.8 0-5.6-0.1-6.3-0.2-0.6-0.1-0.6-0.2-0.6-0.5s0-0.4 0.6-0.5c0.8-0.1 2.5-0.1 6.3-0.2 4.2 0 10.2-0.1 17.7-0.1 15.6-0.1 36.3-0.1 58.3-0.1s42.7 0 58.3 0.1c7.5 0 13.5 0.1 17.7 0.1 3.8 0 5.6 0.1 6.3 0.2 0.6 0.1 0.6 0.2 0.6 0.5s0 0.4-0.6 0.5c-0.8 0.1-2.5 0.1-6.3 0.2-4.2 0-10.2 0.1-17.7 0.1-15.6 0.1-36.3 0.1-58.3 0.1z"/>
	<polygon class="st9" points="609.6 115.2 609.6 256.2 587.7 274.5 609.6 274.5 611.8 274.5 702.4 274.5 702.4 115.2"/>
	<path class="st8" d="m609.6 115.2h1.6 4.8 18.5c16.1 0 39.3-0.1 67.9-0.1h0.2v0.2c0 42.6 0 98.2 0.1 159.3v0.3h-0.3-16.1-98.6-0.7l0.5-0.4c7.6-6.3 14.9-12.4 21.9-18.3l-0.1 0.2c0-42.2 0.1-77.5 0.1-102.2 0-12.3 0-22.1 0.1-28.7v-7.6-1.9c0.1-0.6 0.1-0.8 0.1-0.8s0 0.2 0 0.7v2 7.6c0 6.7 0 16.4 0.1 28.8 0 24.7 0.1 59.9 0.1 102.1v0.1l-0.1 0.1c-7 5.9-14.3 12-21.9 18.3l-0.2-0.4h98.6 16.1l-0.3 0.3c0-61.2 0-116.8 0.1-159.3l0.2 0.2c-28.5 0-51.7-0.1-67.8-0.1h-18.5-4.8c-1-0.4-1.6-0.4-1.6-0.4z"/>
	<path d="m701.6 275.7v-0.4h-113.7l-0.3 0.3-0.1-0.3h-1.9l1.4-1.2-0.1-0.3h0.4l21.5-17.9 0.2-101.9 0.1-38.2v-0.7h0.5v-0.5h1.6l34.6-0.1 55.9-0.1v-0.5l0.5 0.5h0.9v0.9l0.5 0.5h-0.5l0.1 157.9h0.4l-0.4 0.4v1.1h-1.1l-0.5 0.5zm-92.7-17.9-19.2 16h111.9l0.1-157.9-67.1-0.1-23.3-0.1h-1.1v0.2 9.6l0.1 28.8 0.1 100.5 0.5-0.4-0.5 1.1v1.2l-0.9 0.8-0.5 1.1-0.1-0.8z"/>
	<path class="st8" d="m618 122.2c0 1-0.8 1.9-1.9 1.9-1 0-1.9-0.8-1.9-1.9 0-1 0.8-1.9 1.9-1.9s1.9 0.8 1.9 1.9z"/>
	<path class="st8" d="m624.8 122.2c0 1-0.8 1.9-1.9 1.9-1 0-1.9-0.8-1.9-1.9 0-1 0.8-1.9 1.9-1.9s1.9 0.8 1.9 1.9z"/>
	<path class="st8" d="m631.6 122.2c0 1-0.8 1.9-1.9 1.9-1 0-1.9-0.8-1.9-1.9 0-1 0.8-1.9 1.9-1.9s1.9 0.8 1.9 1.9z"/>
	<path class="st4" d="m676.9 165.6c0 0.2-11.8 0.3-26.3 0.3s-26.3-0.1-26.3-0.3 11.8-0.3 26.3-0.3 26.3 0.2 26.3 0.3z"/>
	<path class="st4" d="m650.6 166.4c-7 0-13.6 0-18.6-0.1-8.2-0.1-8.2-0.1-8.2-0.7s0-0.6 8.2-0.7c5-0.1 11.6-0.1 18.6-0.1s13.6 0 18.6 0.1c8.2 0.1 8.2 0.1 8.2 0.7s0 0.6-8.2 0.7c-5 0.1-11.6 0.1-18.6 0.1z"/>
	<path class="st4" d="m687.8 178.4c0 0.2-14.3 0.3-32 0.3s-32-0.1-32-0.3 14.3-0.3 32-0.3 32 0.1 32 0.3z"/>
	<path class="st4" d="m655.9 179.2c-8.5 0-16.6 0-22.6-0.1-9.9-0.1-9.9-0.1-9.9-0.7s0-0.6 9.9-0.7c6-0.1 14.1-0.1 22.6-0.1s16.6 0 22.6 0.1c9.9 0.1 9.9 0.1 9.9 0.7s0 0.6-9.9 0.7c-6.1 0.1-14.1 0.1-22.6 0.1z"/>
	<path class="st4" d="m690.4 226c0 0.2-15.3 0.3-34.1 0.3s-34.1-0.1-34.1-0.3 15.3-0.3 34.1-0.3c18.9 0 34.1 0.1 34.1 0.3z"/>
	<path class="st4" d="m656.4 226.8c-9.1 0-17.7 0-24.1-0.1-10.5-0.1-10.5-0.1-10.5-0.7s0-0.6 10.5-0.7c6.4-0.1 15-0.1 24.1-0.1s17.7 0 24.1 0.1c10.5 0.1 10.5 0.1 10.5 0.7s0 0.6-10.5 0.7c-6.5 0.1-15 0.1-24.1 0.1z"/>
	<path class="st4" d="m629.3 184.9c0 0.2-1.5 0.3-3.2 0.3-1.8 0-3.2-0.1-3.2-0.3s1.5-0.3 3.2-0.3 3.2 0.1 3.2 0.3z"/>
	<path class="st4" d="m626 185.7c-3.7 0-3.7-0.4-3.7-0.8s0-0.8 3.7-0.8 3.7 0.4 3.7 0.8 0.1 0.8-3.7 0.8z"/>
	<path class="st4" d="m651.7 185c0 0.2-3.2 0.3-7.1 0.3s-7.1-0.1-7.1-0.3 3.2-0.3 7.1-0.3 7.1 0.2 7.1 0.3z"/>
	<path class="st4" d="m644.6 185.8c-7.6 0-7.6-0.3-7.6-0.8s0-0.8 7.6-0.8c7.5 0 7.5 0.3 7.5 0.8 0.1 0.6 0.1 0.8-7.5 0.8z"/>
	<path class="st4" d="m666 185c0 0.2-2.7 0.3-6 0.3s-6-0.1-6-0.3 2.7-0.3 6-0.3 6 0.2 6 0.3z"/>
	<path class="st4" d="m659.9 185.8c-6.5 0-6.5-0.3-6.5-0.8s0-0.8 6.5-0.8 6.5 0.3 6.5 0.8 0.1 0.8-6.5 0.8z"/>
	<path class="st4" d="m628.4 193.2c0 0.2-1.3 0.3-2.8 0.3s-2.8-0.1-2.8-0.3 1.3-0.3 2.8-0.3 2.8 0.1 2.8 0.3z"/>
	<path class="st4" d="m625.6 194c-3.3 0-3.3-0.4-3.3-0.8s0-0.8 3.3-0.8 3.3 0.4 3.3 0.8c0 0.3 0 0.8-3.3 0.8z"/>
	<path class="st4" d="m628.6 201.7c0 0.2-1.3 0.3-2.9 0.3s-2.9-0.1-2.9-0.3 1.3-0.3 2.9-0.3 2.9 0.1 2.9 0.3z"/>
	<path class="st4" d="m625.7 202.5c-3.4 0-3.4-0.4-3.4-0.8s0-0.8 3.4-0.8 3.4 0.4 3.4 0.8 0 0.8-3.4 0.8z"/>
	<path class="st4" d="m628.6 211.3c0 0.2-1.3 0.3-2.9 0.3s-2.9-0.1-2.9-0.3 1.3-0.3 2.9-0.3 2.9 0.1 2.9 0.3z"/>
	<path class="st4" d="m625.7 212.1c-3.4 0-3.4-0.4-3.4-0.8s0-0.8 3.4-0.8 3.4 0.4 3.4 0.8 0 0.8-3.4 0.8z"/>
	<path class="st4" d="m681.7 210.8c0 0.2-9.7 0.3-21.7 0.3s-21.7-0.1-21.7-0.3 9.7-0.3 21.7-0.3c11.9 0 21.7 0.2 21.7 0.3z"/>
	<path class="st4" d="m659.9 211.6c-15.3 0-20-0.1-21.5-0.3-0.6-0.1-0.6-0.3-0.6-0.5s0-0.3 0.6-0.5c1.5-0.3 6.3-0.3 21.5-0.3 15.3 0 20 0.1 21.5 0.3 0.6 0.1 0.6 0.3 0.6 0.5s0 0.3-0.6 0.5c-1.4 0.3-6.2 0.3-21.5 0.3z"/>
	<path class="st4" d="m677.8 201.7c0 0.2-9.3 0.3-20.7 0.3s-20.7-0.1-20.7-0.3 9.3-0.3 20.7-0.3c11.5 0 20.7 0.1 20.7 0.3z"/>
	<path class="st4" d="m657.1 202.5c-14.5 0-19.1-0.1-20.5-0.3-0.7-0.1-0.7-0.3-0.7-0.5s0-0.4 0.7-0.5c1.4-0.3 6-0.3 20.5-0.3s19.1 0.1 20.5 0.3c0.7 0.1 0.7 0.3 0.7 0.5s0 0.4-0.7 0.5c-1.3 0.2-5.9 0.3-20.5 0.3z"/>
	<path class="st4" d="m632.8 238.7c0 0.2-1.3 0.3-2.9 0.3s-2.9-0.1-2.9-0.3 1.3-0.3 2.9-0.3 2.9 0.1 2.9 0.3z"/>
	<path class="st4" d="m629.9 239.5c-3.4 0-3.4-0.4-3.4-0.8s0-0.8 3.4-0.8 3.4 0.4 3.4 0.8 0 0.8-3.4 0.8z"/>
	<path class="st4" d="m632.8 248.3c0 0.2-1.3 0.3-2.9 0.3s-2.9-0.1-2.9-0.3 1.3-0.3 2.9-0.3 2.9 0.2 2.9 0.3z"/>
	<path class="st4" d="m629.9 249.1c-3.4 0-3.4-0.4-3.4-0.8s0-0.8 3.4-0.8 3.4 0.4 3.4 0.8 0 0.8-3.4 0.8z"/>
	<path class="st4" d="m685.9 247.9c0 0.2-9.7 0.3-21.7 0.3s-21.7-0.1-21.7-0.3 9.7-0.3 21.7-0.3 21.7 0.1 21.7 0.3z"/>
	<path class="st4" d="m664.2 248.7c-15.3 0-20-0.1-21.5-0.3-0.6-0.1-0.6-0.3-0.6-0.5s0-0.3 0.6-0.5c1.5-0.3 6.3-0.3 21.5-0.3 15.3 0 20 0.1 21.5 0.3 0.6 0.1 0.6 0.3 0.6 0.5s0 0.3-0.6 0.5c-1.5 0.2-6.2 0.3-21.5 0.3z"/>
	<path class="st4" d="m682.1 238.7c0 0.2-9.3 0.3-20.7 0.3s-20.7-0.1-20.7-0.3 9.3-0.3 20.7-0.3 20.7 0.1 20.7 0.3z"/>
	<path class="st4" d="m661.4 239.5c-14.5 0-19.1-0.1-20.5-0.3-0.7-0.1-0.7-0.3-0.7-0.5s0-0.4 0.7-0.5c1.4-0.3 6-0.3 20.5-0.3s19.1 0.1 20.5 0.3c0.7 0.1 0.7 0.3 0.7 0.5s0 0.3-0.7 0.5c-1.4 0.2-6 0.3-20.5 0.3z"/>
	<path class="st4" d="m693.2 192.7c0 0.2-12.6 0.3-28.2 0.3s-28.2-0.1-28.2-0.3 12.6-0.3 28.2-0.3 28.2 0.2 28.2 0.3z"/>
	<path class="st4" d="m665.1 193.5c-7.5 0-14.6 0-19.9-0.1-8.7-0.1-8.7-0.1-8.7-0.7s0-0.6 8.7-0.7c5.3-0.1 12.4-0.1 19.9-0.1s14.6 0 19.9 0.1c8.7 0.1 8.7 0.1 8.7 0.7s0 0.6-8.7 0.7c-5.3 0.1-12.4 0.1-19.9 0.1z"/>
	<path class="st8" d="m701.5 129.5c0 0.2-20.4 0.3-45.5 0.3s-45.5-0.1-45.5-0.3 20.4-0.3 45.5-0.3 45.5 0.2 45.5 0.3z"/>
	<path d="m656 130.3c-12.2 0-23.6 0-32.2-0.1-8.7-0.1-11.9-0.1-13.1-0.2h-0.1c-0.6-0.1-0.6-0.2-0.6-0.5 0-0.2 0-0.4 0.6-0.5h0.1c1.2-0.2 4.4-0.2 13.1-0.2 8.6-0.1 20-0.1 32.2-0.1 12.1 0 23.6 0 32.2 0.1 8.7 0.1 11.9 0.1 13.1 0.2h0.1c0.6 0.1 0.6 0.2 0.6 0.5 0 0.2 0 0.4-0.6 0.5h-0.1c-1.2 0.2-4.4 0.2-13.1 0.2-8.6 0.1-20 0.1-32.2 0.1z"/>
	<path class="st4" d="m643.5 157.9c0 0.2-4.3 0.3-9.6 0.3s-9.6-0.1-9.6-0.3 4.3-0.3 9.6-0.3 9.6 0.2 9.6 0.3z"/>
	<path class="st4" d="m633.9 158.7c-10.1 0-10.1-0.2-10.1-0.8s0-0.8 10.1-0.8 10.1 0.2 10.1 0.8 0 0.8-10.1 0.8z"/>
	<path class="st4" d="m632.7 140.5c0 0.2-2 0.3-4.5 0.3s-4.5-0.1-4.5-0.3 2-0.3 4.5-0.3c2.4 0 4.5 0.2 4.5 0.3z"/>
	<path class="st4" d="m628.1 141.3c-5 0-5-0.3-5-0.8s0-0.8 5-0.8 5 0.3 5 0.8c0.1 0.5 0.1 0.8-5 0.8z"/>
	<path class="st4" d="m552.4 345.9 20.1-19.9-35.9-61.5c-3.7-4.3-8.5-7.6-13.8-9.6l-12.6-4.8-31.4-5.8-22.3 8.8c-5.6 2.2-9.1 8-8.4 14l5.8 49.2 3.4 64 81.1-14.1-8.2-23.7 0.3-36.9 21.9 40.3z"/>
	<path class="st8" d="m531 341c0.2 0 0.2-12.8 0.1-28.6s-0.4-28.6-0.6-28.6-0.2 12.8-0.1 28.6c0.2 15.8 0.4 28.6 0.6 28.6z"/>
	<path class="st4" d="m528.1 350.4-49-19.7c-4-1.6-6.7-5.3-7-9.5l-3.6-47s0.4-20-12.1-21l-7.1 2.8c-9.2 4.9-11.5 18.2-10.2 28.6 1.8 14.7 2.5 35.4 4.5 48.1 1.6 10.4 7.9 18.6 17.8 22.2l60.4 13.1 6.3-17.6z"/>
	<path class="st8" d="m469.2 281.3s0.1 0.4 0.2 1.1c0.1 0.8 0.2 1.8 0.3 3.1 0.3 2.8 0.6 6.6 1 11.4s0.9 10.6 1.5 16.9c0.1 1.6 0.3 3.2 0.4 4.9s0.2 3.4 0.6 5c0.4 1.7 1.2 3.2 2.4 4.4 1.3 1.2 2.9 2.1 4.5 2.8 13.5 5.8 26 10.7 35 14.1 4.5 1.7 8.1 3 10.7 4 1.2 0.5 2.2 0.8 2.9 1.1s1 0.4 1 0.4-0.4-0.1-1-0.3c-0.7-0.2-1.7-0.6-3-1-2.6-0.9-6.3-2.1-10.8-3.8-9.1-3.3-21.6-8-35.1-13.9-1.7-0.8-3.3-1.7-4.7-2.9-1.4-1.3-2.2-3-2.6-4.7s-0.5-3.5-0.6-5.1c-0.1-1.7-0.3-3.3-0.4-4.9-0.5-6.4-0.9-12.1-1.3-16.9-0.3-4.8-0.6-8.7-0.8-11.4-0.1-1.3-0.1-2.3-0.2-3.1-0.1-0.9-0.1-1.2 0-1.2z"/>
	<path class="st8" d="m441.1 306.8s0.1 0.2 0.1 0.6c0 0.5 0.1 1.1 0.2 1.8 0.1 1.7 0.3 3.9 0.6 6.7s0.6 6.2 1.1 9.9 1.1 7.8 2.2 11.9c0.5 2.1 1.3 4 2.4 5.7s2.4 3.2 3.7 4.5c2.6 2.7 5.4 4.6 7.8 5.9 5 2.6 8.7 2.6 8.6 2.8h-0.6c-0.4 0-1-0.1-1.8-0.2-1.6-0.3-3.8-0.9-6.4-2.2s-5.4-3.2-8.1-5.9c-1.3-1.3-2.6-2.9-3.8-4.6s-2-3.8-2.5-5.9c-1.1-4.2-1.7-8.3-2.2-12s-0.8-7.1-1-9.9-0.3-5.1-0.4-6.7v-1.8c0-0.4 0.1-0.6 0.1-0.6z"/>
	<path class="st8" d="m462 339.7c-0.1 0 0.1-1.1 0.9-2.6 0.7-1.5 2.1-3.5 4.1-5.3 2-1.7 4.2-2.8 5.8-3.2 1.6-0.5 2.7-0.5 2.7-0.5 0 0.1-1 0.3-2.6 0.9s-3.6 1.7-5.6 3.3c-1.9 1.7-3.3 3.5-4.1 5-0.7 1.5-1.1 2.4-1.2 2.4z"/>
	<g class="st2">
		<path d="m514 344.8c-5.2-3-10.4-5.2-15.9-7.7s-10.8-5.7-14.4-10.5c-6.8-9.1-6-22.3-12.9-31.3 0.5 6.1 0.9 12.1 1.4 18.2 0.4 5.5-0.4 11 3.1 14.8 3 3.2 8.9 5.6 13 7 8.3 2.6 17.3 6.7 25.7 9.5"/>
	</g>
	<polygon class="st2" points="530.6 287.3 534.8 313.5 530.8 306.1"/>
	<path class="st7" d="m467.7 271.2s-0.4 0.1-1.1 0.1c-0.8 0-1.9 0-3.1 0.1-2.6 0.1-6.2 0.2-10.2 0.5s-7.6 0.7-10.1 1c-1.2 0.1-2.2 0.3-3.1 0.4-0.7 0.1-1.1 0.1-1.1 0.1s0.4-0.1 1.1-0.3c0.7-0.1 1.8-0.3 3.1-0.5 2.6-0.4 6.2-0.8 10.2-1.1s7.6-0.4 10.2-0.3c1.3 0 2.4 0 3.1 0.1 0.6-0.2 1-0.1 1-0.1z"/>
	<path class="st7" d="m469.1 296.2c0 0.1-6.4 0.8-14.4 1.4-7.9 0.7-14.4 1.1-14.4 0.9 0-0.1 6.4-0.8 14.4-1.4 7.9-0.6 14.4-1 14.4-0.9z"/>
	<path class="st7" d="m471.4 322.5s-0.3 0.2-1 0.6c-0.7 0.3-1.7 0.8-2.9 1.3-2.5 1.1-6 2.3-10 3.2s-7.7 1.3-10.4 1.4c-1.3 0.1-2.4 0.1-3.2 0-0.8 0-1.2-0.1-1.2-0.1s0.4-0.1 1.2-0.1c0.7 0 1.8-0.1 3.2-0.2 2.7-0.2 6.3-0.6 10.3-1.5s7.5-2.1 10-3c1.3-0.5 2.3-0.9 2.9-1.2 0.7-0.3 1.1-0.4 1.1-0.4z"/>
	<path class="st7" d="m488.9 336c0.1 0.1-2.6 1.3-4.9 3.9s-3.2 5.3-3.4 5.2c-0.1 0 0.1-0.7 0.5-1.8 0.5-1.1 1.3-2.5 2.5-3.8s2.5-2.3 3.5-2.8c1.1-0.5 1.7-0.7 1.8-0.7z"/>
	<path class="st7" d="m506.6 353.4c-0.1 0 0.4-2.5 1.9-5.2s3.2-4.5 3.3-4.4-1.4 2-2.9 4.7c-1.4 2.6-2.1 4.9-2.3 4.9z"/>
	<path class="st7" d="m478.7 256.5c0 0.1-3.1 0.8-6.9 1.5-3.9 0.7-7 1.1-7 1s3.1-0.8 6.9-1.5 6.9-1.2 7-1z"/>
	<path class="st7" d="m525.6 258.6c0 0.1-4.3-0.3-9.6-0.9s-9.6-1.3-9.6-1.4 4.3 0.3 9.6 0.9 9.6 1.3 9.6 1.4z"/>
	<path class="st7" d="m529.6 280.4h-0.6-1.8-6.5c-5.5 0-13 0-21.3 0.3-8.3 0.2-15.9 0.6-21.3 0.8-2.7 0.1-4.9 0.3-6.5 0.3-0.7 0-1.3 0.1-1.8 0.1h-0.6s0.2-0.1 0.6-0.1c0.5 0 1-0.1 1.8-0.2 1.5-0.1 3.7-0.3 6.5-0.5 5.5-0.4 13-0.8 21.3-1s15.9-0.2 21.3-0.1c2.7 0 4.9 0.1 6.5 0.2 0.7 0 1.3 0.1 1.8 0.1 0.4 0.1 0.6 0.1 0.6 0.1z"/>
	<path class="st7" d="m530.2 308.1c0 0.1-12.9 1.1-28.7 2.2-15.9 1-28.7 1.8-28.8 1.6 0-0.1 12.8-1.1 28.7-2.2 15.9-1 28.8-1.8 28.8-1.6z"/>
	<path class="st7" d="m528.8 332.4s-0.4 0.2-1.1 0.5-1.7 0.6-3 1c-2.6 0.8-6.2 1.9-10.2 2.9s-7.7 1.7-10.4 2.1c-1.3 0.2-2.4 0.4-3.2 0.4-0.8 0.1-1.2 0.1-1.2 0.1s0.4-0.1 1.1-0.3c0.8-0.2 1.9-0.4 3.1-0.6 2.6-0.5 6.3-1.3 10.3-2.2 4-1 7.6-2 10.2-2.7 1.2-0.4 2.2-0.6 3.1-0.9 0.9-0.2 1.3-0.3 1.3-0.3z"/>
	<path class="st7" d="m549.4 288.3c0 0.1-4.1 1.3-9.3 2.7-5.2 1.3-9.4 2.3-9.5 2.2 0-0.1 4.1-1.3 9.3-2.7s9.4-2.4 9.5-2.2z"/>
	<path class="st7" d="m539.6 269.6c0 0.1-1.8 0.6-4.1 1s-4.2 0.6-4.2 0.5 1.8-0.6 4.1-1c2.2-0.4 4.1-0.6 4.2-0.5z"/>
	<path class="st8" d="m469.3 275.4c-0.1 0-0.3-1.7-1.2-4.2s-2.7-5.8-5.7-8.6c-3-2.7-6.5-4.2-9.1-4.8s-4.3-0.6-4.3-0.7c0 0 0.4-0.1 1.2 0 0.8 0 1.9 0.1 3.2 0.4 2.6 0.5 6.3 2 9.4 4.8s4.9 6.2 5.7 8.8c0.4 1.3 0.6 2.4 0.7 3.1 0.1 0.8 0.1 1.2 0.1 1.2z"/>
	<path class="st8" d="m527.7 262.1c0.1 0 0.9 4.1 1.7 9.1 0.8 5.1 1.4 9.2 1.2 9.2-0.1 0-0.9-4.1-1.7-9.1-0.8-5.1-1.3-9.2-1.2-9.2z"/>
	<path class="st4" d="m582.4 409.5s37.7 10.4 39.2 11c2.3 0.8 1.9 9.1-1.6 9-1.7-0.1-28.9 1-32.4 0.8-3.4-0.2-13.8-4.3-13.8-4.3l8.6-16.5z"/>
	<path class="st8" d="m598 423.8c0.2 0 0.4-2 1.7-4 1.2-2.1 2.8-3.3 2.7-3.5-0.1-0.1-1.9 0.9-3.2 3.2-1.3 2.2-1.3 4.3-1.2 4.3z"/>
	<path class="st8" d="m594.1 422c0.2 0 0.6-1.7 1.6-3.7s2.2-3.3 2.1-3.5c-0.1-0.1-1.6 1.1-2.6 3.2-1.1 2.1-1.2 4-1.1 4z"/>
	<path class="st8" d="m590.4 421.1c0.2 0 0-1.9 0.9-4 0.8-2.1 2.2-3.4 2.1-3.5s-1.8 1-2.6 3.3c-1 2.2-0.5 4.2-0.4 4.2z"/>
	<path class="st8" d="m591.1 416.2c0.1 0 0.4-1 0.4-2.8 0-0.9-0.1-1.9-0.4-3.1-0.1-0.6-0.3-1.2-0.6-1.7-0.1-0.3-0.3-0.6-0.6-0.9-0.4-0.3-1-0.3-1.3 0.1-0.3 0.3-0.5 0.7-0.5 1.1 0 0.3-0.1 0.7 0 1 0 0.6 0.1 1.3 0.2 1.8 0.3 1.2 0.7 2.1 1.2 2.9 0.9 1.5 1.6 2.3 1.7 2.3 0.1-0.1-0.5-0.9-1.3-2.5-0.4-0.8-0.8-1.7-1-2.8-0.1-0.5-0.2-1.1-0.2-1.7s0-1.3 0.3-1.6c0.2-0.1 0.3-0.2 0.5 0 0.2 0.1 0.3 0.4 0.4 0.7 0.2 0.6 0.4 1.1 0.6 1.7 0.3 1.1 0.4 2.1 0.5 2.9 0.2 1.5 0 2.6 0.1 2.6z"/>
	<path class="st8" d="m591.1 415.8c0-0.1-0.9-0.4-2.4-0.4-0.8 0-1.7 0.1-2.7 0.3-0.5 0.1-1 0.3-1.5 0.6s-1.1 1-0.9 1.7 0.8 1.2 1.4 1.3c0.6 0.2 1.2 0.1 1.7 0 1-0.2 1.8-0.7 2.4-1.2 1.2-0.9 1.8-1.7 1.8-1.7-0.1-0.1-0.8 0.5-2 1.4-0.6 0.4-1.4 0.8-2.3 1-0.5 0.1-1 0.1-1.4 0s-0.8-0.5-0.9-0.9 0.1-0.8 0.6-1.1c0.4-0.3 0.9-0.4 1.4-0.5 0.9-0.3 1.8-0.4 2.5-0.4 1.3-0.1 2.2 0 2.3-0.1z"/>
	<path class="st8" d="m603.8 424.2c0.2 0 0-1.6 0.7-3.4s2-2.8 1.8-2.9c-0.1-0.2-1.6 0.7-2.4 2.7-0.7 2-0.2 3.7-0.1 3.6z"/>
	<path class="st8" d="m577.5 426s0.5 0.3 1.5 0.7 2.4 0.9 4.2 1.3c3.6 0.9 8.7 1.4 14.4 1.4 5.6-0.1 10.7-0.3 14.4-0.5 1.7-0.1 3.2-0.2 4.4-0.2 1-0.1 1.6-0.1 1.6-0.2 0 0-0.6-0.1-1.6-0.1h-4.4c-3.8 0.1-8.8 0.2-14.4 0.3s-10.7-0.4-14.3-1.2c-3.6-0.7-5.7-1.6-5.8-1.5z"/>
	<path class="st8" d="m576.4 426.8c0.1 0.1 1.1-0.5 2.8-1.3 1.7-0.7 4.3-1.6 7.1-1.2s4.9 2.3 6.2 3.7 2.1 2.3 2.2 2.2c0.1 0-0.6-1-1.8-2.5-0.6-0.7-1.4-1.6-2.5-2.3-1-0.8-2.4-1.4-3.9-1.7-3-0.5-5.7 0.5-7.4 1.4-1.8 0.9-2.7 1.7-2.7 1.7z"/>
	<path class="st4" d="m537.8 400.7s-35.7 23.3-36.9 24.3c-1.9 1.5 0.3 8.4 3.6 7.2 1.6-0.6 31.5-8.9 34.7-10.1 3.2-1.3 11.9-8.3 11.9-8.3l-13.3-13.1z"/>
	<path class="st8" d="m527.2 419.2c0.2 0-0.5-2.1-2.4-3.8s-4-2.2-4-2c-0.1 0.2 1.8 0.9 3.6 2.5 1.8 1.5 2.6 3.4 2.8 3.3z"/>
	<path class="st8" d="m530.4 416.3c0.2-0.1-0.5-1.9-2.2-3.5-1.6-1.7-3.4-2.4-3.5-2.2s1.5 1.1 3 2.7c1.6 1.5 2.5 3.1 2.7 3z"/>
	<path class="st8" d="m533.6 414.2c0.2 0 0-2-1.6-3.9-1.5-1.9-3.5-2.5-3.5-2.3-0.1 0.2 1.6 1 3 2.7 1.5 1.7 1.9 3.6 2.1 3.5z"/>
	<path class="st8" d="m531.5 409.8c0.1 0-0.4-1-0.8-2.7-0.2-0.8-0.4-1.8-0.4-3v-1.8c0-0.3 0.1-0.6 0.2-0.8s0.3-0.2 0.5-0.1c0.4 0.2 0.6 0.9 0.8 1.4 0.2 0.6 0.3 1.1 0.3 1.7 0.1 1.1 0 2.1-0.1 3-0.2 1.7-0.6 2.7-0.5 2.8 0.1 0 0.6-1 0.9-2.7 0.2-0.9 0.3-1.9 0.2-3.1 0-0.6-0.2-1.2-0.3-1.8l-0.3-0.9c-0.1-0.3-0.4-0.7-0.8-0.9s-1-0.1-1.3 0.3c-0.2 0.4-0.3 0.7-0.3 1.1v1.8c0.1 1.2 0.3 2.2 0.6 3 0.6 1.8 1.2 2.7 1.3 2.7z"/>
	<path class="st8" d="m531.4 409.4c0 0.1 0.9-0.3 2.3-0.7 0.7-0.2 1.6-0.3 2.6-0.3 0.5 0 1 0 1.5 0.1s0.8 0.4 0.9 0.8c0 0.4-0.2 0.9-0.6 1.1-0.4 0.3-0.9 0.4-1.3 0.4-0.9 0.1-1.8-0.1-2.5-0.3-1.4-0.4-2.3-0.8-2.3-0.7s0.8 0.6 2.2 1.1c0.7 0.3 1.6 0.5 2.7 0.4 0.5 0 1.1-0.2 1.6-0.5s0.9-1 0.9-1.7c0-0.8-0.8-1.3-1.3-1.4-0.6-0.1-1.1-0.1-1.6-0.1-1 0.1-1.9 0.3-2.6 0.5-1.8 0.7-2.5 1.2-2.5 1.3z"/>
	<path class="st8" d="m509 430.9c0 0.1 0.6-0.4 0.9-1.4s0.1-2.5-0.7-3.9c-0.4-0.7-0.8-1.3-1.2-1.8s-0.8-1-1.2-1.3-0.8-0.5-1.1-0.5-0.5 0.1-0.4 0.1c0 0.1 0.6 0.1 1.3 0.7 0.3 0.3 0.7 0.8 1 1.3 0.4 0.5 0.8 1.1 1.1 1.7 0.7 1.3 0.9 2.6 0.8 3.5-0.2 1-0.6 1.5-0.5 1.6z"/>
	<path class="st8" d="m521.8 421.3c0.2 0 0.1-1.8-1.3-3.4s-3.1-2-3.1-1.8c-0.1 0.2 1.4 0.8 2.7 2.2 1.2 1.5 1.5 3.1 1.7 3z"/>
	<path class="st8" d="m547.4 415s-0.6 0.4-1.6 1.1-2.5 1.7-4.4 2.7-4.3 2.1-7 3.1-5.7 2-8.9 2.9c-6.4 1.8-12.2 3.5-16.4 4.8-2 0.6-3.7 1.1-5 1.5-1.2 0.4-1.8 0.6-1.8 0.6s0.7-0.1 1.9-0.4c1.3-0.3 3-0.8 5-1.3 4.2-1.2 10-2.8 16.5-4.6 3.2-0.9 6.2-1.9 9-2.9 2.7-1 5.1-2.2 7-3.3s3.4-2.1 4.3-2.9 1.4-1.3 1.4-1.3z"/>
	<path class="st8" d="m548.7 415.5c0-0.1-1.1-0.5-3-0.8s-4.7-0.5-7.5 0.9c-1.4 0.7-2.4 1.7-3.2 2.8-0.8 1-1.3 2.1-1.7 3-0.8 1.8-1.1 2.9-1 3 0.1 0 0.6-1.1 1.4-2.8s2.2-4.1 4.8-5.4 5.3-1.2 7.2-1c1.8 0.1 3 0.4 3 0.3z"/>
	<path class="st8" d="m611.9 342.3s10.7 3.8 10.7 15.8c0.1 23-46.4 48.3-46.4 48.3l-61.9-41-3.9-1.6c0 0.1 83.6-31.3 101.5-21.5z"/>
	<path class="st7" d="m545.7 386.1s0.6-0.4 1.6-1.1 2.5-1.8 4.2-3.2c3.5-2.7 8.4-6.6 13.6-11.1s9.8-8.6 13-11.7c1.6-1.5 2.9-2.8 3.8-3.7s1.4-1.4 1.3-1.4c0 0-0.6 0.4-1.5 1.2-1 0.9-2.3 2.1-3.9 3.6-3.3 3-7.9 7.1-13.1 11.6-5.2 4.4-9.9 8.4-13.4 11.2-1.7 1.4-3.1 2.5-4.1 3.4-1 0.7-1.6 1.2-1.5 1.2z"/>
	<path class="st7" d="m594.4 350.9c0-0.2-2.7-0.4-6 0.5-3.2 0.9-5.4 2.7-5.3 2.8 0.1 0.2 2.4-1.3 5.5-2.2s5.8-0.9 5.8-1.1z"/>
	<path class="st7" d="m589.1 347.3c-0.1-0.1-2 0.7-3.7 2.8-1.6 2-2.1 4.1-1.9 4.2s0.9-1.9 2.4-3.8c1.5-2 3.3-3 3.2-3.2z"/>
	<path class="st8" d="m615.3 420c0-0.1-0.7-0.2-1.6 0.5-0.8 0.7-1.6 2-1.8 3.6s0.1 3 0.6 4c0.4 0.9 0.9 1.4 1 1.3s-0.3-0.6-0.6-1.5-0.6-2.3-0.4-3.7 0.8-2.7 1.5-3.3c0.6-0.7 1.3-0.8 1.3-0.9z"/>
	<path class="st0" d="m607.5 309.7-17.6 47.4c-1 2.7-3.6 4.5-6.5 4.5l-96.9-1.3v-7.4l36 1.3 15.3-47.3c0.5-1.6 2-2.7 3.7-2.7l62.5 0.2c2.6 0 4.5 2.8 3.5 5.3z"/>
	<path class="st8" d="m607.5 309.7v-0.1c0-0.1 0.1-0.2 0.1-0.4 0.1-0.4 0.2-1 0-1.8s-0.7-1.7-1.7-2.3c-0.5-0.3-1.1-0.5-1.8-0.6h-2.2-26.1-18.3-10.3-5.4c-0.9 0-1.8 0.1-2.6 0.6s-1.3 1.2-1.6 2.1c-4.6 14.3-9.7 30.2-15.2 47.3v0.1h-0.1c-11.5-0.4-23.5-0.9-36-1.3l0.2-0.2v1.3 6l-0.2-0.2c21.7 0.3 42.3 0.6 60.9 0.8 9.3 0.1 18.2 0.2 26.5 0.4 2.1 0 4.1 0.1 6.1 0.1h3c1 0 1.9-0.1 2.8-0.4 1.8-0.7 3.2-2.1 3.9-3.7 0.6-1.7 1.3-3.4 1.9-5.1 4.9-13.2 8.9-23.8 11.6-31.2 1.4-3.7 2.4-6.5 3.2-8.4 0.9-2 1.3-3 1.3-3s-0.4 1-1.1 3c-0.7 1.9-1.8 4.8-3.1 8.5-2.7 7.4-6.7 18-11.5 31.2-0.6 1.6-1.2 3.3-1.9 5.1-0.7 1.7-2.2 3.2-4 3.9-0.9 0.3-1.9 0.5-2.9 0.4h-3c-2 0-4-0.1-6.1-0.1-8.3-0.1-17.2-0.2-26.5-0.3-18.7-0.2-39.3-0.5-60.9-0.8h-0.2v-0.2-6-1.3-0.2h0.2c12.4 0.5 24.5 0.9 36 1.3l-0.2 0.1c5.5-17 10.6-32.9 15.3-47.2 0.3-0.9 0.9-1.7 1.7-2.2s1.8-0.7 2.7-0.6h5.4 10.3c6.6 0 12.7 0 18.3 0.1 11.1 0.1 20 0.1 26.1 0.1h2.2c0.7 0 1.3 0.3 1.8 0.6 1 0.6 1.5 1.6 1.7 2.3 0.2 0.8 0.1 1.4 0 1.8-0.3 0.3-0.3 0.5-0.3 0.5z"/>
	<path class="st1" d="m564.5 327.6c1.3-0.9 3.6-0.5 4.7 0.5s1.5 2.8 0.9 4.2-2 2.4-3.5 2.5c-1.6 0.1-3.3-0.9-3.7-2.5-0.5-1.5 0-3.9 1.6-4.7"/>
	<path class="st8" d="m586.6 409s-87.3-55.9-91.2-58.1c-3.3-1.9-12.1-7.3-20.7-4.9-8.7 2.4-16.4 10.1-20.3 21.5-2.2 6.5-3.3 17.5-3.8 25.8-0.6 9.9 2.5 19.8 9 27.3 2.9 3.4 6.6 6.4 10.9 7.7 0.9 0.3 1.9 0.5 2.8 0.7 16.5 3.6 33.5-3.8 42.8-18l2-3.1s57.2 21 58.1 20.7l10.4-19.6z"/>
	<path class="st7" d="m499.9 354s-0.1 0-0.2-0.1c-0.2-0.1-0.4-0.2-0.6-0.4-0.5-0.4-1.3-0.9-2.4-1.6-2.1-1.3-5.1-3.2-9.3-4.7-2.1-0.7-4.4-1.3-7-1.5-2.6-0.1-5.3 0.3-8 1.3s-5.3 2.6-7.7 4.7c-1.2 1-2.4 2.2-3.4 3.4-1.1 1.2-2 2.6-2.8 4-1.7 2.9-2.9 6-3.8 9-0.8 3-1.5 6.1-2.1 8.9-1.2 5.7-1.9 10.9-2 15.3s0.4 8 0.8 10.4c0.2 1.2 0.4 2.2 0.5 2.8 0.1 0.3 0.1 0.5 0.1 0.7v0.3s0-0.1-0.1-0.2c-0.1-0.2-0.1-0.4-0.2-0.7-0.2-0.6-0.4-1.6-0.6-2.8-0.5-2.4-1-6-1-10.4s0.7-9.7 1.9-15.4c0.6-2.9 1.3-5.8 2.1-8.9 0.9-3.1 2.1-6.2 3.8-9.1 0.8-1.5 1.8-2.9 2.9-4.1s2.3-2.4 3.5-3.4c2.4-2.1 5.1-3.7 7.9-4.7s5.6-1.4 8.2-1.3c2.6 0.2 5 0.8 7.1 1.6 4.2 1.6 7.2 3.5 9.3 4.9 1 0.7 1.8 1.3 2.3 1.7 0.2 0.2 0.4 0.3 0.6 0.5 0.2-0.3 0.3-0.2 0.2-0.2z"/>
	<path class="st7" d="m478.5 393.2s0.2 0.1 0.5 0.2 0.8 0.3 1.4 0.6c1.3 0.5 3.2 1.2 5.5 2.1 4.9 1.8 11.9 4.5 20.6 7.8 8.8 3.3 19.2 7.1 31 11.4s24.8 9 38.7 13.7l0.3 0.1 0.1-0.2c2.2-4.2 4.5-8.6 6.8-13 1.2-2.3 2.4-4.5 3.5-6.7l0.1-0.3-0.2-0.2c-26.3-16.7-49.7-31.6-66.7-42.3-8.5-5.3-15.3-9.6-20-12.6-2.3-1.5-4.2-2.6-5.4-3.4-0.6-0.4-1.1-0.7-1.4-0.9s-0.5-0.3-0.5-0.3 0.2 0.1 0.5 0.3 0.8 0.5 1.4 0.9c1.3 0.8 3.1 2 5.4 3.5 4.7 3 11.5 7.4 19.9 12.8 16.9 10.8 40.4 25.8 66.6 42.5l-0.1-0.4c-1.1 2.1-2.3 4.4-3.5 6.7-2.3 4.5-4.6 8.9-6.8 13l0.4-0.2c-13.9-4.7-27-9.4-38.7-13.6-11.8-4.3-22.3-8.1-31-11.3s-15.8-5.8-20.7-7.6c-2.4-0.9-4.3-1.6-5.6-2-0.6-0.2-1.1-0.4-1.5-0.5-0.5 0-0.6-0.1-0.6-0.1z"/>
	<path d="m483 207.6c-1.5-3-3.1-6-3.9-9.3s-0.9-6.8 0.5-9.9c0.8-1.8 2.1-3.4 2.7-5.2 0.9-2.6 0.5-5.6 2.1-7.8 2.5-3.4 7.8-2.6 11.6-4.4 3-1.4 5.1-4.4 8.2-5.4 2.7-0.9 5.7 0 8.4 1.1 2.6 1.1 5.2 2.6 8.1 2.9 2 0.3 4.1 0 6.1 0 2.1 0 4.2 0.5 5.7 2 1.4 1.5 1.7 4.1 0.2 5.5 3.6-0.6 7 3 6.9 6.6 0 3.6-2.8 6.8-6.1 8.4-3.3 1.5-7.1 1.6-10.7 1.3-10.3-0.8-20.6-4.7-27.6-12.3"/>
	<path class="st10" d="m485.2 194.8-7 50.8c-1.2 8.6 5.1 16.5 13.8 17.3 8.1 0.7 15.4-5.1 16.5-13.2 0.5-3.8 1-7 1-7.4 0 0 13.1 0.6 15.8-12.1 1.3-6.1 3-19 4.3-30.6 1.5-12.5-6.9-24-19.3-26.5l-1.2-0.2c-13.3-1.9-22.4 8.5-23.9 21.9z"/>
	<path class="st11" d="m509.6 242.2s-8.2-1-15.6-8c0 0 2.1 9.9 15 11.3l0.6-3.3z"/>
	<path class="st8" d="m523.9 210.4c-0.2 1-1.1 1.6-2.1 1.5s-1.7-1-1.5-2 1.1-1.6 2.1-1.5c1 0.2 1.7 1.1 1.5 2z"/>
	<path class="st8" d="m525.7 205.3c-0.3 0.2-1.4-1.1-3.4-1.5-1.9-0.4-3.6 0.3-3.7 0-0.1-0.1 0.2-0.5 0.9-0.8s1.8-0.6 3.1-0.3c1.2 0.2 2.2 0.9 2.6 1.5 0.5 0.6 0.6 1 0.5 1.1z"/>
	<path class="st8" d="m505.7 207.3c-0.2 1-1.1 1.6-2.1 1.5s-1.7-1-1.5-2 1.1-1.6 2.1-1.5 1.7 1 1.5 2z"/>
	<path class="st8" d="m506.4 201.9c-0.3 0.2-1.4-1.1-3.4-1.5-1.9-0.4-3.6 0.3-3.7 0-0.1-0.1 0.2-0.5 0.9-0.8s1.8-0.6 3.1-0.3c1.2 0.3 2.1 0.9 2.6 1.5 0.5 0.5 0.6 1 0.5 1.1z"/>
	<path class="st8" d="m510.6 217.8c0-0.1 1.3-0.1 3.3 0.1 0.5 0 1 0 1.2-0.3s0.1-0.9 0-1.5c-0.2-1.3-0.5-2.7-0.7-4.1-1-5.8-1.6-10.6-1.3-10.6 0.2 0 1.2 4.6 2.2 10.5 0.2 1.4 0.4 2.8 0.6 4.1 0.1 0.6 0.3 1.3-0.1 2-0.2 0.3-0.6 0.5-1 0.6-0.3 0-0.6 0-0.9-0.1-2.1-0.4-3.3-0.6-3.3-0.7z"/>
	<path class="st8" d="m504.6 218c0.3 0-0.1 2.2 1.4 4 1.5 1.9 3.8 2.1 3.8 2.4 0 0.1-0.6 0.3-1.5 0.1s-2.2-0.7-3.2-1.9c-0.9-1.1-1.2-2.5-1.1-3.4 0.1-0.8 0.4-1.3 0.6-1.2z"/>
	<path d="m508.4 194.3c-0.3 0.5-2.2-0.1-4.5-0.3s-4.3 0.1-4.5-0.5c-0.1-0.3 0.3-0.7 1.2-1.1 0.8-0.4 2.1-0.6 3.5-0.5s2.6 0.6 3.4 1.1c0.7 0.6 1 1.1 0.9 1.3z"/>
	<path d="m526.1 199.5c-0.4 0.4-1.7-0.4-3.3-0.7-1.6-0.4-3-0.3-3.3-0.8-0.1-0.3 0.2-0.7 0.9-1s1.7-0.4 2.8-0.2c1.1 0.3 2 0.9 2.5 1.4 0.5 0.6 0.6 1.1 0.4 1.3z"/>
	<path class="st10" d="m484.4 204.4c-0.2-0.1-8.2-4.3-9.7 4.4s7.6 8.4 7.7 8.2c0-0.3 2-12.6 2-12.6z"/>
	<path class="st11" d="m480.2 213.2-0.4 0.2c-0.3 0.1-0.7 0.1-1.1-0.2-0.9-0.5-1.4-2.1-1.2-3.7 0.1-0.8 0.4-1.5 0.8-2.1s0.9-1 1.3-1c0.5 0 0.8 0.3 0.8 0.6 0.1 0.3 0 0.4 0 0.5 0 0 0.2-0.1 0.2-0.5 0-0.2-0.1-0.4-0.3-0.6s-0.5-0.3-0.8-0.4c-0.7-0.1-1.4 0.5-1.8 1.1-0.5 0.6-0.8 1.5-0.9 2.4-0.2 1.8 0.4 3.6 1.6 4.1 0.6 0.3 1.1 0.2 1.4 0 0.4-0.2 0.5-0.4 0.4-0.4z"/>
	<path d="m532.2 187.8c-1.5 3.2-9.2 4.5-14.9 2.8-5.2-1.6-7.1-4.9-10.4-7.8-2.1-1.8-2.1-1.8-5.5-2.2-2.8-0.3-5 2.5-7.1 4.3 1.2 7-1.9 13.8-4.9 20.2-0.3 0.7-0.7 1.5-1.4 1.8-1.2 0.6-2.6-0.3-3.3-1.5-1.1-1.8-1.3-4-1.2-6.1 0.1-4.8 0.9-9.7 2.9-14.1s5.1-8.4 9.1-11c5.1-3.2 11.5-4.2 17.4-2.9s11.2 4.6 15.3 9.2c1.7 2.2 3.3 4.6 4 7.3"/>
	<path class="st1" d="m536.2 179.5s0 0.3-0.1 0.8c-0.2 0.5-0.6 1.2-1.3 1.9-0.7 0.6-1.9 1.1-3.1 1.3-1.3 0.2-2.7 0-4.2-0.2-2.9-0.4-5.5-1-7.4-1.5-0.9-0.2-1.7-0.5-2.2-0.6-0.2-0.1-0.4-0.1-0.6-0.2-0.1 0-0.2-0.1-0.2-0.1h0.2c0.2 0 0.4 0.1 0.6 0.2 0.6 0.2 1.4 0.3 2.2 0.6 1.9 0.5 4.5 1 7.4 1.4 1.5 0.2 2.9 0.4 4.1 0.2 1.3-0.1 2.3-0.6 3.1-1.2 0.7-0.6 1.2-1.3 1.3-1.8 0.2-0.5 0.2-0.8 0.2-0.8z"/>
	<path class="st1" d="m538.2 181.5s-0.1 1-0.7 2.4-2 3.2-4 4.5c-2.1 1.2-4.3 1.5-5.8 1.4-1.6-0.1-2.5-0.5-2.5-0.5s0.2 0 0.7 0.1c0.4 0.1 1 0.2 1.8 0.2 1.5 0.1 3.7-0.3 5.7-1.5s3.3-3 4-4.4c0.3-0.7 0.6-1.3 0.7-1.7 0-0.3 0.1-0.5 0.1-0.5z"/>
</svg>