<svg xmlns="http://www.w3.org/2000/svg" viewBox="0 0 576 340"><defs><style>.cls-1{fill:#bbb;}.cls-2{fill:#c58836;}.cls-3{fill:#fff;}.cls-4{fill:#455a64;}.cls-5{fill:#e1e1e1;}.cls-6{fill:#263238;}.cls-7{fill:#c78976;}.cls-8{fill:#b66955;}.cls-9{fill:#fafafa;}.cls-10{fill:none;}</style></defs><g id="Layer_2" data-name="Layer 2"><g id="standard"><path class="cls-1" d="M209.2,86.88c0-6.58-8.25-12.82-20.89-16.69,2.92-12.89,1.62-23.14-4.09-26.42a8.9,8.9,0,0,0-4.54-1.13v4.51a4.75,4.75,0,0,1,2.31.53c2.75,1.58,3.95,7.6,3,15.34A60.08,60.08,0,0,1,184,69a97.44,97.44,0,0,0-12.86-2.2,98,98,0,0,0-8.43-10.13c6.61-6.14,12.81-9.51,17-9.51V42.62h0c-5.57,0-12.87,4-20.24,10.86-7.37-6.85-14.67-10.78-20.24-10.78v4.52c4.19,0,10.41,3.34,17,9.44a94.91,94.91,0,0,0-8.37,10.11A94,94,0,0,0,135,69c-.47-2-.81-4-1.06-5.87-1-7.74.23-13.76,3-15.36a4.57,4.57,0,0,1,2.33-.52V42.72h0a9,9,0,0,0-4.58,1.13c-5.69,3.28-7,13.52-4,26.36C118,74.1,109.8,80.32,109.8,86.88s8.25,12.83,20.89,16.7c-2.92,12.88-1.62,23.14,4.09,26.42a8.92,8.92,0,0,0,4.56,1.13c5.57,0,12.87-4,20.24-10.86,7.38,6.85,14.67,10.78,20.24,10.78a9,9,0,0,0,4.58-1.13c5.69-3.29,7-13.52,4-26.36C201,99.69,209.2,93.45,209.2,86.88ZM182.82,73.37c-.75,2.61-1.68,5.31-2.74,8-.83-1.62-1.7-3.24-2.65-4.86s-1.92-3.2-2.92-4.74C177.39,72.2,180.17,72.72,182.82,73.37ZM173.54,95c-1.58,2.73-3.2,5.33-4.88,7.74-3,.26-6.08.4-9.16.4s-6.12-.14-9.12-.38c-1.68-2.41-3.32-5-4.9-7.7s-2.94-5.35-4.21-8.06c1.25-2.72,2.67-5.43,4.19-8.09s3.2-5.33,4.88-7.74c3-.26,6.08-.4,9.16-.4s6.12.14,9.12.38c1.68,2.41,3.32,5,4.9,7.7s2.94,5.35,4.21,8.06C176.46,89.58,175.06,92.29,173.54,95Zm6.54-2.64a85.21,85.21,0,0,1,2.8,8.07c-2.65.65-5.45,1.19-8.35,1.62,1-1.56,2-3.16,2.92-4.8S179.25,93.93,180.08,92.31Zm-20.54,21.62a82.66,82.66,0,0,1-5.63-6.48c1.82.08,3.69.14,5.57.14s3.79,0,5.63-.14A76.49,76.49,0,0,1,159.54,113.93ZM144.47,102c-2.88-.43-5.65-1-8.31-1.6.75-2.62,1.68-5.31,2.74-8,.83,1.62,1.7,3.24,2.65,4.86S143.47,100.46,144.47,102Zm15-42.16a82.66,82.66,0,0,1,5.63,6.48c-1.82-.08-3.69-.14-5.57-.14s-3.79,0-5.63.14A78.36,78.36,0,0,1,159.44,59.84Zm-15,11.93c-1,1.56-2,3.16-2.92,4.8s-1.8,3.24-2.63,4.86a85,85,0,0,1-2.8-8.06C138.75,72.74,141.55,72.2,144.45,71.77ZM126.11,97.14c-7.17-3.06-11.81-7.07-11.81-10.26s4.64-7.21,11.81-10.25c1.74-.75,3.65-1.42,5.61-2a98.49,98.49,0,0,0,4.56,12.33,97.8,97.8,0,0,0-4.5,12.28C129.78,98.57,127.87,97.89,126.11,97.14Zm10.9,29c-2.75-1.58-3.95-7.6-3-15.34.23-1.9.59-3.91,1-6A95.79,95.79,0,0,0,147.89,107a99,99,0,0,0,8.43,10.13c-6.61,6.14-12.8,9.5-17,9.5A4.9,4.9,0,0,1,137,126.09Zm48.06-15.44c1,7.74-.22,13.76-3,15.36a4.57,4.57,0,0,1-2.33.52c-4.19,0-10.41-3.34-17-9.44A94.7,94.7,0,0,0,171.13,107,92.84,92.84,0,0,0,184,104.75,58,58,0,0,1,185.07,110.65Zm7.8-13.51c-1.74.75-3.65,1.41-5.61,2a99.19,99.19,0,0,0-4.56-12.34,97.12,97.12,0,0,0,4.5-12.27c2,.62,3.91,1.31,5.69,2.06,7.17,3.06,11.81,7.07,11.81,10.25S200,94.1,192.87,97.14Z"/><circle class="cls-1" cx="159.48" cy="86.88" r="9.26"/><path class="cls-1" d="M110.21,108.57c0-2.6-3.26-5.07-8.26-6.6,1.15-5.09.64-9.14-1.62-10.44a3.45,3.45,0,0,0-1.79-.45v1.79a1.91,1.91,0,0,1,.91.2c1.09.63,1.56,3,1.2,6.07-.09.75-.24,1.54-.41,2.35a39.33,39.33,0,0,0-5.09-.87,39.37,39.37,0,0,0-3.33-4c2.61-2.42,5.06-3.75,6.73-3.75V91.07h0c-2.2,0-5.09,1.57-8,4.3-2.92-2.71-5.8-4.27-8-4.27v1.79c1.65,0,4.11,1.32,6.72,3.73a37.8,37.8,0,0,0-3.3,4,37.54,37.54,0,0,0-5.1.88c-.18-.8-.32-1.58-.41-2.32-.38-3.06.08-5.44,1.17-6.07a1.72,1.72,0,0,1,.92-.21V91.11h0a3.57,3.57,0,0,0-1.81.45C78.49,92.86,78,96.9,79.14,102c-5,1.54-8.22,4-8.22,6.59s3.26,5.07,8.25,6.6c-1.15,5.09-.64,9.15,1.62,10.44a3.46,3.46,0,0,0,1.8.45c2.21,0,5.09-1.57,8-4.29,2.92,2.71,5.8,4.26,8,4.26a3.53,3.53,0,0,0,1.81-.45c2.25-1.3,2.75-5.34,1.59-10.42C107,113.63,110.21,111.17,110.21,108.57Zm-10.43-5.34c-.3,1-.66,2.1-1.08,3.16-.33-.64-.67-1.28-1-1.92s-.76-1.26-1.15-1.87C97.63,102.77,98.73,103,99.78,103.23Zm-3.67,8.53c-.62,1.08-1.26,2.11-1.93,3.06-1.19.1-2.4.16-3.62.16s-2.42-.06-3.6-.15c-.67-1-1.31-2-1.94-3s-1.16-2.11-1.67-3.18c.5-1.08,1.06-2.15,1.66-3.2s1.27-2.11,1.93-3.06c1.2-.1,2.41-.16,3.62-.16s2.42.06,3.61.15c.66,1,1.31,2,1.93,3s1.17,2.11,1.67,3.18C97.27,109.64,96.71,110.71,96.11,111.76Zm2.59-1a32.63,32.63,0,0,1,1.1,3.19c-1,.25-2.15.47-3.29.64.39-.62.78-1.25,1.15-1.9S98.37,111.36,98.7,110.72Zm-8.12,8.54a32.23,32.23,0,0,1-2.23-2.56c.72,0,1.46.06,2.2.06s1.5,0,2.23-.06A30.15,30.15,0,0,1,90.58,119.26Zm-6-4.71c-1.14-.17-2.23-.38-3.28-.64.29-1,.66-2.09,1.08-3.16.33.64.67,1.28,1,1.92S84.23,113.94,84.62,114.55Zm5.92-16.67c.74.77,1.49,1.63,2.23,2.56-.73,0-1.46,0-2.21,0s-1.49,0-2.22,0A31.8,31.8,0,0,1,90.54,97.88Zm-5.93,4.72c-.39.61-.78,1.25-1.15,1.9s-.71,1.28-1,1.92c-.43-1.08-.8-2.15-1.11-3.19C82.36,103,83.47,102.77,84.61,102.6Zm-7.25,10c-2.83-1.21-4.66-2.79-4.66-4.05s1.83-2.85,4.66-4c.69-.3,1.45-.56,2.22-.81a40.15,40.15,0,0,0,1.8,4.88,38.86,38.86,0,0,0-1.77,4.85A23.54,23.54,0,0,1,77.36,112.62Zm4.31,11.45c-1.09-.63-1.56-3-1.19-6.06a23.88,23.88,0,0,1,.41-2.36,37.54,37.54,0,0,0,5.08.87,38.35,38.35,0,0,0,3.34,4c-2.62,2.43-5.07,3.75-6.73,3.75A1.91,1.91,0,0,1,81.67,124.07Zm19-6.1c.38,3.06-.09,5.43-1.17,6.07a1.82,1.82,0,0,1-.92.2c-1.66,0-4.12-1.32-6.73-3.73a37.91,37.91,0,0,0,3.31-4,39,39,0,0,0,5.09-.88A20.87,20.87,0,0,1,100.67,118Zm3.08-5.35c-.69.3-1.44.56-2.22.81a36.44,36.44,0,0,0-1.8-4.87,38.09,38.09,0,0,0,1.78-4.86c.79.25,1.55.52,2.25.82,2.84,1.21,4.67,2.79,4.67,4S106.59,111.42,103.75,112.62Z"/><circle class="cls-1" cx="90.55" cy="108.57" r="3.66"/><path class="cls-1" d="M145.3,168.32c0-4.74-5.94-9.24-15.05-12,2.1-9.28,1.16-16.67-3-19a6.45,6.45,0,0,0-3.27-.81v3.25a3.34,3.34,0,0,1,1.66.38c2,1.14,2.85,5.48,2.18,11.05-.16,1.38-.43,2.82-.75,4.29a70.62,70.62,0,0,0-9.27-1.59,71.41,71.41,0,0,0-6.07-7.3c4.76-4.42,9.23-6.84,12.26-6.84v-3.26h0c-4,0-9.27,2.86-14.58,7.83-5.32-4.94-10.57-7.77-14.59-7.77v3.26c3,0,7.51,2.4,12.27,6.8a67.43,67.43,0,0,0-6,7.28,67.42,67.42,0,0,0-9.29,1.61c-.33-1.46-.58-2.88-.76-4.23-.68-5.58.16-9.92,2.14-11.07a3.23,3.23,0,0,1,1.67-.38v-3.26h0a6.6,6.6,0,0,0-3.3.82c-4.1,2.37-5,9.74-2.9,19-9.08,2.8-15,7.28-15,12s5.94,9.24,15,12c-2.1,9.28-1.17,16.67,3,19a6.46,6.46,0,0,0,3.28.81c4,0,9.27-2.86,14.59-7.82,5.31,4.93,10.57,7.77,14.58,7.77a6.54,6.54,0,0,0,3.3-.82c4.1-2.37,5-9.74,2.9-19C139.39,177.55,145.3,173.05,145.3,168.32Zm-19-9.74c-.54,1.89-1.21,3.83-2,5.77-.6-1.17-1.23-2.34-1.91-3.5s-1.39-2.31-2.11-3.42Q123.42,157.9,126.29,158.58Zm-6.69,15.55c-1.13,2-2.3,3.84-3.51,5.58q-3.27.28-6.6.29c-2.21,0-4.41-.1-6.57-.28-1.21-1.74-2.4-3.59-3.53-5.55s-2.12-3.85-3-5.81c.9-2,1.93-3.91,3-5.82s2.31-3.84,3.52-5.58c2.17-.19,4.38-.29,6.6-.29s4.41.1,6.57.28c1.21,1.73,2.39,3.59,3.53,5.55s2.12,3.85,3,5.81C121.71,170.26,120.7,172.22,119.6,174.13Zm4.72-1.9a60.83,60.83,0,0,1,2,5.81c-1.91.47-3.92.86-6,1.17.71-1.12,1.43-2.28,2.1-3.46S123.72,173.4,124.32,172.23Zm-14.8,15.58a58.42,58.42,0,0,1-4.06-4.67c1.31.06,2.66.1,4,.1s2.73,0,4.06-.1A56.21,56.21,0,0,1,109.52,187.81Zm-10.86-8.6q-3.12-.47-6-1.15c.54-1.89,1.21-3.83,2-5.77.6,1.17,1.23,2.34,1.91,3.5S97.94,178.1,98.66,179.21Zm10.78-30.38a58.42,58.42,0,0,1,4.06,4.67c-1.31-.06-2.66-.1-4-.1s-2.73,0-4.06.1A56.21,56.21,0,0,1,109.44,148.83Zm-10.8,8.6c-.71,1.12-1.43,2.28-2.1,3.46s-1.3,2.34-1.9,3.5a59.89,59.89,0,0,1-2-5.81C94.54,158.13,96.55,157.74,98.64,157.43ZM85.43,175.71c-5.17-2.21-8.51-5.1-8.51-7.39s3.34-5.2,8.51-7.39c1.25-.54,2.63-1,4-1.47a69.5,69.5,0,0,0,3.29,8.89,67,67,0,0,0-3.24,8.85C88.07,176.74,86.7,176.25,85.43,175.71Zm7.85,20.86c-2-1.14-2.84-5.48-2.17-11,.16-1.37.42-2.82.74-4.29a70.91,70.91,0,0,0,9.27,1.59,71.46,71.46,0,0,0,6.08,7.3C102.44,194.54,98,197,94.93,197A3.44,3.44,0,0,1,93.28,196.57Zm34.63-11.13c.69,5.58-.16,9.92-2.13,11.07a3.29,3.29,0,0,1-1.68.38c-3,0-7.5-2.41-12.26-6.8a69.79,69.79,0,0,0,6-7.29,68.84,68.84,0,0,0,9.28-1.6A39.65,39.65,0,0,1,127.91,185.44Zm5.62-9.73c-1.25.54-2.63,1-4,1.47a69.5,69.5,0,0,0-3.29-8.89,67,67,0,0,0,3.24-8.85c1.45.46,2.82.95,4.11,1.49,5.16,2.21,8.51,5.1,8.51,7.39S138.7,173.52,133.53,175.71Z"/><circle class="cls-1" cx="109.47" cy="168.32" r="6.67"/><path class="cls-1" d="M464.35,134.73c0-2.47-3.1-4.81-7.85-6.26,1.1-4.84.61-8.69-1.53-9.92a3.34,3.34,0,0,0-1.71-.43v1.7a1.75,1.75,0,0,1,.87.19c1,.6,1.48,2.86,1.13,5.76-.08.72-.22,1.47-.38,2.24a35.67,35.67,0,0,0-4.83-.83,36.63,36.63,0,0,0-3.17-3.8c2.48-2.31,4.81-3.57,6.39-3.57v-1.7h0c-2.09,0-4.83,1.49-7.6,4.08-2.77-2.57-5.5-4-7.6-4v1.7c1.58,0,3.91,1.25,6.39,3.54a36.29,36.29,0,0,0-3.14,3.8,34.29,34.29,0,0,0-4.84.84c-.17-.76-.3-1.5-.39-2.21-.36-2.91.08-5.16,1.11-5.77a1.75,1.75,0,0,1,.87-.19v-1.7h0a3.43,3.43,0,0,0-1.72.43c-2.13,1.23-2.61,5.07-1.51,9.89-4.73,1.46-7.81,3.8-7.81,6.26s3.1,4.82,7.84,6.27c-1.09,4.84-.61,8.69,1.54,9.92a3.32,3.32,0,0,0,1.71.43c2.09,0,4.83-1.5,7.6-4.08,2.77,2.57,5.51,4,7.6,4a3.4,3.4,0,0,0,1.72-.42c2.13-1.23,2.61-5.07,1.51-9.9C461.27,139.54,464.35,137.2,464.35,134.73Zm-9.91-5.07c-.28,1-.63,2-1,3-.32-.6-.64-1.21-1-1.82s-.72-1.2-1.1-1.78C452.4,129.22,453.45,129.42,454.44,129.66Zm-3.48,8.1q-.88,1.55-1.83,2.91c-1.14.09-2.29.15-3.44.15s-2.3-.06-3.42-.15c-.64-.9-1.25-1.87-1.85-2.89s-1.1-2-1.58-3c.47-1,1-2,1.58-3s1.2-2,1.83-2.91c1.13-.09,2.28-.15,3.44-.15s2.3.06,3.42.15c.63.9,1.25,1.87,1.84,2.89s1.1,2,1.58,3C452.05,135.74,451.53,136.76,451,137.76Zm2.46-1c.41,1,.76,2,1.05,3-1,.24-2.05.45-3.14.61.37-.59.75-1.19,1.1-1.81S453.1,137.38,453.42,136.77Zm-7.72,8.12c-.7-.73-1.41-1.55-2.11-2.44.68,0,1.38.06,2.09.06s1.42,0,2.12-.06A30.86,30.86,0,0,1,445.7,144.89ZM440,140.41c-1.08-.16-2.12-.36-3.11-.6.28-1,.63-2,1-3,.31.61.64,1.22,1,1.83S439.67,139.83,440,140.41Zm5.63-15.83c.7.73,1.41,1.54,2.11,2.43-.68,0-1.38-.05-2.09-.05s-1.42,0-2.12.05A30.65,30.65,0,0,1,445.67,124.58ZM440,129.06c-.38.58-.75,1.18-1.1,1.8s-.68,1.22-1,1.83c-.41-1-.76-2-1.05-3C437.9,129.42,439,129.22,440,129.06Zm-6.89,9.52c-2.69-1.15-4.43-2.65-4.43-3.85s1.74-2.71,4.43-3.85c.66-.28,1.37-.53,2.11-.76a35.63,35.63,0,0,0,1.71,4.63,36.13,36.13,0,0,0-1.69,4.61C434.53,139.12,433.81,138.86,433.15,138.58Zm4.09,10.87c-1-.59-1.48-2.85-1.13-5.76.09-.71.22-1.46.39-2.23a39.1,39.1,0,0,0,4.83.83,38.82,38.82,0,0,0,3.16,3.8c-2.48,2.3-4.8,3.57-6.39,3.57A1.85,1.85,0,0,1,437.24,149.45Zm18.05-5.79c.35,2.9-.09,5.16-1.11,5.76a1.69,1.69,0,0,1-.88.2c-1.57,0-3.91-1.26-6.39-3.55a34,34,0,0,0,3.14-3.79,35.52,35.52,0,0,0,4.84-.84A21.76,21.76,0,0,1,455.29,143.66Zm2.93-5.08c-.66.28-1.37.53-2.11.77a37.15,37.15,0,0,0-1.71-4.63,36.69,36.69,0,0,0,1.69-4.61c.75.23,1.46.49,2.13.77,2.7,1.15,4.44,2.66,4.44,3.85S460.91,137.44,458.22,138.58Z"/><circle class="cls-1" cx="445.68" cy="134.73" r="3.48"/><path class="cls-2" d="M109.39,297.89c9.8-6.42,12.29-18.71,12.18-29.81,0-1.85.24-3.8-.61-5.44s-2.91-2.81-4.61-2.07c-1.41.62-2,2.2-2.87,3.51a11,11,0,0,1-4.5,4,4.24,4.24,0,0,1-3.86.25c-1.59-.92-1.73-3.13-1.67-5,.1-3.43.21-6.86.31-10.3a16.78,16.78,0,0,0-.43-5.48,5.72,5.72,0,0,0-3.54-4,3.53,3.53,0,0,0-4.4,2.22,17.48,17.48,0,0,0-.11,2.29,1.94,1.94,0,0,1-1.19,1.8,2.28,2.28,0,0,1-2-.89,24.51,24.51,0,0,1-4.29-6.75,33.62,33.62,0,0,0-4-6.94,10.08,10.08,0,0,0-6.74-4c-2.67-.21-5.55,1.35-6.29,3.92s.73,5.25,2.35,7.39a41.18,41.18,0,0,0,8.47,8.36A3.47,3.47,0,0,1,83,252.7c.37,1.23-.83,2.43-2.07,2.8a22.62,22.62,0,0,1-4.37.38c-1.46.13-3.05.73-3.63,2.07-.81,1.87.73,3.88,2.27,5.21a35.75,35.75,0,0,0,10.41,6.26,12.08,12.08,0,0,1,3.88,2,3.39,3.39,0,0,1,1,3.93c-.7,1.28-2.43,1.65-3.86,1.36a25.25,25.25,0,0,1-4.05-1.64c-2.55-1-5.86-.92-7.56,1.22a5.76,5.76,0,0,0-.75,5.14A13.21,13.21,0,0,0,77,286a35.79,35.79,0,0,0,15,11c5.9,2.18,11.4,2.86,17.36.87"/><path class="cls-3" d="M73.5,232.91l.18.18.54.5c.48.43,1.19,1.08,2.07,1.94a68.88,68.88,0,0,1,6.94,7.76c1.35,1.74,2.74,3.7,4.2,5.84s3,4.44,4.53,6.92a84.33,84.33,0,0,1,4.41,8c.68,1.42,1.29,2.91,1.9,4.43s1.24,3.05,1.87,4.61A165.25,165.25,0,0,1,106.35,291a81.23,81.23,0,0,1,2.74,15.18,59.52,59.52,0,0,1-.08,10.4c-.12,1.23-.24,2.18-.35,2.81,0,.31-.07.55-.1.74a.93.93,0,0,0,0,.25l0-.25c0-.18.08-.42.14-.72.13-.64.27-1.59.42-2.81a57.08,57.08,0,0,0,.19-10.44,80,80,0,0,0-2.68-15.25,165.6,165.6,0,0,0-6.2-17.92l-1.87-4.61c-.62-1.52-1.23-3-1.92-4.45a82.64,82.64,0,0,0-4.45-8c-1.53-2.48-3.09-4.77-4.55-6.91s-2.88-4.1-4.25-5.83a65,65,0,0,0-7-7.71c-.9-.84-1.62-1.47-2.11-1.89l-.56-.48Q73.52,232.9,73.5,232.91Z"/><path class="cls-3" d="M96.57,263.87a3.62,3.62,0,0,0,.2-.78c.11-.51.25-1.25.4-2.16.31-1.83.65-4.37,1-7.17s.74-5.32,1.08-7.14c.16-.91.3-1.64.41-2.15a3.12,3.12,0,0,0,.12-.8,4.21,4.21,0,0,0-.25.77c-.15.5-.32,1.23-.52,2.13-.4,1.82-.81,4.35-1.18,7.15s-.66,5.26-.91,7.17c-.11.86-.21,1.59-.29,2.17A3.74,3.74,0,0,0,96.57,263.87Z"/><path class="cls-3" d="M72.69,258.87a6.05,6.05,0,0,0,1,.14c.61.06,1.5.16,2.6.31,2.19.29,5.2.79,8.5,1.48s6.26,1.46,8.38,2.08c1.07.29,1.92.56,2.51.74a5.62,5.62,0,0,0,.93.25,4.25,4.25,0,0,0-.89-.38c-.58-.22-1.42-.52-2.48-.85-2.11-.67-5.07-1.47-8.38-2.17s-6.34-1.16-8.54-1.39c-1.11-.12-2-.18-2.62-.21A6.11,6.11,0,0,0,72.69,258.87Z"/><path class="cls-3" d="M106.38,290.42a1.45,1.45,0,0,0,.17-.28c.11-.23.26-.51.43-.85.37-.74.88-1.82,1.49-3.16,1.22-2.68,2.79-6.44,4.47-10.62s3.22-7.94,4.38-10.65l1.39-3.2.37-.87a1,1,0,0,0,.11-.31s-.07.09-.17.28l-.43.85c-.37.73-.88,1.81-1.49,3.16-1.22,2.68-2.8,6.44-4.48,10.62s-3.21,7.94-4.37,10.64l-1.39,3.2c-.15.35-.27.64-.38.88S106.36,290.42,106.38,290.42Z"/><path class="cls-3" d="M74.75,279.52a1.31,1.31,0,0,0,.31.14L76,280l3.39,1.17c2.86,1,6.79,2.4,11.13,4s8.3,2.95,11.18,3.88c1.44.47,2.61.84,3.42,1.07l.94.27a1.19,1.19,0,0,0,.34.07,1.33,1.33,0,0,0-.32-.13l-.92-.33-3.38-1.18c-2.86-1-6.79-2.4-11.14-4s-8.29-2.95-11.17-3.88c-1.44-.47-2.61-.83-3.43-1.07l-.94-.27Z"/><path class="cls-4" d="M428.05,215l-47.38-.22a10.29,10.29,0,0,1-10.27-10.33L370.9,86a10.3,10.3,0,0,1,10.37-10.24l47.37.22a10.31,10.31,0,0,1,10.28,10.33l-.51,118.44A10.29,10.29,0,0,1,428.05,215Z"/><path class="cls-3" d="M428.58,80.06l-9.19,0a2.29,2.29,0,0,0-2.24,2.32V84a2.26,2.26,0,0,1-2.24,2.31L397,86.23a2.28,2.28,0,0,1-2.22-2.34V82.23a2.28,2.28,0,0,0-2.22-2.33l-3.24,0-8,0A7.22,7.22,0,0,0,374,87l-.49,115.61a7.23,7.23,0,0,0,7.2,7.24l47.28.22a7.23,7.23,0,0,0,7.26-7.18l.49-115.61A7.21,7.21,0,0,0,428.58,80.06Z"/><rect class="cls-4" x="381.02" y="158.73" width="46.78" height="3.13"/><path class="cls-4" d="M426.13,171.05c0,.11-10,.2-22.3.2s-22.3-.09-22.3-.2,10-.21,22.3-.21S426.13,170.94,426.13,171.05Z"/><path class="cls-4" d="M426.13,96.81c0,.12-10,.21-22.3.21s-22.3-.09-22.3-.21,10-.2,22.3-.2S426.13,96.7,426.13,96.81Z"/><path class="cls-4" d="M426.13,176.75c0,.11-10,.2-22.3.2s-22.3-.09-22.3-.2,10-.21,22.3-.21S426.13,176.63,426.13,176.75Z"/><path class="cls-4" d="M426.13,182.44c0,.12-10,.21-22.3.21s-22.3-.09-22.3-.21,10-.2,22.3-.2S426.13,182.33,426.13,182.44Z"/><path class="cls-4" d="M426.13,188.14c0,.11-10,.2-22.3.2s-22.3-.09-22.3-.2,10-.21,22.3-.21S426.13,188,426.13,188.14Z"/><path class="cls-4" d="M426.13,193.84c0,.11-10,.2-22.3.2s-22.3-.09-22.3-.2,10-.21,22.3-.21S426.13,193.72,426.13,193.84Z"/><path class="cls-4" d="M426.77,200.3c0,.11-10,.2-22.3.2s-22.3-.09-22.3-.2,10-.21,22.3-.21S426.77,200.18,426.77,200.3Z"/><rect class="cls-5" x="381.53" y="103.31" width="46.9" height="45.38"/><polygon class="cls-2" points="385.17 144.81 398.14 121.45 408.75 136.38 415.2 128.45 424.8 144.81 385.17 144.81"/><path class="cls-2" d="M413.27,116.91a3.38,3.38,0,1,1-3.37-3.37A3.37,3.37,0,0,1,413.27,116.91Z"/><path class="cls-4" d="M424.8,144.93a.76.76,0,0,1,0-.19c0-.13,0-.3,0-.52,0-.49,0-1.17,0-2.05,0-1.8,0-4.4-.05-7.7,0-6.63-.06-16.07-.1-27.4l.2.19-39.63,0,.22-.22h0v10.18q0,5,0,9.78c0,6.35,0,12.36,0,17.89l-.19-.19,28.65.1,8.08,0,2.14,0h0L422,145l-8,.05-28.77.1H385v-.2c0-5.53,0-11.54,0-17.89q0-4.77,0-9.78V107.08h0c-.2.2.27-.28.23-.23l39.63,0H425v.19c0,11.38-.08,20.86-.1,27.52,0,3.29,0,5.87-.05,7.66,0,.86,0,1.53,0,2,0,.21,0,.38,0,.51S424.8,144.93,424.8,144.93Z"/><rect class="cls-4" x="208.59" y="-0.2" width="122.75" height="176.16" rx="11.55" transform="translate(182.09 357.84) rotate(-90)"/><rect class="cls-3" x="209.99" y="14.32" width="115.01" height="147.11" transform="translate(179.62 355.37) rotate(-90)"/><path class="cls-6" d="M349.19,83.16a4.71,4.71,0,1,1-4.71,4.71A4.71,4.71,0,0,1,349.19,83.16Z"/><rect class="cls-6" x="169.45" y="86.9" width="36.97" height="1.95" rx="0.97" transform="translate(100.06 275.81) rotate(-90)"/><rect class="cls-4" x="261.04" y="39.01" width="46.78" height="3.13"/><rect class="cls-4" x="200.1" y="92.82" width="46.78" height="3.13"/><path class="cls-4" d="M319.22,50.67c0,.11-13,.2-29.09.2S261,50.78,261,50.67s13-.21,29.09-.21S319.22,50.55,319.22,50.67Z"/><path class="cls-4" d="M319.22,57.5c0,.11-13,.21-29.09.21S261,57.61,261,57.5s13-.2,29.09-.2S319.22,57.39,319.22,57.5Z"/><path class="cls-4" d="M319.22,64.34c0,.11-13,.2-29.09.2S261,64.45,261,64.34s13-.21,29.09-.21S319.22,64.22,319.22,64.34Z"/><path class="cls-4" d="M319.22,71.17c0,.11-13,.2-29.09.2S261,71.28,261,71.17s13-.2,29.09-.2S319.22,71.06,319.22,71.17Z"/><path class="cls-4" d="M319.22,78c0,.12-13,.21-29.09.21S261,78.12,261,78s13-.2,29.09-.2S319.22,77.89,319.22,78Z"/><path class="cls-4" d="M306.46,84.84c0,.11-10.17.2-22.71.2S261,85,261,84.84s10.17-.21,22.71-.21S306.46,84.72,306.46,84.84Z"/><path class="cls-4" d="M276.94,105.14c0,.12-17.09.21-38.16.21s-38.17-.09-38.17-.21,17.08-.2,38.17-.2S276.94,105,276.94,105.14Z"/><path class="cls-4" d="M276.94,110.84c0,.11-17.09.2-38.16.2s-38.17-.09-38.17-.2,17.08-.21,38.17-.21S276.94,110.73,276.94,110.84Z"/><path class="cls-4" d="M276.94,116.54c0,.11-17.09.2-38.16.2s-38.17-.09-38.17-.2,17.08-.21,38.17-.21S276.94,116.42,276.94,116.54Z"/><path class="cls-4" d="M276.94,122.23c0,.12-17.09.21-38.16.21s-38.17-.09-38.17-.21,17.08-.2,38.17-.2S276.94,122.12,276.94,122.23Z"/><path class="cls-4" d="M276.94,127.93c0,.11-17.09.2-38.16.2s-38.17-.09-38.17-.2,17.08-.2,38.17-.2S276.94,127.82,276.94,127.93Z"/><rect class="cls-2" x="200.61" y="37.4" width="46.9" height="45.38"/><polygon class="cls-5" points="204.25 78.9 217.22 55.55 227.84 70.47 234.28 62.55 243.88 78.9 204.25 78.9"/><path class="cls-5" d="M232.36,51A3.38,3.38,0,1,1,229,47.63,3.38,3.38,0,0,1,232.36,51Z"/><path class="cls-4" d="M243.88,79s0-.06,0-.18,0-.31,0-.53q0-.72,0-2c0-1.8,0-4.4-.05-7.71,0-6.63-.05-16.07-.09-27.4l.19.19-39.63,0c-.05,0,.42-.42.22-.22h0V51.36q0,5,0,9.77c0,6.36,0,12.37,0,17.89l-.19-.19,28.65.1L241,79l2.15,0h.75s-.06,0-.18,0h-.53l-2.11,0-8,.05-28.78.1h-.2V79c0-5.52,0-11.53,0-17.89V51.36c0-1.67,0-3.36,0-5.06V41.18h0c-.2.19.27-.28.23-.23l39.63,0h.19v.19C244,52.54,244,62,244,68.68c0,3.29,0,5.88-.05,7.67,0,.86,0,1.53,0,2,0,.21,0,.38,0,.51S243.88,79,243.88,79Z"/><rect class="cls-2" x="287.46" y="98.84" width="33.19" height="32.11"/><polygon class="cls-5" points="290.04 128.21 299.22 111.68 306.73 122.24 311.29 116.63 318.08 128.21 290.04 128.21"/><path class="cls-5" d="M309.93,108.47a2.39,2.39,0,1,1-2.39-2.39A2.39,2.39,0,0,1,309.93,108.47Z"/><path class="cls-4" d="M318.08,128.3v-.14c0-.09,0-.21,0-.37,0-.34,0-.82,0-1.45,0-1.27,0-3.11,0-5.45,0-4.69,0-11.37-.07-19.39l.13.14-28,0s.3-.3.16-.16h0v1.82c0,.6,0,1.21,0,1.81v10.49c0,4.5,0,8.75,0,12.67l-.13-.14,20.28.07,5.72,0,1.51,0h.4c.08,0,.13,0,.13,0h-.5l-1.49,0-5.69,0-20.36.07h-.14v-.13c0-3.92,0-8.17,0-12.67V101.51h0l.16-.16,28,0h.14v.14c0,8.06-.05,14.77-.07,19.48,0,2.32,0,4.15,0,5.42,0,.61,0,1.08,0,1.42,0,.15,0,.27,0,.36S318.09,128.3,318.08,128.3Z"/><path class="cls-2" d="M512.4,312.77l-7.86-.93-1.84,14.72L514.19,328l.17-.9c.73-4,3.44-20.56,3-23.38C516.78,300.62,512.4,312.77,512.4,312.77Z"/><path class="cls-6" d="M516.64,302.71c.14,0-.4,5.54-1.2,12.33s-1.58,12.29-1.72,12.28.41-5.54,1.21-12.34S516.5,302.69,516.64,302.71Z"/><path class="cls-6" d="M514,312.08c-.08.12-.49,0-.87-.41s-.53-.77-.42-.85.43.16.78.49S514.12,312,514,312.08Z"/><path class="cls-6" d="M514.67,311.21c-.07.12-.53,0-1-.36s-.7-.76-.6-.85.48.13.91.45S514.74,311.08,514.67,311.21Z"/><path class="cls-6" d="M514.2,322.87c0,.07-.2.26-.59.54a9.77,9.77,0,0,0-1.39,1.16,3.41,3.41,0,0,0-.84,1.51c-.11.43-.09.73-.16.75s-.23-.28-.2-.81a3,3,0,0,1,.83-1.8,5.16,5.16,0,0,1,1.58-1.12C513.87,322.9,514.16,322.81,514.2,322.87Z"/><path class="cls-6" d="M512.56,311.86c.13-.05.38.24.48.67s0,.81-.14.81-.27-.31-.36-.7S512.43,311.92,512.56,311.86Z"/><path class="cls-6" d="M511.78,312c.14,0,.21.41.16.91s-.21.88-.35.86-.21-.44-.16-.91S511.64,312,511.78,312Z"/><polygon class="cls-6" points="507.61 327.73 464.08 323.31 373.84 325.33 397.83 305.98 458.07 303.09 510.73 310.35 507.61 327.73"/><path class="cls-4" d="M434,315.64c0,.12-8.47.21-18.92.21s-18.92-.09-18.92-.21,8.47-.2,18.92-.2S434,315.53,434,315.64Z"/><polygon points="429.83 304.45 432.93 323.91 438.86 323.91 434.35 304.23 429.83 304.45"/><path class="cls-2" d="M452.81,324.17l-.88-7.87-14.75,1.56,1.17,11.52.92,0c4.09-.2,20.8-1.32,23.43-2.43C465.64,325.67,452.81,324.17,452.81,324.17Z"/><path class="cls-6" d="M463,326.15c0,.14-5.49.87-12.29,1.63s-12.32,1.26-12.34,1.13,5.49-.87,12.29-1.63S463,326,463,326.15Z"/><path class="cls-6" d="M453.25,325.74c-.13-.05-.07-.48.2-.93s.63-.7.73-.61-.05.46-.3.87S453.38,325.8,453.25,325.74Z"/><path class="cls-6" d="M454.25,326.16c-.14,0-.12-.52.11-1s.59-.86.7-.78,0,.5-.23,1S454.38,326.2,454.25,326.16Z"/><path class="cls-6" d="M442.78,328.36s-.3-.14-.66-.45a9.55,9.55,0,0,0-1.44-1.1,3.51,3.51,0,0,0-1.66-.47c-.45,0-.74.08-.77,0s.22-.28.74-.37a3,3,0,0,1,1.94.39,5.25,5.25,0,0,1,1.45,1.29C442.68,328,442.83,328.31,442.78,328.36Z"/><path class="cls-6" d="M453.13,324.26c.08.11-.14.42-.55.61s-.78.18-.82.05.25-.33.6-.5S453,324.15,453.13,324.26Z"/><path class="cls-6" d="M452.81,323.53c0,.13-.35.3-.85.36s-.9,0-.91-.14.38-.3.85-.36S452.78,323.39,452.81,323.53Z"/><path class="cls-7" d="M366.48,234.35l12.58-.23c.17-1.46.42-7.12.42-7.12s5.26-.49,5.64-5.69.22-17.23.22-17.23h0A18.13,18.13,0,0,0,367,205.25l-.81.54Z"/><path class="cls-6" d="M383.59,213a.76.76,0,0,1,1.09-1.06.78.78,0,0,1,0,1.08A.77.77,0,0,1,383.59,213Z"/><path class="cls-6" d="M384.93,211.85c-.09.09-.58-.34-1.29-.39s-1.26.29-1.34.2.06-.2.3-.36a1.76,1.76,0,0,1,2.09.15C384.9,211.64,385,211.81,384.93,211.85Z"/><path class="cls-6" d="M376.62,212a.75.75,0,0,1,.19,1.05.76.76,0,1,1-1.24-.87A.75.75,0,0,1,376.62,212Z"/><path class="cls-6" d="M377.1,212c-.09.09-.58-.34-1.29-.39s-1.27.29-1.34.2.06-.2.29-.36a1.78,1.78,0,0,1,1.08-.27,1.75,1.75,0,0,1,1,.42C377.07,211.79,377.14,212,377.1,212Z"/><path class="cls-6" d="M379.61,218.1a3.43,3.43,0,0,1,1.17-.18c.19,0,.34,0,.36-.14a1,1,0,0,0-.1-.54c-.15-.49-.31-1-.48-1.5a20.2,20.2,0,0,1-1-3.9,19.24,19.24,0,0,1,1.38,3.78c.16.52.31,1,.45,1.51a1.19,1.19,0,0,1,.06.78.49.49,0,0,1-.35.28.9.9,0,0,1-.32,0A3.47,3.47,0,0,1,379.61,218.1Z"/><path class="cls-3" d="M377.23,218.75c-.72-.49,2,1.22,3.45,1.24a2,2,0,0,1-2.38.64C376.77,220,377.23,218.75,377.23,218.75Z"/><path class="cls-8" d="M379.49,226.93a12.17,12.17,0,0,1-6.67-2.35s1.37,3.85,6.6,3.7Z"/><path class="cls-6" d="M385.72,202.21a2,2,0,1,0-1.08-3.63,5.68,5.68,0,0,0,1.5-1.88,2,2,0,0,0-.37-2.22,2.18,2.18,0,0,0-2.25-.14c-1.11.47-2,1.41-3.12,1.8a12.85,12.85,0,0,1-3.62.26,6.34,6.34,0,0,0-3.75,1.29,4.3,4.3,0,0,0-1.68,3.51c-1.7-.21-3.59-.24-4.93.82a4.91,4.91,0,0,0-1.64,3.86,14.76,14.76,0,0,0,1,4.19h0a2.91,2.91,0,0,0,.52,1.08l.63,3.74,2.32,0-.15-7.78s-.23-3.27,2.59-3,6.65,3.47,12.14,2.67a6,6,0,0,0,2.56-.73,2.54,2.54,0,0,0,1.18-2.28A1.72,1.72,0,0,0,385.72,202.21Z"/><path class="cls-7" d="M367.2,210.42c-.11,0-3.86-.53-3.51,3.9s4.71,2.6,4.71,2.48S367.2,210.42,367.2,210.42Z"/><path class="cls-8" d="M366.92,215.35s-.07.06-.2.13a.76.76,0,0,1-.58.06,1.94,1.94,0,0,1-1-1.65,2.57,2.57,0,0,1,.13-1.12.91.91,0,0,1,.53-.64.41.41,0,0,1,.48.18c.07.12,0,.21.07.21s.09-.08,0-.26a.57.57,0,0,0-.2-.26.56.56,0,0,0-.43-.08,1.1,1.1,0,0,0-.76.75,2.74,2.74,0,0,0-.16,1.26,2,2,0,0,0,1.27,1.82.84.84,0,0,0,.7-.17C366.92,215.46,366.93,215.36,366.92,215.35Z"/><path class="cls-4" d="M356.29,312c2.36,3.51,16.64,25,33.69,9.38C411.71,301.47,428.92,284,428.92,284l6.46,39.38,20.23-1.09s-7.88-58.64-12.87-64c-5.56-6-10.69-5.45-54.4,29Z"/><polygon class="cls-6" points="428.64 245.21 447.53 231.43 448.46 232.91 429.69 246.86 428.64 245.21"/><path class="cls-7" d="M433.31,244.79s2.53-6.6,3.1-8,1.54-3.86,1.9-3.9,1.68.15,0,4.35,2,1.63,2,1.63l3.64-2.6s2.87,8.58,1.23,11.17a40.73,40.73,0,0,1-4.31,5.46Z"/><path class="cls-2" d="M433.52,244c-.37-.86-24.4,20.36-29.18,21.08l-14-18.24s-2.91-4.61-9.15-12.51c-4-5.1-15.15-4-18.08,2.17-5,10.55-5,22.29-7.66,45.12L354.32,297a54.13,54.13,0,0,0,.15,9.86c.42,3.83,1.29,7.82,3.06,7.28l32.05-26.49,1-12c6.74,6.84,8.84,8.26,12.34,7.72,8.82-1.37,39.68-29.13,39.68-29.13S433.9,244.88,433.52,244Z"/><path class="cls-6" d="M438.47,258.14a9,9,0,0,1-1.72-1.35,37.23,37.23,0,0,1-3.69-3.77,38.88,38.88,0,0,1-3.14-4.24,10.22,10.22,0,0,1-1.06-1.92,14,14,0,0,1,1.3,1.75c.78,1.1,1.88,2.58,3.21,4.14s2.62,2.89,3.57,3.83A16.31,16.31,0,0,1,438.47,258.14Z"/><path class="cls-6" d="M403,272.34a17,17,0,0,1,.44-3.65,16.14,16.14,0,0,1,.85-3.58,34.13,34.13,0,0,1-1.29,7.23Z"/><path class="cls-6" d="M406,271.58a13.57,13.57,0,0,1-1.06-3.13,13.42,13.42,0,0,1-.67-3.25,13.22,13.22,0,0,1,1.06,3.14A13.39,13.39,0,0,1,406,271.58Z"/><path class="cls-6" d="M371.35,250.07a7.48,7.48,0,0,1,.81,1l2.09,2.84c1.77,2.4,4.23,5.69,7,9.3l7.1,9.22,2.15,2.8a7.19,7.19,0,0,1,.74,1.06,8.42,8.42,0,0,1-.87-1c-.54-.64-1.31-1.57-2.25-2.72-1.87-2.32-4.44-5.54-7.2-9.15s-5.18-6.94-6.89-9.38c-.86-1.22-1.54-2.22-2-2.92A7.71,7.71,0,0,1,371.35,250.07Z"/><path class="cls-6" d="M367.25,265.58a19.78,19.78,0,0,1-4.24-3.8,19.86,19.86,0,0,1,4.24,3.8Z"/><path class="cls-6" d="M364.49,274.43a9.39,9.39,0,0,1-1.4,2.45,10.22,10.22,0,0,1-1.74,2.21,9.79,9.79,0,0,1,1.4-2.44A10.13,10.13,0,0,1,364.49,274.43Z"/><path class="cls-6" d="M368.36,286.64a6.43,6.43,0,0,1-1.58-1.57,6.16,6.16,0,0,1-1.28-1.84c.09-.08.8.63,1.59,1.57A6.23,6.23,0,0,1,368.36,286.64Z"/><path class="cls-6" d="M360.89,294.47a6.26,6.26,0,0,1-1.76,1.44,6.55,6.55,0,0,1-2,1.1c-.07-.1.72-.74,1.75-1.44A6.66,6.66,0,0,1,360.89,294.47Z"/><path class="cls-6" d="M371.34,296.54a5.09,5.09,0,0,1-2.09-1.67,5.23,5.23,0,0,1-1.31-2.34c.11,0,.69,1,1.62,2.07S371.41,296.44,371.34,296.54Z"/><path class="cls-6" d="M381.09,289.14a9.74,9.74,0,0,1-2,2,9.85,9.85,0,0,1-2.28,1.67,10.34,10.34,0,0,1,2-2A10.12,10.12,0,0,1,381.09,289.14Z"/><path class="cls-6" d="M361,303.43a5.93,5.93,0,0,1-3-3.06c.1-.07.69.69,1.51,1.52S361.1,303.34,361,303.43Z"/><path class="cls-6" d="M382.82,282.16a4.81,4.81,0,0,1-2.15.82,4.92,4.92,0,0,1-2.3.14,10.09,10.09,0,0,1,2.21-.54A10,10,0,0,1,382.82,282.16Z"/><path class="cls-6" d="M375.57,273.9a13.91,13.91,0,0,1-.77,2.79,25.38,25.38,0,0,1-.92,2.67l-.09,0s0-.07.06-.06,0,0,0,.08l-.09,0a12,12,0,0,1,.62-2.77A8.29,8.29,0,0,1,375.57,273.9Z"/><path class="cls-6" d="M378.62,268.66a9.33,9.33,0,0,1-2.32-1.43,9.47,9.47,0,0,1-2.09-1.76,18,18,0,0,1,4.41,3.19Z"/><path class="cls-6" d="M372.39,257.11a6,6,0,0,1-1.16,2.12c-.79,1.09-1.57,1.85-1.66,1.77a9.79,9.79,0,0,1,1.32-2A9.58,9.58,0,0,1,372.39,257.11Z"/><path class="cls-6" d="M362.79,255.55a9,9,0,0,1,0-2.66,8.38,8.38,0,0,1,.43-2.63,9,9,0,0,1,0,2.66A8.38,8.38,0,0,1,362.79,255.55Z"/><path class="cls-6" d="M359.07,272.85a9.9,9.9,0,0,1-.26-2.86,10.58,10.58,0,0,1,.16-2.87,10.13,10.13,0,0,1,.25,2.86A10.36,10.36,0,0,1,359.07,272.85Z"/><path class="cls-6" d="M358.54,289.45a4.28,4.28,0,0,1-.7-1.7,4.43,4.43,0,0,1-.31-1.82,8.06,8.06,0,0,1,1,3.52Z"/><path class="cls-6" d="M371.76,242.6a162.58,162.58,0,0,1-4.07,4,7,7,0,0,1,1.77-2.26A7.07,7.07,0,0,1,371.76,242.6Z"/><path class="cls-6" d="M366.15,240.72a8.61,8.61,0,0,1-.09-2.6,8.51,8.51,0,0,1,.31-2.58,8.24,8.24,0,0,1,.09,2.6A8.51,8.51,0,0,1,366.15,240.72Z"/><path class="cls-6" d="M379.91,238.85a11.37,11.37,0,0,1-2.18-1.39,12.32,12.32,0,0,1-2.09-1.52,10.24,10.24,0,0,1,4.27,2.91Z"/><path class="cls-6" d="M376.92,248.65a9.5,9.5,0,0,1-.26-2.75,9.64,9.64,0,0,1,.15-2.76,18.62,18.62,0,0,1,.11,5.51Z"/><path class="cls-6" d="M385,254.39a13.14,13.14,0,0,1-2.38-.53,11.56,11.56,0,0,1-2.35-.61,5.48,5.48,0,0,1,2.45.22A5.35,5.35,0,0,1,385,254.39Z"/><path class="cls-6" d="M385.53,248.54a6.4,6.4,0,0,1-.23-2.31,6.85,6.85,0,0,1,.18-2.31,6.35,6.35,0,0,1,.23,2.31A6.9,6.9,0,0,1,385.53,248.54Z"/><path class="cls-6" d="M391.66,258.35a10.83,10.83,0,0,1-.33-2.91,10.28,10.28,0,0,1,.08-2.93,10.83,10.83,0,0,1,.33,2.91A10.28,10.28,0,0,1,391.66,258.35Z"/><path class="cls-6" d="M387,261.67c-.09.07-.73-.51-1.43-1.3s-1.2-1.49-1.11-1.56.72.5,1.42,1.29S387,261.59,387,261.67Z"/><path class="cls-6" d="M392.91,266.18a6.6,6.6,0,0,1-2.29.38,6.73,6.73,0,0,1-2.33,0,6.88,6.88,0,0,1,2.29-.38A7,7,0,0,1,392.91,266.18Z"/><path class="cls-6" d="M397.41,268.48a8.15,8.15,0,0,1-.31-2.58,8.62,8.62,0,0,1,.11-2.6,16.88,16.88,0,0,1,.2,5.18Z"/><path class="cls-6" d="M401.84,277.08a11.91,11.91,0,0,1-5.63-.64,15.43,15.43,0,0,1,2.82.25A14.76,14.76,0,0,1,401.84,277.08Z"/><path class="cls-6" d="M409.45,273.11a9.3,9.3,0,0,1-.68,2.6,9.41,9.41,0,0,1-1.07,2.47,9,9,0,0,1,.68-2.6A8.7,8.7,0,0,1,409.45,273.11Z"/><path class="cls-6" d="M414.94,266.17a7.3,7.3,0,0,1-2.42-.46,7.56,7.56,0,0,1-2.32-.85,7.66,7.66,0,0,1,2.43.46A7.43,7.43,0,0,1,414.94,266.17Z"/><path class="cls-6" d="M419.35,268.81a7.35,7.35,0,0,1-1.7,1.79,7.47,7.47,0,0,1-2,1.47,7.38,7.38,0,0,1,1.7-1.78A7.76,7.76,0,0,1,419.35,268.81Z"/><path class="cls-6" d="M421.12,262.31a6.43,6.43,0,0,1-.82-2.52,6.36,6.36,0,0,1-.11-2.65,12.88,12.88,0,0,1,.51,2.57A13.35,13.35,0,0,1,421.12,262.31Z"/><path class="cls-6" d="M429.52,260.82a25.83,25.83,0,0,1-2.44,2.4,28.15,28.15,0,0,1-2.46,2.38,15.25,15.25,0,0,1,4.9-4.78Z"/><path class="cls-6" d="M430.35,257.83a8.79,8.79,0,0,1-2.6-.76,9.37,9.37,0,0,1-2.45-1.15,8.79,8.79,0,0,1,2.6.76A9.37,9.37,0,0,1,430.35,257.83Z"/><path class="cls-6" d="M429.55,254.58a12.71,12.71,0,0,1-1.25-4.36,6.87,6.87,0,0,1,.82,2.12A6.35,6.35,0,0,1,429.55,254.58Z"/><path class="cls-6" d="M385.59,277.21a6.6,6.6,0,0,1-1.47-1.73,6.38,6.38,0,0,1-1.15-2,6.33,6.33,0,0,1,1.48,1.73A6.47,6.47,0,0,1,385.59,277.21Z"/><path class="cls-6" d="M445.46,316.76a1.45,1.45,0,0,1-.06-.33c0-.24-.08-.57-.14-1-.12-.89-.29-2.17-.5-3.8-.44-3.31-1.08-8.08-2-14s-2.22-12.86-4-20.53a10.79,10.79,0,0,0-.94-2.77,8.63,8.63,0,0,0-1.88-2.3,8.18,8.18,0,0,0-5.72-1.85,7.69,7.69,0,0,0-3,.82,20.62,20.62,0,0,0-2.7,1.82l-5.4,4c-7.27,5.45-14.08,10.8-20.15,15.82s-11.38,9.71-15.82,13.7c-2.25,1.93-4.64,3.48-7.07,3.72a7.06,7.06,0,0,1-3.29-.39,10,10,0,0,1-2.44-1.35,19.87,19.87,0,0,1-2.83-2.6c-.29-.31-.51-.56-.67-.74l-.22-.26s.09.07.25.23l.69.72a23.26,23.26,0,0,0,2.87,2.52,9.62,9.62,0,0,0,2.41,1.29,6.86,6.86,0,0,0,3.2.36c2.35-.26,4.69-1.79,6.91-3.72,4.41-4,9.69-8.75,15.77-13.77s12.87-10.4,20.15-15.86l5.4-4a20.19,20.19,0,0,1,2.76-1.86,7.94,7.94,0,0,1,3.18-.86,8.58,8.58,0,0,1,6,1.95,9,9,0,0,1,2,2.42,11.31,11.31,0,0,1,1,2.87c1.77,7.68,3,14.67,3.92,20.56s1.51,10.68,1.91,14c.18,1.64.32,2.92.42,3.81,0,.42.08.75.1,1A1.75,1.75,0,0,1,445.46,316.76Z"/><path class="cls-6" d="M454.63,316.33a3.37,3.37,0,0,1-.79.12l-2.16.18c-1.82.13-4.35.26-7.13.38l-7.14.31-2.17.07a2.56,2.56,0,0,1-.79,0,3.44,3.44,0,0,1,.78-.13c.51-.07,1.25-.14,2.16-.21,1.82-.16,4.35-.31,7.14-.43l7.14-.26,2.17,0A2.89,2.89,0,0,1,454.63,316.33Z"/><path class="cls-6" d="M434.51,277.89a27.07,27.07,0,0,1-6.87,7.49c-.07-.09,1.6-1.63,3.49-3.69S434.41,277.82,434.51,277.89Z"/><path class="cls-6" d="M435.27,280.28a27.93,27.93,0,0,1-3.35,2.18,25,25,0,0,1-3.45,2,16,16,0,0,1,3.24-2.37A15.68,15.68,0,0,1,435.27,280.28Z"/><path class="cls-4" d="M501.42,318.35a2.47,2.47,0,0,1-.48,0l-1.36-.11-5-.48L478,316c-6.47-.68-12.31-1.43-16.56-1.64-2.12-.12-3.84-.1-5-.06l-1.37.06h-.48a1.53,1.53,0,0,1,.47-.09c.31,0,.77-.08,1.37-.13a45.59,45.59,0,0,1,5.05-.07c4.28.13,10.13.84,16.59,1.52l16.55,1.85,5,.6,1.36.19A3.06,3.06,0,0,1,501.42,318.35Z"/><path class="cls-4" d="M500.43,327.13c-.11,0,.24-4,.79-8.8s1.09-8.77,1.2-8.75-.24,3.95-.79,8.79S500.54,327.14,500.43,327.13Z"/><rect class="cls-4" x="109.75" y="161.66" width="246.24" height="162.84" rx="14.57"/><path class="cls-4" d="M352,326.7H113.7a14.25,14.25,0,0,1-14.24-14.25H366.24A14.25,14.25,0,0,1,352,326.7Z"/><rect class="cls-5" x="116.36" y="168.13" width="232.33" height="137.51"/><polygon class="cls-4" points="208.6 312.45 211.91 317.72 258.49 317.72 261.57 312.45 208.6 312.45"/><rect class="cls-9" x="124.11" y="177.29" width="213.91" height="128.3"/><path class="cls-4" d="M133.24,183.62a1.8,1.8,0,1,1-1.79-1.8A1.79,1.79,0,0,1,133.24,183.62Z"/><path class="cls-4" d="M140.57,183.62a1.8,1.8,0,1,1-1.8-1.8A1.8,1.8,0,0,1,140.57,183.62Z"/><path class="cls-4" d="M147.89,183.62a1.8,1.8,0,1,1-1.79-1.8A1.79,1.79,0,0,1,147.89,183.62Z"/><path class="cls-4" d="M338,191.47c0,.11-47.89.2-106.95.2s-107-.09-107-.2,47.88-.21,107-.21S338,191.35,338,191.47Z"/><rect class="cls-4" x="109.75" y="312.56" width="246.24" height="0.79"/><rect class="cls-4" x="141.65" y="253.8" width="46.78" height="3.13"/><rect class="cls-4" x="202.08" y="210.35" width="46.78" height="3.13"/><path class="cls-4" d="M318.45,222c0,.11-26.06.2-58.18.2s-58.19-.09-58.19-.2,26-.21,58.19-.21S318.45,221.89,318.45,222Z"/><path class="cls-4" d="M318.45,228.84c0,.11-26.06.21-58.18.21s-58.19-.1-58.19-.21,26-.2,58.19-.2S318.45,228.73,318.45,228.84Z"/><path class="cls-4" d="M318.45,235.67c0,.12-26.06.21-58.18.21s-58.19-.09-58.19-.21,26-.2,58.19-.2S318.45,235.56,318.45,235.67Z"/><path class="cls-4" d="M318.45,242.51c0,.11-26.06.2-58.18.2s-58.19-.09-58.19-.2,26-.21,58.19-.21S318.45,242.4,318.45,242.51Z"/><path class="cls-4" d="M318.45,249.34c0,.11-26.06.21-58.18.21s-58.19-.1-58.19-.21,26-.2,58.19-.2S318.45,249.23,318.45,249.34Z"/><path class="cls-4" d="M247.5,256.18c0,.11-10.17.2-22.71.2s-22.71-.09-22.71-.2,10.17-.21,22.71-.21S247.5,256.06,247.5,256.18Z"/><path class="cls-4" d="M317.6,269.44c0,.11-17.13.2-38.25.2s-38.24-.09-38.24-.2,17.12-.21,38.24-.21S317.6,269.33,317.6,269.44Z"/><path class="cls-4" d="M317.6,276.69c0,.12-17.13.21-38.25.21s-38.24-.09-38.24-.21,17.12-.2,38.24-.2S317.6,276.58,317.6,276.69Z"/><path class="cls-4" d="M317.6,284c0,.11-17.13.2-38.25.2s-38.24-.09-38.24-.2,17.12-.21,38.24-.21S317.6,283.83,317.6,284Z"/><path class="cls-4" d="M317.6,291.2c0,.12-17.13.21-38.25.21s-38.24-.09-38.24-.21,17.12-.2,38.24-.2S317.6,291.09,317.6,291.2Z"/><path class="cls-4" d="M188.55,268.75c0,.11-10.2.2-22.79.2s-22.8-.09-22.8-.2,10.2-.21,22.8-.21S188.55,268.63,188.55,268.75Z"/><path class="cls-4" d="M188.55,274.44c0,.12-10.2.21-22.79.21s-22.8-.09-22.8-.21,10.2-.2,22.8-.2S188.55,274.33,188.55,274.44Z"/><path class="cls-4" d="M188.55,280.14c0,.11-10.2.2-22.79.2s-22.8-.09-22.8-.2,10.2-.21,22.8-.21S188.55,280,188.55,280.14Z"/><path class="cls-4" d="M188.55,285.84c0,.11-10.2.2-22.79.2s-22.8-.09-22.8-.2,10.2-.21,22.8-.21S188.55,285.72,188.55,285.84Z"/><path class="cls-4" d="M188.55,291.53c0,.12-10.2.21-22.79.21s-22.8-.09-22.8-.21,10.2-.2,22.8-.2S188.55,291.42,188.55,291.53Z"/><rect class="cls-5" x="141.65" y="200.12" width="46.9" height="45.38"/><polygon class="cls-2" points="145.29 241.62 158.26 218.27 168.87 233.19 175.32 225.27 184.92 241.62 145.29 241.62"/><path class="cls-2" d="M173.39,213.73a3.38,3.38,0,1,1-3.37-3.38A3.37,3.37,0,0,1,173.39,213.73Z"/><path class="cls-4" d="M184.92,241.75a.63.63,0,0,1,0-.19c0-.14,0-.31,0-.53,0-.48,0-1.16,0-2,0-1.8,0-4.4-.05-7.71,0-6.63,0-16.07-.1-27.4l.2.19-39.63,0,.22-.22h0v10.18c0,3.33,0,6.6,0,9.77,0,6.36,0,12.37,0,17.89l-.19-.19,28.65.1,8.08,0,2.15,0h.55l.2,0h-.71l-2.11,0-8,.05-28.77.1h-.2v-.2c0-5.52,0-11.53,0-17.89,0-3.17,0-6.44,0-9.77V203.9h0l.23-.23,39.63,0h.19v.19c0,11.39-.08,20.87-.1,27.52,0,3.29,0,5.88,0,7.67,0,.86,0,1.53,0,2,0,.21,0,.38,0,.51S184.92,241.75,184.92,241.75Z"/><rect class="cls-5" x="202.05" y="265.98" width="33.19" height="32.11"/><polygon class="cls-2" points="204.62 295.34 213.81 278.82 221.32 289.38 225.88 283.77 232.67 295.34 204.62 295.34"/><path class="cls-2" d="M224.52,275.6a2.39,2.39,0,1,1-2.39-2.39A2.39,2.39,0,0,1,224.52,275.6Z"/><path class="cls-4" d="M232.67,295.43s0,0,0-.13v-.37c0-.34,0-.83,0-1.45,0-1.27,0-3.11,0-5.45,0-4.69,0-11.37-.07-19.39l.14.13-28,0s.29-.3.15-.16h0v14.11c0,4.5,0,8.75,0,12.66l-.14-.13,20.28.07,5.72,0,1.52,0h-1.46l-5.69,0-20.37.07h-.13v-.14c0-3.91,0-8.16,0-12.66V268.66h0c-.15.14.19-.2.16-.16l28,0h.14v.14c0,8.05-.06,14.76-.07,19.47,0,2.33,0,4.16,0,5.43,0,.61,0,1.08,0,1.42,0,.15,0,.26,0,.36A.32.32,0,0,1,232.67,295.43Z"/><rect class="cls-10" width="576" height="340"/></g></g></svg>