<svg viewBox="0 0 247 247" xmlns="http://www.w3.org/2000/svg"><path d="m0 0h247v247h-247z" fill="none"/><path d="m123.5 68.5a55 55 0 1 0 55 55 55 55 0 0 0 -55-55zm0 108.17a53.17 53.17 0 1 1 53.17-53.17 53.16 53.16 0 0 1 -53.17 53.17z" fill="#fff"/><path d="m123.5 85.61a37.89 37.89 0 1 0 37.89 37.89 37.89 37.89 0 0 0 -37.89-37.89zm0 74.63a36.74 36.74 0 1 1 36.74-36.74 36.74 36.74 0 0 1 -36.74 36.74z" fill="#fff"/><path d="m92 154.63 1.4 1.34.41-.43-2.28-2.18-.09.1-3.56 3.74.88.84 1.68-1.76 1.28 1.22.41-.43-1.28-1.22z" fill="#fff"/><path d="m97.46 158.2a2.55 2.55 0 0 0 -1.91-.45 3 3 0 0 0 -2.37 3.34 2.61 2.61 0 0 0 3 2.11 2.87 2.87 0 0 0 1.82-1.2 3 3 0 0 0 .56-1.7 2.73 2.73 0 0 0 0-.44 2.56 2.56 0 0 0 -1.06-1.66m-.51 3.05c-.38.54-1.38 1.71-2.37 1s-.2-2 .18-2.57 1.38-1.71 2.37-1 .21 2-.17 2.57z" fill="#fff"/><path d="m103.23 161.68a2.65 2.65 0 0 0 -3.6 1.31 2.86 2.86 0 0 0 -.2 2.19 2.62 2.62 0 0 0 3.25 1.64 2.87 2.87 0 0 0 1.64-1.46 2.65 2.65 0 0 0 -1.09-3.67m-2.23 4.43c-1.08-.54-.51-2-.21-2.56s1.11-1.9 2.19-1.35a1.07 1.07 0 0 1 .57.64 3.48 3.48 0 0 1 -1.7 3.36 1.07 1.07 0 0 1 -.85-.08z" fill="#fff"/><path d="m107 163.68-.15.43.94.33-1.56 4.44 1.14.4 1.56-4.44.94.33.2-.56-3-1.07v.13" fill="#fff"/><path d="m114.38 165.7-2.17-.46v.13l-1.06 5.05 2.22.47a1.8 1.8 0 0 0 1.4-.18 1.44 1.44 0 0 0 .61-.94 1.65 1.65 0 0 0 0-.32 1.29 1.29 0 0 0 -.61-1.08 1.28 1.28 0 0 0 .91-1.23 1.45 1.45 0 0 0 -1.29-1.44m-.76.45a1.13 1.13 0 0 1 .75.42.71.71 0 0 1 .11.4 1.16 1.16 0 0 1 0 .24.75.75 0 0 1 -1 .6l-.52-.11.34-1.61.35.07zm-.17 2.26a.86.86 0 0 1 .71.91 1.2 1.2 0 0 1 0 .23.89.89 0 0 1 -.34.6 1 1 0 0 1 -.77.08l-.61-.13.39-1.83.64.14z" fill="#fff"/><path d="m119.56 166.37-2.56 5.18.73.05.61-1.27 1.54.12.43 1.35 1.25.1-1.88-5.82-.16.3m-.28 2.08.44 1.39-1.07-.08.64-1.31z" fill="#fff"/><path d="m125.09 171.16c0-.25-.2-4.63-.2-4.63h-.13-1.08l.22 5.29 3.23-.14v-.66l-2 .08" fill="#fff"/><path d="m130.66 170.63-.72-4.58h-.13l-1.07.17.82 5.23 3.19-.5-.1-.65-2 .32" fill="#fff"/><path d="m142.92 166.12a1.67 1.67 0 0 1 -1.05 1.53 1.37 1.37 0 0 1 -1.08 0 2.39 2.39 0 0 1 -1.19-1.35 2.52 2.52 0 0 1 -.14-1.88 1.56 1.56 0 0 1 .91-.82 1.74 1.74 0 0 1 1.57.3l.11.07.32-.51-.11-.07a2.52 2.52 0 0 0 -2.31-.26 2.76 2.76 0 0 0 -1.54 1.47 2.85 2.85 0 0 0 0 2.2 2.71 2.71 0 0 0 3.51 1.53 2.38 2.38 0 0 0 1.62-2.17v-.16h-.64v.14" fill="#fff"/><path d="m147.06 165-2.26-4-.12.07-.94.53 2.58 4.62 2.82-1.58-.32-.58-1.76 1" fill="#fff"/><path d="m151 156.8-.11.08-.43.32 2.23 3a.8.8 0 0 1 .18.61 1.25 1.25 0 0 1 -.52.74 1 1 0 0 1 -.73.17.87.87 0 0 1 -.58-.37l-2.2-3-1 .72 2.19 3a1.61 1.61 0 0 0 1.07.7 2.25 2.25 0 0 0 1.57-.49 1.64 1.64 0 0 0 .61-2.37z" fill="#fff"/><path d="m158.24 155.3a1.3 1.3 0 0 0 -1.48-.31 1.2 1.2 0 0 0 .07-.39 1.25 1.25 0 0 0 -.38-.88 1.44 1.44 0 0 0 -2.13.09l-1.6 1.55 3.68 3.8 1.63-1.58a1.79 1.79 0 0 0 .63-1.25 1.44 1.44 0 0 0 -.44-1m-2.38-.17a.91.91 0 0 1 -.31.62l-.38.37-1.15-1.21.26-.24c.5-.49.94-.52 1.34-.1a.77.77 0 0 1 .25.54zm1 2.76-1.3-1.34.47-.46a.93.93 0 0 1 1.34.07.9.9 0 0 1 .31.61 1 1 0 0 1 -.37.69z" fill="#fff"/><path d="m98.69 87.92-1.17.32.09.27a3 3 0 0 1 -.88 3.2 2.44 2.44 0 0 1 -1.82.63 4.3 4.3 0 0 1 -2.81-1.59 4.48 4.48 0 0 1 -1.35-3.09 2.79 2.79 0 0 1 1-1.92 3.13 3.13 0 0 1 2.83-.42h.25l.26-1.11-.26-.06a4.57 4.57 0 0 0 -4.11 1 5 5 0 0 0 -.4 7.22 4.93 4.93 0 0 0 6.94.5 4.32 4.32 0 0 0 1.47-4.69l-.07-.26" fill="#fff"/><path d="m105.33 76.6-1.79.84 1.7 3.61-2.89 1.36-1.7-3.61-2 1 4.1 8.69 2-1-1.86-4 2.89-1.36 1.86 4 2-1-4.1-8.69-.24.11" fill="#fff"/><path d="m114.81 82.73-.65-3.21 3.38-.68-.22-1.1-3.38.68-.59-2.91 3.58-.72-.22-1.1-5.78 1.17 1.9 9.42 5.84-1.18-.22-1.1-3.64.74" fill="#fff"/><path d="m124.44 73.33h-2.24v.26l-.2 9.35 5.89.12v-1.25l-3.64-.08c0-.5.18-8.36.18-8.36" fill="#fff"/><path d="m135.68 75.85a1.71 1.71 0 0 1 1.3 1.5l.06.29 1.17-.4v-.23a3.31 3.31 0 0 0 -2.45-2.45 3.27 3.27 0 0 0 -2.5.33 2.82 2.82 0 0 0 -1.3 1.74c-.46 1.84.74 2.69 1.7 3.38s1.56 1.17 1.31 2.15a1.22 1.22 0 0 1 -.57.77 1.43 1.43 0 0 1 -1.06.17 1.77 1.77 0 0 1 -1.35-1.41l-.09-.27-1.21.49.07.23a3.29 3.29 0 0 0 2.62 2.25 3.13 3.13 0 0 0 3.89-2.16c.48-1.94-.79-2.87-1.82-3.62-.87-.64-1.4-1.07-1.22-1.79a1.21 1.21 0 0 1 1.5-1" fill="#fff"/><path d="m145.22 79.52 3.26 1.65.51-1-5.26-2.66-.12.24-4.22 8.34 5.31 2.69.51-1-3.31-1.68 1.48-2.92 3.07 1.55.51-1-3.08-1.55 1.34-2.65" fill="#fff"/><path d="m156.24 85.36-9.24 4.79 1 .9 2.24-1.19 2.08 1.81-.83 2.42 1.76 1.53 3.58-10.55-.61.29m-4.91 4 2.24-1.16-.83 2.39z" fill="#fff"/><path d="m136.2 104.84a2.6 2.6 0 0 0 4.81-1.57c0-.05 0-.1 0-.15a2.27 2.27 0 0 1 -2.13 1.47 2.65 2.65 0 0 1 -2-.58l-.62.84" fill="#fff"/><path d="m106.64 141.61h-.01z" fill="#fff"/><path d="m148.18 120.46c-.76-2-3.38-2.89-5.85-2a5.47 5.47 0 0 0 -2.45 1.8c1.63-4.66 8.28-5.65 8.28-10 0-7.27-10.32-5.23-8.82 0a1.84 1.84 0 0 1 0-.23c.26-3 5.55-3.56 5.55.29 0 3.29-6.77 5.12-6.77 9.55s5 5.69 5 10.48c0 .57-.3 3-3.62 3s-4.75-1.79-5.62-4.13c-1.63-3.15-1-8.08-2.87-10l.15-2a3 3 0 0 0 3.09-4.88c0 1.75-3.63 1.65-3.63-1.65 0-4.46 4.16-2.13 4.37-1.15a9 9 0 0 1 0-3.59c-2.25.72-2.46-.58-2.18-1.08s.76-1.26 1.64-1.26c1.26 0 1.18.46 1.12 1.12a9.46 9.46 0 0 1 1.74-2.38v-.82l.65.24.63-1c-.68-1.41-1.6-.73-2.28-2.47-.56-.15-8-.83-7.73-4.35-.66 0-2.44 2.26-1.23 3.48h-1.54c-.82.1-2.75-.48-4 2 3-3 5 4.21-.59 4.21-.83 0-1.53-.34-1.58-.92-.56 2.45 3 3.21 3 3.21a17.39 17.39 0 0 1 -2.62 5.52c.58.58.76 4.07-1.92 4.07 1-2.61-1.87-4.82-4.63-6.28a7.92 7.92 0 0 1 -1.41-.7 30 30 0 0 0 -3.07-1.21v-2a8.2 8.2 0 0 0 2.75-2.39 4.64 4.64 0 0 0 1.05-3.37 3.63 3.63 0 0 0 -.06-.44s0-.09 0-.14 0-.2-.08-.3v-.15c0-.1-.07-.2-.11-.29v-.12c-.06-.13-.12-.25-.18-.37l-.08-.14-.13-.22-.12-.17-.13-.16-.14-.18-.1-.11a4.75 4.75 0 0 0 -.4-.39l-.25-.19h-.07l-.28-.18a5.23 5.23 0 0 0 -3.16-.76 5.63 5.63 0 0 0 -.73.12 4.93 4.93 0 0 0 -2.97 4.62 5 5 0 0 0 2.5 4.59h.06a5.37 5.37 0 0 1 -1.42.61l.08.05.09.05.14.07.14.06.41.14h.06.18.07.25a4.78 4.78 0 0 0 1.16-.09v1.19a3.34 3.34 0 0 1 -1.16-.5h-.09c-.9.15-1.49.43-1.76 1.23s0 1.1.43 1.67c-.36.64-1.3.88-.07 2.3a1.41 1.41 0 0 0 .8 1.65 4.51 4.51 0 0 0 .69.17 1.23 1.23 0 0 1 1.16 1.34v9.13c.42 0 .88.08 1.29.12v-9.78a11.46 11.46 0 0 1 3.16.81 2.43 2.43 0 0 1 .4.08 1.45 1.45 0 1 1 -.81 2.67c1.14 2.19 5.1 1.12 6-.66.42 0 .79.72 1.15 1.43a10.84 10.84 0 0 0 3.45.38s-9.94 6.35-12.81 6.35c-1.23 0-4 0-4 .93-.75 0-1.83 1.27-1.83 2a2.31 2.31 0 0 1 1.28-.55 2.17 2.17 0 0 1 .94.18 4.19 4.19 0 0 0 -1.21 2.21c.83-.83 1.19-.83 1.19-.83s.87-.11 1.18.2a3 3 0 0 0 -.57 1.85s.52-1 1.16-1v9.54c0 .29-1.32.57-1.86.57v1.2h1.37a1.73 1.73 0 0 0 -.41.24 1.09 1.09 0 0 1 .39-.08 1.12 1.12 0 1 1 -.98 1.48v.1a1.79 1.79 0 0 0 2 1.58 1.76 1.76 0 0 0 1.66-1.87 1.74 1.74 0 0 0 -1.09-1.44h1.14v-2.23h-.71v-7.18a1.73 1.73 0 0 1 -.9-1.86 1.92 1.92 0 0 1 1.06.28c-.39.86.58 1.78.58 1.78a1.91 1.91 0 0 1 .38-1.57 3.08 3.08 0 0 1 1.18-1c1.43-.72 3.37-.53 4 .63 3.68-1 6.85-4.67 6.85-4.67l1.81 3.08c4.25 0 2.77-3.18 2.49-3.46a2.32 2.32 0 0 1 2.35 2.31c0 3.91-11.38 4.47-11.38 9.22a3.15 3.15 0 0 0 2 2.75c0 4.33-3 6.91-5 6.91-3.25 0-5.75-.66-5.75 2.89h1.13c-1.08 1.08-.07 2.66-.07 2.66-.23-1.14.32-2.08 2.4-2.07h1.3a1.87 1.87 0 0 0 0 2.45 2.24 2.24 0 0 1 2.34-2.43h.94c-.26.25.16 1.42.76 2a1.62 1.62 0 0 1 1.49-2c4.87-.85.29-5.86 7.71-7.25 0 0-3.69-.55-3.69-2.57 0-1.83 3.34-3.09 4.49-3.09a7.22 7.22 0 0 1 2.51.06c.3 2.91 3.64 2.77 4.37 2.77 2.83 2.83-.72 7.39-.72 7.39-4.35 0-6.07.6-6.07 3.13h.82a2 2 0 0 0 .12 2.06c0-1.4 1.33-1.79 3-1.7h.9a1.6 1.6 0 0 0 .1 2 1.86 1.86 0 0 1 2.2-2h.75c-.28.28 0 1.18.38 1.56a1.4 1.4 0 0 1 1.49-1.53c3.05 0-1.38-6.54 4.58-13-5.23 2.42-8-3.63-8-4.79 2.69 3.15 11.41 3.78 11.41-1.6 0-4.34-4-6.37-3.69-8.09a2.57 2.57 0 1 1 3.52 2.61c2.41-.95 3.8-3.35 3.04-5.36zm-42-8c-.24 0-.36-.31-.36-.42s.09-.44.33-.45a4.07 4.07 0 0 1 1.75.37 4.06 4.06 0 0 1 -1.68.54zm-.38-1.57c-.34 0-.45-.48-.44-.64s.19-.59.53-.57a5.62 5.62 0 0 1 2.35.78 5.56 5.56 0 0 1 -2.4.47zm-.14-2c-.36-.09-.39-.61-.34-.77s.32-.6.68-.51a6.13 6.13 0 0 1 2.37 1.31 6.13 6.13 0 0 1 -2.66-.01zm2.64-5.68a2.33 2.33 0 0 0 0-1.29 1.86 1.86 0 0 1 -1.86-1.85 1.13 1.13 0 0 1 .07-.5l.07-.16-.07.15a1.85 1.85 0 0 1 3.64.51 4.5 4.5 0 0 1 -1.8 3.15zm24.43-3.21h.9l-.45.62s-.6.26-.45-.62zm-2.14 0h1.29s0 1 .9 1.14l-.2.33s-2.58-.63-1.99-1.47z" fill="#fff"/><path d="m108.42 108.93a6.13 6.13 0 0 0 -2.37-1.31c-.36-.09-.64.34-.68.51s0 .68.34.77a6.13 6.13 0 0 0 2.71 0m-.13 1.56a5.62 5.62 0 0 0 -2.36-.78c-.34 0-.52.41-.53.57s.1.62.44.64a5.56 5.56 0 0 0 2.45-.39zm-1.77-4.71v.6a3.34 3.34 0 0 0 1.16.5v-1.19a4.77 4.77 0 0 1 -1.17.12zm-.33 5.84c-.24 0-.34.33-.33.45s.12.43.36.42a4 4 0 0 0 1.72-.5 4.08 4.08 0 0 0 -1.75-.34zm-1.19 15.84a2.15 2.15 0 0 0 -.27 2.39 4.19 4.19 0 0 1 1.21-2.21 2.17 2.17 0 0 0 -.94-.18zm3.07 2.65a1.74 1.74 0 0 0 1.35 2h.2.09s-1-.91-.58-1.78a1.91 1.91 0 0 0 -1.06-.28zm-1.77-25.48a5 5 0 0 1 -2.5-4.59 4.93 4.93 0 0 1 2.77-4.72 4.76 4.76 0 0 0 -.27 9.31zm15.51-5.13a1.7 1.7 0 0 1 2.08 1.58 2.54 2.54 0 0 1 -2.66 2.63c5.6 0 3.62-7.25.59-4.21zm-3.74 16.08c2.67 0 2.5-3.49 1.92-4.07a17.39 17.39 0 0 0 2.62-5.52s-3.53-.76-3-3.21a2.42 2.42 0 0 0 1.15 3.66 9.54 9.54 0 0 1 -2 3.8 17.07 17.07 0 0 1 -5.26-.93c2.76 1.46 5.59 3.67 4.63 6.28zm-10.45-16.77a1.24 1.24 0 0 1 1.36 1.1 1.22 1.22 0 0 1 -1.15 1.29 1.24 1.24 0 0 1 -1.36-1.09 1.86 1.86 0 0 0 1.86 1.85 2.33 2.33 0 0 1 0 1.29 4.5 4.5 0 0 0 1.83-3.14 1.86 1.86 0 0 0 -3.64-.5 1.25 1.25 0 0 1 1.08-.79zm19.71-1.35c-1.21-1.21.58-3.48 1.23-3.48-.72 0-3.83 2-2.78 3.48zm-15.58 20.13a1.45 1.45 0 1 0 .81-2.67 2.43 2.43 0 0 0 -.4-.08c1.39.79 1.37 2.38-.41 2.76zm-2.75-10.19a30 30 0 0 1 3.07 1.21 5.93 5.93 0 0 1 -.94-.72 6.8 6.8 0 0 0 -2.12-1.48v1zm.52 17.69c2.87 0 12.81-6.35 12.81-6.35a10.84 10.84 0 0 1 -3.45-.38c-.55.29-1.69.86-4.12 2.29-2 1.16-3.3 2.63-5.09 3.27a1.68 1.68 0 0 1 -.68.11c-.41 0-.87-.09-1.29-.12v-9.13a1.23 1.23 0 0 0 -1.16-1.34v10.59a2.87 2.87 0 0 0 -1.37 1.4s-1.48-.2-1.44 2.55c0-.73 1.08-2 1.83-2-.03-.89 2.7-.89 3.92-.89zm24.79 14.69c-.73 0-4.07.14-4.37-2.77a7.23 7.23 0 0 0 -2.51-.06c2.36 4.51 4.93 4.54 5.6 4.58 1 1.16.69 5.1-.81 5-5.52-.29-5.32 3.07-4.7 3.75 0-2.53 1.72-3.13 6.07-3.13-.03.02 3.52-4.53.69-7.37zm1.14 10.88h-.75a1.6 1.6 0 0 0 1.13 1.56c-.42-.38-.7-1.28-.42-1.56zm-7 1.7a2 2 0 0 1 -.12-2.06h-.82a2.55 2.55 0 0 0 .92 2.06zm16.48-41.94c0-3.86-5.29-3.25-5.55-.29.23-2.17 3.77-2.49 3.77.23s-6.59 4.65-6.59 9.4c0 5.23 5.23 5.72 4.7 10.5a2.33 2.33 0 0 1 -2.26 1.91c-2.75 0-4.23-1.17-5.08-2.82.88 2.34 2.42 4.13 5.62 4.13s3.62-2.46 3.62-3c0-4.79-5-5.93-5-10.48s6.77-6.26 6.77-9.55zm-39 18.6a2.88 2.88 0 0 0 .6 2 3 3 0 0 1 .58-1.85c-.33-.26-1.2-.14-1.2-.14zm38.21-8.16a2.57 2.57 0 0 0 -2.56 2.34 1.57 1.57 0 0 1 .68-.93c1.54-1.14 4.55 1.16 2.83 3.54a2.57 2.57 0 0 0 -1-5zm-11.76 29.8h-.9c-.09 1.71 1 2 1 2a1.6 1.6 0 0 1 -.12-2zm-25.38-9.1a1.09 1.09 0 0 0 -.39.08 1.67 1.67 0 0 0 -.61 1.39 1.12 1.12 0 1 0 1.06-1.46zm6.3 8.28h-1.3c0 2.08 1.33 2.45 1.33 2.45a1.87 1.87 0 0 1 0-2.45zm4-13.14c0-4.75 11.38-5.31 11.38-9.22a2.32 2.32 0 0 0 -2.35-2.31c.28.28 1.76 3.46-2.49 3.46-3.84 1.29-12.21 8.56-6.4 11.08 0 .73-.1 6.18-3.59 5.75-5-.62-6.28 1.46-5.32 3.79 0-3.55 2.49-2.89 5.75-2.89 2 0 5-2.57 5-6.91a3.15 3.15 0 0 1 -1.93-2.74zm-9.67 2.91v-9.58c-.64 0-1.16 1-1.16 1v8.09h-.7v1c.54 0 1.86-.28 1.86-.57zm2 12.29s-1-1.58.07-2.66h-1.13a2.22 2.22 0 0 0 1.06 2.67zm7-2h-.94c0 1.47 1.7 2 1.7 2-.59-.61-1-1.78-.74-2.03z" fill="#aaa"/><g fill="#fff"><path d="m172.68 133.11-.09-.18-.06-.19c-.21-.66-.59-1.89-1.6-1.94a1.34 1.34 0 0 0 -.8.23 1.35 1.35 0 0 0 -.17-.81c-.52-.87-1.79-.63-2.47-.51h-.2-.2c-.69 0-2 0-2.34.93a1.33 1.33 0 0 0 0 .83 1.33 1.33 0 0 0 -.83-.09c-1 .23-1.16 1.51-1.24 2.19v.2l-.06.19c-.22.66-.63 1.88.16 2.51a1.32 1.32 0 0 0 .78.28 1.33 1.33 0 0 0 -.34.76c-.09 1 1.07 1.56 1.7 1.86l.18.09.16.12c.56.41 1.59 1.18 2.44.63a1.33 1.33 0 0 0 .51-.66 1.34 1.34 0 0 0 .62.56c.93.39 1.82-.54 2.29-1l.14-.14.16-.12c.56-.4 1.61-1.15 1.35-2.12a1.33 1.33 0 0 0 -.47-.69 1.32 1.32 0 0 0 .72-.41c.61-.78-.02-1.91-.34-2.52zm-3.5 1.83a1.7 1.7 0 0 1 -.07.73c5.36.7 2.1 2.49 1.7 2.84s-2.6 3.29-2.58-2a1.54 1.54 0 0 1 -.47.08h-.23c.93 5.17-1.74 2.67-2.2 2.4s-4-1.47 1.17-3.09a1.63 1.63 0 0 1 -.19-.71c-4.83 2.65-3.25-.73-3.13-1.25s.18-4.27 3.39.3a1.3 1.3 0 0 1 .59-.48c-4.1-3.83-.37-3.37.17-3.42s4.13-1.15.76 3.33a1.31 1.31 0 0 1 .66.35c2.37-5.06 3.08-1.35 3.29-.86s2.35 3.54-2.86 1.78z"/><path d="m169.72 134.87c0-.05 0-.1 0-.15l1.09-.8-.05-.12-1.3.23a2 2 0 0 0 -1.49-.94l-.4-1.2h-.13l-.18 1.25a2 2 0 0 0 -1 .63 2.06 2.06 0 0 0 -.32.55h-1.32v.13l1.21.59v.16a2 2 0 0 0 .67 1.31l-.44 1.36.11.07 1-1a1.93 1.93 0 0 0 .78.09 2 2 0 0 0 .75-.22l1.17.84.1-.09-.66-1.26a2 2 0 0 0 .41-1.43zm-1.07.92a1.16 1.16 0 0 1 -2.05-.65 1.15 1.15 0 0 1 .27-.85 1.13 1.13 0 0 1 .79-.41 1.16 1.16 0 0 1 1 1.91z"/><path d="m85 134-.06-.19v-.2c-.09-.69-.26-2-1.24-2.19a1.34 1.34 0 0 0 -.83.09 1.34 1.34 0 0 0 0-.83c-.36-.95-1.65-.93-2.34-.92h-.2-.2c-.68-.13-1.95-.36-2.47.51a1.33 1.33 0 0 0 -.17.81 1.33 1.33 0 0 0 -.8-.23c-1 .05-1.4 1.28-1.61 1.94l-.06.19-.09.18c-.33.61-.95 1.74-.28 2.5a1.33 1.33 0 0 0 .72.41 1.33 1.33 0 0 0 -.46.69c-.26 1 .79 1.72 1.35 2.12l.17.12.14.14c.48.5 1.36 1.44 2.29 1a1.34 1.34 0 0 0 .61-.56 1.36 1.36 0 0 0 .51.66c.85.55 1.88-.22 2.44-.63l.16-.12.18-.09c.62-.3 1.79-.85 1.7-1.86a1.33 1.33 0 0 0 -.34-.76 1.32 1.32 0 0 0 .78-.28c.74-.63.33-1.85.1-2.5zm-3.82 1.16a1.61 1.61 0 0 1 -.21.72c5.24 1.63 1.7 2.84 1.24 3.12s-3.14 2.79-2.18-2.47a1.64 1.64 0 0 1 -.29 0 1.57 1.57 0 0 1 -.42-.06c0 5.32-2.18 2.36-2.58 2s-3.65-2.13 1.68-2.84a1.68 1.68 0 0 1 -.11-.72c-5.15 1.73-3-1.31-2.81-1.79s.91-4.17 3.25.79a1.31 1.31 0 0 1 .65-.34c-3.3-4.42.27-3.32.8-3.27s4.25-.42.2 3.39a1.31 1.31 0 0 1 .55.52c3.22-4.58 3.27-.82 3.4-.3s1.73 3.95-3.17 1.25z"/><path d="m81.75 135.06 1.22-.59v-.13h-1.35a2 2 0 0 0 -.32-.55 2 2 0 0 0 -1-.63l-.18-1.25h-.12l-.39 1.2a2 2 0 0 0 -1.49.94l-1.3-.23-.05.12 1.09.8v.15a2 2 0 0 0 .44 1.41l-.67 1.26.1.09 1.17-.84a2 2 0 0 0 .75.22 1.93 1.93 0 0 0 .78-.09l1 1 .12-.07-.44-1.35a2 2 0 0 0 .67-1.31 1.53 1.53 0 0 0 -.03-.15zm-2.06 1.15a1.16 1.16 0 1 1 .2-2.32 1.13 1.13 0 0 1 .79.41 1.16 1.16 0 0 1 -1 1.91z"/><path d="m81.75 110.68-.22-.14-1.26-.83-.33-.22c-.36-.24-.69-.46-1-.63l-.35-.19a4 4 0 0 0 -1.5-.44 4.51 4.51 0 0 0 -1.09 1.12 28.71 28.71 0 0 1 5.07 2.78c.15-.34.64-1.39.67-1.45"/><path d="m80.57 113.4.37-.92a28.1 28.1 0 0 0 -5.12-2.81 4.43 4.43 0 0 0 -.44 1.15c.72 1 2.66 2 5.19 2.58"/><path d="m80.28 109.25a3.54 3.54 0 0 1 3-.13 4.48 4.48 0 0 0 -1.17-1.06 3.44 3.44 0 0 0 -2.84.53c.33.19.66.42 1 .67"/><path d="m76.35 114 .41.26a6.64 6.64 0 0 0 .93.42l.42.15c.49.16 1.63.46 1.71.48l.6-1.49c-2-.49-4.11-1.34-5.13-2.45a4.42 4.42 0 0 0 .07 1.5 2.87 2.87 0 0 0 1 1.14"/><path d="m79.89 115.67-.41-.11c-.38-.1-.79-.2-1.21-.33a2.85 2.85 0 0 0 .87 1 4.46 4.46 0 0 0 1.35 0 4.77 4.77 0 0 1 -.6-.57"/><path d="m84 110.54a4.48 4.48 0 0 0 -.37-.88 3.6 3.6 0 0 0 -3-.18l1.42.94a7.25 7.25 0 0 1 .82 0h.38a4.59 4.59 0 0 1 .73.12"/><path d="m83.26 110.8a8.44 8.44 0 0 1 -2.09 5.26 4.45 4.45 0 0 0 2.93-5.06 4.23 4.23 0 0 0 -.83-.16"/><path d="m78.89 108.38a3.32 3.32 0 0 1 2.17-.8 4.11 4.11 0 0 0 -.57-.14 4.44 4.44 0 0 0 -2.9.47 4.75 4.75 0 0 1 1.29.47"/><path d="m82.11 110.81c-.34.7-.54 1.13-.7 1.53l-.15.35-.32.81-.14.36-.63 1.55a2.67 2.67 0 0 0 .59.56 8.13 8.13 0 0 0 2.13-5.19 6.3 6.3 0 0 0 -.77 0"/><path d="m77.8 115.07a8.19 8.19 0 0 1 -.92-.37 4.17 4.17 0 0 0 .43.9 4.45 4.45 0 0 0 1.09.5 2.85 2.85 0 0 1 -.6-1"/><path d="m76.42 114.45a4.41 4.41 0 0 1 -.59-.42 4.48 4.48 0 0 0 .77 1 3.69 3.69 0 0 1 -.18-.58"/><path d="m165.25 110.68.22-.14 1.25-.83.33-.22c.36-.24.69-.46 1-.63l.35-.19a4 4 0 0 1 1.5-.44 4.43 4.43 0 0 1 1.09 1.12 28.86 28.86 0 0 0 -5.07 2.78c-.15-.34-.64-1.39-.67-1.45"/><path d="m166.43 113.4-.37-.92a28 28 0 0 1 5.12-2.81 4.48 4.48 0 0 1 .44 1.15c-.72 1-2.66 2-5.19 2.58"/><path d="m166.72 109.25a3.54 3.54 0 0 0 -3-.13 4.5 4.5 0 0 1 1.17-1.06 3.43 3.43 0 0 1 2.84.53c-.32.19-.66.42-1 .67"/><path d="m170.65 114a4.47 4.47 0 0 1 -.41.26 6.58 6.58 0 0 1 -.93.42l-.42.15c-.49.16-1.63.46-1.71.48l-.6-1.49c2-.49 4.11-1.34 5.13-2.45a4.48 4.48 0 0 1 -.07 1.5 2.86 2.86 0 0 1 -1 1.14"/><path d="m167.11 115.67.41-.11c.38-.1.8-.2 1.21-.33a2.89 2.89 0 0 1 -.87 1 4.44 4.44 0 0 1 -1.35 0 5 5 0 0 0 .59-.57"/><path d="m163 110.54a4.31 4.31 0 0 1 .37-.88 3.59 3.59 0 0 1 3-.18l-1.42.94a7.26 7.26 0 0 0 -.82 0h-.38a4.6 4.6 0 0 0 -.73.12"/><path d="m163.73 110.8a8.43 8.43 0 0 0 2.09 5.26 4.46 4.46 0 0 1 -2.95-3.45 4.4 4.4 0 0 1 0-1.65 4.2 4.2 0 0 1 .83-.16"/><path d="m168.11 108.38a3.32 3.32 0 0 0 -2.17-.8 4 4 0 0 1 .57-.14 4.44 4.44 0 0 1 2.9.47 4.75 4.75 0 0 0 -1.29.47"/><path d="m164.89 110.81c.34.7.53 1.13.7 1.53l.15.35.32.81.14.36.63 1.55a2.68 2.68 0 0 1 -.59.56 8.11 8.11 0 0 1 -2.12-5.19 6.29 6.29 0 0 1 .77 0"/><path d="m169.2 115.07a8.4 8.4 0 0 0 .92-.37 4.22 4.22 0 0 1 -.43.9 4.45 4.45 0 0 1 -1.09.5 2.86 2.86 0 0 0 .6-1"/><path d="m170.58 114.45a4.65 4.65 0 0 0 .59-.42 4.46 4.46 0 0 1 -.77 1 4.09 4.09 0 0 0 .18-.58"/></g></svg>