<svg viewBox="0 0 247 247" xmlns="http://www.w3.org/2000/svg"><path d="m0 0h247v247h-247z" fill="none"/><g fill="#fff"><path d="m60.36 106h9.28l-6.2 16.65s0 .38.24 0 8.62-11.15 8.62-11.15h10l-10.48 11.71 1.52 12h-9.45l-1.21-10s-.1-.28-.21 0l-3.77 10.05h-9.25zm23.54 29.12 8.79-23.58a26 26 0 0 1 -5 .9 13.48 13.48 0 0 1 -4.26-.87l-8.76 23.54zm1.1-24.41h6.89a2.11 2.11 0 0 0 1.9-1.7c.55-1.73.73-2.39.73-2.39s.14-.83-.59-.83h-6.93a2.19 2.19 0 0 0 -1.89 1.21c-.41 1.14-.76 2.08-.83 2.39s-.28 1.29.72 1.32zm8.6 9.05s-3.39 9.28-3.6 10a6.94 6.94 0 0 0 -.1 3.95c.52 1.49 2.56 1.77 3.95 2a26.91 26.91 0 0 0 6.33-.17 15.21 15.21 0 0 0 4.15-1.18l2.11-5.43s-2 .52-2.35.55a8.22 8.22 0 0 1 -2.56.1c-2.24-.48-1.36-2.09-1.31-2.18l2.91-7.62h6.79l3-8.17h-6.54c-.17 0-.17-.14-.17-.14l1.7-4.6h-5.12a29.29 29.29 0 0 1 -4.43 4.22 41.28 41.28 0 0 1 -5.68 3.43l-1.87 5.26zm11.4 15.5h9.28s1.73-4.54 1.8-4.78.17 0 .17 0 0 .9 0 1.39a4.64 4.64 0 0 0 .35 1.7 3.37 3.37 0 0 0 1.45 1.52 5.76 5.76 0 0 0 2.87.62 8.26 8.26 0 0 0 2.91-.24 9.35 9.35 0 0 0 4.33-2 9.52 9.52 0 0 0 2.77-2.8 34.91 34.91 0 0 0 3.18-5.92c.31-.73 1.52-4.12 1.77-4.85a28.4 28.4 0 0 0 .8-3.08 10.13 10.13 0 0 0 0-2.53 3.47 3.47 0 0 0 -.8-1.77 3.61 3.61 0 0 0 -1.42-1 9.66 9.66 0 0 0 -2.94-.55 16.41 16.41 0 0 0 -3.77.42 12.47 12.47 0 0 0 -3.5 1.87 15.34 15.34 0 0 0 -2.67 3c-.17.24-.21-.14-.21-.14l3.77-10.18h-9.31zm18.52-15.44a3 3 0 0 1 1.77.76 2 2 0 0 1 .42 1.18 6.15 6.15 0 0 1 -.35 1.94 13.29 13.29 0 0 1 -1.16 2.3 5.67 5.67 0 0 1 -1.73 1.63 4 4 0 0 1 -1.94.52 3.43 3.43 0 0 1 -1.73-.38 2.45 2.45 0 0 1 -.69-1.8 6.35 6.35 0 0 1 .55-2.15 17.83 17.83 0 0 1 1.52-2.49 5.54 5.54 0 0 1 1.38-1.14 5.75 5.75 0 0 1 1.45-.42 1.5 1.5 0 0 1 .49.05zm25.76-.28a3.21 3.21 0 0 0 -1.21.38 4.35 4.35 0 0 0 -1.28.86 10.86 10.86 0 0 0 -1.52 2 10.32 10.32 0 0 0 -.83 2.28 4.51 4.51 0 0 0 .14 2 2 2 0 0 0 1.11.9 4 4 0 0 0 1.77.14 3.71 3.71 0 0 0 1.42-.55 6.92 6.92 0 0 0 1.49-1.35 9.82 9.82 0 0 0 1.14-2.08 9.16 9.16 0 0 0 .55-2.7 1.72 1.72 0 0 0 -.45-1.18 2.65 2.65 0 0 0 -1.8-.66 1.66 1.66 0 0 0 -.55-.04zm6.92-8h9.28l-8.72 23.64h-9.28l1.59-4.4s-.1-.28-.21-.07a13.34 13.34 0 0 1 -2.8 3 11.05 11.05 0 0 1 -3.46 1.63 11.46 11.46 0 0 1 -2.94.35 11.8 11.8 0 0 1 -2.63-.35 4.3 4.3 0 0 1 -2.11-1.45 5 5 0 0 1 -.73-2.25 18.92 18.92 0 0 1 .28-3.43c.21-1 .87-3.57 1-4.19a51.83 51.83 0 0 1 2.22-5.43 26.09 26.09 0 0 1 2.49-3.57 21.39 21.39 0 0 1 2.91-2.46 12.19 12.19 0 0 1 2.53-1.11 11.47 11.47 0 0 1 3.12-.52 8.72 8.72 0 0 1 2.22.14 4.72 4.72 0 0 1 2.66 1.73c.21.42.66.42.73 2.84 0 1 .21.48.21.48zm24.8 3.46c-.14.41-.28.21-.31-.07-.06-.5.11-.57-.21-1.21a5.18 5.18 0 0 0 -3.6-2.49 15.11 15.11 0 0 0 -4.33 0 11 11 0 0 0 -4.22 1.7 13.52 13.52 0 0 0 -3.6 3.88 40.44 40.44 0 0 0 -2.66 5.82 25.15 25.15 0 0 0 -1.28 5.26 5.49 5.49 0 0 0 1 3.6c.8 1 2.15 1.28 3.46 1.45a13.4 13.4 0 0 0 4.6-.31 8.88 8.88 0 0 0 3-1.21 10.79 10.79 0 0 0 2.6-2.22c.31-.42.21.35.21.35a32 32 0 0 1 -1.31 3 7.14 7.14 0 0 1 -3 2.49c-1.52.83-4.67 1-6.34.83s-5.57-1-5.57-1l-1.44 5.32a12.51 12.51 0 1 1 1.52.38 32.32 32.32 0 0 0 6.75.66 35.08 35.08 0 0 0 4.53-.21 20.88 20.88 0 0 0 5.12-1.14 14.54 14.54 0 0 0 5.71-3.63 14.32 14.32 0 0 0 2.11-3.53l7.75-21.19h-9.28s-1.09 3.09-1.21 3.47zm-4.67 3.27c-.87 0 1.35-.07 1.9.69a1.81 1.81 0 0 1 .45 1.66 10.37 10.37 0 0 1 -.55 2 9.51 9.51 0 0 1 -1.21 2.25 5.1 5.1 0 0 1 -1.52 1.25 2.6 2.6 0 0 1 -1.73.38 2.68 2.68 0 0 1 -1.87-.52 1.57 1.57 0 0 1 -.59-1.18 5.81 5.81 0 0 1 .38-2.18 12.46 12.46 0 0 1 1.32-2.49 5.29 5.29 0 0 1 1.38-1.25 3.42 3.42 0 0 1 1.14-.52 4.53 4.53 0 0 1 .9-.14z"/><path d="m196.8 115.73a2.49 2.49 0 0 1 -4.24-1.79 2.38 2.38 0 0 1 .78-1.82 2.44 2.44 0 0 1 1.72-.68 2.5 2.5 0 0 1 1.75 4.29zm-3.21-3.24a2.07 2.07 0 0 0 0 2.92 2 2 0 0 0 2.91 0 2.07 2.07 0 0 0 0-2.92 2 2 0 0 0 -2.92 0zm.37 2.83v-2.76h1.34a1.34 1.34 0 0 1 .54.14.7.7 0 0 1 .37.66.61.61 0 0 1 -.19.5.9.9 0 0 1 -.48.19.94.94 0 0 1 .39.16.75.75 0 0 1 .24.62v.25a.67.67 0 0 0 0 .08.37.37 0 0 0 0 .08v.08h-.69a2 2 0 0 1 0-.38 1.28 1.28 0 0 0 0-.34.34.34 0 0 0 -.2-.2.87.87 0 0 0 -.25 0h-.31v1zm1.32-2.22a1.23 1.23 0 0 0 -.42-.06h-.18v.8h.32a.67.67 0 0 0 .4-.1.38.38 0 0 0 .14-.33.32.32 0 0 0 -.26-.3z"/></g></svg>