<svg viewBox="0 0 247 247" xmlns="http://www.w3.org/2000/svg"><path d="m0 0h247v247h-247z" fill="none"/><g fill="#fff"><path d="m68.5 128.31a10 10 0 1 0 10-10 10 10 0 0 0 -10 10m.8 0a9.2 9.2 0 1 1 9.2 9.2 9.21 9.21 0 0 1 -9.2-9.2"/><path d="m158.5 128.29a10 10 0 1 0 10-10 10 10 0 0 0 -10 10m.79 0a9.2 9.2 0 1 1 9.2 9.2 9.21 9.21 0 0 1 -9.2-9.2"/><path d="m155.11 139.35-.12.14c-8.05 9.17-18.68 15.26-28.43 16.29l.08.79c9.94-1 20.77-7.23 28.95-16.55l.12-.14a7 7 0 0 1 5.82-2.78 8 8 0 0 1 5.68 2.66 8.22 8.22 0 0 1 2 6.52c-.43 4.58-7 14.58-17.74 20.68a55.9 55.9 0 0 1 -56.22 0c-10.74-6.1-17.31-16.1-17.74-20.68a8.21 8.21 0 0 1 2-6.52 8 8 0 0 1 5.68-2.66 7 7 0 0 1 5.82 2.78l.13.14c8.17 9.3 19 15.49 28.9 16.55l.08-.79c-9.73-1-20.34-7.13-28.38-16.29l-.12-.14a7.8 7.8 0 0 0 -6.42-3.06 8.82 8.82 0 0 0 -6.2 2.92 9 9 0 0 0 -2.25 7.13c.45 4.75 7.17 15.06 18.14 21.3a56.7 56.7 0 0 0 57 0c11-6.24 17.69-16.55 18.14-21.3a9 9 0 0 0 -2.25-7.13 8.82 8.82 0 0 0 -6.27-2.92 7.8 7.8 0 0 0 -6.42 3.06"/><path d="m141.3 97.91h-36.1l-.1.07a29.54 29.54 0 0 0 -3 2.56l-.1.11v44.27l21.39 13.75 21.39-13.75v-44.31l-.13-.12c-.75-.68-2.43-2-3.11-2.5l-.11-.08zm-.14.79c.59.46 2.07 1.6 2.83 2.26v43.52l-20.59 13.25-20.59-13.24v-43.49a31.21 31.21 0 0 1 2.64-2.27z"/><path d="m97.91 79.57a50.64 50.64 0 0 0 -14.38 13.43c-5.27 7.48-8.46 9.68-10.37 11l-.83.58v.19a22.87 22.87 0 0 0 .8 6.26c1.2 4.33 3.63 7.07 7 7.93 4.7 1.19 9.38-1.42 14.3-8l.69-1c3.12-4.44 12.6-18 28.25-18s25.14 13.51 28.25 18l.69 1c4.93 6.57 9.6 9.18 14.3 8 3.4-.86 5.83-3.6 7-7.93a22.83 22.83 0 0 0 .8-6.26v-.2l-.83-.58c-1.91-1.31-5.1-3.52-10.37-11a50.63 50.63 0 0 0 -14.38-13.48 48.55 48.55 0 0 0 -51 0m-24.22 25.19c1.95-1.34 5.21-3.6 10.57-11.19a49.83 49.83 0 0 1 14.15-13.26 47.76 47.76 0 0 1 50.13 0 49.83 49.83 0 0 1 14.15 13.26c5.36 7.59 8.62 9.85 10.57 11.19l.49.34v.08a22.71 22.71 0 0 1 -.78 5.76c-1.14 4.08-3.31 6.56-6.45 7.36-4.35 1.1-8.76-1.41-13.47-7.7l-.67-.94c-3.17-4.52-12.83-18.29-28.9-18.29s-25.73 13.77-28.9 18.29l-.67.94c-4.71 6.28-9.12 8.8-13.47 7.7-3.14-.8-5.32-3.27-6.45-7.36a22.72 22.72 0 0 1 -.78-5.76v-.12l.49-.34"/><path d="m123.44 174.7c-1.85 0-5.21-.28-5.21-.28l.11.4c.07.17 1.43 4.4 5.32 4.4 3.43 0 4.85-3.21 5.29-4.51v-.29c-.52.1-3.68.28-5.53.28m.27 3.72c-3.17 0-4.46-3.59-4.46-3.59s2.67.16 4.2.16 2.54 0 3-.06a1.49 1.49 0 0 1 -1.56.76.78.78 0 0 0 -.78.74.75.75 0 0 0 .84.69c1.15 0 2-1.61 2.28-2.29h.88s-1.22 3.63-4.38 3.63"/><path d="m139.18 172.62a51.25 51.25 0 0 1 -11.37 1.88l.56.35a6 6 0 0 0 5.57 3.16c3.37 0 5.09-2.79 6-5.28zm-5.32 4.54a5.6 5.6 0 0 1 -4.39-2.07 6.39 6.39 0 0 0 .94-.13 3.12 3.12 0 0 0 2.12 1.21c.77 0 1-.33 1-.6a.49.49 0 0 0 -.5-.56 1.29 1.29 0 0 1 -.44.11c-.76 0-.86-.32-.86-.32a40.69 40.69 0 0 0 7-1.43c-.5.93-1.69 3.79-4.89 3.79"/><path d="m108.26 172.62-.8.11c1 2.49 2.67 5.28 6 5.28a6.61 6.61 0 0 0 5.75-3.16l.38-.35a51.26 51.26 0 0 1 -11.37-1.88m5.32 4.54c-3.21 0-4.39-2.87-4.9-3.79a40.77 40.77 0 0 0 7 1.43s-.11.36-.86.32a1.28 1.28 0 0 1 -.44-.11.49.49 0 0 0 -.5.56c0 .26.25.6 1 .6a3.12 3.12 0 0 0 2.16-1.17 6.39 6.39 0 0 0 .94.13 5.6 5.6 0 0 1 -4.39 2.07"/><path d="m104.05 111.76h38.73v2.64h-38.73z"/><path d="m136.89 125.79v-5.09l.56-.87-1.45-2.47-1.39 2.47.56.87v2.66h-1.57v-2.66l.56-.87-1.39-2.47-1.39 2.47.56.87v2.66h-1.61v-2.66l.56-.87-1.39-2.48-1.39 2.46.56.89v5.09h3.14v1.59a4.92 4.92 0 0 0 -1.95.28c-.84.36-1.83.87-2.31 1s-.71.12-.79-.12 0-.4.27-.64 1.37-.66 1.51-1.07c.09-.24 0-.3-.16-.4-.28-.23-2.11-1.63-2.11-1.63a6.7 6.7 0 0 0 .28-1.47v-1.31a6.09 6.09 0 0 1 1.79-4.19h-2.11l-1.28-2.83-1.63 2.84h-1.56l-1.52-2.84-1.38 2.86h-2.15s1 1.56 1.56 2.39a16.25 16.25 0 0 1 1.8 4 1.12 1.12 0 0 1 -.37 1.11 3.64 3.64 0 0 0 -1.62 2.6 3.14 3.14 0 0 0 .74 2.12c.16.27.85 1.14.85 1.54a2.6 2.6 0 0 1 -.21.87s-.82 1.75-1.09 2.17-1.11 1-1.38-.42a40.84 40.84 0 0 1 -.4-5.54 3.64 3.64 0 0 1 .34-1.27 26.46 26.46 0 0 0 1.46-2.84s-2.47-.26-3.42-6c0-.16-.26-.34-.45.05a2.45 2.45 0 0 1 -.42.61c-.11.16-.37.19-.69.05a6.41 6.41 0 0 0 -1-.42c-.34-.08-.77-.19-1 .32s-.77 1.64-1 2.17a1.13 1.13 0 0 1 -1.41.63 14.91 14.91 0 0 1 -1.4-.5c-.27-.11-.42 0-.27.27a9.9 9.9 0 0 1 .77 1.8 14.56 14.56 0 0 1 .32 2.36c0 .32.19.32.45 0a9.19 9.19 0 0 1 2.28-1.8c1-.48 2.44-.61 2.81 0s-.63 1.65-1.45 2.07a.39.39 0 0 0 0 .72c.32.08 1.06.21 1.25.9s.25 7.33.33 10.11 1 3.45 2.19 3.49 1.95 0 1.95 0a21.87 21.87 0 0 1 -.24 3.78c-.32 2.31-.32 3.22.44 4.21a5.84 5.84 0 0 1 1.35 2.43 6 6 0 0 1 -.08 1.67c-.12.68-.12 1.91 1.67 1.55s4.77-1.55 3.38-3.34-2.07-3.22-1.87-3.7 1.19-.75 1.71-1.27.56-1.07 0-1.83-2.42-3.22-2-4.65c0 0 6.64 7.08 7.12 7.55s.94.36 1-.4a5.48 5.48 0 0 0 -.2-1.47 13.43 13.43 0 0 1 -.12-2 23 23 0 0 1 .36-2.66c.08-.6-.08-1.67-1-1.75-.48 0-1.11.08-1.11-.48a8.75 8.75 0 0 1 .32-1.82c.12-.48 0-.56-.28-.75a1 1 0 0 0 -1.15.2 1.26 1.26 0 0 1 -1.53.31 9.44 9.44 0 0 1 1.75-2.94s2.94.91 4 2.11v11.88c0 .71 1.91.79 1.91 0v-12.12a4.87 4.87 0 0 0 .91-1.71 3.43 3.43 0 0 0 -.08-1.67 1.59 1.59 0 0 0 .6-1.31 5.3 5.3 0 0 0 -1.39-3.11v-2.34zm-15.16-4.42c-.34.18-.78-.05-.86-.65 0-.34-.14-1.06 0-1.13s.64.36.88.74.31.86 0 1m1.24 5.19a9.87 9.87 0 0 1 -1-2.36h2a9.41 9.41 0 0 1 -1 2.36m1.9-5.84c-.1.59-.53.83-.86.65s-.27-.67 0-1 .76-.8.91-.74 0 .79 0 1.13m6.92 11.59c-2.27 0-3.22-1.27-3.22-1.71 0-.28.64-.6 1.71-.6a1.79 1.79 0 0 1 1.51.68z"/><path d="m104.05 99.88v10.52h6l-.83-2.77 4.43 1h4.44v-1.13h-2.29v-5.09h2.11l.72-1.39.72 1.39h2.11v5.09h-2.29v1.16h5.62v-1.16h-2.29v-5.09h2.11l.72-1.39.72 1.39h2.11v5.09h-2.36v1.16h5.51v-1.16h-2.31v-5.09h2.11l.72-1.39.72 1.39h2.11v5.09h-2.29v1.16h2.81v1.74h7.6v-10.52zm11.24 3.79-1.59 4.47-3-.73 4.56-4.86z"/><path d="m146.15 155.73-.94.54 3.45 6 .87-.5c1.84-1.06 2.08-2.58.89-4.67-.82-1.48-2.06-2.61-4.26-1.34"/><path d="m166.37 140.51a6.94 6.94 0 0 0 -4.84-2.29 5.85 5.85 0 0 0 -5 2.39l-.13.15c-9.25 10.54-21.91 17.08-33 17.08s-23.78-6.55-33-17.08l-.13-.15a5.85 5.85 0 0 0 -5-2.39 6.94 6.94 0 0 0 -4.84 2.29 7.11 7.11 0 0 0 -1.75 5.65c.32 3.84 6.4 13.68 17.17 19.84a54.77 54.77 0 0 0 55.1 0c10.77-6.12 16.81-16 17.17-19.8a7.11 7.11 0 0 0 -1.75-5.65m-68.87 23.07c-1.58-.88-3.63-2.68-2-5.6l2.94-5.3 2.24 1.24-2.78 5c-.86 1.55-1.18 2.71.22 3.48s2.28-.14 3.11-1.65l2.78-5 2.24 1.24-3 5.32c-1.61 2.9-4.09 2.2-5.79 1.25m17.59 5.84-1.94-.52-3.25-7.79-1.73 6.46-2.13-.59 2.43-9.06 2 .53 3.2 7.72 1.72-6.4 2.17.58zm7.22.87-2.46-.13.49-9.36 2.46.13zm9.07-.87-2.44.34-1.13-8.05-2.63.37-.17-1.23 7.65-1.08.17 1.23-2.59.36zm6.31-1.37-2.9-8.92 5.21-1.69.38 1.18-2.85.93.8 2.46 2.78-.9.39 1.2-2.78.9.94 2.88 3.39-1.1.39 1.2zm12.6-5.34-3.15 1.82-4.7-8.15 3.18-1.83c2.87-1.66 5.42-1.6 7 1.12 1.29 2.28 1 5.14-2.3 7"/><path d="m78.5 120.24a8.07 8.07 0 1 0 8.07 8.07 8.07 8.07 0 0 0 -8.07-8.07m4.27 1.91.48.4a6.31 6.31 0 0 1 1.68 2.22c.46 1.09-1 2.74-1.37 3.12a5.51 5.51 0 0 1 -3.7 1.81.85.85 0 0 1 -1.07-.82 13.2 13.2 0 0 1 1.38-4.44 1.75 1.75 0 0 1 .52-.5 3.72 3.72 0 0 0 1.7-.88 1.6 1.6 0 0 0 .36-.91m-6.7-1.06a7.45 7.45 0 0 1 2.36-.39 6.36 6.36 0 0 1 3.46.87.69.69 0 0 1 .33.66c0 .94-1.49 1.26-2.47 1.26a11.35 11.35 0 0 1 -3.06-.66c-.86-.27-1.05-.77-1.05-1a.9.9 0 0 1 .44-.75m-3.16 11.55a6.81 6.81 0 0 1 -1.72-4.63 7.25 7.25 0 0 1 .31-2.11s.17-.3.33 0 .28.37.42.63.93.85.85 1.32a17.28 17.28 0 0 0 .06 4.52c.08.39 0 .57-.25.37m.19-6.07a4.14 4.14 0 0 1 -.92-1.38 1.41 1.41 0 0 1 0-1 5.84 5.84 0 0 1 2.52-2.5c.12-.06.32-.06.32.25s.08.44.09.61a1.1 1.1 0 0 1 -.14.8 12.34 12.34 0 0 0 -1.43 2.95c-.05.22-.11.45-.47.25m5.48 8.64h-.15a8.2 8.2 0 0 1 -3.66-1c-.89-.5-1.23-2.79-1.23-4a12 12 0 0 1 1.8-6.49 1 1 0 0 1 1.21-.39c.41.11.57.19 1 .34.26.08.77.19 1.16.27s.8.17.55.88a14.3 14.3 0 0 0 -1.17 4.5 13.44 13.44 0 0 0 .59 4.83c.27.73.27 1-.14 1m1.9-.29c-.41.13-.61-.16-.8-.38-.74-.85-.94-3.14-.94-3.44s.11-.63.32-.64a6.54 6.54 0 0 0 4.28-1.54 6.82 6.82 0 0 0 1.8-2.28c.11-.21.34-.18.4.13a6.59 6.59 0 0 1 .14 1.2 7.36 7.36 0 0 1 -5.2 7"/><path d="m168.5 120.22a8.07 8.07 0 1 0 8.07 8.07 8.07 8.07 0 0 0 -8.07-8.07m-3.38 1.34a6.35 6.35 0 0 1 3.46-.88 7.45 7.45 0 0 1 2.36.39.89.89 0 0 1 .44.75c0 .22-.19.72-1.05 1a11.35 11.35 0 0 1 -3.06.66c-1 0-2.47-.32-2.47-1.26a.69.69 0 0 1 .33-.66m-3.06 3.18a6.31 6.31 0 0 1 1.68-2.22l.48-.4a1.6 1.6 0 0 0 .36.91 3.72 3.72 0 0 0 1.7.88 1.75 1.75 0 0 1 .52.5 13.22 13.22 0 0 1 1.38 4.44.85.85 0 0 1 -1.07.82 5.51 5.51 0 0 1 -3.7-1.81c-.41-.39-1.82-2-1.37-3.12m4.45 10.15a7.36 7.36 0 0 1 -5.19-7 6.59 6.59 0 0 1 .14-1.2c.06-.31.29-.35.4-.13a6.83 6.83 0 0 0 1.8 2.28 6.55 6.55 0 0 0 4.28 1.54c.21 0 .32.34.32.64s-.19 2.59-.94 3.44c-.19.22-.38.52-.8.38m5.72-.69a8.19 8.19 0 0 1 -3.66 1h-.15c-.41 0-.42-.26-.14-1a13.45 13.45 0 0 0 .59-4.83 14.29 14.29 0 0 0 -1.17-4.5c-.25-.72.17-.8.55-.88s.9-.19 1.16-.27c.47-.14.63-.23 1-.34a1 1 0 0 1 1.21.39 12 12 0 0 1 1.8 6.49c0 1.17-.34 3.46-1.23 4m1.2-7.9a12.34 12.34 0 0 0 -1.43-2.95 1.1 1.1 0 0 1 -.14-.8c0-.17.09-.44.09-.61s.19-.3.32-.25a5.84 5.84 0 0 1 2.52 2.5 1.41 1.41 0 0 1 0 1 4.15 4.15 0 0 1 -.92 1.38c-.36.2-.41 0-.47-.25m.66 6.32c-.21.21-.33 0-.25-.36a17.26 17.26 0 0 0 .06-4.52c-.07-.47.71-1.06.85-1.32s.3-.44.42-.63.34 0 .34 0a7.26 7.26 0 0 1 .31 2.1 6.8 6.8 0 0 1 -1.73 4.68"/><path d="m83 89.28a2.08 2.08 0 0 0 -2.87-.8 2.65 2.65 0 0 0 -1 .93s-2.89 3.21-6.13 6.38a3.46 3.46 0 0 0 -1 2 2.5 2.5 0 0 0 .63 1.79 2.55 2.55 0 0 0 3.19.29l.05 2.57a48.69 48.69 0 0 0 4.76-4.76l3-4.12a6.25 6.25 0 0 0 -.63-4.28m-7.22 9.72a1.83 1.83 0 0 1 -2.47.07 1.72 1.72 0 0 1 -.42-1.25 2.51 2.51 0 0 1 .74-1.56c.6-.52 3.21-3.15 5.08-5.22a4 4 0 0 0 .37 1 3.35 3.35 0 0 0 1.42 1.28 24.33 24.33 0 0 1 -4.72 5.68m7.15-5a41.35 41.35 0 0 1 -6.33 7.53v-2.14a25.94 25.94 0 0 0 5.19-6.48 5.06 5.06 0 0 1 -1.87-1.23 2 2 0 0 1 -.35-1.34 1.56 1.56 0 0 1 .84-1.14c.41-.18 1.17-.57 2 .58s.67 3.61.54 4.17"/><path d="m174.93 97.82a3.26 3.26 0 0 0 -1-2.11c-3.23-3.15-6.09-6.3-6.09-6.3a2.65 2.65 0 0 0 -1-.93 2.08 2.08 0 0 0 -2.87.8 6.25 6.25 0 0 0 -.65 4.31l3 4.12a48.69 48.69 0 0 0 4.76 4.76l.05-2.57a2.5 2.5 0 0 0 3.15-.32 2.4 2.4 0 0 0 .59-1.76m-4.49 3.78c-4.83-4.65-6.38-7.64-6.38-7.64-.13-.56-.31-2.93.59-4.18s1.59-.76 2-.58a1.56 1.56 0 0 1 .84 1.14 2 2 0 0 1 -.35 1.34 5.07 5.07 0 0 1 -1.87 1.23 25.83 25.83 0 0 0 5.19 6.49zm3.34-2.6a2 2 0 0 1 -2.46 0 23.79 23.79 0 0 1 -4.82-5.79 5.13 5.13 0 0 0 1.42-1.05 2.17 2.17 0 0 0 .37-1.24c1.87 2 4.58 4.78 5.18 5.29a2.31 2.31 0 0 1 .71 1.49 1.67 1.67 0 0 1 -.39 1.25"/><path d="m111.37 69.13c-1.63 0-4.93 1.1-5.68 6.93l.79-.32a57.39 57.39 0 0 1 8.14-2.23 55 55 0 0 0 -8 2.16 9.74 9.74 0 0 1 1.4-3.85c-.05.83.63 1.72 2 1.72s2.1-.78 2.1-1.25a1.07 1.07 0 0 0 -1-1.14c-.73 0-.88.52-.83.73s-.1.26-.31.31-.78-.26-.57-1 1.15-1.19 2.29-1.19c2.17 0 4.55 1.56 6.66 3h.1l.71-.4c-2.62-2.06-5.22-3.46-7.81-3.46"/><path d="m135.44 69.13c-2.59 0-5.19 1.4-7.81 3.46l.71.4h.14c2.11-1.46 4.47-3 6.63-3 1.14 0 2.11.44 2.34 1.23s-.36 1-.57 1-.36-.1-.31-.31-.1-.73-.83-.73a1.07 1.07 0 0 0 -1 1.14c0 .47.75 1.25 2.1 1.25s2-.89 2-1.72a9.73 9.73 0 0 1 1.4 3.84h.12l.79.32c-.74-5.83-4-6.93-5.67-6.93"/><path d="m127.49 72.21c-1.12-2.49-2.54-4.42-3.75-4.42-1 0-2.73 1.34-4.65 5l1.26-.17c.93-.08 2.48-.08 3.2-.08a28.22 28.22 0 0 1 3.2.14l1 .08zm-3.94.13c-.7 0-2.45 0-3.21.08.13-.22.24-.37.36-.56a2.72 2.72 0 0 0 1.09.13 1.86 1.86 0 0 0 1.77-1.4c0-.31-.18-.92-.78-.83s-.36-.3-.36-.3c.74-.85 1.14-.76 1.31-.76.9 0 2.2 2.19 2.88 3.78-.43 0-2.36-.12-3.06-.12"/><path d="m162.53 102.4-2.37 2.13.42.47a1.61 1.61 0 0 0 2.4.27 1.48 1.48 0 0 0 .09-2.26z"/><path d="m172.45 105.59c-2-1.35-5.25-3.62-10.76-11.43-3.29-4.67-15.77-19.89-38.29-19.89s-35 15.23-38.29 19.89c-5.47 7.75-8.9 10.12-10.74 11.4h-.07v.09c.08 2.33.77 10 6.33 11.45 3.86 1 7.88-1.4 12.29-7.28.16-.21.39-.54.65-.92 3.26-4.64 13.17-18.77 29.83-18.77s26.57 14.13 29.83 18.77c.26.38.49.7.65.92 4.41 5.88 8.43 8.26 12.29 7.28 5.58-1.41 6.27-9.1 6.35-11.42v-.09zm-79.29-1-5.1-4.28 3.24 6.49-.71.85-6.8-2.21 5.07 4.27-1.09 1.29-7.18-6 1.5-1.79 7 2.29-3.26-6.74 1.74-2.07 7.18 6zm7.09-7.76-2.45-1-2.17 2.33 1.22 2.36-1.1 1.18-4.49-8.93 1.59-1.77 9.2 3.88zm8.75-6.48-7.91-2.94 3.54 5.67-1.9 1.19-5-8 1.75-1.09 7.83 2.93-3.51-5.62 1.91-1.19 5 8zm7.45-2.35c-4.66 1-6.13-2.06-6.51-3.7-.66-3.05 1.35-5.31 4.42-6a4.79 4.79 0 0 1 3 .21l-.29 1.19a3.35 3.35 0 0 0 -2.18-.23 3.4 3.4 0 0 0 -2.41 4.27c.33 1.57 1.68 3.41 3.93 2.93a3.12 3.12 0 0 0 1.87-1.1l.86 1a4.88 4.88 0 0 1 -2.69 1.43m12.42-.69h-2.46l.07-4.28-3.68-.06-.07 4.29h-2.46l.16-9.37h2.46l-.07 3.83 3.68.06.07-3.83 2.43.05zm8 1-.41 1.19-5.71-2 3.05-8.86 5.2 1.8-.41 1.18-2.84-1-.84 2.44 2.76 1-.41 1.19-2.76-1-1 2.86zm6.84-1.66c.18.39.43.7.64 1.15.78 1.53.77 2.38.12 3.42-.89 1.48-2.8 1.65-4.55.6a4.79 4.79 0 0 1 -2.33-2.82l1.24-.54a3.06 3.06 0 0 0 1.39 2 1.33 1.33 0 0 0 2-.44c.36-.61-.16-1.56-.61-2.32-.19-.37-.52-.93-.52-.93a2.82 2.82 0 0 1 0-3.06c.68-1.13 2.31-1.45 4.32-.24a4.5 4.5 0 0 1 2 2.46l-1.14.49a2.73 2.73 0 0 0 -1.16-1.65c-.69-.41-1.44-.37-1.76.16s0 1 .36 1.68m1.51 8.64 5.44-6-2-1.77.84-.92 5.73 5.16-.83.93-1.94-1.75-5.44 6zm9.29 8.07-1 .81-3.88-4.63 7.18-6 3.52 4.2-1 .8-1.93-2.3-2 1.66 1.88 2.24-1 .81-1.88-2.24-2.32 1.95zm10.36 3.58a2.73 2.73 0 0 1 -3 .69l-1.43 4.26-2.09-1.68 1.76-3.95-.82-.91-2.77 2.49-1.68-1.8 7-6.27 2.55 2.84c1.38 1.53 1.83 3.17.5 4.36"/><path d="m96.64 95.27-3.3-1.47 1.67 3.22z"/><path d="m155.07 173.12v1.69h-.52v-3.74h1.34c.63 0 1.28.2 1.28.94a.89.89 0 0 1 -.71.9c.45.11.51.35.57.77a5.5 5.5 0 0 0 .23 1.13h-.55c0-.22-.11-.47-.13-.69a1.52 1.52 0 0 0 -.21-.83c-.15-.17-.36-.16-.56-.17h-.73zm0-.45h.86c.58 0 .71-.28.71-.58s-.13-.55-.71-.58h-.86z"/><path d="m153 173a2.89 2.89 0 1 0 2.89-2.89 2.89 2.89 0 0 0 -2.89 2.89m.39 0a2.5 2.5 0 1 1 2.5 2.5 2.5 2.5 0 0 1 -2.5-2.5"/></g></svg>