<svg viewBox="0 0 247 247" xmlns="http://www.w3.org/2000/svg"><path d="m0 0h247v247h-247z" fill="none"/><g fill="#fff"><path d="m123.5 68.5a55 55 0 1 0 55 55 55 55 0 0 0 -55-55zm0 108.38a53.38 53.38 0 1 1 53.38-53.38 53.38 53.38 0 0 1 -53.38 53.38z"/><path d="m113.5 112.26a5.36 5.36 0 0 0 5 1.1 5.24 5.24 0 0 0 3.63-3.49 10.62 10.62 0 0 0 -3.13-11.37 5.42 5.42 0 0 0 -5-1.21 5.62 5.62 0 0 0 -3.63 3.59 9.49 9.49 0 0 0 -.15 6.18 9.36 9.36 0 0 0 3.28 5.2z"/><path d="m108 122.21a5.34 5.34 0 0 0 2.58-4.31 10.44 10.44 0 0 0 -6-10.2 5.28 5.28 0 0 0 -7.7 4.57 9 9 0 0 0 1.42 6 9.87 9.87 0 0 0 4.54 4.25 5.52 5.52 0 0 0 5.16-.31z"/><path d="m131.25 113.59a5.81 5.81 0 0 0 4.58-2.45 10.63 10.63 0 0 0 -.21-11.93 5.44 5.44 0 0 0 -4.42-2.37 5.33 5.33 0 0 0 -4.48 2.55 9.14 9.14 0 0 0 -1.83 5.88 9.75 9.75 0 0 0 1.83 5.84 5.47 5.47 0 0 0 4.53 2.48z"/><path d="m149.54 110.59a5.36 5.36 0 0 0 -3.59-3.32 5.55 5.55 0 0 0 -4.8 1.2 9.24 9.24 0 0 0 -3.09 5.05 9 9 0 0 0 .26 6 5.63 5.63 0 0 0 3.59 3.32 5.24 5.24 0 0 0 4.8-1.19 8.68 8.68 0 0 0 3.09-5.05 9.61 9.61 0 0 0 -.26-6.01z"/><path d="m124.5 115s-20.74 6.89-20.74 23.4a11.7 11.7 0 0 0 19.79 8.45v-1.74c-2.12-1.15-7-4.33-7-8.59a4.5 4.5 0 0 1 8-2.86 4.5 4.5 0 0 1 8 2.86c0 5-4.92 7.66-7 8.6v1.73a11.7 11.7 0 0 0 19.79-8.45c-.09-14.07-20.84-23.4-20.84-23.4z"/><path d="m81.82 136.36c-.12-.37 0-.68.15-.77a28.19 28.19 0 0 1 2.68-.93c.73-.23 1.14-.12 1.3.41.24.76-.37 1.19-1.88 1.67-1.3.4-1.99.45-2.25-.38zm10.47-43.25c.17.12.48.05.75-.22.62-.61.26-1.2-.7-2.17-1.11-1.13-1.77-1.47-2.34-.91-.39.39-.31.8.23 1.34a27.7 27.7 0 0 0 2.06 1.96zm82.81 30.39a51.6 51.6 0 1 1 -51.6-51.6 51.6 51.6 0 0 1 51.6 51.6zm-20.1-37.78-7.74 7.91c-.63.64-.82.89-.35 1.35l1.13 1.1c.3.3.6.22 1-.14l2.75-2.81.23.22-1.66 3.65c-.29.65-.51.88-.08 1.3l1.08 1.05c.1.1.16.21.25.3a.53.53 0 0 0 .81.06 1 1 0 0 0 .17-.3l1.56-3.9c1.16.33 2.25-.4 3.86-2 2.35-2.4 2.59-3.94.93-5.56-.53-.52-1-.94-1.43-1.32s-.57-.61-1-1c-.59-.63-.9-.51-1.51.09zm-31.5 2.73a35 35 0 1 0 35 35 35.05 35.05 0 0 0 -35-35zm16.77-1.13c-.43.78-.89 1.36-1.18 1.88a.73.73 0 0 0 .34 1.08c.4.22.81.36 1.14.54 1.07.59 1.89 1.13 2.52 1.48.82.45 1 .06 1.68-1.1.51-.93.64-1.27 0-1.62-.12-.07-.6-.31-1.37-.74-.48-.27-.47-.39-.19-.9l.55-1c.22-.39.32-.55.77-.3s.94.6 1.22.76c.45.25.83 0 1.24-.74l.26-.47c.45-.82.54-1.13-.2-1.54-.43-.24-.82-.39-1.08-.53-.51-.28-.43-.51-.09-1.12l.12-.21c.27-.49.47-.59.81-.4l.71.39.57.33c.56.31.84.27 1.2-.38.05-.1.22-.43.53-1s.28-1-.35-1.3c-.17-.09-.27-.13-.3-.15l-.26-.16-2.42-1.33c-.82-.45-1.18-.61-1.6.16-.11.2-.16.33-.21.42zm-6.48.87.59.18c.83.25 1.11.25 1.4-.73.23-.77.39-1.42.56-2 .46-1.52 1.25-4 2.28-7.39l.32-1.07c.19-.64.29-1 .19-1.23s-.37-.31-.78-.43l-.78-.23c-.76-.23-1-.26-1.23.51 0 .13-.19.76-.53 1.9-1.61 5.36-2.58 8.33-2.77 9-.32 1.03-.27 1.18.75 1.49zm-13.35-2.66c0 .71.17 1.07.61 1.09h1.15c.87 0 .94-.06 1-.6s.06-.72.07-1l.21-5.44h.21c.67 2.43 1 3.69 1.47 3.71s.9-1.2 1.47-3.6h.27v2.57l-.13 3.58c0 .69.1 1 .6 1l1.59.06c.44 0 .56-.28.59-1.06 0-.11 0-.69 0-1.73.1-2.59.13-4.49.18-5.68.06-1.68.18-2.92.21-3.72s0-1.2-.68-1.22l-1.95-.07c-.37 0-.57.16-.72.66l-1.2 4.41h-.21l-.7-4c-.19-1.07-.41-1.21-1-1.23l-1.65-.06c-.69 0-.91.08-.93.67v1.14c0 .74-.09 1.34-.1 1.79l-.31 8.09zm-11.64-9.15c.05.22.11.36.13.45l2.18 8.77c.22.87.27 1.6.42 2.18a.74.74 0 0 0 1 .56c.45-.11.84-.29 1.2-.38 1.19-.3 2.15-.46 2.85-.64.91-.23.8-.66.48-1.95-.26-1-.4-1.36-1.1-1.19-.14 0-.65.18-1.51.4-.53.13-.61 0-.75-.52l-.26-1.06c-.11-.43-.14-.62.36-.74s1.1-.2 1.41-.28c.5-.13.6-.57.4-1.39l-.13-.52c-.23-.9-.37-1.19-1.2-1-.48.12-.86.27-1.15.35-.57.14-.66-.08-.83-.75l-.06-.24c-.14-.54-.06-.75.32-.85l.79-.2.64-.14c.62-.15.8-.37.62-1.1 0-.11-.13-.47-.29-1.1s-.44-.89-1.15-.71a3.3 3.3 0 0 0 -.32.1l-.3.05-2.68.67c-.87.24-1.28.37-1.06 1.22zm-12.55 6.14 5.39 9.67c.44.78.62 1 1.19.72l1.38-.77c.37-.21.38-.51.14-1l-1.91-3.44.28-.16 3 2.58c.54.47.7.74 1.22.45l1.31-.73c.12-.07.25-.1.36-.16a.53.53 0 0 0 .29-.76 1 1 0 0 0 -.24-.25l-3.3-2.6c.65-1 .25-2.27-.86-4.28-1.63-2.93-3-3.6-5.07-2.47-.65.36-1.19.73-1.67 1-.32.18-.74.37-1.22.64-.76.48-.69.83-.29 1.56zm-9.89 8.48c.2.2 1.11 1 2.59 2.5 1.65 1.67 3.05 3.19 4.28 4.44.52.53.89.88 1.06 1s.22.25.41.44.56.34.8.1.36-.49.62-.74.38-.3.52-.43c.34-.34.32-.61 0-1-.12-.12-.64-.55-1.45-1.37-.43-.44-.4-.71.06-1.15l.25-.22c1.44-1.42 1.12-3.8-1.14-6.1s-4.28-2.69-6-1c-1.5 1.53-2.16 2.33-2.2 2.36-.31.36-.24.71.2 1.17zm-7.29 46.39c0 .1.05.23.08.33.6 1.93 2.87 2.74 5.95 1.78s4.35-2.57 3.61-4.93c-.59-1.89-1-2.86-1-2.91-.18-.45-.52-.54-1.13-.35-.27.08-1.4.53-3.41 1.16-2.24.7-4.24 1.25-5.91 1.78l-1.42.46-.58.16c-.41.13-.56.34-.46.66s.27.55.37.89.09.47.15.66c.14.46.39.56.87.41.16-.05.78-.32 1.88-.66.59-.21.82-.05 1.01.56zm8.5 10.37.47-.27c.8-.47 1-.69.61-1.42-.25-.43-.51-.75-.66-1-.3-.5-.1-.66.49-1l.21-.12c.48-.28.71-.27.9.07l.41.7c.13.21.22.41.31.57.32.55.58.66 1.23.29.1-.06.41-.26 1-.59s.73-.67.36-1.3c-.1-.17-.17-.25-.19-.28s-.1-.21-.14-.27l-1.4-2.38c-.47-.81-.7-1.13-1.46-.68-.19.11-.31.2-.39.25l-7.81 4.55c-.77.45-1.46.71-2 1a.74.74 0 0 0 -.26 1.1c.23.4.51.73.7 1 .62 1.06 1 1.93 1.41 2.56.47.81.86.58 2-.08.92-.54 1.2-.76.83-1.39-.07-.12-.36-.57-.8-1.33-.28-.47-.21-.58.29-.87l1-.54c.38-.23.56-.31.81.14s.5 1 .66 1.28c.25.46.71.43 1.43.01zm10.88 2.57c-.21-.22-.45-.42-.68-.67s-.52-.63-.89-1c-.11-.12-.72-.71-1.79-1.84-.39-.41-.8-.39-1.29.08-.89.85-1.3 1.26-1.19 1.57s.59.71.83 1.12c.06.12 0 .19-.16.35-1 1-1.63 1.47-1.81 1.64s-.45.47-.67.68l-3.51 3.32c-.24.23-.51.44-.74.65s-.4.67 0 1.09.6.55.81.77.22.26.28.32c.32.33.6.31 1-.08.18-.17.44-.49.86-.88l5.47-5.2.23-.22c.23-.22.41-.22.74.13l.4.42c.41.44.89 0 1.82-.87l.16-.15c.61-.56.6-.74.14-1.23zm8.23 9.49a1.86 1.86 0 0 1 .59.21 1.06 1.06 0 0 0 .44.16c.33 0 .49-.19.67-.54s.2-.47.28-.63.3-.56.38-.71c.35-.7.22-1-.44-1.33-3.21-1.62-4.8-.5-7 3.77-1.12 2.21-1.76 3.87-1.59 5.36s1 2.14 2.32 2.82c.81.41 1.21.36 1.56-.34 0-.08.22-.52.62-1.31.23-.45.17-.77-.11-.91s-.4-.16-.65-.29c-1-.5-.55-1.59.52-3.71 1-1.89 1.48-2.69 2.42-2.55zm9.11-.27c-.08-.23-.29-.31-.61-.39l-2.11-.55c-.5-.13-.67.27-1.15 1.32-.14.33-.92 2.13-2.44 5.41-.22.48-.33 1-.52 1.37l-1.21 2.48a7.59 7.59 0 0 0 -.55 1.21c-.09.36 0 .57.52.69l1.58.41c.67.17.88-.08 1.09-.87.05-.2.09-.4.15-.64s.49-.47 1.12-.31c.45.12.59.33.58.8s-.16.83-.17 1.28a.6.6 0 0 0 .41.55l1.51.39a.73.73 0 0 0 1-.48 24.49 24.49 0 0 0 .19-2.92c.17-2.15.42-3.74.47-4.79a49.16 49.16 0 0 0 .15-4.96zm11.09 13.54a1 1 0 0 0 -.08-.34l-1.55-3.9c1.07-.56 1.36-1.84 1.39-4.14.05-3.35-.83-4.64-3.15-4.67-.74 0-1.4 0-1.95 0-.37 0-.83-.05-1.38-.06-.87 0-1 .32-1 1.16l-.16 11.1c0 .89 0 1.21.67 1.22h1.58c.42 0 .59-.25.6-.76l.06-3.93h.32l1.3 3.73c.24.67.23 1 .83 1h1.5.39c.4.11.63-.09.64-.41zm10.5-3.27c-.24-1-.37-1.37-1.08-1.2-.14 0-.65.17-1.51.37-.54.12-.61 0-.74-.54l-.23-1.08c-.1-.44-.13-.62.38-.74s1.1-.18 1.41-.25c.5-.12.62-.56.43-1.38l-.12-.53c-.21-.91-.35-1.2-1.18-1-.48.11-.87.26-1.16.33-.57.13-.66-.1-.81-.77l-.05-.24c-.13-.55 0-.75.33-.84l.79-.18.64-.13c.62-.14.81-.36.64-1.09 0-.11-.13-.47-.27-1.1s-.43-.9-1.13-.73c-.19 0-.29.09-.32.09h-.3l-2.69.62c-.91.21-1.28.33-1.09 1.19.05.22.1.36.12.45l2 8.81c.2.87.24 1.61.38 2.19a.74.74 0 0 0 1 .58c.45-.1.85-.27 1.21-.36 1.19-.28 2.16-.42 2.86-.59.89-.16.79-.59.49-1.88zm12.78-8.18.29-.18c1.65-1.16 1.74-3.57-.11-6.2s-3.77-3.37-5.8-1.95c-1.62 1.14-2.42 1.83-2.46 1.86-.37.31-.36.66 0 1.18.16.23.93 1.17 2.14 2.9 1.35 1.92 2.48 3.66 3.48 5.09.43.61.73 1 .87 1.21s.18.29.33.5.49.43.77.23.44-.42.73-.63.42-.23.58-.34c.39-.27.42-.54.13-1-.1-.14-.54-.65-1.2-1.59-.35-.45-.27-.72.25-1.08zm11.4-7.15-.73-.66c-.61-.55-.94-.66-1.38-.17-.18.2-.29.41-.42.55a.58.58 0 0 1 -.89.1c-.35-.22-1.91-1.64-4.7-4.16-1.09-1-1.7-1.57-1.84-1.69-.35-.31-.59-.51-.8-.48a.53.53 0 0 0 -.28.2c-.14.16-.33.42-.6.72s-.5.53-.55.58c-.37.41-.14.66.55 1.28l3.09 2.78c1.66 1.5 3.14 2.89 4.49 4.12l.14.13c.9.81 1.31 1.16 1.76.66.12-.13.19-.26.27-.35l1.49-1.64c.12-.13.3-.3.5-.53a.88.88 0 0 0 -.1-1.44zm6.19-8.85a24.56 24.56 0 0 0 -2.74-1c-2-.78-3.46-1.48-4.45-1.83a49 49 0 0 0 -4.71-1.61c-.25 0-.37.19-.55.47l-1.13 1.86c-.27.44.06.72.94 1.48.28.23 1.78 1.49 4.48 3.9.4.35.84.59 1.16.89l2 1.87a7.59 7.59 0 0 0 1 .87c.32.19.55.13.81-.3l.84-1.39c.36-.59.18-.87-.52-1.29l-.57-.32c-.29-.17-.31-.6 0-1.16a.67.67 0 0 1 .94-.32c.37.12.74.39 1.18.53a.6.6 0 0 0 .64-.23l.81-1.33a.73.73 0 0 0 -.13-1.09zm4.39-10c.23-.73-.3-.91-1.26-1.21-2-.63-3.14-.95-3.37-1-.69-.22-1.26-.45-1.78-.62l-5-1.58-.39-.14c-.6-.19-.78-.06-1 .56l-.33 1c-.19.59.12.74.87 1l5 1.6-.11.34c-3.59 0-5.61-.18-6.07-.2s-.54.09-.66.5l-.48 1.54c-.23.74.2.93 1.06 1.21l10.28 3.23c.92.29 1.21.38 1.48-.46l.27-.86c.23-.74 0-.9-.83-1.15l-5-1.56.11-.34 5.39.19c1.08 0 1.19 0 1.4-.67zm-49.41 27.27c-.53 0-.8.32-.81 1v1.32c0 1.1 0 1.55.82 1.56.6 0 1-.49 1-1.23.06-1.86.02-2.68-1.01-2.7zm-22.08-78.29c.54 1 .75 1.35 1.5.94a1.08 1.08 0 0 0 .25-1.56c-.88-1.58-1.33-2.27-2.22-1.77q-.7.39-.21 1.27c.14.22.39.6.68 1.12zm54.71 7.38c1.26-1.29 1.8-1.92 1.07-2.63q-.57-.56-1.27.16c-.2.2-.48.54-.9 1-.77.79-1.08 1.11-.47 1.7a1.08 1.08 0 0 0 1.57-.23zm-43.36 73.66-.24.59c-.06.22.14.44.57.55s.66 0 .75-.35a3.89 3.89 0 0 0 .07-.41l.43-3.91h-.14zm49.7-19.85a4 4 0 0 0 -.37-.18l-3.62-1.53-.06.13 3 2.39.5.4c.19.12.46 0 .69-.39s.16-.63-.17-.82zm-15.8 10c-.45.31-.44.74 0 1.36a28.27 28.27 0 0 0 1.7 2.27c.15.15.46.13.78-.09.71-.5.46-1.14-.33-2.25-.93-1.31-1.53-1.76-2.18-1.3z"/></g></svg>