<svg viewBox="0 0 247 247" xmlns="http://www.w3.org/2000/svg"><path d="m0 0h247v247h-247z" fill="none"/><path d="m23.77 114.35c0 8.89 13.81 5.08 13.81 10.16 0 3-2.58 4-5.12 4s-4.52-1.5-4.61-4.31h-4.53c0 5.26 3.94 7.44 8.69 7.44s10.09-1.73 10.09-7.31c0-5.13-4.43-5.58-8.28-6.86-1.63-.5-5.52-.67-5.52-3.22s1.86-3.63 4.16-3.63c2.49 0 4.71 1 4.53 3.86h4.53c.31-5.18-4.52-7-8.83-7-4.12 0-8.92 2.13-8.92 6.9m39.06 5.17c0 4.27-1.59 8.95-6.84 8.95-4.8 0-6-4.68-6-8.95s1.54-8.94 6.43-8.94c5.16 0 6.42 4.68 6.42 8.94m-17.16 20.08h4.32v-11.3h.13a7.87 7.87 0 0 0 6.34 3.27c8.19 0 10.9-6.22 10.9-12.08 0-6.17-3.16-12.07-9.55-12.07-3.57 0-6.42 1-7.74 4.31h-.08l-.14-3.63h-4.41c.09 1.36.18 2.72.22 4.08zm39.13-19.79c.09 4.22-.86 8.63-5.93 8.63-2.53 0-4.48-1.41-4.48-4.22 0-3.32 3.49-4.27 6.11-4.4zm-3.89-3c-5.39 0-11 1.86-11 8.26 0 4.45 4 6.49 7.92 6.49 3.13 0 5.66-1.23 7.06-4.09h.09c0 1 .13 2 .23 3.09 0 .54.81.32 1.22.32h2.9c-.14-1.9-.18-3.81-.18-4.81v-10.89c0-6.35-4.62-7.76-9.28-7.76-4.48 0-8.37 1.76-8.6 6.76h4.53c0-2.36 2.08-3.63 4.25-3.63 4.57 0 4.8 2.32 4.8 6.26zm31.09-1.4c-.23-4.95-3.85-8-8.64-8-7.2 0-10.54 5.58-10.54 12.25s2.89 11.91 10.17 11.91c5 0 8.83-3.13 9.19-8.26h-4.3c-.23 3.27-2 5.13-4.84 5.13-4.12 0-5.7-3.59-5.7-8.95s1.58-8.94 5.7-8.94c3.08 0 4.44 2 4.66 4.86zm23.13 4.9v-2.13c0-6.31-3.22-10.62-10-10.75-7.2 0-10.54 5.58-10.54 12.25s2.9 11.89 10.19 11.89c5.43 0 9.41-2.59 10.09-7.77h-4.53c-.49 3.32-2.17 4.63-5.52 4.63-4.39 0-6-4.13-5.7-8.13zm-16-3c0-3.72 2.12-6.76 5.7-6.76 4.16 0 5.89 2.95 5.8 6.76z" fill="#bbb"/><g fill="#fff"><path d="m140.9 131v-2.5l13.55-17.87h-13.55v-2.53h16.82v2.5l-13.46 17.87h13.46v2.53z"/><path d="m164.63 120.14a10 10 0 0 0 2.08 6.53 7.35 7.35 0 0 0 6 2.5 6.37 6.37 0 0 0 4.34-1.63 6.55 6.55 0 0 0 2.24-3.71h3a10.22 10.22 0 0 1 -3.67 5.93 11 11 0 0 1 -6.71 1.95 9.12 9.12 0 0 1 -7.51-3.35 13.66 13.66 0 0 1 -2.71-8.81 13.23 13.23 0 0 1 2.84-8.74 9.32 9.32 0 0 1 7.51-3.42q5.21 0 7.85 3.35t2.66 9.41zm.09-2.53h14.83a8.89 8.89 0 0 0 -2.19-5.61 6.8 6.8 0 0 0 -5.28-2.1 6.43 6.43 0 0 0 -5.17 2.24 9.75 9.75 0 0 0 -2.2 5.47z"/><path d="m199.11 107.37v2.59q-1-.07-1.75-.07a5.53 5.53 0 0 0 -4.55 2 8.47 8.47 0 0 0 -1.59 5.43v13.68h-2.75v-18q0-2.62-.22-4.92h2.84q.13 1.95.13 3.58a7.07 7.07 0 0 1 2.3-3.29 6.35 6.35 0 0 1 3.73-1z"/><path d="m202.1 119.54a12.85 12.85 0 0 1 3-8.81 9.88 9.88 0 0 1 7.76-3.36 9.73 9.73 0 0 1 8 3.51 13.13 13.13 0 0 1 2.88 8.66 12.7 12.7 0 0 1 -3 8.83 10.09 10.09 0 0 1 -7.85 3.33 9.63 9.63 0 0 1 -7.8-3.53 13.14 13.14 0 0 1 -2.99-8.63zm3 0a11 11 0 0 0 2.15 6.77 6.76 6.76 0 0 0 5.68 2.86 6.55 6.55 0 0 0 5.81-3 11.72 11.72 0 0 0 2-6.66 10.86 10.86 0 0 0 -2.15-6.89 6.81 6.81 0 0 0 -5.68-2.75 6.68 6.68 0 0 0 -5.75 2.86 11.31 11.31 0 0 0 -2.08 6.81z"/></g></svg>