<svg viewBox="0 0 247 247" xmlns="http://www.w3.org/2000/svg"><path d="m0 0h247v247h-247z" fill="none"/><g fill="#fff"><path d="m16.83 130.25-4.13-9.71-3.58 9.71h-.5l-4.62-10.85c-.74-1.73-1.49-2.44-2.7-2.51v-.37h6.8v.36a1.82 1.82 0 0 0 -1.56.66 2.16 2.16 0 0 0 .14 2l3 6.83 3.32-9.85h.58l4.25 9.89 2.35-6.85c.35-1 .37-1.68.05-2.13a1.48 1.48 0 0 0 -1.2-.54v-.37h5.16v.37c-1.4.07-2.21.79-2.83 2.53l-4 10.84h-.5zm18.06-8.07c-3.83.9-5.7 2.27-5.7 4.22a2.13 2.13 0 0 0 2.1 2.29c.94 0 1.95-.34 3.79-2l.08-.07v-4.5zm-4.89 7.87a3.14 3.14 0 0 1 -3.38-3.17c0-2.75 2.65-4.51 8.35-5.51h.18v-.19c0-3.09-.42-4.46-2.91-4.46a2.41 2.41 0 0 0 -2.5 2.16 1.16 1.16 0 1 1 -2.32 0c0-1.86 2.52-3 4.86-3 3.74 0 5.26 1.53 5.26 5.27v6.1c0 1.62.8 1.8 1.14 1.8a1.81 1.81 0 0 0 1.09-.5l.3.41a3.49 3.49 0 0 1 -2.35 1 2.3 2.3 0 0 1 -2.5-2.15l-.06-.42-.31.28c-1.85 1.68-3.26 2.37-4.86 2.37m13.13-.53v-.4c2.62 0 3.16-.94 3.16-4.95v-2c0-4-.54-4.86-3.16-4.91v-.44l5-.94a19.45 19.45 0 0 1 .6 2.69l.1.71.32-.64a5 5 0 0 1 4-2.79c2 0 2.94 1.33 2.94 2.28 0 .63-.18 1.67-1.38 1.67a1.24 1.24 0 0 1 -1.18-1.23 1.42 1.42 0 0 0 -1.52-1.56c-1.15 0-3.31 1.7-3.31 4.95v2.22c0 4.05.51 4.91 3.16 4.95v.4h-8.71zm16.18 0v-.4c2.62 0 3.16-.94 3.16-4.95v-2c0-4-.54-4.86-3.16-4.91v-.44l5-.94a19.5 19.5 0 0 1 .6 2.69l.1.71.32-.64a5 5 0 0 1 4-2.79c2 0 2.94 1.33 2.94 2.28 0 .63-.18 1.67-1.38 1.67a1.24 1.24 0 0 1 -1.18-1.23 1.42 1.42 0 0 0 -1.5-1.56c-1.15 0-3.31 1.7-3.31 4.95v2.22c0 4.05.51 4.91 3.16 4.95v.4h-8.72zm22.77-12.51a4.3 4.3 0 0 0 -4 3.43l-.08.29h7.1l.05-.15a2.66 2.66 0 0 0 -.34-2.36 3.14 3.14 0 0 0 -2.73-1.21m.2 13.21a7 7 0 0 1 -7.19-7.21 7.28 7.28 0 0 1 7.19-7.16 5.62 5.62 0 0 1 4.51 2.16 4.47 4.47 0 0 1 .77 3.81h-9.68v.2a6.65 6.65 0 0 0 1.21 5.34 5.31 5.31 0 0 0 4.19 1.65 7.53 7.53 0 0 0 4.38-1.76l.45.55a8.71 8.71 0 0 1 -5.83 2.45m41.35-13.35a4.75 4.75 0 0 0 -4.31 3.31v5.32a4.73 4.73 0 0 0 4.31 3.39c2.94 0 4.77-2.32 4.77-6.06s-1.83-6-4.77-6m-17.55-.26c1.78 1.18 2.15 3.39 2.15 5v2.54c0 4.14 1.07 4.91 3.61 4.95v.4h-9.17v-.4c2.59 0 3.16-1 3.16-4.95v-2.34c0-3-1.19-4.55-3.55-4.55s-4.83 1.86-4.83 4.26v2.62c0 4 .25 4.9 2.8 4.95v.4h-8.36v-.4c2.62 0 3.16-.94 3.16-4.95v-2c0-4-.54-4.86-3.16-4.91v-.44l5-.94a19.42 19.42 0 0 1 .6 2.68l.07.52.32-.41a6.85 6.85 0 0 1 5.39-2.82 6.67 6.67 0 0 1 .74 0c0-9.07 7.68-9.38 7.68-9.38h.56c4 0 7.08 2.85 7.08 6.64v5.43l.4-.5a5.85 5.85 0 0 1 4.77-2.35 7.24 7.24 0 0 1 0 14.44 6.06 6.06 0 0 1 -4.77-2.35l-.39-.49v7c0 4 .54 4.88 3.18 4.93v.4h-8.76v-.41c2.66 0 3.18-.89 3.18-4.93v-11.87c0-4.07-.51-4.93-3.18-5v-.36l.9-.13c2.35-.37 3.46-2.66 3.41-4.77-.12-5.08-5.88-5-5.88-5a7.38 7.38 0 0 0 -5.68 3.05c-1 1.62-1.16 3.9-.38 6.49m37.54 5.58c-3.83.9-5.7 2.27-5.7 4.22a2.13 2.13 0 0 0 2.1 2.29c.94 0 1.95-.34 3.79-2l.07-.07v-4.5l-.27.06zm-4.87 7.87a3.14 3.14 0 0 1 -3.38-3.17c0-2.75 2.65-4.51 8.35-5.51h.18v-.19c0-3.09-.42-4.46-2.91-4.46a2.41 2.41 0 0 0 -2.51 2.16 1.16 1.16 0 1 1 -2.32 0c0-1.86 2.52-3 4.86-3 3.74 0 5.26 1.53 5.26 5.27v6.1c0 1.62.8 1.8 1.14 1.8a1.81 1.81 0 0 0 1.09-.5l.3.41a3.5 3.5 0 0 1 -2.35 1 2.3 2.3 0 0 1 -2.5-2.15l-.06-.42-.31.28c-1.86 1.68-3.26 2.37-4.86 2.37m13.05-.53v-.4c2.62 0 3.16-.94 3.16-4.95v-2c0-4-.54-4.86-3.16-4.91v-.44l5-.94a19.39 19.39 0 0 1 .6 2.69l.1.71.32-.64a5 5 0 0 1 4-2.79c2 0 2.94 1.33 2.94 2.28 0 .63-.18 1.67-1.38 1.67a1.24 1.24 0 0 1 -1.18-1.23 1.42 1.42 0 0 0 -1.5-1.56c-1.15 0-3.31 1.7-3.31 4.95v2.22c0 4.05.51 4.91 3.16 4.95v.4h-8.73zm22.26.56c-2.26 0-3.5-1.53-3.5-4.3v-8.3h-2.08v-.57c2.66-.67 3.31-2.89 3.54-4.84h.94v4.44h3.48v1h-3.48v8.3c0 .77 0 3.13 2 3.13a4.22 4.22 0 0 0 2.6-1.29l.38.39a5.84 5.84 0 0 1 -3.9 2.07m17.78-.56v-.4c2.59 0 3.16-1 3.16-4.95v-2.34c0-3-1.19-4.55-3.55-4.55s-4.83 1.86-4.83 4.26v2.63c0 4 .25 4.9 2.8 4.95v.4h-8.42v-.4c2.62 0 3.16-.94 3.16-4.95v-2c0-4-.54-4.86-3.16-4.91v-.44l5-.94a19.38 19.38 0 0 1 .6 2.69l.07.51.32-.41a6.84 6.84 0 0 1 5.39-2.82c3.17 0 5 2.11 5 5.8v2.54c0 4.05.51 4.91 3.16 4.95v.4h-8.73zm18.33-12.58a4.29 4.29 0 0 0 -4 3.43l-.08.29h7.1l.05-.15a2.66 2.66 0 0 0 -.34-2.36 3.14 3.14 0 0 0 -2.75-1.21m.2 13.21a7 7 0 0 1 -7.19-7.21 7.28 7.28 0 0 1 7.19-7.16 5.62 5.62 0 0 1 4.51 2.12 4.46 4.46 0 0 1 .77 3.81h-9.63v.2a6.65 6.65 0 0 0 1.21 5.34 5.31 5.31 0 0 0 4.21 1.66 7.54 7.54 0 0 0 4.38-1.76l.45.55a8.72 8.72 0 0 1 -5.83 2.45m9.55-.69v-.4c2.63 0 3.16-.94 3.16-4.95v-2c0-4-.54-4.86-3.16-4.91v-.44l5-.94a19.26 19.26 0 0 1 .6 2.69l.1.71.32-.64a5 5 0 0 1 4-2.78c2 0 2.94 1.33 2.94 2.28 0 .63-.18 1.67-1.38 1.67a1.24 1.24 0 0 1 -1.18-1.23 1.42 1.42 0 0 0 -1.5-1.56c-1.15 0-3.31 1.7-3.31 4.95v2.22c0 4.05.51 4.91 3.16 4.95v.4h-8.73zm21.28.69a5.69 5.69 0 0 1 -2.69-.85 2.7 2.7 0 0 0 -1.1-.43c-.62 0-.71.75-.72 1.27h-.4v-5.45h.4a4.81 4.81 0 0 0 4.58 4.52 2.38 2.38 0 0 0 2.51-2.28c0-1.23-1.19-2-2.36-2.66l-2.24-1.21a4.51 4.51 0 0 1 -2.52-3.84 3.67 3.67 0 0 1 3.82-3.45 5.56 5.56 0 0 1 2.71.69 1.65 1.65 0 0 0 .66.24c.43 0 .49-.49.5-.93h.4v4.24h-.4a3.45 3.45 0 0 0 -3.46-3.39c-1.4 0-2.26.75-2.26 2s.75 1.69 2.56 2.66l1.92 1c1.68 1 2.65 2.31 2.65 3.68a4.23 4.23 0 0 1 -4.54 4.18"/><path d="m127.34 139.24a.2.2 0 0 1 -.09-.17.22.22 0 0 1 .22-.22.2.2 0 0 1 .14.05 1.87 1.87 0 0 0 1.29.48c.55 0 .91-.29.91-.69 0-.37-.2-.59-1.06-.77s-1.37-.5-1.37-1.16a1.2 1.2 0 0 1 1.34-1.1 2.1 2.1 0 0 1 1.3.4.23.23 0 0 1 .1.19.23.23 0 0 1 -.36.18 1.72 1.72 0 0 0 -1.05-.35c-.53 0-.87.29-.87.65 0 .38.21.59 1.11.78s1.33.52 1.33 1.14c0 .69-.58 1.14-1.39 1.14a2.39 2.39 0 0 1 -1.55-.54m5.17.25v-3.57a.23.23 0 0 1 .23-.23h2.54a.21.21 0 1 1 0 .42h-2.28v1.38h2a.21.21 0 0 1 .21.21.21.21 0 0 1 -.21.21h-2v1.41h2.33a.21.21 0 1 1 0 .42h-2.56a.23.23 0 0 1 -.23-.23m7.83-1.25-.94-2.06-.94 2.06zm-2.89 1.18 1.66-3.58a.3.3 0 0 1 .29-.2.3.3 0 0 1 .29.2l1.65 3.57a.3.3 0 0 1 0 .12.22.22 0 0 1 -.22.22.25.25 0 0 1 -.23-.17l-.43-.93h-2.24l-.43.94a.23.23 0 0 1 -.22.15.21.21 0 0 1 -.21-.21.25.25 0 0 1 0-.12m7.83-1.68c.61 0 1-.31 1-.83 0-.5-.38-.8-1-.8h-1.22v1.64h1.25zm-1.71-1.83a.23.23 0 0 1 .23-.23h1.53a1.62 1.62 0 0 1 1.16.4 1.11 1.11 0 0 1 .31.8 1.18 1.18 0 0 1 -1.09 1.17l1 1.29a.24.24 0 0 1 .08.17.24.24 0 0 1 -.23.22.26.26 0 0 1 -.21-.12l-1.15-1.47h-1.14v1.37a.23.23 0 1 1 -.46 0v-3.6zm5.33 1.8a2 2 0 0 1 2.06-2.09 2.13 2.13 0 0 1 1.46.52.25.25 0 0 1 .09.19.23.23 0 0 1 -.23.22.28.28 0 0 1 -.15-.05 1.68 1.68 0 0 0 -1.17-.46 1.59 1.59 0 0 0 -1.58 1.65 1.6 1.6 0 0 0 1.58 1.67 1.68 1.68 0 0 0 1.21-.49.21.21 0 0 1 .15-.06.23.23 0 0 1 .22.22.22.22 0 0 1 -.08.16 2.11 2.11 0 0 1 -1.52.59 2 2 0 0 1 -2-2.07m5.77-1.83a.23.23 0 1 1 .46 0v1.59h2.36v-1.59a.23.23 0 1 1 .46 0v3.63a.23.23 0 1 1 -.46 0v-1.61h-2.36v1.61a.23.23 0 1 1 -.46 0zm9-.8a.2.2 0 1 1 .39 0v5.23a.2.2 0 1 1 -.39 0zm6.08 2.94v-2.14a.23.23 0 0 1 .23-.23.23.23 0 0 1 .23.23v2.1a1.19 1.19 0 0 0 1.25 1.36 1.16 1.16 0 0 0 1.23-1.33v-2.14a.23.23 0 1 1 .46 0v2.11a1.7 1.7 0 1 1 -3.4 0m5.78-2.14a.23.23 0 0 1 .23-.22h.06a.28.28 0 0 1 .23.13l2.48 3.12v-3a.22.22 0 1 1 .45 0v3.64a.21.21 0 0 1 -.21.21.31.31 0 0 1 -.24-.14l-2.53-3.2v3.12a.22.22 0 1 1 -.45 0v-3.62zm5.9 0a.23.23 0 1 1 .46 0v3.41h2.13a.21.21 0 0 1 .21.21.21.21 0 0 1 -.21.21h-2.35a.23.23 0 0 1 -.23-.23v-3.6zm8.17 1.83a1.61 1.61 0 0 0 -1.61-1.67 1.59 1.59 0 0 0 -1.6 1.65 1.61 1.61 0 0 0 1.61 1.67 1.59 1.59 0 0 0 1.6-1.65m-3.68 0a2.08 2.08 0 0 1 4.16 0 2.08 2.08 0 0 1 -4.16 0m6.25 0a2 2 0 0 1 2.06-2.09 2.13 2.13 0 0 1 1.46.52.25.25 0 0 1 .09.19.23.23 0 0 1 -.23.22.28.28 0 0 1 -.15-.05 1.68 1.68 0 0 0 -1.17-.46 1.59 1.59 0 0 0 -1.58 1.65 1.6 1.6 0 0 0 1.58 1.67 1.68 1.68 0 0 0 1.21-.49.21.21 0 0 1 .15-.06.23.23 0 0 1 .22.22.22.22 0 0 1 -.08.16 2.11 2.11 0 0 1 -1.51.59 2 2 0 0 1 -2-2.07m5.77-1.83a.23.23 0 1 1 .46 0v2.21l2.33-2.36a.26.26 0 0 1 .18-.08.22.22 0 0 1 .15.39l-1.45 1.42 1.55 1.89a.25.25 0 0 1 .06.17.24.24 0 0 1 -.23.23.22.22 0 0 1 -.19-.1l-1.52-1.87-.88.87v.88a.23.23 0 1 1 -.46 0v-3.63zm8.7-.8a.2.2 0 0 1 .2-.2.2.2 0 0 1 .19.2v5.23a.2.2 0 1 1 -.39 0zm6 4.15a.2.2 0 0 1 -.09-.17.22.22 0 0 1 .22-.22.21.21 0 0 1 .14.05 1.87 1.87 0 0 0 1.29.48c.55 0 .91-.29.91-.69 0-.37-.2-.59-1.06-.77s-1.37-.5-1.37-1.16a1.2 1.2 0 0 1 1.34-1.1 2.1 2.1 0 0 1 1.3.4.24.24 0 0 1 .1.19.22.22 0 0 1 -.22.22.22.22 0 0 1 -.13 0 1.72 1.72 0 0 0 -1.1-.44c-.53 0-.87.29-.87.65 0 .38.21.59 1.11.78s1.33.52 1.33 1.14c0 .69-.58 1.14-1.39 1.14a2.39 2.39 0 0 1 -1.55-.54m5.11-1.2v-2.14a.23.23 0 1 1 .46 0v2.17a1.19 1.19 0 0 0 1.25 1.36 1.16 1.16 0 0 0 1.23-1.33v-2.14a.23.23 0 1 1 .46 0v2.11a1.7 1.7 0 1 1 -3.4 0m5.63 1.2a.2.2 0 0 1 -.09-.17.22.22 0 0 1 .22-.22.2.2 0 0 1 .14.05 1.88 1.88 0 0 0 1.29.48c.55 0 .91-.29.91-.69 0-.37-.2-.59-1.06-.77s-1.37-.5-1.37-1.16a1.2 1.2 0 0 1 1.34-1.1 2.09 2.09 0 0 1 1.3.4.24.24 0 0 1 .1.19.22.22 0 0 1 -.22.22.22.22 0 0 1 -.13 0 1.72 1.72 0 0 0 -1.06-.35c-.53 0-.87.29-.87.65 0 .38.21.59 1.11.78s1.33.52 1.33 1.14c0 .69-.58 1.14-1.39 1.14a2.4 2.4 0 0 1 -1.54-.54m6.16-3.13h-1.24a.21.21 0 0 1 -.22-.21.22.22 0 0 1 .22-.21h2.83a.22.22 0 0 1 .22.21.21.21 0 0 1 -.22.21h-1.18v3.41a.23.23 0 0 1 -.47 0v-3.41zm6.12 2.13-.94-2.06-.94 2.06zm-2.88 1.18 1.66-3.58a.3.3 0 0 1 .29-.2.29.29 0 0 1 .29.2l1.66 3.57a.34.34 0 0 1 0 .12.22.22 0 0 1 -.22.22.25.25 0 0 1 -.23-.17l-.43-.93h-2.24l-.43.94a.23.23 0 0 1 -.22.15.21.21 0 0 1 -.21-.21.25.25 0 0 1 0-.12m6.15-3.53a.23.23 0 1 1 .46 0v3.63a.23.23 0 1 1 -.46 0zm2.95 0a.23.23 0 0 1 .23-.22h.06a.28.28 0 0 1 .23.13l2.48 3.12v-3a.22.22 0 1 1 .45 0v3.64a.21.21 0 0 1 -.21.21.32.32 0 0 1 -.24-.14l-2.53-3.2v3.12a.23.23 0 0 1 -.23.22.22.22 0 0 1 -.22-.22v-3.65z"/></g></svg>